<svg width="1589" height="89" viewBox="0 0 1589 89" fill="none" xmlns="http://www.w3.org/2000/svg">
<g clip-path="url(#clip0_7273_109313)">
<rect width="1589" height="89" fill="#15699C"/>
<g style="mix-blend-mode:overlay">
<circle cx="1253.08" cy="14.7715" r="232.421" fill="url(#paint0_radial_7273_109313)" fill-opacity="0.8"/>
</g>
<g filter="url(#filter0_f_7273_109313)">
<path d="M1243.13 -58.4395C1250.69 -57.6399 1257.45 -54.1671 1262.45 -48.9854L1293.62 -66.7959L1267.43 -42.2344C1269.89 -37.7419 1271.29 -32.5843 1271.29 -27.0986C1271.29 -25.3909 1271.16 -23.7152 1270.89 -22.0811L1300.59 -10.5449L1269.51 -16.6191C1267.48 -10.8553 1263.82 -5.86067 1259.08 -2.18555L1273.05 40L1248.77 3.11426C1245.92 3.96118 1242.9 4.41892 1239.78 4.41895C1236.24 4.41895 1232.84 3.83588 1229.67 2.76172L1214.4 22.8604L1221.92 -1.125C1216.91 -4.5781 1212.94 -9.44373 1210.6 -15.1494L1188.5 -12.9307L1208.51 -23.0977C1208.34 -24.4079 1208.26 -25.7433 1208.26 -27.0986C1208.26 -32.85 1209.8 -38.2412 1212.49 -42.8828L1188.5 -68.9277L1218.29 -50.1533C1223.79 -55.2857 1231.13 -58.4704 1239.22 -58.6104L1242.16 -85.4248L1243.13 -58.4395Z" fill="white"/>
</g>
<path d="M192.397 -32.0904L167.707 -40.8348L155.361 -26.9466L120.99 -11.5152C120.99 -11.5152 110.263 -1.30362 99.1619 -0.46104C88.0609 0.381535 73.6962 20.3273 73.6962 20.3273L53.4275 45.7931L35.7574 72.2983L31.0801 118.033V150H116.783H625.504L619.846 139.198L607.501 133.54L590.012 129.939H570.98L542.689 108.85L520.057 95.9901L496.395 85.7025C496.395 85.7025 442.819 54.3254 435.698 50.2104C428.578 46.0953 404.704 35.1732 395.577 32.2071C386.449 29.2409 375.19 13.6727 369.343 13.175C363.497 12.6773 354.276 28.5276 350.311 32.2071C346.347 35.8865 339.217 39.4464 331.794 40.4371C324.371 41.4279 300.416 54.3254 300.416 54.3254C300.416 54.3254 286.81 31.6067 278.813 26.5489C270.815 21.4911 258.501 20.1229 249.493 9.05998C240.485 -2.00291 225.831 -11.5152 225.831 -11.5152L192.397 -32.0904Z" fill="url(#paint1_linear_7273_109313)" fill-opacity="0.8"/>
<path d="M1303.77 4.90965C1309.59 0.906698 1324.66 -3.65413 1334.11 -3.15935C1343.57 -2.66457 1351.2 -1.91644 1360.17 4.90965C1369.15 11.7357 1382.97 24.8336 1394.32 25.4848C1405.67 26.136 1415.45 39.2216 1425.77 39.0726C1436.08 38.9235 1443.47 35.1899 1447.78 32.3334C1452.09 29.4769 1464.91 25.0701 1473.23 25.4848C1481.55 25.8995 1499.76 41.7316 1499.76 41.7316L1556.37 100.395L1465.08 187H1379.38H870.66L876.318 176.198L888.663 170.54L906.152 166.939H925.184L953.474 145.85L976.108 132.99L999.769 122.703L1060.68 118.306L1091.93 105.52L1127.45 101.258H1152.31H1179.31L1195.75 91.3254L1217.35 63.5489L1246.67 46.06L1270.33 25.4848C1270.33 25.4848 1297.95 8.9126 1303.77 4.90965Z" fill="url(#paint2_linear_7273_109313)" fill-opacity="0.8"/>
</g>
<defs>
<filter id="filter0_f_7273_109313" x="1151.5" y="-122.425" width="186.087" height="199.425" filterUnits="userSpaceOnUse" color-interpolation-filters="sRGB">
<feFlood flood-opacity="0" result="BackgroundImageFix"/>
<feBlend mode="normal" in="SourceGraphic" in2="BackgroundImageFix" result="shape"/>
<feGaussianBlur stdDeviation="18.5" result="effect1_foregroundBlur_7273_109313"/>
</filter>
<radialGradient id="paint0_radial_7273_109313" cx="0" cy="0" r="1" gradientUnits="userSpaceOnUse" gradientTransform="translate(1253.08 14.7715) rotate(90) scale(232.421)">
<stop stop-color="white"/>
<stop offset="1" stop-color="white" stop-opacity="0"/>
</radialGradient>
<linearGradient id="paint1_linear_7273_109313" x1="94.5184" y1="54.5826" x2="419.889" y2="50.8403" gradientUnits="userSpaceOnUse">
<stop stop-color="#294779" stop-opacity="0"/>
<stop offset="1" stop-color="#1C5596"/>
</linearGradient>
<linearGradient id="paint2_linear_7273_109313" x1="1296.76" y1="11.6782" x2="1485.22" y2="36.0519" gradientUnits="userSpaceOnUse">
<stop stop-color="#294779" stop-opacity="0"/>
<stop offset="1" stop-color="#1C5596"/>
</linearGradient>
<clipPath id="clip0_7273_109313">
<rect width="1589" height="89" fill="white"/>
</clipPath>
</defs>
</svg>
