<svg width="595" height="191" viewBox="0 0 595 191" fill="none" xmlns="http://www.w3.org/2000/svg">
<path d="M161.317 8.74445L136.627 0L124.281 13.8882L89.9098 29.3196C89.9098 29.3196 79.1829 39.5312 68.0818 40.3738C56.9808 41.2164 42.6161 61.1622 42.6161 61.1622L22.3474 86.628L4.67729 113.133L0 158.868V190.835H85.7029H594.424L588.766 180.033L576.421 174.375L558.932 170.774H539.9L511.609 149.684L488.976 136.825L465.315 126.537C465.315 126.537 411.738 95.1602 404.618 91.0452C397.498 86.9302 373.624 76.008 364.497 73.0419C355.369 70.0758 344.11 54.5076 338.263 54.0099C332.417 53.5121 323.196 69.3624 319.231 73.0419C315.267 76.7214 308.137 80.2812 300.714 81.272C293.29 82.2627 269.336 95.1602 269.336 95.1602C269.336 95.1602 255.73 72.4415 247.732 67.3837C239.735 62.3259 227.421 60.9577 218.413 49.8948C209.405 38.8319 194.751 29.3196 194.751 29.3196L161.317 8.74445Z" fill="url(#paint0_linear_7273_109408)" fill-opacity="0.8"/>
<defs>
<linearGradient id="paint0_linear_7273_109408" x1="63.4384" y1="95.4174" x2="388.809" y2="91.6751" gradientUnits="userSpaceOnUse">
<stop stop-color="#294779" stop-opacity="0"/>
<stop offset="1" stop-color="#1C5596"/>
</linearGradient>
</defs>
</svg>
