<svg width="153" height="56" viewBox="0 0 153 56" fill="none" xmlns="http://www.w3.org/2000/svg">
<g filter="url(#filter0_f_7140_12424)">
<path d="M126.538 11.8718H100.281L99.9592 21.2603C101.677 20.1904 103.584 19.4681 105.678 19.0937C107.772 18.7192 109.732 18.5587 111.557 18.6122C115.262 18.7727 118.376 19.6286 120.9 21.18C123.424 22.6779 125.33 24.7642 126.619 27.439C127.907 30.0603 128.552 33.163 128.552 36.7472C128.552 41.1874 127.585 44.9588 125.652 48.0615C123.773 51.1642 121.169 53.4913 117.84 55.0427C114.564 56.5941 110.859 57.3697 106.725 57.3698C103.986 57.3698 101.436 57.0221 99.0732 56.3266C96.7106 55.6312 94.6165 54.5613 92.7908 53.1169C90.9652 51.619 89.435 49.7199 88.2 47.4196C87.0187 45.1193 86.2401 42.4178 85.8643 39.315H98.5899C98.8584 40.171 99.3416 41.0804 100.04 42.0433C100.738 43.0063 101.677 43.782 102.859 44.3704C104.094 44.9588 105.57 45.253 107.288 45.253C109.168 45.253 110.671 44.932 111.799 44.2901C112.98 43.5947 113.866 42.6853 114.457 41.5619C115.047 40.385 115.343 39.1278 115.343 37.7904C115.343 35.4901 114.618 33.6177 113.168 32.1733C111.718 30.6755 109.571 29.9266 106.725 29.9266C105.114 29.9266 103.61 30.2208 102.214 30.8093C100.818 31.3442 99.449 32.0931 98.1067 33.056H87.3945L87.9584 -0.00415039H126.538V11.8718Z" fill="url(#paint0_linear_7140_12424)"/>
</g>
<g filter="url(#filter1_f_7140_12424)">
<path d="M80.4188 49.6332C79.5689 48.8178 78.5457 48.41 77.3494 48.41C76.1532 48.41 75.0985 48.8178 74.1856 49.6332C73.3041 50.4487 72.8635 51.5935 72.8635 53.0676C72.8635 54.5103 73.3042 55.608 74.1856 56.3607C75.067 57.1135 76.1059 57.4899 77.3022 57.4899C78.5299 57.4899 79.5689 57.1135 80.4188 56.3607C81.3003 55.608 81.7409 54.4946 81.7409 53.0205C81.7409 51.5464 81.3003 50.4173 80.4188 49.6332Z" fill="url(#paint1_linear_7140_12424)"/>
<path d="M56.0145 -1.60044C53.6348 -2.20695 51.172 -2.51013 48.6262 -2.51013C45.859 -2.51013 43.1748 -2.15178 40.5737 -1.43499C38.0279 -0.718197 35.7312 0.384597 33.6835 1.87332C31.6358 3.30691 29.9478 5.15403 28.6195 7.41468C27.3466 9.67532 26.5441 12.3771 26.2121 15.5199H39.2455C39.4115 14.362 39.882 13.3695 40.6568 12.5425C41.4316 11.7154 42.4554 11.0813 43.7282 10.6402C45.0011 10.144 46.4125 9.89586 47.9621 9.89586C49.4563 9.89586 50.7569 10.1164 51.8638 10.5575C52.9706 10.9435 53.8008 11.55 54.3542 12.377C54.963 13.2041 55.2674 14.2794 55.2674 15.6027C55.2674 16.4297 55.1014 17.2016 54.7693 17.9184C54.4926 18.6352 54.0222 19.2693 53.358 19.8207C52.6939 20.3169 51.8914 20.7029 50.9506 20.9786C50.0098 21.2543 48.9029 21.3922 47.6301 21.3922H42.5661V32.723H49.8714C50.9783 32.723 52.0021 32.8609 52.9429 33.1366C53.8837 33.3571 54.6863 33.7155 55.3504 34.2117C56.0145 34.6528 56.5127 35.2594 56.8447 36.0313C57.2321 36.7481 57.4258 37.6027 57.4258 38.5952C57.4258 39.8082 57.2044 40.8008 56.7616 41.5727C56.3189 42.3446 55.6824 42.9786 54.8523 43.4748C54.0221 43.9711 53.0814 44.3295 52.0298 44.5501C50.9783 44.7706 49.816 44.8809 48.5431 44.8809C46.7722 44.8809 45.1119 44.6604 43.5623 44.2193C42.0127 43.7231 40.7121 42.9786 39.6606 41.9861C38.6644 40.9937 38.0279 39.7531 37.7512 38.2644H24.5518C24.8838 41.6278 25.7693 44.5225 27.2082 46.9486C28.6472 49.3195 30.4458 51.3045 32.6042 52.9035C34.8179 54.4474 37.2808 55.5777 39.9926 56.2945C42.7044 57.0113 45.527 57.3697 48.4602 57.3697C51.2827 57.3697 54.0222 57.0664 56.6787 56.4599C59.3352 55.8533 61.7426 54.8609 63.901 53.4824C66.0594 52.0489 67.775 50.1466 69.0479 47.7756C70.3208 45.4047 70.9573 42.5099 70.9573 39.0914C70.9573 36.9962 70.6252 35.0388 69.9611 33.2192C69.3523 31.3446 68.4115 29.718 67.1386 28.3396C65.8657 26.906 64.2331 25.8307 62.2407 25.1139C63.5136 24.3971 64.6205 23.4598 65.5613 22.302C66.5575 21.1441 67.3323 19.8207 67.8857 18.332C68.4391 16.8433 68.7159 15.2719 68.7159 13.6177C68.7159 10.6954 68.1348 8.21419 66.9726 6.1741C65.8657 4.07887 64.3438 2.39713 62.4068 1.12896C60.5251 -0.13921 58.3943 -1.04906 56.0145 -1.60044Z" fill="url(#paint2_linear_7140_12424)"/>
</g>
<path d="M77.2318 48.635C78.4306 48.635 79.4346 49.0083 80.2438 49.7547M77.2318 48.635C76.033 48.635 75.014 49.0232 74.1748 49.7995M77.2318 48.635L78.7378 52.4196L80.2438 56.2042M80.2438 49.7547C81.053 50.5012 81.4575 51.5762 81.4575 52.9795M80.2438 49.7547L72.961 52.9795M80.2438 49.7547L74.1748 56.2042M81.4575 52.9795C81.4575 54.4128 81.053 55.4876 80.2438 56.2042M81.4575 52.9795L77.2318 57.2792M81.4575 52.9795L74.1748 49.7995M80.2438 56.2042C79.4346 56.9208 78.4306 57.2792 77.2318 57.2792M80.2438 56.2042L72.961 52.9795M80.2438 56.2042L74.1748 49.7995M80.2438 56.2042H74.1748M77.2318 57.2792C76.003 57.2792 74.984 56.9209 74.1748 56.2042M77.2318 57.2792L74.1748 56.2042M74.1748 56.2042C73.3656 55.4876 72.9611 54.4128 72.961 52.9795M72.961 52.9795C72.961 51.606 73.3656 50.546 74.1748 49.7995M49.173 0.0591504C51.5966 0.0591504 53.9677 0.347838 56.286 0.925257M49.173 0.0591504C46.4332 0.0591506 43.8514 0.400342 41.4278 1.08274M49.173 0.0591504L30.5213 9.66526M49.173 0.0591504L66.8763 21.6337M56.286 0.925257C58.6569 1.45019 60.7381 2.31626 62.5295 3.52358M56.286 0.925257L48.7778 11.7124M56.286 0.925257L62.5295 3.52358M56.286 0.925257L55.4165 16.9093M56.286 0.925257L62.3714 26.2793M62.5295 3.52358C64.3736 4.73091 65.8488 6.30578 66.9553 8.24802M62.5295 3.52358L53.4408 13.1298M62.5295 3.52358L68.615 15.2558M66.9553 8.24802C68.0617 10.1378 68.615 12.4737 68.615 15.2558M66.9553 8.24802L41.4278 1.08274M66.9553 8.24802L55.1795 18.7202M68.615 15.2558C68.615 17.513 68.0355 19.6389 66.8763 21.6337M68.615 15.2558L53.4408 13.1298M68.615 15.2558L52.0971 22.3423M66.8763 21.6337C65.7699 23.6284 64.2682 25.1769 62.3714 26.2793M62.3714 26.2793C65.1639 27.3292 67.2451 29.0614 68.615 31.4761M62.3714 26.2793L54.231 20.6887M62.3714 26.2793L56.602 42.0271M68.615 31.4761C70.0376 33.8382 70.7225 36.5154 70.6698 39.5074M68.615 31.4761L44.0358 22.9722M68.615 31.4761L44.0358 33.5233M70.6698 39.5074C70.6171 42.9195 69.9059 45.7541 68.536 48.0113M70.6698 39.5074L52.0971 22.3423M70.6698 39.5074L44.0358 28.2477M70.6698 39.5074L54.8633 43.9956M68.536 48.0113C67.2188 50.2685 65.4801 52.0795 63.3199 53.4443M68.536 48.0113L57.3134 39.035M68.536 48.0113L52.2552 45.0192M63.3199 53.4443C61.1596 54.8092 58.8413 55.754 56.3649 56.279M63.3199 53.4443L43.0084 43.9168M63.3199 53.4443L33.6826 52.4206M56.3649 56.279C53.9413 56.8039 51.5176 57.0663 49.094 57.0663M56.3649 56.279L56.602 42.0271M49.094 57.0663L54.8633 43.9956M49.094 57.0663C45.8122 57.0663 42.801 56.612 40.0602 55.7035M33.6826 52.4206L39.4519 38.9563M33.6826 52.4206C31.9416 51.1197 30.5287 49.5905 29.4438 47.8329M33.6826 52.4206L49.2521 45.3342M33.6826 52.4206C35.6147 53.8403 37.7406 54.9346 40.0602 55.7035M26.8066 38.9563H39.4519M26.8066 38.9563L43.0084 43.9168M26.8066 38.9563C27.0231 42.3763 27.9022 45.3352 29.4438 47.8329M39.4519 38.9563C39.9788 41.266 41.1643 42.9194 43.0084 43.9168M43.0084 43.9168C44.8525 44.8617 46.9338 45.3342 49.2521 45.3342M43.0084 43.9168L29.4438 47.8329M49.2521 45.3342C50.3058 45.3342 51.3068 45.2291 52.2552 45.0192M52.2552 45.0192C53.2563 44.8092 54.1257 44.468 54.8633 43.9956M52.2552 45.0192L40.0602 55.7035M54.8633 43.9956C55.6009 43.4707 56.1805 42.8145 56.602 42.0271M56.602 42.0271C57.0762 41.1872 57.3134 40.1898 57.3134 39.035M57.3134 39.035C57.3134 37.5652 56.8128 36.2791 55.8117 35.1768M55.8117 35.1768C54.8107 34.0744 53.0456 33.5233 50.5165 33.5233M55.8117 35.1768L48.3826 22.9722M50.5165 33.5233H44.0358M50.5165 33.5233L54.231 20.6887M44.0358 33.5233V28.2477M44.0358 22.9722H48.3826M44.0358 22.9722V28.2477M48.3826 22.9722C49.9105 22.9722 51.1487 22.7622 52.0971 22.3423M52.0971 22.3423C53.0455 21.8698 53.7568 21.3187 54.231 20.6887M54.231 20.6887C54.7579 20.0588 55.0741 19.4026 55.1795 18.7202M55.1795 18.7202C55.3375 17.9854 55.4165 17.3818 55.4165 16.9093M55.4165 16.9093C55.3638 15.2821 54.7053 14.0222 53.4408 13.1298M53.4408 13.1298C52.229 12.185 50.6746 11.7125 48.7778 11.7124M48.7778 11.7124C46.6176 11.7124 44.8262 12.2112 43.4036 13.2085M48.7778 11.7124L35.1051 4.23233M43.4036 13.2085C42.0337 14.2059 41.1906 15.5969 40.8745 17.3817H28.3874M43.4036 13.2085L41.4278 1.08274M28.3874 17.3817C28.6508 14.3896 29.3621 11.8175 30.5213 9.66526M28.3874 17.3817L41.4278 1.08274M30.5213 9.66526C31.7331 7.46059 33.2611 5.64962 35.1051 4.23233M35.1051 4.23233C36.9492 2.81502 39.0568 1.76515 41.4278 1.08274M126.048 11.4373V-0.0585938M126.048 11.4373H112.342M126.048 11.4373L107.87 -0.0585938M100.916 11.4373C100.81 12.9596 100.678 14.5082 100.52 16.083M100.916 11.4373H112.342M100.916 11.4373L89.2721 7.42165M100.52 16.083C100.415 17.6577 100.283 19.2062 100.125 20.7285M100.52 16.083L87.5591 32.3032M100.125 20.7285C101.811 19.8361 103.471 19.2325 105.104 18.9176M100.125 20.7285L89.693 -0.0585938M100.125 20.7285L88.6655 16.083M100.125 20.7285L102.654 30.0986M100.125 20.7285L123.519 23.3269M100.125 20.7285L107.238 29.3111M105.104 18.9176C106.79 18.5501 108.45 18.3663 110.083 18.3663M105.104 18.9176L123.519 23.3269M105.104 18.9176L110.637 30.0198M110.083 18.3663C112.981 18.3663 115.563 18.8125 117.829 19.7049M110.083 18.3663L98.7817 32.3032M110.083 18.3663L127.075 29.0748M110.083 18.3663L126.601 44.9014M117.829 19.7049C120.094 20.5448 121.991 21.7522 123.519 23.3269M117.829 19.7049L110.637 30.0198M117.829 19.7049L107.238 29.3111M123.519 23.3269C125.1 24.9017 126.285 26.8177 127.075 29.0748M123.519 23.3269L113.166 31.752M123.519 23.3269L115.22 36.9489M127.075 29.0748C127.866 31.2795 128.261 33.7468 128.261 36.4764M127.075 29.0748L110.637 30.0198M128.261 36.4764C128.261 39.626 127.708 42.4343 126.601 44.9014M128.261 36.4764L114.667 34.1929M128.261 36.4764L113.166 31.752M126.601 44.9014C125.547 47.3161 124.072 49.3897 122.175 51.1219M126.601 44.9014L114.667 34.1929M126.601 44.9014L106.922 44.5078M122.175 51.1219C120.331 52.8017 118.118 54.0878 115.537 54.9801M122.175 51.1219L106.922 44.5078M115.537 54.9801C112.955 55.82 110.162 56.2399 107.159 56.2399M115.537 54.9801L115.22 36.9489M107.159 56.2399L113.245 42.3818M107.159 56.2399L92.8937 38.4449M107.159 56.2399L106.922 44.5078M107.159 56.2399L101.706 42.6968M107.159 56.2399C104.046 56.2399 101.253 55.8456 98.7817 55.0571M93.0122 52.0667C89.4295 49.2321 87.2956 44.6915 86.6107 38.4449M93.0122 52.0667L92.8937 38.4449M93.0122 52.0667L106.922 44.5078M93.0122 52.0667L86.6107 38.4449M93.0122 52.0667C94.6877 53.3677 96.6108 54.3645 98.7817 55.0571M86.6107 38.4449H92.8937M86.6107 38.4449L101.706 42.6968M99.1768 38.4449C99.5456 40.1247 100.389 41.5419 101.706 42.6968M99.1768 38.4449H92.8937M99.1768 38.4449L98.7817 55.0571M101.706 42.6968C103.076 43.7991 104.814 44.4028 106.922 44.5078M106.922 44.5078C109.82 44.5078 111.927 43.7991 113.245 42.3818M113.245 42.3818C114.562 40.9645 115.22 39.1535 115.22 36.9489M115.22 36.9489C115.22 36.004 115.036 35.0853 114.667 34.1929M114.667 34.1929C114.351 33.2481 113.851 32.4344 113.166 31.752M113.166 31.752C112.481 31.0171 111.638 30.4397 110.637 30.0198M110.637 30.0198C109.688 29.5473 108.555 29.3111 107.238 29.3111M107.238 29.3111C105.552 29.3111 104.024 29.5736 102.654 30.0986M102.654 30.0986C101.284 30.6235 99.9935 31.3584 98.7817 32.3032M98.7817 32.3032H87.5591M98.7817 32.3032L88.6655 16.083M87.5591 32.3032C87.9279 26.8965 88.2967 21.4897 88.6655 16.083M88.6655 16.083L107.87 -0.0585938M88.6655 16.083C88.8901 13.1735 89.0923 10.2864 89.2721 7.42165M89.693 -0.0585938H107.87M89.693 -0.0585938L112.342 11.4373M89.693 -0.0585938C89.57 2.41764 89.4297 4.91106 89.2721 7.42165M126.048 -0.0585938L112.342 11.4373M126.048 -0.0585938H107.87M112.342 11.4373L107.87 -0.0585938" stroke="#54FFE6" stroke-opacity="0.8" stroke-width="0.5" stroke-linejoin="round"/>
<defs>
<filter id="filter0_f_7140_12424" x="61.8643" y="-24.0042" width="90.6875" height="105.374" filterUnits="userSpaceOnUse" color-interpolation-filters="sRGB">
<feFlood flood-opacity="0" result="BackgroundImageFix"/>
<feBlend mode="normal" in="SourceGraphic" in2="BackgroundImageFix" result="shape"/>
<feGaussianBlur stdDeviation="12" result="effect1_foregroundBlur_7140_12424"/>
</filter>
<filter id="filter1_f_7140_12424" x="0.551758" y="-26.5101" width="105.189" height="108" filterUnits="userSpaceOnUse" color-interpolation-filters="sRGB">
<feFlood flood-opacity="0" result="BackgroundImageFix"/>
<feBlend mode="normal" in="SourceGraphic" in2="BackgroundImageFix" result="shape"/>
<feGaussianBlur stdDeviation="12" result="effect1_foregroundBlur_7140_12424"/>
</filter>
<linearGradient id="paint0_linear_7140_12424" x1="38.2483" y1="-19.2706" x2="126.155" y2="69.042" gradientUnits="userSpaceOnUse">
<stop stop-opacity="0"/>
<stop offset="0.16" stop-color="#1DD3B0"/>
<stop offset="0.84" stop-color="#1DD3B0"/>
<stop offset="1" stop-opacity="0"/>
</linearGradient>
<linearGradient id="paint1_linear_7140_12424" x1="37.7885" y1="-21.6236" x2="128.394" y2="69.4004" gradientUnits="userSpaceOnUse">
<stop stop-opacity="0"/>
<stop offset="0.16" stop-color="#1DD3B0"/>
<stop offset="0.84" stop-color="#1DD3B0"/>
<stop offset="1" stop-opacity="0"/>
</linearGradient>
<linearGradient id="paint2_linear_7140_12424" x1="37.7885" y1="-21.6236" x2="128.394" y2="69.4004" gradientUnits="userSpaceOnUse">
<stop stop-opacity="0"/>
<stop offset="0.16" stop-color="#1DD3B0"/>
<stop offset="0.84" stop-color="#1DD3B0"/>
<stop offset="1" stop-opacity="0"/>
</linearGradient>
</defs>
</svg>
