<svg width="64" height="62" viewBox="0 0 64 62" fill="none" xmlns="http://www.w3.org/2000/svg">
<path fill-rule="evenodd" clip-rule="evenodd" d="M53.833 32.4323C54.459 32.2547 54.9946 31.7612 55.4069 31.3218C55.8162 30.8824 56.1021 30.4942 56.5204 30.2444C56.9387 29.9946 57.4894 29.8833 58.0853 30.0277C58.6812 30.1722 59.3222 30.5724 59.277 31.069C59.2319 31.5656 58.5066 32.1554 57.9439 32.9017C57.3811 33.6481 56.9839 34.5479 56.9056 35.5591C56.8304 36.5702 57.0772 37.6897 57.1735 38.7159C57.2698 39.7422 57.2156 40.6691 57.1163 41.5418C57.017 42.4145 56.8725 43.2331 56.5625 43.9553C56.2526 44.6776 55.7771 45.3096 55.5454 45.9145C55.3136 46.5194 55.3287 47.1002 55.7711 49.2489C56.2104 51.3976 57.0772 55.1143 57.4353 57.0223C57.7934 58.9272 57.6429 59.0235 56.2435 59.4539C54.8442 59.8842 52.1989 60.6516 50.8747 61.0338C49.5536 61.416 49.5536 61.416 49.3279 59.5201C49.0992 57.6211 48.6478 53.8232 48.1572 51.3585C47.6667 48.8938 47.137 47.7593 46.496 46.6849C45.852 45.6105 45.0936 44.5964 44.3323 43.5882C43.5709 42.5831 42.8065 41.5809 42.4363 40.964C42.0662 40.344 42.0932 40.1093 42.2738 39.7572C42.4514 39.4051 42.7794 38.9386 43.2368 38.0328C43.6943 37.124 44.2811 35.7818 45.217 34.6833C46.153 33.5849 47.438 32.7302 48.5906 32.3811C49.7432 32.032 50.7604 32.1885 51.6271 32.333C52.4908 32.4774 53.207 32.6128 53.833 32.4323Z" fill="#FFE2BD" stroke="#385362" stroke-width="0.998481" stroke-miterlimit="22.9256"/>
<path d="M25.7931 36.9287C21.3174 36.4618 18.5202 28.1177 19.5453 18.2917C20.5705 8.46573 25.0298 0.878734 29.5055 1.34568C33.9811 1.81263 36.7783 10.1567 35.7532 19.9827C34.728 29.8087 30.2687 37.3957 25.7931 36.9287Z" fill="#FF6F3D" stroke="#385362" stroke-width="1.10521" stroke-miterlimit="22.9256"/>
<path fill-rule="evenodd" clip-rule="evenodd" d="M35.7393 17.1856C33.3979 16.9449 31.0596 16.7041 28.7183 16.4634C28.5257 18.3202 28.3301 20.177 28.1375 22.0368C30.4066 22.6869 32.6757 23.3369 34.9448 23.9869C35.1404 22.9306 35.336 21.8743 35.4684 20.7428C35.6008 19.6082 35.67 18.3954 35.7393 17.1856Z" fill="#FF6F3D" stroke="#385362" stroke-width="0.998481" stroke-miterlimit="22.9256"/>
<path d="M28.1379 22.0355C27.4903 21.9574 27.0951 20.6465 27.2553 19.1075C27.4155 17.5686 28.0704 16.3844 28.718 16.4625C29.3656 16.5407 29.7608 17.8516 29.6006 19.3905C29.4404 20.9294 28.7855 22.1136 28.1379 22.0355Z" fill="white" stroke="#385362" stroke-miterlimit="22.9256"/>
<path fill-rule="evenodd" clip-rule="evenodd" d="M57.3808 28.6377C57.7991 28.7039 58.2324 28.716 58.6748 28.6768C61.591 28.403 63.7337 25.8179 63.4598 22.8988C63.2311 20.4491 61.3713 18.5471 59.054 18.1619L59.048 18.1619C58.9035 18.1378 58.7561 18.1198 58.6056 18.1078C55.5842 17.7376 52.5868 17.3644 50.0619 16.8528C47.4136 16.3141 45.2829 15.622 43.4742 14.7342C41.6626 13.8434 40.1729 12.754 38.4967 10.9032C36.8204 9.0524 34.9576 6.43721 33.0947 3.82202L33.0917 3.82202C35.3398 7.07822 36.4623 13.1753 35.7521 19.9826C35.1291 25.9593 33.2362 31.1085 30.8407 34.1209C31.3553 33.531 31.8669 32.9593 32.3574 32.4446C33.0677 31.6953 33.7388 31.0663 34.4941 30.4795C35.2465 29.8957 36.0861 29.354 37.2056 28.7762C38.3281 28.1983 39.7305 27.5874 41.7649 27.3708C43.8023 27.1541 46.4686 27.3316 49.1771 27.6085C51.8856 27.8854 54.6332 28.2615 57.3778 28.6377L57.3808 28.6377Z" fill="#9ADAF3"/>
<path d="M30.1305 34.9334L30.1425 34.9184M57.3808 28.6377C57.7991 28.7039 58.2324 28.716 58.6748 28.6768C61.591 28.403 63.7337 25.8179 63.4598 22.8988C63.2311 20.4491 61.3713 18.5471 59.054 18.1619L59.048 18.1619C58.9035 18.1378 58.7561 18.1198 58.6056 18.1078C55.5842 17.7376 52.5868 17.3644 50.0619 16.8528C47.4136 16.3141 45.2829 15.622 43.4742 14.7342C41.6626 13.8434 40.1729 12.754 38.4967 10.9032C36.8204 9.0524 34.9576 6.43721 33.0947 3.82202L33.0917 3.82202C35.3398 7.07822 36.4623 13.1753 35.7521 19.9826C35.1291 25.9593 33.2362 31.1085 30.8407 34.1209C31.3553 33.531 31.8669 32.9593 32.3574 32.4446C33.0677 31.6953 33.7388 31.0663 34.4941 30.4795C35.2465 29.8957 36.0861 29.354 37.2056 28.7762C38.3281 28.1983 39.7305 27.5874 41.7649 27.3708C43.8023 27.1541 46.4686 27.3316 49.1771 27.6085C51.8856 27.8854 54.6332 28.2615 57.3778 28.6377L57.3808 28.6377Z" stroke="#385362" stroke-width="0.998481" stroke-miterlimit="22.9256"/>
<path fill-rule="evenodd" clip-rule="evenodd" d="M57.3808 28.6378C57.7991 28.704 58.2324 28.7161 58.6748 28.677C61.591 28.4031 63.7337 25.818 63.4598 22.8989C63.2311 20.4492 61.3713 18.5472 59.054 18.162L59.048 18.162C58.9035 18.138 58.7561 18.1199 58.6056 18.1079C56.821 17.8882 55.0425 17.6685 53.3632 17.4187L52.015 27.9276C53.7966 28.1473 55.5872 28.3941 57.3778 28.6378L57.3808 28.6378Z" fill="#D9F4FF" stroke="#385362" stroke-width="0.998481" stroke-miterlimit="22.9256"/>
<path fill-rule="evenodd" clip-rule="evenodd" d="M53.3623 17.4186C52.5016 17.2922 51.665 17.1538 50.8705 17.0063L49.5042 27.6416C50.3348 27.7289 51.1745 27.8252 52.0141 27.9275L53.3623 17.4186Z" fill="white" stroke="#385362" stroke-width="0.998481" stroke-miterlimit="22.9256"/>
<path fill-rule="evenodd" clip-rule="evenodd" d="M44.373 50.784C50.4972 46.8838 54.6352 38.3671 55.0625 28.3247C53.2087 28.0749 51.3579 27.8371 49.5252 27.6445C48.499 35.5533 45.1164 42.2041 40.3224 45.8907C40.199 46.0411 40.0786 46.1766 39.9823 46.324C39.7325 46.7032 39.6151 47.1576 40.1267 48.0514C40.6383 48.9452 41.7759 50.2784 42.7118 50.7238C43.3227 51.0157 43.8464 50.9284 44.373 50.784Z" fill="#9ADAF3" stroke="#385362" stroke-width="0.998481" stroke-miterlimit="22.9256"/>
<path fill-rule="evenodd" clip-rule="evenodd" d="M45.562 30.3051C46.4197 30.5127 47.9967 30.919 49.053 31.2892C50.1093 31.6593 50.6419 31.9964 50.8857 32.4117C51.1295 32.827 51.0843 33.3265 50.9339 33.6275C50.7834 33.9314 50.5306 34.0398 50.0912 34.0458C49.6518 34.0488 49.0289 33.9525 47.9846 33.6756C46.9434 33.4018 45.4808 32.9473 44.5689 32.6133C43.6601 32.2762 43.302 32.0566 43.1575 31.7285C43.0131 31.3975 43.0793 30.9581 43.2147 30.6512C43.3531 30.3412 43.5608 30.1666 43.7774 30.0914C43.9911 30.0162 44.2168 30.0433 44.3944 30.0643C44.5749 30.0824 44.7074 30.0944 45.562 30.3051Z" fill="#FFE2BD" stroke="#385362" stroke-width="0.998481" stroke-miterlimit="22.9256"/>
<path fill-rule="evenodd" clip-rule="evenodd" d="M49.5172 34.0004C49.9596 34.0876 50.4049 34.1719 50.736 34.3013C51.067 34.4307 51.2837 34.6022 51.4673 34.855C51.6509 35.1078 51.8013 35.4359 51.7803 35.788C51.7592 36.1371 51.5666 36.5072 51.3048 36.745C51.0429 36.9827 50.7089 37.091 50.414 37.1151C50.1221 37.1362 49.8663 37.07 48.5481 36.7209C47.23 36.3688 44.8526 35.7278 43.5555 35.3365C42.2584 34.9423 42.0448 34.7918 41.9154 34.539C41.786 34.2863 41.7438 33.9281 41.8161 33.5821C41.8883 33.236 42.0749 32.9049 42.3246 32.7123C42.5714 32.5197 42.8814 32.4686 43.2636 32.4746C43.6488 32.4806 44.1092 32.5468 44.9459 32.7665C45.7825 32.9862 46.9923 33.3594 47.8168 33.5911C48.6384 33.8228 49.0748 33.9131 49.5172 34.0004Z" fill="#FFE2BD" stroke="#385362" stroke-width="0.998481" stroke-miterlimit="22.9256"/>
<path fill-rule="evenodd" clip-rule="evenodd" d="M49.0318 36.9316C49.727 37.2055 49.9768 37.4493 50.1122 37.7231C50.2446 37.997 50.2657 38.3009 50.2115 38.6079C50.1543 38.9148 50.0219 39.2248 49.7872 39.4475C49.5494 39.6732 49.2094 39.8087 48.6917 39.7966C48.1741 39.7846 47.485 39.6251 46.3354 39.3422C45.1828 39.0593 43.5757 38.653 42.6308 38.325C41.6858 37.994 41.4059 37.7382 41.2525 37.4011C41.099 37.0671 41.0779 36.6488 41.1802 36.2756C41.2825 35.9024 41.5113 35.5684 41.7821 35.3728C42.0499 35.1741 42.3599 35.1079 42.706 35.138C43.0551 35.1681 43.4403 35.2915 44.0031 35.457C44.5658 35.6256 45.3061 35.8362 46.2481 36.092C47.19 36.3508 48.3336 36.6578 49.0318 36.9316Z" fill="#FFE2BD" stroke="#385362" stroke-width="0.998481" stroke-miterlimit="22.9256"/>
<path fill-rule="evenodd" clip-rule="evenodd" d="M46.3412 39.3422C46.7234 39.4324 47.1146 39.5257 47.3072 39.7605C47.4998 39.9952 47.4968 40.3684 47.3674 40.6783C47.238 40.9883 46.9822 41.2321 46.5488 41.3374C46.1185 41.4427 45.5106 41.4066 44.7913 41.3073C44.072 41.208 43.2445 41.0425 42.6576 40.8439C42.0678 40.6483 41.7187 40.4165 41.514 40.1637C41.3094 39.914 41.2492 39.6401 41.3154 39.3602C41.3816 39.0803 41.5742 38.7914 41.7668 38.5988C41.9594 38.4062 42.149 38.3099 42.474 38.337C42.7961 38.3641 43.2535 38.5116 43.732 38.653C44.2105 38.7914 44.71 38.9269 45.1464 39.0412C45.5858 39.1556 45.959 39.2489 46.3412 39.3422Z" fill="#FFE2BD" stroke="#385362" stroke-width="0.998481" stroke-miterlimit="22.9256"/>
<path d="M0.594727 27.9275L23.6553 22.9414" stroke="#9ADAF3" stroke-linecap="round"/>
<path d="M11.1904 7.36L24.9021 14.8391" stroke="#9ADAF3" stroke-linecap="round"/>
<path d="M12.4365 16.0857L23.6552 17.3322" stroke="#9ADAF3" stroke-linecap="round"/>
</svg>
