<svg width="68" height="48" viewBox="0 0 68 48" fill="none" xmlns="http://www.w3.org/2000/svg">
<path d="M12.3316 10.98C14.3716 10.98 16.1516 11.3467 17.6716 12.08C19.2049 12.8 20.3982 13.96 21.2516 15.56C22.1049 17.1467 22.5316 19.26 22.5316 21.9C22.5316 24.9933 21.9649 27.58 20.8316 29.66C19.6982 31.7267 18.0582 33.28 15.9116 34.32C13.7649 35.3467 11.1649 35.86 8.11156 35.86C6.8849 35.86 5.9449 35.6333 5.29156 35.18C4.63823 34.7133 4.31156 34.12 4.31156 33.4C4.31156 32.6667 4.6249 32.0933 5.25156 31.68C5.87823 31.2533 6.79156 31.04 7.99156 31.04C9.45823 31.04 10.6982 30.8533 11.7116 30.48C12.7249 30.1067 13.5382 29.5467 14.1516 28.8C14.7782 28.0533 15.2249 27.1333 15.4916 26.04C14.8116 26.6133 14.0316 27.08 13.1516 27.44C12.2716 27.8 11.3182 27.98 10.2916 27.98C8.77156 27.98 7.43823 27.66 6.29156 27.02C5.1449 26.3667 4.25156 25.4267 3.61156 24.2C2.9849 22.96 2.67156 21.44 2.67156 19.64C2.67156 17.8533 3.05156 16.3133 3.81156 15.02C4.5849 13.7267 5.69156 12.7333 7.13156 12.04C8.57156 11.3333 10.3049 10.98 12.3316 10.98ZM8.93156 19.66C8.93156 20.6067 9.07156 21.3867 9.35156 22C9.6449 22.6 10.0382 23.0467 10.5316 23.34C11.0382 23.62 11.6116 23.76 12.2516 23.76C12.9449 23.76 13.5516 23.6133 14.0716 23.32C14.5916 23.0267 15.0182 22.58 15.3516 21.98C15.6982 21.38 15.9116 20.64 15.9916 19.76C15.8982 18.6267 15.6849 17.7533 15.3516 17.14C15.0182 16.5133 14.5916 16.08 14.0716 15.84C13.5649 15.6 12.9849 15.48 12.3316 15.48C11.1849 15.48 10.3316 15.82 9.77156 16.5C9.21156 17.18 8.93156 18.2333 8.93156 19.66ZM28.8972 36.88C28.0039 36.88 27.1905 36.66 26.4572 36.22C25.7239 35.7933 25.1372 35.2133 24.6972 34.48C24.2705 33.7333 24.0572 32.92 24.0572 32.04C24.0572 31.1333 24.2705 30.3133 24.6972 29.58C25.1372 28.8467 25.7239 28.2667 26.4572 27.84C27.1905 27.4133 28.0039 27.2 28.8972 27.2C29.7905 27.2 30.5972 27.4133 31.3172 27.84C32.0505 28.2667 32.6305 28.8467 33.0572 29.58C33.4972 30.3133 33.7172 31.1333 33.7172 32.04C33.7172 32.92 33.4972 33.7333 33.0572 34.48C32.6305 35.2133 32.0505 35.7933 31.3172 36.22C30.5972 36.66 29.7905 36.88 28.8972 36.88ZM51.0428 36.38C50.0561 36.38 49.2761 36.12 48.7028 35.6C48.1295 35.08 47.8428 34.18 47.8428 32.9V30.06H40.3628C39.2028 30.06 38.2895 29.8133 37.6228 29.32C36.9695 28.8267 36.6428 28.1 36.6428 27.14C36.6428 26.7 36.7161 26.18 36.8628 25.58C37.0228 24.98 37.1761 24.4133 37.3228 23.88L40.7628 13.18C41.0028 12.42 41.3895 11.8667 41.9228 11.52C42.4695 11.16 43.0695 10.98 43.7228 10.98C44.3628 10.98 44.9428 11.1933 45.4628 11.62C45.9961 12.0467 46.2628 12.6733 46.2628 13.5C46.2628 13.66 46.2561 13.8267 46.2428 14C46.2295 14.1733 46.1895 14.36 46.1228 14.56L42.6828 25.58H47.8828V17.12C47.8828 16.3067 48.0295 15.68 48.3228 15.24C48.6295 14.7867 49.0095 14.4667 49.4628 14.28C49.9295 14.08 50.3895 13.98 50.8428 13.98C51.3228 13.98 51.7895 14.08 52.2428 14.28C52.6961 14.4667 53.0695 14.7867 53.3628 15.24C53.6695 15.68 53.8228 16.3067 53.8228 17.12V25.58H54.9828C55.8361 25.58 56.5028 25.7733 56.9828 26.16C57.4761 26.5467 57.7228 27.1 57.7228 27.82C57.7228 28.5533 57.4761 29.1133 56.9828 29.5C56.5028 29.8733 55.8361 30.06 54.9828 30.06H53.8228V32.9C53.8228 34.18 53.5495 35.08 53.0028 35.6C52.4561 36.12 51.8028 36.38 51.0428 36.38Z" fill="#CCDBFB"/>
<path d="M12.3316 10.98C14.3716 10.98 16.1516 11.3467 17.6716 12.08C19.2049 12.8 20.3982 13.96 21.2516 15.56C22.1049 17.1467 22.5316 19.26 22.5316 21.9C22.5316 24.9933 21.9649 27.58 20.8316 29.66C19.6982 31.7267 18.0582 33.28 15.9116 34.32C13.7649 35.3467 11.1649 35.86 8.11156 35.86C6.8849 35.86 5.9449 35.6333 5.29156 35.18C4.63823 34.7133 4.31156 34.12 4.31156 33.4C4.31156 32.6667 4.6249 32.0933 5.25156 31.68C5.87823 31.2533 6.79156 31.04 7.99156 31.04C9.45823 31.04 10.6982 30.8533 11.7116 30.48C12.7249 30.1067 13.5382 29.5467 14.1516 28.8C14.7782 28.0533 15.2249 27.1333 15.4916 26.04C14.8116 26.6133 14.0316 27.08 13.1516 27.44C12.2716 27.8 11.3182 27.98 10.2916 27.98C8.77156 27.98 7.43823 27.66 6.29156 27.02C5.1449 26.3667 4.25156 25.4267 3.61156 24.2C2.9849 22.96 2.67156 21.44 2.67156 19.64C2.67156 17.8533 3.05156 16.3133 3.81156 15.02C4.5849 13.7267 5.69156 12.7333 7.13156 12.04C8.57156 11.3333 10.3049 10.98 12.3316 10.98ZM8.93156 19.66C8.93156 20.6067 9.07156 21.3867 9.35156 22C9.6449 22.6 10.0382 23.0467 10.5316 23.34C11.0382 23.62 11.6116 23.76 12.2516 23.76C12.9449 23.76 13.5516 23.6133 14.0716 23.32C14.5916 23.0267 15.0182 22.58 15.3516 21.98C15.6982 21.38 15.9116 20.64 15.9916 19.76C15.8982 18.6267 15.6849 17.7533 15.3516 17.14C15.0182 16.5133 14.5916 16.08 14.0716 15.84C13.5649 15.6 12.9849 15.48 12.3316 15.48C11.1849 15.48 10.3316 15.82 9.77156 16.5C9.21156 17.18 8.93156 18.2333 8.93156 19.66ZM28.8972 36.88C28.0039 36.88 27.1905 36.66 26.4572 36.22C25.7239 35.7933 25.1372 35.2133 24.6972 34.48C24.2705 33.7333 24.0572 32.92 24.0572 32.04C24.0572 31.1333 24.2705 30.3133 24.6972 29.58C25.1372 28.8467 25.7239 28.2667 26.4572 27.84C27.1905 27.4133 28.0039 27.2 28.8972 27.2C29.7905 27.2 30.5972 27.4133 31.3172 27.84C32.0505 28.2667 32.6305 28.8467 33.0572 29.58C33.4972 30.3133 33.7172 31.1333 33.7172 32.04C33.7172 32.92 33.4972 33.7333 33.0572 34.48C32.6305 35.2133 32.0505 35.7933 31.3172 36.22C30.5972 36.66 29.7905 36.88 28.8972 36.88ZM51.0428 36.38C50.0561 36.38 49.2761 36.12 48.7028 35.6C48.1295 35.08 47.8428 34.18 47.8428 32.9V30.06H40.3628C39.2028 30.06 38.2895 29.8133 37.6228 29.32C36.9695 28.8267 36.6428 28.1 36.6428 27.14C36.6428 26.7 36.7161 26.18 36.8628 25.58C37.0228 24.98 37.1761 24.4133 37.3228 23.88L40.7628 13.18C41.0028 12.42 41.3895 11.8667 41.9228 11.52C42.4695 11.16 43.0695 10.98 43.7228 10.98C44.3628 10.98 44.9428 11.1933 45.4628 11.62C45.9961 12.0467 46.2628 12.6733 46.2628 13.5C46.2628 13.66 46.2561 13.8267 46.2428 14C46.2295 14.1733 46.1895 14.36 46.1228 14.56L42.6828 25.58H47.8828V17.12C47.8828 16.3067 48.0295 15.68 48.3228 15.24C48.6295 14.7867 49.0095 14.4667 49.4628 14.28C49.9295 14.08 50.3895 13.98 50.8428 13.98C51.3228 13.98 51.7895 14.08 52.2428 14.28C52.6961 14.4667 53.0695 14.7867 53.3628 15.24C53.6695 15.68 53.8228 16.3067 53.8228 17.12V25.58H54.9828C55.8361 25.58 56.5028 25.7733 56.9828 26.16C57.4761 26.5467 57.7228 27.1 57.7228 27.82C57.7228 28.5533 57.4761 29.1133 56.9828 29.5C56.5028 29.8733 55.8361 30.06 54.9828 30.06H53.8228V32.9C53.8228 34.18 53.5495 35.08 53.0028 35.6C52.4561 36.12 51.8028 36.38 51.0428 36.38Z" fill="url(#paint0_linear_7885_37032)"/>
<path d="M16.3316 10.98C18.3716 10.98 20.1516 11.3467 21.6716 12.08C23.2049 12.8 24.3982 13.96 25.2516 15.56C26.1049 17.1467 26.5316 19.26 26.5316 21.9C26.5316 24.9933 25.9649 27.58 24.8316 29.66C23.6982 31.7267 22.0582 33.28 19.9116 34.32C17.7649 35.3467 15.1649 35.86 12.1116 35.86C10.8849 35.86 9.9449 35.6333 9.29156 35.18C8.63823 34.7133 8.31156 34.12 8.31156 33.4C8.31156 32.6667 8.6249 32.0933 9.25156 31.68C9.87823 31.2533 10.7916 31.04 11.9916 31.04C13.4582 31.04 14.6982 30.8533 15.7116 30.48C16.7249 30.1067 17.5382 29.5467 18.1516 28.8C18.7782 28.0533 19.2249 27.1333 19.4916 26.04C18.8116 26.6133 18.0316 27.08 17.1516 27.44C16.2716 27.8 15.3182 27.98 14.2916 27.98C12.7716 27.98 11.4382 27.66 10.2916 27.02C9.1449 26.3667 8.25156 25.4267 7.61156 24.2C6.9849 22.96 6.67156 21.44 6.67156 19.64C6.67156 17.8533 7.05156 16.3133 7.81156 15.02C8.5849 13.7267 9.69156 12.7333 11.1316 12.04C12.5716 11.3333 14.3049 10.98 16.3316 10.98ZM12.9316 19.66C12.9316 20.6067 13.0716 21.3867 13.3516 22C13.6449 22.6 14.0382 23.0467 14.5316 23.34C15.0382 23.62 15.6116 23.76 16.2516 23.76C16.9449 23.76 17.5516 23.6133 18.0716 23.32C18.5916 23.0267 19.0182 22.58 19.3516 21.98C19.6982 21.38 19.9116 20.64 19.9916 19.76C19.8982 18.6267 19.6849 17.7533 19.3516 17.14C19.0182 16.5133 18.5916 16.08 18.0716 15.84C17.5649 15.6 16.9849 15.48 16.3316 15.48C15.1849 15.48 14.3316 15.82 13.7716 16.5C13.2116 17.18 12.9316 18.2333 12.9316 19.66ZM32.8972 36.88C32.0039 36.88 31.1905 36.66 30.4572 36.22C29.7239 35.7933 29.1372 35.2133 28.6972 34.48C28.2705 33.7333 28.0572 32.92 28.0572 32.04C28.0572 31.1333 28.2705 30.3133 28.6972 29.58C29.1372 28.8467 29.7239 28.2667 30.4572 27.84C31.1905 27.4133 32.0039 27.2 32.8972 27.2C33.7905 27.2 34.5972 27.4133 35.3172 27.84C36.0505 28.2667 36.6305 28.8467 37.0572 29.58C37.4972 30.3133 37.7172 31.1333 37.7172 32.04C37.7172 32.92 37.4972 33.7333 37.0572 34.48C36.6305 35.2133 36.0505 35.7933 35.3172 36.22C34.5972 36.66 33.7905 36.88 32.8972 36.88ZM55.0428 36.38C54.0561 36.38 53.2761 36.12 52.7028 35.6C52.1295 35.08 51.8428 34.18 51.8428 32.9V30.06H44.3628C43.2028 30.06 42.2895 29.8133 41.6228 29.32C40.9695 28.8267 40.6428 28.1 40.6428 27.14C40.6428 26.7 40.7161 26.18 40.8628 25.58C41.0228 24.98 41.1761 24.4133 41.3228 23.88L44.7628 13.18C45.0028 12.42 45.3895 11.8667 45.9228 11.52C46.4695 11.16 47.0695 10.98 47.7228 10.98C48.3628 10.98 48.9428 11.1933 49.4628 11.62C49.9961 12.0467 50.2628 12.6733 50.2628 13.5C50.2628 13.66 50.2561 13.8267 50.2428 14C50.2295 14.1733 50.1895 14.36 50.1228 14.56L46.6828 25.58H51.8828V17.12C51.8828 16.3067 52.0295 15.68 52.3228 15.24C52.6295 14.7867 53.0095 14.4667 53.4628 14.28C53.9295 14.08 54.3895 13.98 54.8428 13.98C55.3228 13.98 55.7895 14.08 56.2428 14.28C56.6961 14.4667 57.0695 14.7867 57.3628 15.24C57.6695 15.68 57.8228 16.3067 57.8228 17.12V25.58H58.9828C59.8361 25.58 60.5028 25.7733 60.9828 26.16C61.4761 26.5467 61.7228 27.1 61.7228 27.82C61.7228 28.5533 61.4761 29.1133 60.9828 29.5C60.5028 29.8733 59.8361 30.06 58.9828 30.06H57.8228V32.9C57.8228 34.18 57.5495 35.08 57.0028 35.6C56.4561 36.12 55.8028 36.38 55.0428 36.38Z" fill="url(#paint1_linear_7885_37032)" fill-opacity="0.5"/>
<path d="M20.3316 10.98C22.3716 10.98 24.1516 11.3467 25.6716 12.08C27.2049 12.8 28.3982 13.96 29.2516 15.56C30.1049 17.1467 30.5316 19.26 30.5316 21.9C30.5316 24.9933 29.9649 27.58 28.8316 29.66C27.6982 31.7267 26.0582 33.28 23.9116 34.32C21.7649 35.3467 19.1649 35.86 16.1116 35.86C14.8849 35.86 13.9449 35.6333 13.2916 35.18C12.6382 34.7133 12.3116 34.12 12.3116 33.4C12.3116 32.6667 12.6249 32.0933 13.2516 31.68C13.8782 31.2533 14.7916 31.04 15.9916 31.04C17.4582 31.04 18.6982 30.8533 19.7116 30.48C20.7249 30.1067 21.5382 29.5467 22.1516 28.8C22.7782 28.0533 23.2249 27.1333 23.4916 26.04C22.8116 26.6133 22.0316 27.08 21.1516 27.44C20.2716 27.8 19.3182 27.98 18.2916 27.98C16.7716 27.98 15.4382 27.66 14.2916 27.02C13.1449 26.3667 12.2516 25.4267 11.6116 24.2C10.9849 22.96 10.6716 21.44 10.6716 19.64C10.6716 17.8533 11.0516 16.3133 11.8116 15.02C12.5849 13.7267 13.6916 12.7333 15.1316 12.04C16.5716 11.3333 18.3049 10.98 20.3316 10.98ZM16.9316 19.66C16.9316 20.6067 17.0716 21.3867 17.3516 22C17.6449 22.6 18.0382 23.0467 18.5316 23.34C19.0382 23.62 19.6116 23.76 20.2516 23.76C20.9449 23.76 21.5516 23.6133 22.0716 23.32C22.5916 23.0267 23.0182 22.58 23.3516 21.98C23.6982 21.38 23.9116 20.64 23.9916 19.76C23.8982 18.6267 23.6849 17.7533 23.3516 17.14C23.0182 16.5133 22.5916 16.08 22.0716 15.84C21.5649 15.6 20.9849 15.48 20.3316 15.48C19.1849 15.48 18.3316 15.82 17.7716 16.5C17.2116 17.18 16.9316 18.2333 16.9316 19.66ZM36.8972 36.88C36.0039 36.88 35.1905 36.66 34.4572 36.22C33.7239 35.7933 33.1372 35.2133 32.6972 34.48C32.2705 33.7333 32.0572 32.92 32.0572 32.04C32.0572 31.1333 32.2705 30.3133 32.6972 29.58C33.1372 28.8467 33.7239 28.2667 34.4572 27.84C35.1905 27.4133 36.0039 27.2 36.8972 27.2C37.7905 27.2 38.5972 27.4133 39.3172 27.84C40.0505 28.2667 40.6305 28.8467 41.0572 29.58C41.4972 30.3133 41.7172 31.1333 41.7172 32.04C41.7172 32.92 41.4972 33.7333 41.0572 34.48C40.6305 35.2133 40.0505 35.7933 39.3172 36.22C38.5972 36.66 37.7905 36.88 36.8972 36.88ZM59.0428 36.38C58.0561 36.38 57.2761 36.12 56.7028 35.6C56.1295 35.08 55.8428 34.18 55.8428 32.9V30.06H48.3628C47.2028 30.06 46.2895 29.8133 45.6228 29.32C44.9695 28.8267 44.6428 28.1 44.6428 27.14C44.6428 26.7 44.7161 26.18 44.8628 25.58C45.0228 24.98 45.1761 24.4133 45.3228 23.88L48.7628 13.18C49.0028 12.42 49.3895 11.8667 49.9228 11.52C50.4695 11.16 51.0695 10.98 51.7228 10.98C52.3628 10.98 52.9428 11.1933 53.4628 11.62C53.9961 12.0467 54.2628 12.6733 54.2628 13.5C54.2628 13.66 54.2561 13.8267 54.2428 14C54.2295 14.1733 54.1895 14.36 54.1228 14.56L50.6828 25.58H55.8828V17.12C55.8828 16.3067 56.0295 15.68 56.3228 15.24C56.6295 14.7867 57.0095 14.4667 57.4628 14.28C57.9295 14.08 58.3895 13.98 58.8428 13.98C59.3228 13.98 59.7895 14.08 60.2428 14.28C60.6961 14.4667 61.0695 14.7867 61.3628 15.24C61.6695 15.68 61.8228 16.3067 61.8228 17.12V25.58H62.9828C63.8361 25.58 64.5028 25.7733 64.9828 26.16C65.4761 26.5467 65.7228 27.1 65.7228 27.82C65.7228 28.5533 65.4761 29.1133 64.9828 29.5C64.5028 29.8733 63.8361 30.06 62.9828 30.06H61.8228V32.9C61.8228 34.18 61.5495 35.08 61.0028 35.6C60.4561 36.12 59.8028 36.38 59.0428 36.38Z" fill="url(#paint2_linear_7885_37032)" fill-opacity="0.2"/>
<defs>
<linearGradient id="paint0_linear_7885_37032" x1="54.8622" y1="42.6211" x2="21.9175" y2="17.5828" gradientUnits="userSpaceOnUse">
<stop stop-color="#FF7C4F"/>
<stop offset="1" stop-color="#7B97FF"/>
</linearGradient>
<linearGradient id="paint1_linear_7885_37032" x1="58.8622" y1="42.6211" x2="25.9175" y2="17.5828" gradientUnits="userSpaceOnUse">
<stop stop-color="#FF7C4F"/>
<stop offset="1" stop-color="#7B97FF"/>
</linearGradient>
<linearGradient id="paint2_linear_7885_37032" x1="62.8622" y1="42.6211" x2="29.9175" y2="17.5828" gradientUnits="userSpaceOnUse">
<stop stop-color="#FF7C4F"/>
<stop offset="1" stop-color="#7B97FF"/>
</linearGradient>
</defs>
</svg>
