<svg width="73" height="50" viewBox="0 0 73 50" fill="none" xmlns="http://www.w3.org/2000/svg">
<g clip-path="url(#clip0_8073_11955)">
<g filter="url(#filter0_f_8073_11955)">
<path d="M15.8757 39.8C13.5823 39.8 11.5823 39.3867 9.87566 38.56C8.169 37.7067 6.849 36.56 5.91566 35.12C5.009 33.6533 4.55566 31.9867 4.55566 30.12H11.7557C11.7557 31.16 12.1157 32.0133 12.8357 32.68C13.5557 33.32 14.569 33.64 15.8757 33.64C16.7557 33.64 17.5023 33.48 18.1157 33.16C18.729 32.8133 19.1957 32.36 19.5157 31.8C19.8357 31.2133 19.9957 30.56 19.9957 29.84C19.9957 28.7467 19.6357 27.84 18.9157 27.12C18.2223 26.4 17.209 26.04 15.8757 26.04C15.1023 26.04 14.409 26.16 13.7957 26.4C13.209 26.64 12.7023 26.9467 12.2757 27.32L8.95566 21.8L17.0357 16.84L16.6757 16.2H5.79566V9.79999H26.1157V16.16L15.5957 22.56L12.2357 21.32C12.7957 21.16 13.3823 21.04 13.9957 20.96C14.6357 20.88 15.289 20.84 15.9557 20.84C18.249 20.84 20.2357 21.2 21.9157 21.92C23.5957 22.64 24.889 23.68 25.7957 25.04C26.729 26.3733 27.1957 27.9733 27.1957 29.84V30.32C27.1957 32.16 26.729 33.8 25.7957 35.24C24.889 36.6533 23.5823 37.7733 21.8757 38.6C20.1957 39.4 18.1957 39.8 15.8757 39.8Z" fill="url(#paint0_radial_8073_11955)"/>
<path d="M32.4635 39V31.08H40.3035V39H32.4635Z" fill="url(#paint1_radial_8073_11955)"/>
<path d="M49.6382 39L59.1582 16.56L58.6382 15.88H45.0382V9.79999H67.9982V13.8L57.5582 39H49.6382ZM45.0382 20.6V9.79999H51.0382V20.6H45.0382Z" fill="url(#paint2_radial_8073_11955)"/>
</g>
<g filter="url(#filter1_ddi_8073_11955)">
<path d="M15.8757 39.8C13.5823 39.8 11.5823 39.3867 9.87566 38.56C8.169 37.7067 6.849 36.56 5.91566 35.12C5.009 33.6533 4.55566 31.9867 4.55566 30.12H11.7557C11.7557 31.16 12.1157 32.0133 12.8357 32.68C13.5557 33.32 14.569 33.64 15.8757 33.64C16.7557 33.64 17.5023 33.48 18.1157 33.16C18.729 32.8133 19.1957 32.36 19.5157 31.8C19.8357 31.2133 19.9957 30.56 19.9957 29.84C19.9957 28.7467 19.6357 27.84 18.9157 27.12C18.2223 26.4 17.209 26.04 15.8757 26.04C15.1023 26.04 14.409 26.16 13.7957 26.4C13.209 26.64 12.7023 26.9467 12.2757 27.32L8.95566 21.8L17.0357 16.84L16.6757 16.2H5.79566V9.79999H26.1157V16.16L15.5957 22.56L12.2357 21.32C12.7957 21.16 13.3823 21.04 13.9957 20.96C14.6357 20.88 15.289 20.84 15.9557 20.84C18.249 20.84 20.2357 21.2 21.9157 21.92C23.5957 22.64 24.889 23.68 25.7957 25.04C26.729 26.3733 27.1957 27.9733 27.1957 29.84V30.32C27.1957 32.16 26.729 33.8 25.7957 35.24C24.889 36.6533 23.5823 37.7733 21.8757 38.6C20.1957 39.4 18.1957 39.8 15.8757 39.8Z" fill="url(#paint3_radial_8073_11955)"/>
<path d="M32.4635 39V31.08H40.3035V39H32.4635Z" fill="url(#paint4_radial_8073_11955)"/>
<path d="M49.6382 39L59.1582 16.56L58.6382 15.88H45.0382V9.79999H67.9982V13.8L57.5582 39H49.6382ZM45.0382 20.6V9.79999H51.0382V20.6H45.0382Z" fill="url(#paint5_radial_8073_11955)"/>
</g>
</g>
<defs>
<filter id="filter0_f_8073_11955" x="2.25566" y="7.49999" width="68.0424" height="34.6" filterUnits="userSpaceOnUse" color-interpolation-filters="sRGB">
<feFlood flood-opacity="0" result="BackgroundImageFix"/>
<feBlend mode="normal" in="SourceGraphic" in2="BackgroundImageFix" result="shape"/>
<feGaussianBlur stdDeviation="1.15" result="effect1_foregroundBlur_8073_11955"/>
</filter>
<filter id="filter1_ddi_8073_11955" x="-2.64434" y="0.599988" width="78.0424" height="47.6" filterUnits="userSpaceOnUse" color-interpolation-filters="sRGB">
<feFlood flood-opacity="0" result="BackgroundImageFix"/>
<feColorMatrix in="SourceAlpha" type="matrix" values="0 0 0 0 0 0 0 0 0 0 0 0 0 0 0 0 0 0 127 0" result="hardAlpha"/>
<feOffset dx="2" dy="3"/>
<feGaussianBlur stdDeviation="2.7"/>
<feComposite in2="hardAlpha" operator="out"/>
<feColorMatrix type="matrix" values="0 0 0 0 0.027451 0 0 0 0 0.129412 0 0 0 0 0.352941 0 0 0 0.55 0"/>
<feBlend mode="normal" in2="BackgroundImageFix" result="effect1_dropShadow_8073_11955"/>
<feColorMatrix in="SourceAlpha" type="matrix" values="0 0 0 0 0 0 0 0 0 0 0 0 0 0 0 0 0 0 127 0" result="hardAlpha"/>
<feOffset dx="-2" dy="-4"/>
<feGaussianBlur stdDeviation="2.6"/>
<feComposite in2="hardAlpha" operator="out"/>
<feColorMatrix type="matrix" values="0 0 0 0 0.243137 0 0 0 0 0.0980392 0 0 0 0 0.678431 0 0 0 0.55 0"/>
<feBlend mode="normal" in2="effect1_dropShadow_8073_11955" result="effect2_dropShadow_8073_11955"/>
<feBlend mode="normal" in="SourceGraphic" in2="effect2_dropShadow_8073_11955" result="shape"/>
<feColorMatrix in="SourceAlpha" type="matrix" values="0 0 0 0 0 0 0 0 0 0 0 0 0 0 0 0 0 0 127 0" result="hardAlpha"/>
<feOffset dx="2" dy="-2"/>
<feGaussianBlur stdDeviation="1.25"/>
<feComposite in2="hardAlpha" operator="arithmetic" k2="-1" k3="1"/>
<feColorMatrix type="matrix" values="0 0 0 0 0.541176 0 0 0 0 0.54902 0 0 0 0 1 0 0 0 0.25 0"/>
<feBlend mode="normal" in2="shape" result="effect3_innerShadow_8073_11955"/>
</filter>
<radialGradient id="paint0_radial_8073_11955" cx="0" cy="0" r="1" gradientUnits="userSpaceOnUse" gradientTransform="translate(3 10.5) rotate(28.0977) scale(66.8824 66.8824)">
<stop stop-color="#E7DCFD"/>
<stop offset="0.635536" stop-color="white"/>
<stop offset="0.975386" stop-color="#D4D4FF"/>
</radialGradient>
<radialGradient id="paint1_radial_8073_11955" cx="0" cy="0" r="1" gradientUnits="userSpaceOnUse" gradientTransform="translate(3 10.5) rotate(28.0977) scale(66.8824 66.8824)">
<stop stop-color="#E7DCFD"/>
<stop offset="0.635536" stop-color="white"/>
<stop offset="0.975386" stop-color="#D4D4FF"/>
</radialGradient>
<radialGradient id="paint2_radial_8073_11955" cx="0" cy="0" r="1" gradientUnits="userSpaceOnUse" gradientTransform="translate(3 10.5) rotate(28.0977) scale(66.8824 66.8824)">
<stop stop-color="#E7DCFD"/>
<stop offset="0.635536" stop-color="white"/>
<stop offset="0.975386" stop-color="#D4D4FF"/>
</radialGradient>
<radialGradient id="paint3_radial_8073_11955" cx="0" cy="0" r="1" gradientUnits="userSpaceOnUse" gradientTransform="translate(3 10.5) rotate(28.0977) scale(66.8824 66.8824)">
<stop stop-color="#E7DCFD"/>
<stop offset="0.635536" stop-color="white"/>
<stop offset="0.975386" stop-color="#D4D4FF"/>
</radialGradient>
<radialGradient id="paint4_radial_8073_11955" cx="0" cy="0" r="1" gradientUnits="userSpaceOnUse" gradientTransform="translate(3 10.5) rotate(28.0977) scale(66.8824 66.8824)">
<stop stop-color="#E7DCFD"/>
<stop offset="0.635536" stop-color="white"/>
<stop offset="0.975386" stop-color="#D4D4FF"/>
</radialGradient>
<radialGradient id="paint5_radial_8073_11955" cx="0" cy="0" r="1" gradientUnits="userSpaceOnUse" gradientTransform="translate(3 10.5) rotate(28.0977) scale(66.8824 66.8824)">
<stop stop-color="#E7DCFD"/>
<stop offset="0.635536" stop-color="white"/>
<stop offset="0.975386" stop-color="#D4D4FF"/>
</radialGradient>
<clipPath id="clip0_8073_11955">
<rect width="73" height="50" fill="white"/>
</clipPath>
</defs>
</svg>
