<svg width="32" height="32" viewBox="0 0 32 32" fill="none" xmlns="http://www.w3.org/2000/svg">
<path d="M16.15 0.610611C16.25 0.46313 16.45 0.46313 16.55 0.610611L16.9 1.39718C16.95 1.4955 17 1.54466 17.1 1.54466L17.95 1.64298C18.15 1.64298 18.2 1.88879 18.05 1.98711L17.4 2.57704C17.35 2.6262 17.3 2.67536 17.35 2.77368L17.5 3.65857C17.55 3.85521 17.35 3.95353 17.2 3.90437L16.45 3.46193C16.4 3.41277 16.3 3.41277 16.25 3.46193L15.5 3.90437C15.35 4.00269 15.15 3.85521 15.2 3.65857L15.35 2.77368C15.35 2.72452 15.35 2.6262 15.3 2.57704L14.65 1.98711C14.5 1.88879 14.6 1.64298 14.75 1.64298L15.6 1.54466C15.65 1.54466 15.75 1.4955 15.75 1.44634L16.15 0.610611Z" fill="#444444"/>
<path d="M16.15 28.683C16.25 28.5355 16.45 28.5355 16.55 28.683L16.9 29.4697C16.95 29.5188 17 29.568 17.05 29.568L17.9 29.6663C18.1 29.6663 18.15 29.9121 18 30.0105L17.35 30.6005C17.3 30.6496 17.25 30.6988 17.3 30.7971L17.45 31.6821C17.5 31.8788 17.3 31.9771 17.15 31.9279L16.4 31.4854C16.35 31.4363 16.25 31.4363 16.2 31.4854L15.5 31.9279C15.35 32.0263 15.15 31.8788 15.2 31.6821L15.35 30.7971C15.35 30.748 15.35 30.6496 15.3 30.6005L14.65 30.0105C14.5 29.9121 14.6 29.6663 14.75 29.6663L15.6 29.568C15.65 29.568 15.75 29.5188 15.75 29.4697L16.15 28.683Z" fill="#444444"/>
<path d="M1.60001 14.4748C1.70001 14.3273 1.90001 14.3273 2.00001 14.4748L2.35001 15.2614C2.40001 15.3106 2.45001 15.3597 2.50001 15.3597L3.35001 15.4581C3.55001 15.4581 3.60002 15.7039 3.45001 15.8022L2.80001 16.3922C2.75001 16.4414 2.70001 16.4905 2.75001 16.5889L2.90001 17.4738C3.00001 17.7196 2.80001 17.818 2.65001 17.7196L1.90001 17.2772C1.85001 17.228 1.75001 17.228 1.70001 17.2772L0.900004 17.7196C0.750003 17.818 0.550002 17.6705 0.600003 17.4738L0.750003 16.5889C0.750003 16.5397 0.750003 16.4414 0.700003 16.3922L0.0500002 15.8022C-0.0500002 15.753 0 15.5072 0.200001 15.5072L1.05 15.4089C1.1 15.4089 1.20001 15.3597 1.20001 15.3106L1.60001 14.4748Z" fill="#444444"/>
<path d="M30 14.4747C30.1 14.3273 30.3 14.3273 30.4 14.4747L30.75 15.2613C30.8 15.3105 30.85 15.3596 30.9 15.3596L31.75 15.4579C31.95 15.4579 32 15.7037 31.85 15.8021L31.2 16.392C31.15 16.4412 31.1 16.4903 31.15 16.5886L31.3 17.4735C31.35 17.6702 31.15 17.7685 31 17.7193L30.25 17.2769C30.2 17.2277 30.1 17.2277 30.05 17.2769L29.35 17.7193C29.2 17.8176 29 17.6702 29.05 17.4735L29.2 16.5886C29.2 16.5395 29.2 16.4412 29.15 16.392L28.5 15.8512C28.35 15.7529 28.45 15.5071 28.6 15.5071L29.45 15.4088C29.5 15.4088 29.6 15.3596 29.6 15.3105L30 14.4747Z" fill="#444444"/>
<path d="M28.25 21.6038C28.35 21.4563 28.55 21.4563 28.65 21.6038L29 22.3903C29.05 22.4394 29.1 22.4886 29.15 22.4886L30 22.5869C30.2 22.5869 30.25 22.8327 30.1 22.931L29.5 23.5701C29.45 23.6192 29.4 23.6684 29.45 23.7667L29.6 24.6515C29.65 24.8481 29.45 24.9465 29.3 24.8973L28.55 24.4549C28.5 24.4057 28.4 24.4057 28.35 24.4549L27.6 24.8973C27.45 24.9956 27.25 24.8481 27.3 24.6515L27.45 23.7667C27.45 23.7175 27.45 23.6192 27.4 23.5701L26.75 22.9802C26.6 22.8819 26.7 22.6361 26.85 22.6361L27.7 22.5378C27.75 22.5378 27.85 22.4886 27.85 22.4394L28.25 21.6038Z" fill="#444444"/>
<path d="M3.35001 21.6038C3.45001 21.4563 3.65001 21.4563 3.75001 21.6038L4.10001 22.3904C4.15001 22.4395 4.20001 22.4887 4.25001 22.4887L5.10001 22.587C5.30001 22.587 5.35001 22.8328 5.20001 22.9311L4.55001 23.5211C4.50001 23.5703 4.45001 23.6194 4.50001 23.7177L4.75001 24.6027C4.80001 24.7993 4.60001 24.8976 4.45001 24.8485L3.70001 24.406C3.65001 24.3568 3.55001 24.3568 3.50001 24.406L2.75001 24.8485C2.60001 24.9468 2.40001 24.7993 2.45001 24.6027L2.60001 23.7177C2.60001 23.6686 2.60001 23.5703 2.55001 23.5211L1.90001 22.9311C1.75001 22.8328 1.85001 22.587 2.00001 22.587L2.85001 22.4887C2.90001 22.4887 3.00001 22.4395 3.00001 22.3904L3.35001 21.6038Z" fill="#444444"/>
<path d="M27.9 7.39529C28 7.24779 28.2 7.24779 28.3 7.39529L28.65 8.18191C28.7 8.23108 28.75 8.28024 28.8 8.28024L29.65 8.37857C29.85 8.37857 29.9 8.62439 29.75 8.72272L29.15 9.36185C29.1 9.41102 29.05 9.46018 29.1 9.55851L29.25 10.4435C29.3 10.6401 29.1 10.7384 28.95 10.6893L28.2 10.2468C28.15 10.1976 28.05 10.1976 28 10.2468L27.25 10.6893C27.1 10.7876 26.9 10.6401 26.95 10.4435L27.1 9.55851C27.1 9.50934 27.1 9.41102 27.05 9.36185L26.4 8.77188C26.25 8.67355 26.35 8.42773 26.5 8.42773L27.35 8.32941C27.4 8.32941 27.5 8.28024 27.5 8.23108L27.9 7.39529Z" fill="#444444"/>
<path d="M3.69994 7.39528C3.79994 7.2478 3.99994 7.2478 4.09994 7.39528L4.49994 8.18187C4.54994 8.23104 4.59994 8.2802 4.64994 8.2802L5.49995 8.37852C5.69995 8.37852 5.74995 8.62433 5.59995 8.72265L4.99995 9.36176C4.94994 9.41092 4.89994 9.46008 4.94994 9.55841L5.09995 10.4433C5.14995 10.64 4.94995 10.7383 4.79994 10.6891L3.99994 10.1975C3.94994 10.1484 3.84994 10.1484 3.79994 10.1975L3.04994 10.64C2.89994 10.7383 2.69994 10.5908 2.74994 10.3942L2.89994 9.50924C2.89994 9.46008 2.89994 9.36176 2.84994 9.3126L2.19993 8.72265C2.04993 8.62433 2.14993 8.37852 2.29993 8.37852L3.14994 8.2802C3.19994 8.2802 3.29994 8.23104 3.29994 8.18187L3.69994 7.39528Z" fill="#444444"/>
<path d="M23.25 2.43008C23.35 2.28258 23.55 2.28258 23.65 2.43008L24 3.2167C24.05 3.26587 24.1 3.31503 24.15 3.31503L25 3.41336C25.2 3.41336 25.25 3.65918 25.1 3.75751L24.45 4.34748C24.5 4.44581 24.45 4.49497 24.45 4.5933L24.6 5.47825C24.65 5.67491 24.45 5.77324 24.3 5.72407L23.55 5.2816C23.5 5.23243 23.4 5.23243 23.35 5.2816L22.6 5.72407C22.45 5.8224 22.25 5.67491 22.3 5.47825L22.45 4.5933C22.45 4.54413 22.45 4.44581 22.4 4.39664L21.75 3.80667C21.6 3.70834 21.7 3.46252 21.85 3.46252L22.7 3.3642C22.75 3.3642 22.85 3.31503 22.85 3.26587L23.25 2.43008Z" fill="#444444"/>
<path d="M8.34997 26.5691C8.44997 26.4216 8.64997 26.4216 8.74997 26.5691L9.09998 27.3557C9.14998 27.4049 9.19998 27.4541 9.24998 27.4541L10.1 27.5524C10.3 27.5524 10.35 27.7982 10.2 27.8965L9.59998 28.5357C9.54998 28.5848 9.49998 28.634 9.54998 28.7323L9.69998 29.6173C9.74998 29.8139 9.54998 29.9123 9.39998 29.8631L8.64997 29.4206C8.59997 29.3715 8.49997 29.3715 8.44997 29.4206L7.69996 29.8631C7.54996 29.9614 7.34996 29.8139 7.39996 29.6173L7.54996 28.7323C7.54996 28.6832 7.54996 28.5848 7.49996 28.5357L6.84996 27.9457C6.69996 27.8474 6.79996 27.6016 6.94996 27.6016L7.79997 27.5032C7.84997 27.5032 7.94997 27.4541 7.94997 27.4049L8.34997 26.5691Z" fill="#444444"/>
<path d="M23.6 26.5691C23.7 26.4216 23.9 26.4216 24 26.5691L24.35 27.3557C24.4 27.4049 24.45 27.4541 24.5 27.4541L25.35 27.5524C25.55 27.5524 25.6 27.7982 25.45 27.8965L24.9 28.5357C24.85 28.5848 24.8 28.634 24.85 28.7323L25 29.6173C25.05 29.8139 24.85 29.9123 24.7 29.8631L23.95 29.4206C23.9 29.3715 23.8 29.3715 23.75 29.4206L23 29.8631C22.85 29.9614 22.65 29.8139 22.7 29.6173L22.85 28.7323C22.85 28.6832 22.85 28.5848 22.8 28.5357L22.15 27.9457C22 27.8474 22.1 27.6016 22.25 27.6016L23.1 27.5032C23.15 27.5032 23.25 27.4541 23.25 27.4049L23.6 26.5691Z" fill="#444444"/>
<path d="M8.69994 2.43009C8.79994 2.28258 8.99994 2.28258 9.09994 2.43009L9.44994 3.21682C9.49994 3.266 9.54994 3.31517 9.59994 3.31517L10.4999 3.41351C10.6999 3.41351 10.7499 3.65936 10.5999 3.7577L9.94994 4.34775C9.89994 4.39692 9.84994 4.44609 9.89994 4.54444L10.0499 5.42951C10.0999 5.62619 9.89994 5.72453 9.74994 5.67536L8.99994 5.23283C8.94994 5.18366 8.84994 5.18366 8.79994 5.23283L8.04994 5.67536C7.89994 5.7737 7.69994 5.62619 7.74994 5.42951L7.89994 4.54444C7.89994 4.49526 7.89994 4.39692 7.84994 4.34775L7.19993 3.7577C7.04993 3.65936 7.14993 3.41351 7.29993 3.41351L8.14994 3.31517C8.19994 3.31517 8.29994 3.266 8.29994 3.21682L8.69994 2.43009Z" fill="#444444"/>
<path d="M9.59999 16.4413V15.753H11.3V19.5879H10.75L10.6 18.8995C10.4 19.4404 9.99999 19.7354 9.39999 19.7354C8.95 19.7354 8.6 19.5879 8.35 19.2437C8.1 18.8995 8 18.3096 8 17.4246V14.5239C8 13.5897 8.15 12.9997 8.45 12.6556C8.75 12.3114 9.15 12.1639 9.59999 12.1639C10.1 12.1639 10.45 12.2623 10.7 12.5081C10.95 12.7539 11.1 13.1964 11.2 13.8356L10.4 14.0322C10.35 13.5897 10.25 13.2947 10.15 13.0981C10.05 12.9014 9.84999 12.8523 9.59999 12.8523C9.35 12.8523 9.2 12.9506 9.05 13.1964C8.9 13.3931 8.85 13.8356 8.85 14.3764V17.6213C8.85 18.2112 8.9 18.6046 9.05 18.8012C9.2 18.9979 9.39999 19.1454 9.64999 19.1454C10.2 19.1454 10.5 18.6537 10.5 17.7196V16.4413H9.59999Z" fill="#444444"/>
<path d="M12.6 19.6371V12.3608H14.1C14.65 12.3608 15.1 12.5083 15.4 12.8525C15.7 13.1966 15.85 13.7866 15.85 14.6715V17.2772C15.85 18.1622 15.7 18.7521 15.4 19.0963C15.1 19.4404 14.7 19.5879 14.1 19.5879H12.6V19.6371ZM14.95 17.523V14.524C14.95 13.5408 14.65 13.0491 14.1 13.0491H13.5V19.0471H14.1C14.65 18.998 14.95 18.5063 14.95 17.523Z" fill="#444444"/>
<path d="M17.05 19.637V12.3608H18.4001C18.9501 12.3608 19.3501 12.5083 19.6501 12.8525C19.9501 13.1966 20.1001 13.7866 20.1001 14.6715V14.7698C20.1001 15.6548 19.9501 16.2447 19.6501 16.5889C19.3501 16.933 18.9501 17.0805 18.4001 17.0805H17.9001V19.6862H17.05V19.637ZM19.2501 14.8682V14.524C19.2501 13.4916 18.9501 13 18.4001 13H17.9001V16.3922H18.4001C18.9501 16.3922 19.2501 15.9006 19.2501 14.8682Z" fill="#444444"/>
<path d="M21 19.637V12.3608H22.35C22.9 12.3608 23.3 12.5083 23.6 12.8525C23.9 13.1966 24.05 13.7866 24.05 14.6223V14.6715C24.05 15.7039 23.8 16.3922 23.25 16.6872L24.15 19.6862H23.25L22.4 16.8839H21.85V19.6862H21V19.637ZM23.2 14.7698V14.4749C23.2 13.9341 23.1 13.5899 22.95 13.3441C22.8 13.1475 22.6 13.0491 22.35 13.0491H21.85V16.2447H22.35C22.95 16.1956 23.2 15.7039 23.2 14.7698Z" fill="#444444"/>
</svg>
