<svg width="864" height="25" viewBox="0 0 864 25" fill="none" xmlns="http://www.w3.org/2000/svg">
<g clip-path="url(#clip0_147_23108)">
<path d="M16.375 3.27344H14.25C11.5625 3.27344 10.125 5.01344 10.125 7.71344V9.87344H7.625C7.4375 9.87344 7 9.99344 7 10.4734V12.8734C7 13.2934 7.3125 13.4734 7.625 13.4734H10.125V20.9134C10.125 21.0934 10.3125 21.2734 10.5 21.2734H13.3125C13.5 21.2734 13.875 21.1534 13.875 20.9734V13.4734H16.375C16.875 13.4734 17 13.2334 17 12.8734V10.4734C17 10.3534 17 9.87344 16.375 9.87344H13.875V8.07344C13.875 7.23344 14.125 6.87344 15.0625 6.87344H16.375C16.75 6.87344 17 6.45344 17 6.27344V3.87344C17 3.45344 16.75 3.27344 16.375 3.27344Z" fill="#41479B"/>
<path d="M44.6667 1.27344C42.6416 1.27344 41 2.91506 41 4.9401V19.6068C41 21.6318 42.6416 23.2734 44.6667 23.2734H59.3333C61.3584 23.2734 63 21.6318 63 19.6068V4.9401C63 2.91506 61.3584 1.27344 59.3333 1.27344H44.6667ZM45.7593 5.98772H49.917L52.8696 10.1833L56.4524 5.98772H57.7619L53.4609 11.0233L58.7645 18.5592H54.6078L51.1815 13.6914L47.0238 18.5592H45.7143L50.5902 12.8515L45.7593 5.98772ZM47.7645 7.03534L55.1541 17.5115H56.7593L49.3697 7.03534H47.7645Z" fill="#333333"/>
<path d="M83.1782 9.2333V21.2734H87.3366V9.2333H83.1782ZM98.0297 9.0527C97.9703 9.0527 97.9703 9.0527 97.9109 8.9925C97.8515 8.9925 97.7921 8.9925 97.7327 8.9323C97.495 8.8721 97.2574 8.8721 97.0198 8.8721C94.6436 8.8721 93.1584 10.5577 92.6832 11.2199V9.1731H88.5248V21.2132H92.6832V14.5912C92.6832 14.5912 95.5347 10.2567 96.8416 13.3871C96.8416 16.1564 96.8416 21.2132 96.8416 21.2132H101V13.3871C101 11.5811 99.7525 9.53431 98.0297 9.0527ZM84.9604 7.24668C86.0297 7.24668 86.9208 6.34367 86.9208 5.26006C86.9208 4.17645 86.0297 3.27344 84.9604 3.27344C83.8911 3.27344 83 4.17645 83 5.26006C83 6.34367 83.8911 7.24668 84.9604 7.24668Z" fill="#0084B1"/>
<path fill-rule="evenodd" clip-rule="evenodd" d="M140.608 4.76282C141.55 5.02643 142.293 5.79809 142.547 6.77703C143.018 8.56512 143 12.2923 143 12.2923C143 12.2923 143 16.0004 142.547 17.7887C142.293 18.7674 141.55 19.5393 140.608 19.8027C138.886 20.2734 132 20.2734 132 20.2734C132 20.2734 125.132 20.2734 123.392 19.7841C122.45 19.5204 121.707 18.7486 121.453 17.7698C121 16.0004 121 12.2734 121 12.2734C121 12.2734 121 8.56512 121.453 6.77703C121.707 5.79826 122.468 5.0076 123.392 4.74417C125.114 4.27344 132 4.27344 132 4.27344C132 4.27344 138.886 4.27344 140.608 4.76282ZM135.702 12.2847L129.703 15.8027V8.7666L135.702 12.2847Z" fill="#FF0000"/>
<path d="M183.866 17.5512C183.866 17.5512 183.784 17.4404 183.767 17.4097C183.371 16.7023 182.579 15.8062 181.39 14.7687L181.341 14.7216C180.796 14.25 180.449 13.9198 180.35 13.7312C180.103 13.4011 180.053 13.071 180.152 12.788C180.251 12.5522 180.648 12.0334 181.291 11.2317C181.638 10.8073 181.885 10.4772 182.083 10.2414C183.519 8.40211 184.163 7.27027 183.965 6.75151L183.866 6.61003C183.816 6.51571 183.668 6.46855 183.47 6.42139C183.272 6.37423 182.975 6.37423 182.678 6.37423H179.063C179.014 6.37423 178.915 6.37423 178.815 6.37423C178.716 6.37423 178.667 6.42139 178.667 6.42139L178.465 6.60547C178.465 6.60547 178.25 7.02166 178.215 7.10547C177.819 8.04867 177.429 8.68507 176.934 9.53396C176.637 10.0056 176.34 10.43 176.092 10.8073C175.845 11.1846 175.597 11.4204 175.448 11.609C175.25 11.7976 175.102 11.9391 174.953 12.0334C174.805 12.1278 174.706 12.1749 174.607 12.1749C174.508 12.1749 174.458 12.1278 174.409 12.1278C174.31 12.0334 174.211 11.9391 174.112 11.8448C174.062 11.7033 174.013 11.5618 173.963 11.3732C173.914 11.1846 173.914 11.0431 173.914 10.9016C173.914 10.7601 173.914 10.5715 173.914 10.3357C173.914 10.0999 173.914 9.91124 173.914 9.81692C173.914 9.53396 173.914 9.20383 173.914 8.82655C173.914 8.49643 173.914 8.21347 173.963 7.97767C173.963 7.78903 173.963 7.55323 173.963 7.31743C173.963 7.08163 173.963 6.89299 173.914 6.79867C173.864 6.65719 173.864 6.56287 173.765 6.42139C173.715 6.27991 173.616 6.18559 173.517 6.13843C173.418 6.09127 173.27 5.99695 173.121 5.99695C172.676 5.90263 172.131 5.85547 171.438 5.85547C169.903 5.85547 168.913 5.94979 168.467 6.13843C168.269 6.23275 168.12 6.32707 167.972 6.51571C167.823 6.70435 167.823 6.79867 167.922 6.79867C168.417 6.89299 168.764 7.03447 168.962 7.31743L169.061 7.45891C169.111 7.55323 169.16 7.74187 169.259 8.02483C169.309 8.30779 169.358 8.59075 169.358 8.87371C169.408 9.43964 169.408 9.9584 169.358 10.3828C169.309 10.8073 169.259 11.1374 169.259 11.326C169.259 11.5147 169.16 11.7505 169.111 11.892C169.012 12.0334 168.962 12.1278 168.962 12.1749C168.913 12.2221 168.913 12.2221 168.913 12.2221C168.814 12.2692 168.715 12.2692 168.566 12.2692C168.467 12.2692 168.318 12.2221 168.12 12.0806C167.972 11.9863 167.774 11.7976 167.625 11.609C167.427 11.4204 167.229 11.1374 167.031 10.8073C166.783 10.4772 166.585 10.0527 166.338 9.58112L166.14 9.25099C165.991 9.01519 165.843 8.68507 165.645 8.26063C165.447 7.83619 165.249 7.41175 165.05 7.03447C165.001 6.84583 164.902 6.75151 164.753 6.65719L164.704 6.61003C164.654 6.56287 164.605 6.56287 164.506 6.51571C164.407 6.46855 164.308 6.46855 164.209 6.42139L160.792 6.37423C160.446 6.37423 160.198 6.46855 160.099 6.61003L160.05 6.70435C160 6.75151 160 6.79867 160 6.89299C160 6.98731 160.05 7.08163 160.099 7.22311C160.594 8.35495 161.139 9.43963 161.733 10.4772C162.327 11.5147 162.822 12.3636 163.268 12.9766C163.714 13.5897 164.159 14.2028 164.605 14.7687C165.05 15.3346 165.348 15.7119 165.496 15.8534C165.645 15.9949 165.744 16.1364 165.843 16.2307L166.14 16.5136C166.338 16.7023 166.635 16.9381 167.031 17.1739C167.427 17.4568 167.823 17.6927 168.318 17.9756C168.764 18.2114 169.358 18.4472 169.952 18.5887C170.596 18.7302 171.25 18.8555 172 18.8555H172.715C173.715 18.8555 173.816 18.5441 173.965 18.3555C173.965 18.3555 174.062 18.1758 174.062 18.0156C174.062 17.9765 174.062 18.0228 174.062 17.8813C174.062 17.5512 174.062 17.221 174.161 16.9381C174.211 16.6551 174.31 16.4665 174.359 16.325C174.458 16.1835 174.508 16.0892 174.607 15.9949C174.706 15.9006 174.755 15.8534 174.805 15.8062C174.854 15.8062 174.904 15.7591 174.904 15.7591C175.102 15.7119 175.349 15.7591 175.597 15.9477C175.845 16.1364 176.142 16.3722 176.34 16.6551C176.587 16.9381 176.884 17.221 177.181 17.5983C177.528 17.9285 177.825 18.2114 178.073 18.3529L178.32 18.4944C178.469 18.5887 178.716 18.683 178.964 18.7773C179.215 18.8555 179.465 18.8555 179.715 18.8555H182.715C183.012 18.8555 183.42 18.7302 183.618 18.6359C183.767 18.5651 183.866 18.4472 183.915 18.3057C183.965 18.1643 183.99 17.9518 183.965 17.8555C183.94 17.7591 183.866 17.5512 183.866 17.5512Z" fill="#4A76A8"/>
<path d="M207.999 8.44582H206.895L209.906 16.9574L211.592 12.1403L210.285 8.44582H209.119V7.63478H214.28V8.44582H213.071L216.082 16.9574L217.165 13.8644C218.585 9.90157 216.001 8.66714 216.001 7.78275C216.001 6.89835 216.718 6.18144 217.602 6.18144C217.65 6.18144 217.697 6.18403 217.742 6.18828C216.244 4.77372 214.223 3.90625 212 3.90625C209.095 3.90625 206.536 5.38707 205.036 7.63478H207.999L207.999 8.44582Z" fill="#444444"/>
<path d="M203.633 12.2735C203.633 15.4769 205.433 18.2594 208.077 19.6654L204.301 8.99159C203.871 9.99929 203.633 11.1085 203.633 12.2735Z" fill="#444444"/>
<path d="M219.282 8.15041C219.402 8.85512 219.365 9.64717 219.182 10.4423H219.215L219.089 10.8038C219.014 11.0649 218.919 11.3319 218.812 11.5943L215.933 19.66C218.571 18.2523 220.367 15.4728 220.367 12.2735C220.367 10.7743 219.972 9.36741 219.282 8.15041Z" fill="#444444"/>
<path d="M209.419 20.2345C210.232 20.4978 211.099 20.6406 212 20.6406C212.859 20.6406 213.688 20.511 214.468 20.2705L212.02 13.352L209.419 20.2345Z" fill="#444444"/>
<path d="M219.071 5.20236C217.182 3.31362 214.671 2.27344 212 2.27344C209.329 2.27344 206.818 3.31362 204.929 5.20236C203.04 7.09111 202 9.60231 202 12.2735C202 14.9446 203.04 17.4558 204.929 19.3445C206.818 21.2333 209.329 22.2734 212 22.2734C214.671 22.2734 217.182 21.2333 219.071 19.3445C220.96 17.4558 222 14.9445 222 12.2735C222 9.60231 220.96 7.09111 219.071 5.20236ZM212 21.568C206.875 21.568 202.705 17.3985 202.705 12.2735C202.705 7.14842 206.875 2.97886 212 2.97886C217.125 2.97886 221.294 7.14842 221.294 12.2735C221.294 17.3985 217.125 21.568 212 21.568Z" fill="#444444"/>
<rect x="242" y="2.27344" width="20" height="20" fill="black"/>
<path d="M258.303 7.68375L259.5 6.5267V6.27344H255.354L252.399 13.7059L249.037 6.27344H244.689V6.5267L246.087 8.22754C246.224 8.35323 246.295 8.53702 246.277 8.72207V15.4061C246.32 15.6467 246.242 15.8943 246.075 16.0692L244.5 17.9981V18.2482H248.966V17.9949L247.391 16.0692C247.22 15.8936 247.139 15.6505 247.174 15.4061V9.6246L251.094 18.2513H251.549L254.92 9.6246V16.4968C254.92 16.6781 254.92 16.7153 254.802 16.8341L253.59 18.0195V18.2734H259.472V18.0202L258.304 16.8638C258.201 16.7854 258.148 16.6541 258.17 16.5265V8.02102C258.148 7.89281 258.201 7.76144 258.303 7.68375V7.68375Z" fill="white"/>
<path d="M296.034 3.27344H287.966C285.201 3.27344 283 5.53049 283 8.23895V16.3079C283 19.0728 285.257 21.2734 287.966 21.2734H296.034C298.799 21.2734 301 19.0164 301 16.3079V8.29538C301 5.53049 298.743 3.27344 296.034 3.27344ZM299.42 16.3643C299.42 18.2264 297.897 19.7499 296.034 19.7499H287.966C286.103 19.7499 284.58 18.2264 284.58 16.3643V8.29538C284.58 6.43331 286.103 4.9098 287.966 4.9098H296.034C297.897 4.9098 299.42 6.43331 299.42 8.29538V16.3643Z" fill="url(#paint0_linear_147_23108)"/>
<path d="M291.972 7.67467C289.433 7.67467 287.345 9.76244 287.345 12.3016C287.345 14.8408 289.433 16.9286 291.972 16.9286C294.511 16.9286 296.599 14.8408 296.599 12.3016C296.599 9.76244 294.511 7.67467 291.972 7.67467ZM291.972 15.3486C290.279 15.3486 288.925 13.9944 288.925 12.3016C288.925 10.6088 290.279 9.2546 291.972 9.2546C293.665 9.2546 295.019 10.6088 295.019 12.3016C295.019 13.9944 293.665 15.3486 291.972 15.3486Z" fill="url(#paint1_linear_147_23108)"/>
<path d="M296.824 6.32059C296.542 6.32059 296.204 6.43344 295.978 6.65915C295.752 6.88485 295.64 7.16699 295.64 7.50555C295.64 7.78768 295.752 8.12624 295.978 8.35195C296.204 8.57765 296.486 8.69051 296.824 8.69051C297.107 8.69051 297.445 8.57765 297.671 8.35195C297.897 8.12624 298.009 7.84411 298.009 7.50555C298.009 7.22341 297.897 6.88485 297.671 6.65915C297.445 6.43344 297.107 6.32059 296.824 6.32059Z" fill="url(#paint2_linear_147_23108)"/>
<path d="M332 2.27344C337.523 2.27344 342 6.75059 342 12.2734C342 17.7963 337.523 22.2734 332 22.2734C326.477 22.2734 322 17.7963 322 12.2734C322 6.75059 326.477 2.27344 332 2.27344ZM327.569 5.28613C327.038 5.17916 326.991 5.2074 326.85 5.73828C326.672 6.40725 326.655 7.07705 326.836 7.75C326.862 7.84787 326.835 8.0049 326.771 8.07715C325.363 9.7006 325.873 12.7684 326.822 13.9434C327.56 14.856 328.541 15.2661 329.63 15.4795C329.819 15.5157 330.007 15.5432 330.196 15.5771V15.5781H330.197C330.034 16.0161 329.889 16.4302 329.724 16.8369C329.691 16.9153 329.588 16.9816 329.504 17.0146C328.436 17.4425 327.518 17.1278 326.907 16.127C326.581 15.5933 326.162 15.1947 325.537 15.0791C325.517 15.0751 325.497 15.0636 325.479 15.0664C325.311 15.1119 325.144 15.1604 324.977 15.207C325.071 15.3424 325.138 15.5241 325.264 15.6055C325.793 15.9514 326.138 16.4452 326.365 17.0273C326.723 17.9397 327.417 18.3461 328.318 18.4258C328.758 18.4627 329.203 18.4316 329.685 18.4316C329.685 18.9984 329.658 19.7778 329.63 20.4219C330.905 20.7991 332.003 20.7921 332.014 20.792C332.42 20.792 333.924 20.7549 334.532 20.4219C334.527 19.6896 334.521 18.6933 334.532 17.9609C334.544 17.1189 334.525 16.2874 333.904 15.5928C334.273 15.5245 334.602 15.4766 334.923 15.4004C337.05 14.8957 338.155 13.5095 338.296 11.209C338.368 10.0382 338.166 8.96419 337.413 8.04199C337.359 7.97717 337.356 7.82981 337.382 7.73535C337.582 6.97291 337.524 6.22779 337.29 5.48242C337.232 5.29636 337.136 5.23903 336.958 5.25098C336.334 5.2869 335.761 5.51317 335.257 5.86133C334.771 6.19865 334.318 6.27218 333.74 6.13574C332.468 5.83929 331.187 5.92564 329.917 6.22949C329.773 6.26471 329.58 6.21733 329.448 6.1377C328.852 5.77703 328.257 5.42614 327.569 5.28613Z" fill="#24292E"/>
<path d="M381.003 12.4811C381.003 11.8693 380.953 11.2542 380.845 10.6523H372.184V14.1181H377.143C376.937 15.2358 376.276 16.2246 375.308 16.853V19.1017H378.267C380.004 17.5342 381.003 15.2193 381.003 12.4811Z" fill="#4285F4"/>
<path d="M372.182 21.2754C374.658 21.2754 376.747 20.4784 378.269 19.1027L375.31 16.8539C374.486 17.4029 373.424 17.7138 372.185 17.7138C369.79 17.7138 367.759 16.1297 367.03 14H363.977V16.3182C365.535 19.3573 368.71 21.2754 372.182 21.2754Z" fill="#34A853"/>
<path d="M367.027 13.9985C366.642 12.8807 366.642 11.6703 367.027 10.5526V8.23438H363.977C362.674 10.7775 362.674 13.7736 363.977 16.3167L367.027 13.9985Z" fill="#FBBC04"/>
<path d="M372.182 6.83568C373.491 6.81584 374.756 7.29866 375.704 8.18494L378.326 5.6154C376.666 4.08757 374.463 3.24759 372.182 3.27404C368.71 3.27404 365.535 5.1921 363.977 8.23454L367.027 10.5528C367.752 8.41974 369.786 6.83568 372.182 6.83568Z" fill="#EA4335"/>
<path d="M421.574 13.8627C421.28 15.3441 418.941 16.9653 416.255 17.2795C414.854 17.4432 413.474 17.5937 412.004 17.5276C409.598 17.4197 407.7 16.9653 407.7 16.9653C407.7 17.1946 407.715 17.413 407.744 17.6172C408.056 19.9422 410.097 20.0814 412.031 20.1464C413.982 20.2118 415.72 19.6752 415.72 19.6752L415.8 21.4031C415.8 21.4031 414.435 22.1209 412.004 22.253C410.663 22.3252 408.998 22.2199 407.059 21.7173C402.853 20.627 402.13 16.2363 402.019 11.7813C401.986 10.4585 402.006 9.21124 402.006 8.16807C402.006 3.61253 405.054 2.27723 405.054 2.27723C406.59 1.58605 409.227 1.29539 411.968 1.27344H412.036C414.777 1.29539 417.415 1.58605 418.952 2.27723C418.952 2.27723 421.999 3.61253 421.999 8.16807C421.999 8.16807 422.037 11.5292 421.574 13.8627Z" fill="#2B90D9"/>
<path d="M418.403 8.52057V14.0366H416.172V8.6827C416.172 7.55411 415.687 6.98127 414.717 6.98127C413.645 6.98127 413.107 7.6608 413.107 9.00447V11.935H410.889V9.00447C410.889 7.6608 410.352 6.98127 409.28 6.98127C408.31 6.98127 407.825 7.55411 407.825 8.6827V14.0366H405.594V8.52057C405.594 7.39322 405.887 6.49737 406.476 5.83458C407.083 5.1718 407.878 4.83203 408.864 4.83203C410.006 4.83203 410.871 5.26186 411.443 6.12162L411.998 7.03411L412.554 6.12162C413.126 5.26186 413.99 4.83203 415.132 4.83203C416.119 4.83203 416.914 5.1718 417.521 5.83458C418.11 6.49737 418.403 7.39322 418.403 8.52057Z" fill="white"/>
<path d="M460 4.27344H444C442.9 4.27344 442.01 5.17344 442.01 6.27344L442 18.2734C442 19.3734 442.9 20.2734 444 20.2734H460C461.1 20.2734 462 19.3734 462 18.2734V6.27344C462 5.17344 461.1 4.27344 460 4.27344ZM460 18.2734H444V8.27344L452 15.2734L460 8.27344V18.2734ZM452 13.2734L444 6.27344H460L452 13.2734Z" fill="#FF6F3D"/>
<path fill-rule="evenodd" clip-rule="evenodd" d="M490.778 21.7942L482.527 17.934C481.824 17.597 481.824 17.0762 482.527 16.7699L485.4 15.4219L490.747 17.934C491.45 18.271 492.581 18.271 493.253 17.934L498.6 15.4219L501.473 16.7699C502.176 17.1069 502.176 17.6277 501.473 17.934L493.222 21.7942C492.581 22.1006 491.45 22.1006 490.778 21.7942Z" fill="#FF6F3D"/>
<path fill-rule="evenodd" clip-rule="evenodd" d="M490.751 17.017L482.526 13.1524C481.825 12.815 481.825 12.2936 482.526 11.9869L485.328 10.668L490.751 13.2137C491.452 13.5511 492.579 13.5511 493.249 13.2137L498.672 10.668L501.474 11.9869C502.175 12.3242 502.175 12.8457 501.474 13.1524L493.249 17.017C492.548 17.3544 491.421 17.3544 490.751 17.017Z" fill="#95C038"/>
<path fill-rule="evenodd" clip-rule="evenodd" d="M490.751 12.2897L482.526 8.48063C481.825 8.1481 481.825 7.63418 482.526 7.33188L490.751 3.52284C491.452 3.1903 492.579 3.1903 493.249 3.52284L501.474 7.33188C502.175 7.66441 502.175 8.17833 501.474 8.48063L493.249 12.2897C492.548 12.592 491.421 12.592 490.751 12.2897Z" fill="#5DC0E8"/>
<path d="M535.612 9.13379C536.854 10.0103 538.375 10.526 540.018 10.526V7.4041C539.707 7.40417 539.397 7.37215 539.092 7.30851V9.76591C537.45 9.76591 535.929 9.25018 534.687 8.37373V14.7447C534.687 17.9317 532.07 20.5152 528.843 20.5152C527.639 20.5152 526.52 20.1557 525.59 19.5392C526.651 20.6106 528.131 21.2752 529.768 21.2752C532.996 21.2752 535.612 18.6918 535.612 15.5046V9.13379H535.612V9.13379ZM536.753 5.98415C536.119 5.29954 535.702 4.41481 535.612 3.4367V3.03516H534.735C534.956 4.27833 535.709 5.34043 536.753 5.98415ZM527.631 17.0935C527.277 16.6344 527.085 16.0729 527.086 15.4955C527.086 14.0378 528.283 12.8559 529.759 12.8559C530.034 12.8559 530.308 12.8975 530.57 12.9796V9.78795C530.263 9.74647 529.954 9.72887 529.645 9.73532V12.2196C529.383 12.1374 529.109 12.0957 528.834 12.096C527.357 12.096 526.161 13.2777 526.161 14.7355C526.161 15.7663 526.759 16.6588 527.631 17.0935Z" fill="#FF004F"/>
<path d="M534.688 8.37367C535.93 9.25012 537.451 9.76584 539.094 9.76584V7.30844C538.177 7.11556 537.365 6.64235 536.755 5.98415C535.71 5.34036 534.957 4.27827 534.737 3.03516H532.433V15.5045C532.428 16.9581 531.233 18.1352 529.76 18.1352C528.892 18.1352 528.121 17.7265 527.632 17.0935C526.76 16.6588 526.162 15.7663 526.162 14.7356C526.162 13.2779 527.359 12.096 528.835 12.096C529.118 12.096 529.391 12.1395 529.646 12.2197V9.73539C526.476 9.80007 523.926 12.3583 523.926 15.5045C523.926 17.0751 524.561 18.4989 525.591 19.5392C526.521 20.1557 527.64 20.5152 528.844 20.5152C532.072 20.5152 534.688 17.9317 534.688 14.7447V8.37367H534.688Z" fill="black"/>
<path d="M539.093 7.30671V6.64225C538.266 6.64349 537.456 6.41481 536.754 5.98236C537.375 6.65379 538.193 7.11677 539.093 7.30671ZM534.736 3.03343C534.715 2.91462 534.699 2.79503 534.687 2.67498V2.27344H531.507V14.7429C531.502 16.1963 530.308 17.3734 528.834 17.3734C528.402 17.3734 527.993 17.272 527.632 17.0918C528.12 17.7248 528.891 18.1334 529.76 18.1334C531.233 18.1334 532.428 16.9565 532.433 15.5028V3.03343H534.736ZM529.646 9.73366V9.02629C529.38 8.99043 529.112 8.97243 528.844 8.97256C525.616 8.9725 523 11.5561 523 14.7429C523 16.7408 524.028 18.5016 525.591 19.5374C524.56 18.4971 523.925 17.0732 523.925 15.5027C523.925 12.3566 526.475 9.79834 529.646 9.73366Z" fill="#00F2EA"/>
<path d="M577.5 2.27344H566.5C564.015 2.27344 562 4.28816 562 6.77344V17.7734C562 20.2587 564.015 22.2734 566.5 22.2734H577.5C579.985 22.2734 582 20.2587 582 17.7734V6.77344C582 4.28816 579.985 2.27344 577.5 2.27344Z" fill="#FF4906"/>
<path fill-rule="evenodd" clip-rule="evenodd" d="M575.998 12.0742C577.398 12.0742 578.598 13.2742 578.598 14.8742V16.8742C578.598 18.2742 577.398 19.4742 575.998 19.4742H571.998C570.598 19.4742 569.398 18.2742 569.398 16.8742V14.8742C569.398 13.2742 570.598 12.0742 571.998 12.0742H575.998ZM575.998 13.4742H571.998C571.663 13.5226 571.356 13.6913 571.135 13.9488C570.915 14.2063 570.795 14.5351 570.798 14.8742V16.8742C570.839 17.178 570.979 17.46 571.196 17.6768C571.413 17.8935 571.695 18.0332 571.998 18.0742H575.998C576.302 18.0332 576.584 17.8935 576.801 17.6768C577.018 17.46 577.157 17.178 577.198 16.8742V14.8742C577.202 14.5351 577.082 14.2063 576.861 13.9488C576.641 13.6913 576.334 13.5226 575.998 13.4742Z" fill="white"/>
<path d="M570.397 4.27344C570.87 4.27344 571.338 4.36655 571.775 4.54747C572.211 4.72839 572.608 4.99356 572.942 5.32785C573.277 5.66214 573.542 6.059 573.723 6.49578C573.904 6.93255 573.997 7.40068 573.997 7.87344C573.997 8.3462 573.904 8.81433 573.723 9.2511C573.542 9.68787 573.277 10.0847 572.942 10.419C572.608 10.7533 572.211 11.0185 571.775 11.1994C571.338 11.3803 570.87 11.4734 570.397 11.4734C569.442 11.4734 568.526 11.0942 567.851 10.419C567.176 9.74389 566.797 8.82822 566.797 7.87344C566.797 6.91866 567.176 6.00298 567.851 5.32785C568.526 4.65272 569.442 4.27344 570.397 4.27344ZM570.397 5.67344C569.813 5.67344 569.254 5.90522 568.841 6.3178C568.429 6.73038 568.197 7.28996 568.197 7.87344C568.197 8.45691 568.429 9.01649 568.841 9.42907C569.254 9.84165 569.813 10.0734 570.397 10.0734C570.98 10.0734 571.54 9.84165 571.953 9.42907C572.365 9.01649 572.597 8.45691 572.597 7.87344C572.597 7.28996 572.365 6.73038 571.953 6.3178C571.54 5.90522 570.98 5.67344 570.397 5.67344Z" fill="white"/>
<path d="M575.6 5.27344C576.422 5.27344 577.211 5.60004 577.792 6.18141C578.373 6.76277 578.7 7.55127 578.7 8.37344C578.7 9.19561 578.373 9.98411 577.792 10.5655C577.211 11.1468 576.422 11.4734 575.6 11.4734C574.778 11.4734 573.989 11.1468 573.408 10.5655C572.827 9.98411 572.5 9.19561 572.5 8.37344C572.5 7.55127 572.827 6.76277 573.408 6.18141C573.989 5.60004 574.778 5.27344 575.6 5.27344ZM575.6 6.67344C575.377 6.67344 575.156 6.71741 574.949 6.80284C574.743 6.88828 574.556 7.0135 574.398 7.17136C574.24 7.32922 574.115 7.51662 574.029 7.72288C573.944 7.92913 573.9 8.15019 573.9 8.37344C573.9 8.59668 573.944 8.81775 574.029 9.024C574.115 9.23025 574.24 9.41766 574.398 9.57552C574.556 9.73338 574.743 9.8586 574.949 9.94403C575.156 10.0295 575.377 10.0734 575.6 10.0734C576.051 10.0734 576.483 9.89433 576.802 9.57552C577.121 9.25671 577.3 8.82431 577.3 8.37344C577.3 7.92257 577.121 7.49017 576.802 7.17136C576.483 6.85254 576.051 6.67344 575.6 6.67344Z" fill="white"/>
<path fill-rule="evenodd" clip-rule="evenodd" d="M566.598 12.6719L567.198 12.8719L570.798 14.6719V17.0719L567.198 18.8719C567.004 18.9871 566.781 19.0451 566.555 19.0391C566.329 19.0331 566.109 18.9634 565.921 18.838C565.733 18.7126 565.584 18.5366 565.492 18.3303C565.399 18.124 565.367 17.8957 565.398 17.6719V13.8719C565.398 13.5536 565.525 13.2484 565.75 13.0233C565.975 12.7983 566.28 12.6719 566.598 12.6719ZM566.998 14.2719L566.798 14.6719V17.0719C566.838 17.1413 566.897 17.1974 566.968 17.233C567.039 17.2686 567.119 17.2822 567.198 17.2719L569.398 16.2719V15.4719L567.198 14.2719C567.133 14.2549 567.064 14.2549 566.998 14.2719Z" fill="white"/>
<path d="M617.5 2.27344H606.5C604.015 2.27344 602 4.28816 602 6.77344V17.7734C602 20.2587 604.015 22.2734 606.5 22.2734H617.5C619.985 22.2734 622 20.2587 622 17.7734V6.77344C622 4.28816 619.985 2.27344 617.5 2.27344Z" fill="#FB5E5F"/>
<path fill-rule="evenodd" clip-rule="evenodd" d="M607.737 8.05649H609.071C609.041 10.484 608.994 11.9355 608.626 13.0572H611.406V14.2015H608.07C607.538 14.9957 606.714 15.729 605.429 16.7605H603.32C603.401 16.7053 603.481 16.6405 603.553 16.5825L603.587 16.5548C604.892 15.5396 605.782 14.8374 606.387 14.2015H603V13.0572H607.202C607.671 12.043 607.697 10.6058 607.737 8.05649ZM606.748 10.0232V8.75042L603.773 8.339V9.61182L606.748 10.0232ZM603.773 10.4993V11.7721L606.748 12.1835V10.9107L603.773 10.4993ZM616.089 13.0572H612.58V14.2015H616.089V16.7732H617.463V14.2015H620.986V13.0572H617.463V12.4148H616.089V13.0572ZM615.354 8.339H619.291H620.519L620.519 9.66325C620.134 9.99374 619.556 10.4706 618.553 10.9714C619.253 11.1452 620.062 11.3117 621 11.4632V12.6846C619.191 12.3995 617.815 12.0584 616.753 11.7075C615.678 12.0682 614.317 12.4098 612.58 12.6846V11.4632C613.491 11.3155 614.281 11.1543 614.967 10.9863C614.231 10.6216 613.756 10.282 613.394 10.0233C613.354 9.99431 613.059 9.76976 612.914 9.65958L612.819 9.5991L614.087 7.77344L615.354 8.339ZM618.807 9.48326C618.362 9.77383 617.733 10.1105 616.792 10.4468C615.853 10.1107 615.217 9.77385 614.753 9.48326H618.807ZM610.099 14.7678H608.484L609.779 16.7734H611.406L610.099 14.7678ZM618.089 14.7678H619.704L620.998 16.7734H619.384L618.089 14.7678ZM615.502 14.7678H613.887L612.593 16.7734H614.208L615.502 14.7678Z" fill="white"/>
<path d="M657.5 2.27344H646.5C644.015 2.27344 642 4.28816 642 6.77344V17.7734C642 20.2587 644.015 22.2734 646.5 22.2734H657.5C659.985 22.2734 662 20.2587 662 17.7734V6.77344C662 4.28816 659.985 2.27344 657.5 2.27344Z" fill="#F04142"/>
<path fill-rule="evenodd" clip-rule="evenodd" d="M651.453 9.23446L650.7 10.7812H651.883L650.918 12.7186H651.724L651.19 13.8022H650.087C649.57 13.8022 649.336 13.4493 649.562 12.9843L650.083 11.8968H649.806C649.29 11.8968 649.039 11.5614 649.263 11.0966L650.124 9.23438L651.453 9.23446ZM656.3 9.65898H655.483V10.859H656.3V11.7346H655.144V12.9346H656.3V15.3813H657.5V12.9346H659.376C659.542 12.9346 659.676 13.0689 659.676 13.2346V13.9813C659.676 14.147 659.542 14.2813 659.376 14.2813H658.457L658.986 15.3813H659.776C660.384 15.3813 660.876 14.8889 660.876 14.2813V12.8346C660.876 12.2271 660.384 11.7346 659.776 11.7346H659.415V10.759C659.415 10.1515 658.923 9.65898 658.315 9.65898H657.5V9.26984H656.3V9.65898ZM658.215 11.7346V10.859H657.5V11.7346H658.215ZM646.611 9.27194V14.4813C646.611 14.9784 646.208 15.3813 645.711 15.3813H645.049L644.479 14.3278H645.111C645.277 14.3278 645.411 14.1935 645.411 14.0278V9.27194H646.611ZM660.234 9.62509C660.565 9.62509 660.834 9.89372 660.834 10.2251C660.852 10.7753 660.45 10.8243 659.634 10.8243V10.2251C659.634 9.89372 659.903 9.62509 660.234 9.62509ZM652.099 9.65898H654.892V10.859H654.091V14.1813H655.29V15.3813H651.232L651.853 14.1813H652.891V10.859H652.099V9.65898ZM648.607 10.7269L648.686 12.6598C648.702 12.9702 648.775 13.275 648.902 13.5585L648.197 14.8672L647.807 14.0502C647.619 13.6301 647.51 13.1785 647.488 12.7186L647.39 10.7269H648.607ZM644.605 10.7595L644.537 12.7225C644.516 13.18 644.407 13.6292 644.218 14.0462L643.778 14.8675L643.125 13.5498C643.251 13.2718 643.324 12.9723 643.338 12.6673L643.417 10.7595H644.605ZM649.848 14.1813C649.82 14.1813 649.793 14.1774 649.766 14.1698L649.348 14.0502L648.781 15.2406C649.025 15.3395 649.473 15.3813 649.806 15.3813H650.601L651.157 14.1813H649.848Z" fill="white"/>
<path d="M697 2.27344H687C684.239 2.27344 682 4.51197 682 7.27337L682 17.2734C682 20.0348 684.239 22.2734 687 22.2734H697C699.762 22.2734 702 20.0349 702 17.2734V7.27344C702 4.51201 699.762 2.27344 697 2.27344Z" fill="#EC6140"/>
<path fill-rule="evenodd" clip-rule="evenodd" d="M693.784 7.3351C692.171 6.84423 690.696 7.60559 689.646 8.83992C688.477 10.2141 688.168 12.3965 688.423 14.1256C688.668 15.7834 689.777 16.712 691.339 17.0788C692.991 17.4667 694.969 17.0788 696.272 15.9323C696.83 15.4409 697.27 15.4998 697.65 16.0443C698.031 16.5887 698.195 17.5231 697.65 17.9038C695.554 19.3699 692.967 19.7336 690.474 19.148C688.12 18.5952 686.469 16.7682 686.116 14.3777C685.759 11.9666 686.2 9.57339 687.817 7.67377C689.484 5.71482 692.064 4.61083 694.588 5.37878C695.587 5.68265 696.125 5.93566 696.903 6.64456C697.394 7.09196 697.35 7.99137 696.903 8.48242C696.456 8.97347 696.063 8.92982 695.572 8.48242C695.075 8.02984 694.44 7.53449 693.784 7.3351Z" fill="white"/>
<path fill-rule="evenodd" clip-rule="evenodd" d="M724 5.27344H740C742.209 5.27344 744 7.0643 744 9.27344V19.2734C744 21.4826 742.209 23.2734 740 23.2734H724C721.791 23.2734 720 21.4826 720 19.2734V9.27344C720 7.0643 721.791 5.27344 724 5.27344ZM724 8.27344C723.448 8.27344 723 8.72115 723 9.27344V19.2734C723 19.8257 723.448 20.2734 724 20.2734H740C740.552 20.2734 741 19.8257 741 19.2734V9.27344C741 8.72115 740.552 8.27344 740 8.27344H724Z" fill="#20B0E3"/>
<path d="M726 12.7734C726 11.945 726.672 11.2734 727.5 11.2734V11.2734C728.328 11.2734 729 11.945 729 12.7734V14.7734C729 15.6019 728.328 16.2734 727.5 16.2734V16.2734C726.672 16.2734 726 15.6019 726 14.7734V12.7734Z" fill="#20B0E3"/>
<path d="M724.351 3.90987C723.726 3.36637 723.659 2.41894 724.203 1.79372V1.79372C724.746 1.1685 725.694 1.10224 726.319 1.64574L730.805 5.54506C731.43 6.08856 731.496 7.03599 730.953 7.66121V7.66121C730.409 8.28643 729.462 8.35269 728.836 7.80919L724.351 3.90987Z" fill="#20B0E3"/>
<path d="M739.01 4.09457C739.755 3.44691 739.919 2.41503 739.375 1.78981V1.78981C738.832 1.16459 737.787 1.18278 737.042 1.83045L733.29 5.09223C732.545 5.7399 732.381 6.77178 732.925 7.397V7.397C733.468 8.02222 734.513 8.00403 735.258 7.35636L739.01 4.09457Z" fill="#20B0E3"/>
<path d="M735 12.7734C735 11.945 735.672 11.2734 736.5 11.2734V11.2734C737.328 11.2734 738 11.945 738 12.7734V14.7734C738 15.6019 737.328 16.2734 736.5 16.2734V16.2734C735.672 16.2734 735 15.6019 735 14.7734V12.7734Z" fill="#20B0E3"/>
<path fill-rule="evenodd" clip-rule="evenodd" d="M761.766 16.0268C761.766 18.9015 765.405 21.2339 769.894 21.2339C774.383 21.2339 778.021 18.9015 778.021 16.0268C778.021 13.152 774.382 10.8203 769.894 10.8203C765.405 10.8203 761.766 13.152 761.766 16.0268Z" fill="#FEFEFE"/>
<path fill-rule="evenodd" clip-rule="evenodd" d="M770.082 20.8119C766.109 21.2154 762.68 19.368 762.421 16.6841C762.163 14.0015 765.176 11.4988 769.148 11.0946C773.122 10.6903 776.55 12.5378 776.81 15.2203C777.066 17.9043 774.055 20.4076 770.083 20.8119M778.029 11.9037C777.69 11.7998 777.458 11.7293 777.636 11.2717C778.02 10.28 778.059 9.4243 777.643 8.81419C776.864 7.66852 774.732 7.73077 772.289 8.78341C772.289 8.78273 771.522 9.12882 771.718 8.50298C772.094 7.2595 772.037 6.21849 771.452 5.61727C770.127 4.25273 766.601 5.66857 763.578 8.77725C761.315 11.1076 760 13.5761 760 15.7101C760 19.7934 765.09 22.2749 770.069 22.2749C776.596 22.2749 780.938 18.3749 780.938 15.2771C780.938 13.4051 779.405 12.3428 778.029 11.9037Z" fill="#D52C2B"/>
<path fill-rule="evenodd" clip-rule="evenodd" d="M782.362 4.43045C780.786 2.63295 778.46 1.9476 776.313 2.41681C775.817 2.52625 775.5 3.02829 775.606 3.53854C775.712 4.04947 776.2 4.37573 776.697 4.26561C778.224 3.93251 779.876 4.42019 780.997 5.69718C781.527 6.29678 781.894 7.03494 782.06 7.83463C782.226 8.63432 782.185 9.46624 781.941 10.2436C781.785 10.7408 782.048 11.273 782.533 11.4337C783.015 11.5944 783.533 11.3229 783.691 10.8263V10.8229C784.034 9.72981 784.091 8.55981 783.857 7.43526C783.624 6.31071 783.107 5.27293 782.362 4.43045Z" fill="#E79115"/>
<path fill-rule="evenodd" clip-rule="evenodd" d="M779.945 6.6783C779.177 5.80281 778.045 5.4704 777 5.69885C776.899 5.71946 776.803 5.76096 776.718 5.82091C776.633 5.88086 776.56 5.95807 776.503 6.04803C776.447 6.13799 776.408 6.2389 776.389 6.34488C776.369 6.45086 776.371 6.55979 776.392 6.66531C776.483 7.10306 776.903 7.38554 777.329 7.28978V7.29115C777.588 7.23352 777.857 7.24718 778.109 7.33082C778.361 7.41446 778.589 7.56523 778.77 7.76857C779.146 8.19674 779.246 8.78017 779.084 9.29179H779.086C779.054 9.39429 779.043 9.50236 779.051 9.60969C779.06 9.71701 779.089 9.82146 779.136 9.91695C779.183 10.0124 779.248 10.0971 779.327 10.1659C779.406 10.2347 779.497 10.2863 779.595 10.3178C780.011 10.4539 780.456 10.2206 780.59 9.79246C780.758 9.26019 780.787 8.69022 780.673 8.14231C780.56 7.5944 780.308 7.08873 779.945 6.6783Z" fill="#E79115"/>
<path fill-rule="evenodd" clip-rule="evenodd" d="M770.3 15.9492C770.162 16.1941 769.854 16.3117 769.613 16.2091C769.377 16.1093 769.302 15.8364 769.438 15.5956C769.576 15.3569 769.871 15.2399 770.107 15.3371C770.347 15.4267 770.433 15.703 770.3 15.9492ZM769.035 17.6216C768.649 18.2515 767.827 18.5278 767.207 18.2371C766.596 17.9512 766.416 17.218 766.8 16.6038C767.179 15.9903 767.975 15.7181 768.59 15.9834C769.213 16.257 769.411 16.9841 769.035 17.6216ZM770.478 13.1579C768.587 12.6511 766.45 13.6203 765.629 15.335C764.793 17.0826 765.602 19.023 767.512 19.6578C769.49 20.3144 771.822 19.3076 772.633 17.4218C773.433 15.5772 772.435 13.6777 770.478 13.1579Z" fill="#060101"/>
<path fill-rule="evenodd" clip-rule="evenodd" d="M822 12.2734C822 17.7963 817.523 22.2734 812 22.2734C806.477 22.2734 802 17.7963 802 12.2734C802 6.75059 806.477 2.27344 812 2.27344C817.523 2.27344 822 6.75059 822 12.2734ZM812.358 9.65588C811.386 10.0604 809.442 10.8978 806.527 12.1679C806.053 12.3561 805.805 12.5403 805.783 12.7204C805.744 13.0247 806.126 13.1445 806.645 13.3077C806.715 13.3299 806.788 13.3529 806.863 13.3773C807.374 13.5433 808.061 13.7374 808.418 13.7451C808.742 13.7521 809.103 13.6186 809.502 13.3445C812.226 11.5059 813.632 10.5766 813.72 10.5566C813.783 10.5424 813.869 10.5247 813.927 10.5766C813.986 10.6286 813.98 10.727 813.974 10.7534C813.936 10.9144 812.44 12.3052 811.666 13.0249C811.425 13.2493 811.253 13.4084 811.218 13.4448C811.14 13.5263 811.06 13.6033 810.983 13.6773C810.509 14.1345 810.153 14.4774 811.003 15.0374C811.411 15.3065 811.738 15.529 812.064 15.751C812.42 15.9935 812.775 16.2354 813.235 16.5365C813.352 16.6133 813.463 16.6929 813.572 16.7705C813.987 17.0659 814.359 17.3313 814.819 17.2889C815.086 17.2644 815.362 17.0131 815.502 16.2638C815.833 14.4928 816.485 10.6555 816.635 9.07425C816.648 8.93571 816.632 8.75841 816.618 8.68059C816.605 8.60275 816.577 8.49186 816.476 8.40977C816.356 8.31255 816.171 8.29205 816.089 8.2935C815.713 8.30014 815.136 8.50079 812.358 9.65588Z" fill="#0EAEEC"/>
<path d="M860.347 4.70397C858.782 3.98839 857.121 3.46686 855.386 3.17578C855.168 3.55177 854.925 4.06116 854.755 4.4614C852.911 4.19457 851.079 4.19457 849.26 4.4614C849.09 4.06116 848.836 3.55177 848.629 3.17578C846.883 3.46686 845.221 3.98839 843.668 4.70397C840.526 9.33705 839.677 13.861 840.102 18.3242C842.188 19.8403 844.201 20.7621 846.179 21.3686C846.665 20.7136 847.101 20.0101 847.477 19.2703C846.762 19.0035 846.082 18.676 845.427 18.2879C845.597 18.1666 845.767 18.0332 845.925 17.8998C849.879 19.707 854.161 19.707 858.067 17.8998C858.236 18.0332 858.394 18.1666 858.564 18.2879C857.909 18.676 857.23 19.0035 856.514 19.2703C856.89 20.0101 857.327 20.7136 857.812 21.3686C859.789 20.7621 861.814 19.8403 863.889 18.3242C864.411 13.1576 863.064 8.67003 860.347 4.70397ZM848.023 15.5711C846.834 15.5711 845.864 14.4917 845.864 13.1697C845.864 11.8477 846.81 10.7682 848.023 10.7682C849.224 10.7682 850.206 11.8477 850.182 13.1697C850.182 14.4917 849.224 15.5711 848.023 15.5711ZM855.993 15.5711C854.804 15.5711 853.832 14.4917 853.832 13.1697C853.832 11.8477 854.78 10.7682 855.993 10.7682C857.193 10.7682 858.176 11.8477 858.151 13.1697C858.151 14.4917 857.205 15.5711 855.993 15.5711Z" fill="black"/>
</g>
<defs>
<linearGradient id="paint0_linear_147_23108" x1="301.017" y1="5.4051" x2="282.979" y2="11.4715" gradientUnits="userSpaceOnUse">
<stop stop-color="#E0316D"/>
<stop offset="1" stop-color="#B034AE"/>
</linearGradient>
<linearGradient id="paint1_linear_147_23108" x1="301.017" y1="5.4051" x2="282.979" y2="11.4715" gradientUnits="userSpaceOnUse">
<stop stop-color="#E0316D"/>
<stop offset="1" stop-color="#B034AE"/>
</linearGradient>
<linearGradient id="paint2_linear_147_23108" x1="301.017" y1="5.4051" x2="282.979" y2="11.4715" gradientUnits="userSpaceOnUse">
<stop stop-color="#E0316D"/>
<stop offset="1" stop-color="#B034AE"/>
</linearGradient>
<clipPath id="clip0_147_23108">
<rect y="0.273438" width="864.001" height="24" rx="5" fill="white"/>
</clipPath>
</defs>
</svg>
