<svg width="128" height="25" viewBox="0 0 128 25" fill="none" xmlns="http://www.w3.org/2000/svg">
<path fill-rule="evenodd" clip-rule="evenodd" d="M10.9721 24.1217L0.6589 19.1807C-0.219633 18.7493 -0.219633 18.0827 0.6589 17.6905L4.24943 15.9651L10.9339 19.1807C11.8125 19.612 13.2257 19.612 14.0661 19.1807L20.7506 15.9651L24.3411 17.6905C25.2196 18.1219 25.2196 18.7885 24.3411 19.1807L14.0279 24.1217C13.2257 24.5138 11.8125 24.5138 10.9721 24.1217Z" fill="#FF6F3D"/>
<path fill-rule="evenodd" clip-rule="evenodd" d="M10.9387 18.0074L0.656893 13.0607C-0.218964 12.6288 -0.218964 11.9614 0.656893 11.5688L4.16032 9.88062L10.9387 13.1392C11.8145 13.571 13.2235 13.571 14.0613 13.1392L20.8397 9.88062L24.3431 11.5688C25.219 12.0007 25.219 12.6681 24.3431 13.0607L14.0613 18.0074C13.1855 18.4393 11.7765 18.4393 10.9387 18.0074Z" fill="#95C038"/>
<path fill-rule="evenodd" clip-rule="evenodd" d="M10.9387 11.9565L0.656893 7.08098C-0.218964 6.65534 -0.218964 5.99752 0.656893 5.61057L10.9387 0.735005C11.8145 0.30936 13.2235 0.30936 14.0613 0.735005L24.3431 5.61057C25.219 6.03622 25.219 6.69403 24.3431 7.08098L14.0613 11.9565C13.1855 12.3435 11.7765 12.3435 10.9387 11.9565Z" fill="#5DC0E8"/>
<path d="M36.9389 6.38599C33.9435 6.38599 31 8.13764 31 12.4157C31 16.6938 33.9435 18.4454 36.9389 18.4454C39.9344 18.4454 42.8779 16.6938 42.8779 12.4157C42.8779 8.13764 39.9344 6.38599 36.9389 6.38599ZM36.9389 8.07027C37.8566 8.07027 40.2807 8.42397 40.2807 12.4157C40.2807 16.4075 37.8566 16.7612 36.9389 16.7612C36.0213 16.7612 33.5972 16.4075 33.5972 12.4157C33.5972 8.42397 36.0213 8.07027 36.9389 8.07027Z" fill="white"/>
<path d="M44.8754 6.52073V18.3107H47.3341V11.3715L47.2822 9.28295H47.3341L47.9401 10.5967L52.1649 18.3107H55.3508V6.52073H52.8921V13.46L52.9441 15.5485H52.8921L52.2515 13.9484L48.0613 6.52073H44.8754Z" fill="white"/>
<path d="M57.7769 6.52073V18.3107H65.0491V16.3233H60.2356V6.52073H57.7769Z" fill="white"/>
<path d="M62.9713 6.52073L67.4385 13.4937V18.3107H69.8972V13.5273L74.2605 6.52073H71.6633L69.1526 10.6641L68.7371 11.4725H68.6852L68.3042 10.6641L65.8109 6.52073H62.9713Z" fill="white"/>
<path d="M79.9889 6.38599C76.9935 6.38599 74.05 8.13764 74.05 12.4157C74.05 16.6938 76.9935 18.4454 79.9889 18.4454C82.9844 18.4454 85.9279 16.6938 85.9279 12.4157C85.9279 8.13764 82.9844 6.38599 79.9889 6.38599ZM79.9889 8.07027C80.9066 8.07027 83.3307 8.42397 83.3307 12.4157C83.3307 16.4075 80.9066 16.7612 79.9889 16.7612C79.0713 16.7612 76.6472 16.4075 76.6472 12.4157C76.6472 8.42397 79.0713 8.07027 79.9889 8.07027Z" fill="white"/>
<path d="M87.9254 6.52073V18.3107H90.3841V13.3084H94.505V11.3715H90.3841V8.50818H94.7128V6.52073H87.9254Z" fill="white"/>
<path d="M96.4475 6.52073V18.3107H98.9062V13.3084H103.027V11.3715H98.9062V8.50818H103.235V6.52073H96.4475Z" fill="white"/>
<path d="M104.97 18.3107H107.428V6.52073H104.97V18.3107Z" fill="white"/>
<path d="M118.704 15.9359C118.098 16.2054 117.25 16.458 116.176 16.458C113.994 16.458 112.021 15.2958 112.021 12.4494C112.021 10.0409 113.631 8.37344 116.349 8.37344C117.267 8.37344 118.046 8.54187 118.756 8.81135L118.86 6.79021C117.942 6.50389 117.128 6.38599 116.176 6.38599C112.367 6.38599 109.423 8.42397 109.423 12.4831C109.423 16.778 112.713 18.4454 115.726 18.4454C116.696 18.4454 117.786 18.2939 118.86 17.9402L118.704 15.9359Z" fill="white"/>
<path d="M120.762 6.52073V18.3107H128V16.2222H123.221V13.2073H127.567V11.2704H123.221V8.60924H128V6.52073H120.762Z" fill="white"/>
</svg>
