<svg width="24" height="24" viewBox="0 0 24 24" fill="none" xmlns="http://www.w3.org/2000/svg">
<path fill-rule="evenodd" clip-rule="evenodd" d="M13 3C13 2.44772 12.5523 2 12 2C11.4477 2 11 2.44772 11 3V12.5435L7.74265 9.29363C7.35168 8.90355 6.71617 8.90192 6.32319 9.28998L6.29579 9.31705C5.90282 9.70511 5.9012 10.3359 6.29217 10.726L11.2835 15.7058C11.4528 15.8748 11.668 15.9708 11.8895 15.994C11.9258 15.998 11.9627 16 12 16C12.0585 16 12.1158 15.995 12.1715 15.9853C12.3735 15.9531 12.5675 15.8594 12.7228 15.7044L17.7077 10.731C18.0987 10.3409 18.0971 9.71014 17.7041 9.32208L17.6767 9.29502C17.2837 8.90696 16.6482 8.90859 16.2572 9.29866L13 12.5484L13 3ZM2 21C2 20.4477 2.44772 20 3 20H21C21.5523 20 22 20.4477 22 21C22 21.5523 21.5523 22 21 22H3C2.44772 22 2 21.5523 2 21Z" fill="white"/>
<path d="M3 22C2.44772 22 2 21.5523 2 21L2 17.5449C2 16.9926 2.44772 16.5449 3 16.5449C3.55228 16.5449 4 16.9926 4 17.5449L4 21C4 21.5523 3.55228 22 3 22Z" fill="white"/>
<path d="M21 22C20.4477 22 20 21.5523 20 21L20 17.5449C20 16.9926 20.4477 16.5449 21 16.5449C21.5523 16.5449 22 16.9926 22 17.5449L22 21C22 21.5523 21.5523 22 21 22Z" fill="white"/>
</svg>
