<svg width="128" height="24" viewBox="0 0 128 24" fill="none" xmlns="http://www.w3.org/2000/svg">
<path opacity="0.5" fill-rule="evenodd" clip-rule="evenodd" d="M10.9721 23.7059L0.6589 18.7649C-0.219633 18.3335 -0.219633 17.6669 0.6589 17.2747L4.24943 15.5493L10.9339 18.7649C11.8125 19.1962 13.2257 19.1962 14.0661 18.7649L20.7506 15.5493L24.3411 17.2747C25.2196 17.7061 25.2196 18.3727 24.3411 18.7649L14.0279 23.7059C13.2257 24.098 11.8125 24.098 10.9721 23.7059Z" fill="white"/>
<path opacity="0.75" fill-rule="evenodd" clip-rule="evenodd" d="M10.9387 17.5916L0.656893 12.6448C-0.218964 12.213 -0.218964 11.5456 0.656893 11.153L4.16032 9.46478L10.9387 12.7234C11.8145 13.1552 13.2235 13.1552 14.0613 12.7234L20.8397 9.46478L24.3431 11.153C25.219 11.5848 25.219 12.2522 24.3431 12.6448L14.0613 17.5916C13.1855 18.0234 11.7765 18.0234 10.9387 17.5916Z" fill="white"/>
<path fill-rule="evenodd" clip-rule="evenodd" d="M10.9387 11.5408L0.656893 6.66521C-0.218964 6.23956 -0.218964 5.58175 0.656893 5.1948L10.9387 0.319234C11.8145 -0.106411 13.2235 -0.106411 14.0613 0.319234L24.3431 5.1948C25.219 5.62044 25.219 6.27826 24.3431 6.66521L14.0613 11.5408C13.1855 11.9277 11.7765 11.9277 10.9387 11.5408Z" fill="white"/>
<path d="M36.9389 5.97571C33.9435 5.97571 31 7.72578 31 12C31 16.2742 33.9435 18.0243 36.9389 18.0243C39.9344 18.0243 42.8779 16.2742 42.8779 12C42.8779 7.72578 39.9344 5.97571 36.9389 5.97571ZM36.9389 7.65847C37.8566 7.65847 40.2807 8.01185 40.2807 12C40.2807 15.9882 37.8566 16.3415 36.9389 16.3415C36.0213 16.3415 33.5972 15.9882 33.5972 12C33.5972 8.01185 36.0213 7.65847 36.9389 7.65847Z" fill="white"/>
<path d="M44.8754 6.11033V17.8897H47.3341V10.9567L47.2822 8.87006H47.3341L47.9401 10.1826L52.1649 17.8897H55.3508V6.11033H52.8921V13.0433L52.9441 15.1299H52.8921L52.2515 13.5313L48.0613 6.11033H44.8754Z" fill="white"/>
<path d="M57.7769 6.11033V17.8897H65.0491V15.904H60.2356V6.11033H57.7769Z" fill="white"/>
<path d="M62.9713 6.11033L67.4385 13.077V17.8897H69.8972V13.1106L74.2605 6.11033H71.6633L69.1526 10.2499L68.7371 11.0577H68.6852L68.3042 10.2499L65.8109 6.11033H62.9713Z" fill="white"/>
<path d="M79.9889 5.97571C76.9935 5.97571 74.05 7.72578 74.05 12C74.05 16.2742 76.9935 18.0243 79.9889 18.0243C82.9844 18.0243 85.9279 16.2742 85.9279 12C85.9279 7.72578 82.9844 5.97571 79.9889 5.97571ZM79.9889 7.65847C80.9066 7.65847 83.3307 8.01185 83.3307 12C83.3307 15.9882 80.9066 16.3415 79.9889 16.3415C79.0713 16.3415 76.6472 15.9882 76.6472 12C76.6472 8.01185 79.0713 7.65847 79.9889 7.65847Z" fill="white"/>
<path d="M87.9254 6.11033V17.8897H90.3841V12.8919H94.505V10.9567H90.3841V8.09599H94.7128V6.11033H87.9254Z" fill="white"/>
<path d="M96.4475 6.11033V17.8897H98.9062V12.8919H103.027V10.9567H98.9062V8.09599H103.235V6.11033H96.4475Z" fill="white"/>
<path d="M104.97 17.8897H107.428V6.11033H104.97V17.8897Z" fill="white"/>
<path d="M118.704 15.517C118.098 15.7862 117.25 16.0386 116.176 16.0386C113.994 16.0386 112.021 14.8775 112.021 12.0337C112.021 9.62731 113.631 7.96137 116.349 7.96137C117.267 7.96137 118.046 8.12965 118.756 8.39889L118.86 6.37957C117.942 6.0935 117.128 5.97571 116.176 5.97571C112.367 5.97571 109.423 8.01185 109.423 12.0673C109.423 16.3584 112.713 18.0243 115.726 18.0243C116.696 18.0243 117.786 17.8729 118.86 17.5195L118.704 15.517Z" fill="white"/>
<path d="M120.762 6.11033V17.8897H128V15.8031H123.221V12.7909H127.567V10.8557H123.221V8.19696H128V6.11033H120.762Z" fill="white"/>
</svg>
