<svg width="72" height="36" viewBox="0 0 72 36" fill="none" xmlns="http://www.w3.org/2000/svg">
<g filter="url(#filter0_i_7626_13193)">
<path d="M57.9871 36.0001C55.3376 36.0001 53.031 35.517 51.0673 34.5508C49.1036 33.5845 47.5918 32.2599 46.5321 30.5768C45.4723 28.8625 44.9424 26.9456 44.9424 24.8261H52.3765C52.3765 26.2599 52.8752 27.4287 53.8726 28.3326C54.9012 29.2053 56.2727 29.6417 57.9871 29.6417C59.1715 29.6417 60.169 29.4235 60.9794 28.9872C61.821 28.5508 62.4756 27.9586 62.9431 27.2105C63.4107 26.4313 63.6445 25.5586 63.6445 24.5924C63.6445 23.0963 63.1301 21.8651 62.1015 20.8989C61.1041 19.9326 59.7482 19.4495 58.0338 19.4495C57.1922 19.4495 56.3974 19.6053 55.6493 19.917C54.9012 20.1976 54.2623 20.556 53.7324 20.9924L50.179 15.2417L60.6989 8.32224L60.2781 7.52744H46.3918V0.981995H69.6759V8.08848L57.6598 15.756L53.4986 14.7742C54.1843 14.5248 54.9324 14.3378 55.7428 14.2131C56.5533 14.0885 57.3013 14.0261 57.9871 14.0261C60.6677 14.0261 62.9899 14.4625 64.9536 15.3352C66.9173 16.2079 68.4135 17.4235 69.4421 18.982C70.5019 20.5404 71.0318 22.3794 71.0318 24.4988V25.0599C71.0318 27.1482 70.5019 29.0183 69.4421 30.6703C68.4135 32.3222 66.9173 33.6313 64.9536 34.5975C62.9899 35.5326 60.6677 36.0001 57.9871 36.0001Z" fill="url(#paint0_radial_7626_13193)"/>
<path d="M57.9871 36.0001C55.3376 36.0001 53.031 35.517 51.0673 34.5508C49.1036 33.5845 47.5918 32.2599 46.5321 30.5768C45.4723 28.8625 44.9424 26.9456 44.9424 24.8261H52.3765C52.3765 26.2599 52.8752 27.4287 53.8726 28.3326C54.9012 29.2053 56.2727 29.6417 57.9871 29.6417C59.1715 29.6417 60.169 29.4235 60.9794 28.9872C61.821 28.5508 62.4756 27.9586 62.9431 27.2105C63.4107 26.4313 63.6445 25.5586 63.6445 24.5924C63.6445 23.0963 63.1301 21.8651 62.1015 20.8989C61.1041 19.9326 59.7482 19.4495 58.0338 19.4495C57.1922 19.4495 56.3974 19.6053 55.6493 19.917C54.9012 20.1976 54.2623 20.556 53.7324 20.9924L50.179 15.2417L60.6989 8.32224L60.2781 7.52744H46.3918V0.981995H69.6759V8.08848L57.6598 15.756L53.4986 14.7742C54.1843 14.5248 54.9324 14.3378 55.7428 14.2131C56.5533 14.0885 57.3013 14.0261 57.9871 14.0261C60.6677 14.0261 62.9899 14.4625 64.9536 15.3352C66.9173 16.2079 68.4135 17.4235 69.4421 18.982C70.5019 20.5404 71.0318 22.3794 71.0318 24.4988V25.0599C71.0318 27.1482 70.5019 29.0183 69.4421 30.6703C68.4135 32.3222 66.9173 33.6313 64.9536 34.5975C62.9899 35.5326 60.6677 36.0001 57.9871 36.0001Z" fill="url(#paint1_radial_7626_13193)"/>
</g>
<g filter="url(#filter1_i_7626_13193)">
<path d="M13.2317 0C15.6941 0 17.7981 0.420779 19.5437 1.26234C21.3203 2.10389 22.7698 3.27272 23.8919 4.76882C25.014 6.26493 25.84 8.01038 26.3699 10.0052C26.8998 11.9688 27.1647 14.0883 27.1647 16.3636V18.374C27.1647 23.9844 25.7309 28.2233 22.8633 31.0909C20.0268 33.9584 15.8812 35.3922 10.4264 35.3922C9.30428 35.3922 8.19774 35.361 7.10678 35.2987C6.01583 35.2363 4.97163 35.1428 3.97419 35.0181V28.5662C4.94046 28.6909 6.00024 28.7844 7.15353 28.8467C8.30683 28.9091 9.47571 28.9402 10.6602 28.9402C13.1226 28.9402 15.0396 28.5194 16.4111 27.6779C17.7825 26.8363 18.7332 25.6052 19.2631 23.9844C19.8242 22.3324 20.1047 20.3065 20.1047 17.9065V13.2312H21.6476C21.6165 15.5065 21.1645 17.4234 20.2917 18.9818C19.419 20.5402 18.2033 21.7246 16.6448 22.535C15.0863 23.3454 13.3096 23.7506 11.3147 23.7506C8.94582 23.7506 6.91976 23.2831 5.23658 22.348C3.55339 21.3818 2.25983 20.0415 1.3559 18.3272C0.451965 16.613 0 14.587 0 12.2493C0 9.787 0.54547 7.63635 1.63642 5.7974C2.75855 3.95844 4.30147 2.54026 6.26519 1.54285C8.26007 0.514285 10.5822 0 13.2317 0ZM13.4655 6.35844C12.1875 6.35844 11.0966 6.60778 10.1926 7.10648C9.28869 7.60519 8.58736 8.2909 8.08864 9.16363C7.62109 10.0364 7.38731 11.0338 7.38731 12.1558C7.38731 13.3402 7.62109 14.3688 8.08864 15.2415C8.55619 16.0831 9.22635 16.7532 10.0991 17.2519C11.003 17.7195 12.094 17.9532 13.372 17.9532C14.4629 17.9532 15.4915 17.735 16.4578 17.2987C17.4241 16.8623 18.1878 16.2234 18.7488 15.3818C19.341 14.5091 19.6372 13.4337 19.6372 12.1558C19.6372 11.0649 19.4034 10.0831 18.9358 9.21038C18.4995 8.30648 17.8137 7.60519 16.8786 7.10648C15.9747 6.60778 14.837 6.35844 13.4655 6.35844Z" fill="url(#paint2_radial_7626_13193)"/>
<path d="M13.2317 0C15.6941 0 17.7981 0.420779 19.5437 1.26234C21.3203 2.10389 22.7698 3.27272 23.8919 4.76882C25.014 6.26493 25.84 8.01038 26.3699 10.0052C26.8998 11.9688 27.1647 14.0883 27.1647 16.3636V18.374C27.1647 23.9844 25.7309 28.2233 22.8633 31.0909C20.0268 33.9584 15.8812 35.3922 10.4264 35.3922C9.30428 35.3922 8.19774 35.361 7.10678 35.2987C6.01583 35.2363 4.97163 35.1428 3.97419 35.0181V28.5662C4.94046 28.6909 6.00024 28.7844 7.15353 28.8467C8.30683 28.9091 9.47571 28.9402 10.6602 28.9402C13.1226 28.9402 15.0396 28.5194 16.4111 27.6779C17.7825 26.8363 18.7332 25.6052 19.2631 23.9844C19.8242 22.3324 20.1047 20.3065 20.1047 17.9065V13.2312H21.6476C21.6165 15.5065 21.1645 17.4234 20.2917 18.9818C19.419 20.5402 18.2033 21.7246 16.6448 22.535C15.0863 23.3454 13.3096 23.7506 11.3147 23.7506C8.94582 23.7506 6.91976 23.2831 5.23658 22.348C3.55339 21.3818 2.25983 20.0415 1.3559 18.3272C0.451965 16.613 0 14.587 0 12.2493C0 9.787 0.54547 7.63635 1.63642 5.7974C2.75855 3.95844 4.30147 2.54026 6.26519 1.54285C8.26007 0.514285 10.5822 0 13.2317 0ZM13.4655 6.35844C12.1875 6.35844 11.0966 6.60778 10.1926 7.10648C9.28869 7.60519 8.58736 8.2909 8.08864 9.16363C7.62109 10.0364 7.38731 11.0338 7.38731 12.1558C7.38731 13.3402 7.62109 14.3688 8.08864 15.2415C8.55619 16.0831 9.22635 16.7532 10.0991 17.2519C11.003 17.7195 12.094 17.9532 13.372 17.9532C14.4629 17.9532 15.4915 17.735 16.4578 17.2987C17.4241 16.8623 18.1878 16.2234 18.7488 15.3818C19.341 14.5091 19.6372 13.4337 19.6372 12.1558C19.6372 11.0649 19.4034 10.0831 18.9358 9.21038C18.4995 8.30648 17.8137 7.60519 16.8786 7.10648C15.9747 6.60778 14.837 6.35844 13.4655 6.35844Z" fill="url(#paint3_radial_7626_13193)"/>
</g>
<g filter="url(#filter2_i_7626_13193)">
<path d="M31.9707 35.1117V26.7429H40.1996V35.1117H31.9707Z" fill="url(#paint4_radial_7626_13193)"/>
</g>
<defs>
<filter id="filter0_i_7626_13193" x="44.9424" y="0.981995" width="26.0898" height="35.0181" filterUnits="userSpaceOnUse" color-interpolation-filters="sRGB">
<feFlood flood-opacity="0" result="BackgroundImageFix"/>
<feBlend mode="normal" in="SourceGraphic" in2="BackgroundImageFix" result="shape"/>
<feColorMatrix in="SourceAlpha" type="matrix" values="0 0 0 0 0 0 0 0 0 0 0 0 0 0 0 0 0 0 127 0" result="hardAlpha"/>
<feOffset/>
<feGaussianBlur stdDeviation="2"/>
<feComposite in2="hardAlpha" operator="arithmetic" k2="-1" k3="1"/>
<feColorMatrix type="matrix" values="0 0 0 0 0.215686 0 0 0 0 0.27451 0 0 0 0 0.996078 0 0 0 1 0"/>
<feBlend mode="normal" in2="shape" result="effect1_innerShadow_7626_13193"/>
</filter>
<filter id="filter1_i_7626_13193" x="0" y="0" width="27.165" height="35.3922" filterUnits="userSpaceOnUse" color-interpolation-filters="sRGB">
<feFlood flood-opacity="0" result="BackgroundImageFix"/>
<feBlend mode="normal" in="SourceGraphic" in2="BackgroundImageFix" result="shape"/>
<feColorMatrix in="SourceAlpha" type="matrix" values="0 0 0 0 0 0 0 0 0 0 0 0 0 0 0 0 0 0 127 0" result="hardAlpha"/>
<feOffset/>
<feGaussianBlur stdDeviation="2"/>
<feComposite in2="hardAlpha" operator="arithmetic" k2="-1" k3="1"/>
<feColorMatrix type="matrix" values="0 0 0 0 0.215686 0 0 0 0 0.27451 0 0 0 0 0.996078 0 0 0 1 0"/>
<feBlend mode="normal" in2="shape" result="effect1_innerShadow_7626_13193"/>
</filter>
<filter id="filter2_i_7626_13193" x="31.9707" y="26.7429" width="8.22852" height="8.36884" filterUnits="userSpaceOnUse" color-interpolation-filters="sRGB">
<feFlood flood-opacity="0" result="BackgroundImageFix"/>
<feBlend mode="normal" in="SourceGraphic" in2="BackgroundImageFix" result="shape"/>
<feColorMatrix in="SourceAlpha" type="matrix" values="0 0 0 0 0 0 0 0 0 0 0 0 0 0 0 0 0 0 127 0" result="hardAlpha"/>
<feOffset/>
<feGaussianBlur stdDeviation="2"/>
<feComposite in2="hardAlpha" operator="arithmetic" k2="-1" k3="1"/>
<feColorMatrix type="matrix" values="0 0 0 0 0.215686 0 0 0 0 0.27451 0 0 0 0 0.996078 0 0 0 1 0"/>
<feBlend mode="normal" in2="shape" result="effect1_innerShadow_7626_13193"/>
</filter>
<radialGradient id="paint0_radial_7626_13193" cx="0" cy="0" r="1" gradientTransform="matrix(-276.916 -238.181 443.557 -231.07 194.567 229.917)" gradientUnits="userSpaceOnUse">
<stop stop-color="#2533D4"/>
<stop offset="0.568885" stop-color="#2E06FD"/>
<stop offset="0.8165" stop-color="#3776FF"/>
<stop offset="0.978211" stop-color="#00F6FF"/>
</radialGradient>
<radialGradient id="paint1_radial_7626_13193" cx="0" cy="0" r="1" gradientTransform="matrix(-124.801 -52.7211 103.603 -149.362 169.743 55.714)" gradientUnits="userSpaceOnUse">
<stop stop-color="#2533D4"/>
<stop offset="0.568885" stop-color="#2E06FD"/>
<stop offset="0.8165" stop-color="#3776FF"/>
<stop offset="0.978211" stop-color="#00F6FF"/>
</radialGradient>
<radialGradient id="paint2_radial_7626_13193" cx="0" cy="0" r="1" gradientTransform="matrix(-276.916 -238.182 443.557 -231.07 194.567 229.917)" gradientUnits="userSpaceOnUse">
<stop stop-color="#2533D4"/>
<stop offset="0.568885" stop-color="#2E06FD"/>
<stop offset="0.8165" stop-color="#3776FF"/>
<stop offset="0.978211" stop-color="#00F6FF"/>
</radialGradient>
<radialGradient id="paint3_radial_7626_13193" cx="0" cy="0" r="1" gradientTransform="matrix(-129.945 -53.2842 107.874 -150.958 129.945 55.3166)" gradientUnits="userSpaceOnUse">
<stop stop-color="#2533D4"/>
<stop offset="0.568885" stop-color="#2E06FD"/>
<stop offset="0.8165" stop-color="#3776FF"/>
<stop offset="0.978211" stop-color="#00F6FF"/>
</radialGradient>
<radialGradient id="paint4_radial_7626_13193" cx="0" cy="0" r="1" gradientTransform="matrix(-276.916 -238.182 443.557 -231.07 194.567 229.917)" gradientUnits="userSpaceOnUse">
<stop stop-color="#2533D4"/>
<stop offset="0.568885" stop-color="#2E06FD"/>
<stop offset="0.8165" stop-color="#3776FF"/>
<stop offset="0.978211" stop-color="#00F6FF"/>
</radialGradient>
</defs>
</svg>
