<svg width="1927" height="100" viewBox="0 0 1927 100" fill="none" xmlns="http://www.w3.org/2000/svg">
<g clip-path="url(#clip0_8073_11862)">
<rect width="1927" height="100" fill="#000122"/>
<g opacity="0.5" style="mix-blend-mode:overlay">
<path d="M1641.24 47.9224C1640.12 47.9226 1639.21 48.8359 1639.21 49.9615C1639.21 51.087 1640.12 51.9994 1641.24 51.9996C1642.37 51.9996 1643.28 51.0871 1643.28 49.9615C1643.28 48.8358 1642.37 47.9224 1641.24 47.9224ZM1633.77 45.2047H1648.72V42.4869H1633.77V45.2047ZM1641.24 35.692C1640.12 35.6921 1639.21 36.6046 1639.21 37.73C1639.21 38.8558 1640.12 39.769 1641.24 39.7691C1642.37 39.7691 1643.28 38.8559 1643.28 37.73C1643.28 36.6045 1642.37 35.692 1641.24 35.692ZM1699.3 26.6734L1694.98 22.3502L1693.06 24.272L1697.38 28.5953L1693.05 32.9195L1694.98 34.8423L1699.3 30.5181L1703.63 34.8423L1705.55 32.9205L1701.22 28.5963L1705.55 24.272L1703.62 22.3492L1699.3 26.6734ZM1573.97 31.6158H1588.92V28.897H1573.97V31.6158ZM1752.68 6.47418H1746.56V9.19196H1752.68V15.3072H1755.4V9.19196H1761.51V6.47418H1755.4V0.358948H1752.68V6.47418Z" fill="white"/>
</g>
<g filter="url(#filter0_f_8073_11862)">
<path d="M1417.48 209.695L1402.94 94.8264C990.614 147.08 640.357 72.8691 622.195 -70.5938L292.054 -28.7553C318.236 178.064 823.165 285.012 1417.48 209.695Z" fill="url(#paint0_linear_8073_11862)"/>
</g>
<g filter="url(#filter1_f_8073_11862)">
<path d="M1095.71 -207.42L1049.15 -101.407C1429.72 65.6647 1692.04 309.326 1633.9 441.728L1938.61 575.5C2022.44 384.626 1644.25 33.3939 1095.71 -207.42Z" fill="url(#paint1_linear_8073_11862)"/>
</g>
</g>
<defs>
<filter id="filter0_f_8073_11862" x="142.054" y="-220.594" width="1425.43" height="604.414" filterUnits="userSpaceOnUse" color-interpolation-filters="sRGB">
<feFlood flood-opacity="0" result="BackgroundImageFix"/>
<feBlend mode="normal" in="SourceGraphic" in2="BackgroundImageFix" result="shape"/>
<feGaussianBlur stdDeviation="75" result="effect1_foregroundBlur_8073_11862"/>
</filter>
<filter id="filter1_f_8073_11862" x="899.152" y="-357.42" width="1201.09" height="1082.92" filterUnits="userSpaceOnUse" color-interpolation-filters="sRGB">
<feFlood flood-opacity="0" result="BackgroundImageFix"/>
<feBlend mode="normal" in="SourceGraphic" in2="BackgroundImageFix" result="shape"/>
<feGaussianBlur stdDeviation="75" result="effect1_foregroundBlur_8073_11862"/>
</filter>
<linearGradient id="paint0_linear_8073_11862" x1="115.5" y1="346" x2="1398.57" y2="-164.832" gradientUnits="userSpaceOnUse">
<stop offset="0.192796" stop-color="#B597F7"/>
<stop offset="0.35" stop-color="#6202FD"/>
<stop offset="0.455692" stop-color="#0400FE"/>
<stop offset="0.560674" stop-color="#231990"/>
</linearGradient>
<linearGradient id="paint1_linear_8073_11862" x1="1019.7" y1="-34.3489" x2="2014.56" y2="402.56" gradientUnits="userSpaceOnUse">
<stop offset="0.192308" stop-color="#B597F7"/>
<stop offset="0.35" stop-color="#6202FD"/>
<stop offset="0.45" stop-color="#0400FE"/>
<stop offset="0.557692" stop-color="#231990"/>
</linearGradient>
<clipPath id="clip0_8073_11862">
<rect width="1927" height="100" fill="white"/>
</clipPath>
</defs>
</svg>
