<svg width="42" height="25" viewBox="0 0 42 25" fill="none" xmlns="http://www.w3.org/2000/svg">
<path d="M16.7832 11.0951C16.7832 12.7305 16.6374 14.2305 16.3457 15.5951C16.0645 16.9597 15.6217 18.1784 15.0176 19.2513C14.4238 20.3138 13.6582 21.2201 12.7207 21.9701C11.7832 22.7097 10.6634 23.2722 9.36133 23.6576C8.05924 24.043 6.55924 24.2357 4.86133 24.2357C4.39258 24.2357 3.8457 24.2253 3.2207 24.2045C2.60612 24.1836 2.08529 24.142 1.6582 24.0795V19.1888C2.10612 19.2618 2.55404 19.3243 3.00195 19.3763C3.44987 19.418 3.9707 19.4388 4.56445 19.4388C6.2832 19.4388 7.61133 19.1941 8.54883 18.7045C9.49674 18.2149 10.1634 17.5378 10.5488 16.6732C10.9342 15.7982 11.1582 14.793 11.2207 13.6576H11.0332C10.7624 14.168 10.4342 14.6263 10.0488 15.0326C9.66341 15.4284 9.17904 15.7409 8.5957 15.9701C8.01237 16.1993 7.28841 16.3138 6.42383 16.3138C5.14258 16.3138 4.02799 16.0222 3.08008 15.4388C2.14258 14.8555 1.41341 14.0118 0.892578 12.9076C0.371745 11.793 0.111328 10.4388 0.111328 8.84509C0.111328 7.14718 0.434245 5.69926 1.08008 4.50134C1.73633 3.29301 2.66862 2.36593 3.87695 1.72009C5.0957 1.07426 6.54362 0.751343 8.2207 0.751343C9.4082 0.751343 10.5176 0.954468 11.5488 1.36072C12.5905 1.76697 13.502 2.39197 14.2832 3.23572C15.0645 4.06905 15.6738 5.13676 16.1113 6.43884C16.5592 7.74093 16.7832 9.29301 16.7832 11.0951ZM8.37695 5.68884C7.6582 5.68884 7.0957 5.93363 6.68945 6.42322C6.29362 6.9128 6.0957 7.69926 6.0957 8.78259C6.0957 9.63676 6.2832 10.3138 6.6582 10.8138C7.0332 11.3138 7.58529 11.5638 8.31445 11.5638C8.77279 11.5638 9.17383 11.4441 9.51758 11.2045C9.87174 10.9545 10.1478 10.642 10.3457 10.267C10.5436 9.88155 10.6426 9.48572 10.6426 9.07947C10.6426 8.67322 10.5957 8.27218 10.502 7.87634C10.4186 7.47009 10.2832 7.10551 10.0957 6.78259C9.91862 6.44926 9.68424 6.18363 9.39258 5.98572C9.11133 5.7878 8.77279 5.68884 8.37695 5.68884ZM19.2207 21.3295C19.2207 20.2253 19.5436 19.4493 20.1895 19.0013C20.8457 18.5534 21.6322 18.3295 22.5488 18.3295C23.4134 18.3295 24.1634 18.5534 24.7988 19.0013C25.4342 19.4493 25.752 20.2253 25.752 21.3295C25.752 22.3816 25.4342 23.142 24.7988 23.6107C24.1634 24.0795 23.4134 24.3138 22.5488 24.3138C21.6322 24.3138 20.8457 24.0795 20.1895 23.6107C19.5436 23.142 19.2207 22.3816 19.2207 21.3295ZM41.8457 23.9232H35.5801V12.6263C35.5801 12.418 35.5801 12.0378 35.5801 11.4857C35.5801 10.9232 35.5853 10.3034 35.5957 9.62634C35.6165 8.94926 35.6426 8.33988 35.6738 7.79822C35.403 8.12113 35.1478 8.39718 34.9082 8.62634C34.679 8.85551 34.4551 9.06905 34.2363 9.26697L31.6426 11.4076L28.4395 7.47009L36.2832 1.07947H41.8457V23.9232Z" fill="url(#paint0_linear_6975_14908)"/>
<defs>
<linearGradient id="paint0_linear_6975_14908" x1="25.9181" y1="0.151943" x2="50.3291" y2="14.1555" gradientUnits="userSpaceOnUse">
<stop stop-color="#5BEFF6"/>
<stop offset="0.524038" stop-color="#488BFA"/>
<stop offset="1" stop-color="#344EE4"/>
</linearGradient>
</defs>
</svg>
