<svg width="32" height="32" viewBox="0 0 32 32" fill="none" xmlns="http://www.w3.org/2000/svg">
<g clip-path="url(#clip0_5693_184163)">
<path d="M28.4866 13.8989C28.2439 13.2692 27.744 12.7071 27.1371 12.3018C25.3837 11.2025 22.7112 11.1241 20.9048 12.1177C19.9194 12.6145 19.2717 13.596 19.0698 14.6059C18.7046 16.2662 18.7983 18.2425 20.0938 19.4866C21.6055 20.7939 23.8036 21.0837 25.76 20.5466C25.9643 20.5052 26.1626 20.439 26.3503 20.3494L26.4077 20.3255C27.0436 20.068 27.6015 19.653 28.0276 19.1206C29.0207 17.6803 29.0935 15.5211 28.4866 13.8989ZM25.3021 17.628C25.2714 17.7963 25.1985 17.9543 25.0899 18.0875C24.9814 18.2208 24.8407 18.325 24.6808 18.3906C24.1423 18.6249 23.413 18.5595 22.9153 18.2817C22.4971 17.993 22.443 17.5093 22.389 17.0517C22.3481 16.1497 22.2786 15.1942 22.5379 14.3684C22.7388 13.8575 23.2916 13.7257 23.7925 13.6876C24.3189 13.6876 24.8298 13.766 25.1553 14.1854C25.3572 14.4861 25.3451 14.8794 25.3848 15.2324C25.3694 15.9797 25.4378 16.8687 25.3021 17.628ZM9.31641 18.4408C8.87503 18.4135 8.37186 18.4527 7.94152 18.4004L7.95476 13.8063L7.98234 13.7682L9.31752 13.7551C9.33186 13.0099 9.3451 12.2092 9.30317 11.5294L4.21848 11.5152L3.38097 11.5294C3.36772 12.2233 3.36772 13.0339 3.38097 13.7409C3.84 13.7551 4.27145 13.7409 4.71614 13.7812V18.2305L4.7029 18.4113L3.36772 18.4386C3.33903 19.1696 3.33903 19.8777 3.36772 20.5978H9.31641V18.4408ZM24.2902 21.5816C23.7135 22.3996 23.0187 23.13 22.2279 23.7496C22.1992 23.7899 22.1175 23.7746 22.0932 23.7365C21.7545 23.5273 21.3903 23.3574 21.067 23.1482C21.5053 22.6583 21.8978 22.1303 22.24 21.5707H21.8207C21.4897 22.0566 21.1332 22.5665 20.6886 22.9979C20.122 22.7608 19.5408 22.5596 18.9484 22.3954L18.8811 22.3453C18.9749 22.0806 19.1503 21.8333 19.2044 21.5707H18.8403L18.4761 22.2778C17.6595 22.1135 16.832 22.0075 16 21.9607C15.9592 21.8442 16.0132 21.6731 15.9592 21.5674H15.6094C15.5807 21.7254 15.6491 21.8442 15.5686 21.9749C14.7529 22.0083 13.9413 22.1048 13.141 22.2636L12.7691 21.5707C12.6356 21.5707 12.4866 21.5457 12.3917 21.5849L12.7294 22.3573L12.6897 22.3954C12.085 22.5682 11.4905 22.7737 10.9087 23.0109L10.8546 22.9837C10.4758 22.5788 10.1301 22.145 9.82069 21.6862C9.75338 21.4629 9.48303 21.5936 9.33517 21.5664C9.65848 22.1427 10.0899 22.6558 10.5214 23.1776C10.1572 23.3879 9.79421 23.6221 9.41793 23.7932C8.59118 23.1732 7.87033 22.4266 7.28276 21.5816C7.13927 21.5619 6.9937 21.5619 6.85021 21.5816C7.86546 23.102 9.2657 24.3338 10.912 25.155C10.912 25.1532 10.9123 25.1514 10.9131 25.1498C10.9138 25.1482 10.9149 25.1467 10.9163 25.1456C10.9177 25.1445 10.9193 25.1436 10.921 25.1432C10.9228 25.1427 10.9246 25.1426 10.9263 25.143C10.9385 25.143 10.965 25.1669 10.9385 25.1811C12.0084 25.703 13.1562 26.0521 14.3382 26.215C18.4794 26.751 22.4331 25.0166 24.7261 21.5816C24.5811 21.5673 24.4351 21.5673 24.2902 21.5816ZM18.6626 22.7593L18.7023 22.732C19.2713 22.856 19.8237 23.0446 20.3487 23.2942C19.9007 23.7689 19.3982 24.1905 18.8513 24.5503C18.5412 24.7333 18.2301 24.9316 17.9057 25.0874L17.3297 24.839L17.3694 24.7486C17.8516 24.1186 18.285 23.4536 18.6659 22.7593H18.6626ZM16.0044 22.366C16.7629 22.3734 17.5183 22.4615 18.2577 22.6285L18.272 22.6678C17.881 23.3834 17.4249 24.0623 16.9092 24.6963C16.6797 24.7224 16.4679 24.632 16.235 24.6189L16.0044 24.5917C15.9801 23.8193 15.9658 23.1384 16.0077 22.366H16.0044ZM13.4014 22.6013C14.1206 22.4555 14.8521 22.3767 15.5862 22.366L15.6006 24.5797C15.3159 24.6429 15.0058 24.6429 14.7366 24.7105C14.1966 24.0758 13.7265 23.3863 13.3341 22.6536L13.4014 22.6013ZM11.232 23.3138C11.7599 23.0687 12.311 22.8757 12.8772 22.7375L12.9324 22.7517C13.3431 23.4719 13.7978 24.1668 14.2941 24.8325C14.1065 24.9414 13.8759 25.0013 13.6883 25.107C12.7759 24.6622 11.9456 24.0693 11.232 23.353V23.3138ZM12.9721 25.5515C11.8391 25.2544 10.7709 24.7544 9.82069 24.0764V24.0361C10.1377 23.8307 10.4697 23.6486 10.8138 23.4914C11.5508 24.194 12.365 24.813 13.2414 25.3369C13.1638 25.4209 13.0728 25.4919 12.9721 25.5471V25.5515ZM17.9774 25.7204C16.5096 26.0333 14.9902 26.0248 13.5261 25.6953C13.4996 25.6299 13.5934 25.6169 13.6364 25.5787C14.891 24.7802 16.8463 24.7802 18.0756 25.6419C18.112 25.716 18.0039 25.691 17.9774 25.716V25.7204ZM19.2728 25.3554L18.6383 25.5515C18.5311 25.4936 18.4314 25.423 18.3415 25.3412L18.3691 25.302C19.2393 24.797 20.0416 24.1858 20.757 23.4827C21.1236 23.6313 21.4722 23.8198 21.7964 24.0448C21.0406 24.632 20.1633 25.0231 19.2728 25.3511V25.3554ZM7.25297 10.5206C7.58641 10.0644 7.95142 9.63161 8.34538 9.22522C8.66694 8.89987 9.01946 8.60583 9.39807 8.34714C9.74897 8.56502 10.1407 8.75567 10.4772 8.96376C10.059 9.47143 9.62759 9.98456 9.31641 10.5325C9.44917 10.5668 9.58862 10.5668 9.72138 10.5325C10.0565 10.0341 10.4357 9.56599 10.8546 9.13371C11.4339 9.34397 12.0011 9.56948 12.5948 9.72309L12.6477 9.77539L12.3112 10.538C12.4405 10.5588 12.5724 10.5588 12.7018 10.538C12.8232 10.3201 12.917 10.0684 13.0516 9.84402C13.8554 10.0148 14.6737 10.1111 15.4957 10.1316C15.6061 10.2242 15.5222 10.4203 15.563 10.538H15.9272C15.9669 10.4094 15.9139 10.2635 15.9669 10.1469C16.7625 10.1179 17.5537 10.0165 18.3305 9.84402L18.3967 9.85818L18.7608 10.538C18.8833 10.538 19.0433 10.5663 19.1393 10.5118L18.8006 9.74924L18.8292 9.722C19.44 9.55109 20.0389 9.34149 20.6223 9.09449C21.0456 9.5444 21.434 10.0251 21.7843 10.5325C21.9194 10.5455 22.0558 10.5366 22.1881 10.5064C22.0214 10.2141 21.8271 9.93794 21.6077 9.68169C21.429 9.43136 21.2301 9.19564 21.013 8.97683V8.90928L21.9586 8.37437L22.0954 8.32208C22.9172 8.93553 23.6362 9.67262 24.2262 10.5064C24.3884 10.5064 24.523 10.5609 24.6588 10.4944C23.7626 9.17666 22.5766 8.07568 21.1893 7.2736C19.802 6.47152 18.2491 5.98904 16.6466 5.86213L16.6323 5.88719L16.6047 5.86213C16.2056 5.81857 15.8031 5.81346 15.403 5.84688C15.2366 5.83904 15.0699 5.84414 14.9043 5.86213C13.2839 5.97553 11.7118 6.45594 10.3099 7.26607C8.90802 8.07621 7.71397 9.19431 6.82041 10.5336C6.95172 10.5206 7.11724 10.5739 7.25297 10.5206ZM12.8519 9.36903L12.7978 9.38101C12.2492 9.24412 11.7124 9.0649 11.1923 8.84501L11.2177 8.76657C11.9288 8.08856 12.7326 7.5121 13.6055 7.05398C13.8086 7.13241 14.0105 7.19778 14.2124 7.29038L14.1727 7.39279C13.6596 8.02248 13.2557 8.7012 12.8519 9.36903ZM15.5354 9.72091C15.1581 9.77321 14.8215 9.70893 14.4419 9.68061C14.0789 9.62831 13.6199 9.59018 13.2557 9.47034C13.6486 8.73933 14.1191 8.05166 14.6593 7.41894L15.5222 7.53442C15.5586 8.2164 15.5354 9.00298 15.5354 9.72309V9.72091ZM15.9537 9.73508C15.9272 9.03893 15.9404 8.26761 15.9537 7.54749L16.7901 7.43092C17.3164 8.08458 17.8295 8.7535 18.1804 9.47034C17.4513 9.64515 16.7039 9.73473 15.9537 9.73726V9.73508ZM20.2571 8.81777C19.7284 9.05457 19.1773 9.23922 18.6119 9.36903C18.1876 8.65839 17.7234 7.9717 17.2215 7.31217C17.4102 7.20976 17.6408 7.13133 17.8428 7.02674C18.7458 7.47847 19.5701 8.06946 20.2847 8.77746L20.2571 8.81777ZM18.5302 6.58225C19.6688 6.87513 20.7433 7.37178 21.7004 8.04754L21.6728 8.09983L20.7448 8.60642H20.6764C19.9579 7.90535 19.1509 7.29862 18.2753 6.80123C18.3018 6.71298 18.4364 6.64544 18.5302 6.58225ZM17.9862 6.45043V6.47766C16.8121 7.31326 14.9098 7.39279 13.6695 6.62038C13.6 6.56809 13.4665 6.54303 13.4488 6.45152C14.8877 6.12469 16.5738 6.10072 17.9862 6.45043ZM9.7611 8.07478C10.6099 7.46637 11.5531 6.998 12.5539 6.68792C12.5948 6.64762 12.6212 6.60949 12.6753 6.60949V6.63563C12.7857 6.66069 12.864 6.54303 12.9578 6.62038C13.0516 6.69773 13.1343 6.74022 13.2006 6.80449C12.3286 7.32796 11.5187 7.94626 10.7862 8.64782C10.4218 8.51149 10.0771 8.32834 9.7611 8.1031V8.07478ZM15.5498 18.5432C14.2808 18.8842 12.9015 18.6249 11.9879 17.6803C11.8775 17.5496 11.8124 17.3938 11.7043 17.2631L9.88359 17.2762C9.8549 18.3362 9.84276 19.5531 9.88359 20.6L11.9062 20.5902L11.9327 19.9616C12.1633 20.0706 12.3917 20.1969 12.6212 20.3135C14.0248 20.8898 15.8312 21.0205 17.2204 20.3135C17.7113 20.0521 18.1091 19.6483 18.3602 19.1565C18.6112 18.6648 18.7033 18.1088 18.624 17.5638C18.4761 16.4525 17.397 15.4437 16.3068 15.167L13.0417 14.2366L12.8 14.1201C12.7445 14.0806 12.7012 14.0267 12.6749 13.9644C12.6486 13.9021 12.6404 13.8338 12.651 13.7671C12.907 13.3313 13.5018 13.4664 13.9465 13.4784C14.891 13.6091 15.8621 13.924 16.4149 14.7748C17.0086 14.7748 17.696 14.7868 18.3437 14.7606C18.3713 13.6876 18.3316 12.7463 18.3161 11.6601C17.7092 11.6459 16.9666 11.6459 16.3608 11.6743C16.3332 11.8301 16.3873 12.0512 16.32 12.2092L15.6999 11.8824C14.2157 11.2679 12.1379 11.2025 10.7895 12.158C9.90676 12.7855 9.64303 13.912 9.87255 14.9066C10.048 15.8479 10.965 16.5408 11.8422 16.8676C13.0428 17.286 14.2974 17.5888 15.5123 17.993C15.6337 18.0464 15.7937 18.1651 15.7683 18.3089C15.765 18.4255 15.6436 18.4931 15.5498 18.5432ZM2.79614 21.5576L2.86234 21.7069C2.86737 21.7211 2.86662 21.7366 2.86023 21.7502C2.85384 21.7639 2.84233 21.7745 2.82814 21.7799L0.882759 22.61C0.876202 22.6133 0.869037 22.6152 0.861701 22.6157C0.854366 22.6161 0.847014 22.6151 0.840095 22.6127C0.833175 22.6102 0.826834 22.6064 0.821458 22.6015C0.816082 22.5965 0.811784 22.5905 0.808828 22.5839L0.742621 22.4346C0.739761 22.4279 0.738293 22.4207 0.738305 22.4134C0.738316 22.4061 0.739806 22.3989 0.742686 22.3922C0.745567 22.3855 0.749779 22.3795 0.755075 22.3744C0.76037 22.3693 0.766641 22.3654 0.773517 22.3627L2.7189 21.5337C2.72553 21.5301 2.73283 21.5279 2.74035 21.5272C2.74787 21.5264 2.75546 21.5272 2.76267 21.5295C2.76988 21.5317 2.77656 21.5353 2.78231 21.5402C2.78806 21.545 2.79276 21.551 2.79614 21.5576ZM2.22124 20.0074L2.26759 20.1414C2.27018 20.1487 2.27127 20.1565 2.27078 20.1643C2.2703 20.1721 2.26825 20.1797 2.26476 20.1867C2.26127 20.1937 2.2564 20.1999 2.25045 20.2051C2.24449 20.2102 2.23757 20.2141 2.23007 20.2165L1.28993 20.5292C1.00193 20.6251 0.946759 20.7471 1.01959 20.965C1.07288 21.0956 1.15507 21.2129 1.26014 21.3082L2.4651 20.9072C2.48019 20.9026 2.49648 20.9039 2.51063 20.9108C2.52479 20.9177 2.53574 20.9297 2.54124 20.9443L2.58869 21.0826C2.59288 21.0972 2.5912 21.1129 2.58401 21.1262C2.57681 21.1396 2.56465 21.1498 2.55007 21.1545L1.09462 21.6415C1.08739 21.6443 1.07967 21.6455 1.07192 21.6453C1.06418 21.645 1.05657 21.6432 1.04956 21.6399C1.04255 21.6367 1.03628 21.632 1.03113 21.6263C1.02597 21.6206 1.02205 21.6139 1.01959 21.6067L0.971035 21.4618C0.968487 21.4545 0.967473 21.4468 0.968055 21.4391C0.968636 21.4314 0.970801 21.4239 0.974417 21.4171C0.978032 21.4102 0.983022 21.4042 0.989082 21.3993C0.995141 21.3945 1.00214 21.3909 1.00966 21.3888L1.06372 21.3703C0.932174 21.2651 0.833468 21.1254 0.779034 20.9672C0.663172 20.6283 0.825379 20.4061 1.20386 20.2786L2.144 19.9671C2.15175 19.9645 2.15993 19.9636 2.16805 19.9643C2.17618 19.965 2.18408 19.9673 2.19129 19.971C2.1985 19.9748 2.20487 19.9799 2.21002 19.9862C2.21516 19.9924 2.21898 19.9996 2.22124 20.0074ZM1.95421 18.8983C1.97815 18.9583 1.99805 19.0198 2.01379 19.0824C2.07669 19.3493 2.03807 19.4921 1.71697 19.5683L0.695172 19.808L0.730483 20.0956C0.732637 20.1026 0.733307 20.11 0.73245 20.1173C0.731592 20.1246 0.729227 20.1316 0.725501 20.1379C0.721774 20.1443 0.716767 20.1498 0.71079 20.1541C0.704813 20.1584 0.697994 20.1615 0.690759 20.1632L0.612414 20.1817C0.605299 20.1836 0.597855 20.184 0.590558 20.183C0.583261 20.1819 0.576272 20.1793 0.570038 20.1754C0.563805 20.1715 0.558466 20.1664 0.554362 20.1603C0.550258 20.1543 0.54748 20.1475 0.546207 20.1403L0.477793 19.8592L0.190897 19.9267C0.176439 19.93 0.161273 19.9279 0.148263 19.9209C0.135252 19.9139 0.125296 19.9024 0.120276 19.8886L0.0606897 19.7437V19.7361C0.0595815 19.7299 0.0597314 19.7235 0.0611308 19.7173C0.0625301 19.7112 0.0651513 19.7053 0.0688434 19.7002C0.0725354 19.695 0.0772256 19.6906 0.0826437 19.6872C0.0880619 19.6839 0.0941011 19.6816 0.100414 19.6805L0.417103 19.6097L0.342069 19.2971C0.338716 19.2819 0.341442 19.2661 0.349673 19.2529C0.357904 19.2397 0.370999 19.2301 0.386207 19.2262L0.485517 19.2034C0.50102 19.1997 0.517347 19.2023 0.530972 19.2104C0.544598 19.2186 0.554429 19.2317 0.558345 19.2469L0.633379 19.5585L1.65517 19.3134C1.81628 19.2764 1.83062 19.2295 1.80193 19.114L1.76552 18.9561C1.75559 18.9158 1.76552 18.8929 1.7931 18.8853L1.89572 18.8613C1.91779 18.8471 1.93876 18.8624 1.95421 18.8983ZM0.993103 17.5616L1.13103 18.5421L1.17297 18.5366C1.52717 18.4876 1.63972 18.3329 1.6011 18.0616C1.57551 17.8863 1.53866 17.7127 1.49076 17.542C1.49024 17.5369 1.49024 17.5318 1.49076 17.5267C1.48912 17.521 1.48877 17.5149 1.48971 17.5091C1.49066 17.5032 1.49288 17.4975 1.49624 17.4926C1.49959 17.4876 1.50399 17.4834 1.50914 17.4803C1.51429 17.4771 1.52007 17.4751 1.52607 17.4744L1.62648 17.4603C1.6651 17.4548 1.68717 17.4603 1.70262 17.5093C1.7617 17.6784 1.80384 17.8528 1.82841 18.03C1.87586 18.3689 1.76 18.7197 1.20607 18.7926L0.936828 18.8286C0.510897 18.8874 0.207448 18.6913 0.147862 18.2708C0.0882759 17.8503 0.331035 17.5943 0.755862 17.5398L0.916965 17.518C0.924863 17.5155 0.933193 17.5147 0.941423 17.5156C0.949654 17.5165 0.957605 17.5191 0.964769 17.5232C0.971932 17.5273 0.978152 17.5328 0.983031 17.5395C0.987909 17.5461 0.99134 17.5536 0.993103 17.5616ZM0.794483 17.798C0.456828 17.8448 0.344276 17.9886 0.38069 18.2479C0.417103 18.5072 0.581517 18.6227 0.903724 18.5748H0.930207L0.819862 17.7947L0.794483 17.798ZM0.229517 16.5364C0.238634 16.6815 0.289553 16.821 0.376276 16.9384L1.63421 16.8742C1.64978 16.8744 1.66473 16.8803 1.67614 16.8907C1.68756 16.9012 1.69463 16.9155 1.696 16.9308L1.70372 17.0757C1.70373 17.0909 1.69776 17.1056 1.68706 17.1165C1.67636 17.1275 1.66176 17.134 1.64634 17.1345L0.115862 17.213C0.108235 17.2136 0.100566 17.2126 0.0933039 17.2103C0.0860424 17.2079 0.0793356 17.2041 0.0735781 17.1991C0.0678206 17.1941 0.0631287 17.1881 0.0597783 17.1813C0.056428 17.1745 0.0544868 17.1671 0.054069 17.1596L0.0474483 17.0201C0.0471534 17.0126 0.0483831 17.0051 0.0510654 16.998C0.0537477 16.991 0.0578286 16.9845 0.0630692 16.979C0.0683099 16.9736 0.0746049 16.9692 0.0815858 16.9661C0.0885666 16.9631 0.096093 16.9614 0.103724 16.9613H0.166621C0.0679085 16.8447 0.00952671 16.7001 0 16.5484C0 16.507 0.0154483 16.4863 0.0518621 16.483L0.174345 16.4776C0.206345 16.4754 0.22731 16.495 0.229517 16.5364ZM1.70814 14.9905L1.70262 15.1332C1.70177 15.1487 1.69484 15.1633 1.68332 15.1739C1.67179 15.1845 1.65656 15.1902 1.64083 15.1899L0.647724 15.1507C0.344276 15.1387 0.247172 15.2367 0.239448 15.4612C0.241208 15.6022 0.275951 15.7409 0.340965 15.8664L1.60662 15.9165C1.62214 15.9179 1.6366 15.9249 1.6472 15.9361C1.6578 15.9474 1.66379 15.9622 1.664 15.9775L1.66179 16.1235C1.66066 16.1387 1.65354 16.1527 1.64198 16.1627C1.63042 16.1727 1.61534 16.1778 1.6 16.1769L0.0695172 16.1159C0.0618368 16.1158 0.0542598 16.1141 0.0472192 16.1111C0.0401786 16.1081 0.0338122 16.1037 0.0284838 16.0982C0.0231553 16.0928 0.0189692 16.0863 0.0161646 16.0793C0.0133599 16.0722 0.0119916 16.0647 0.0121379 16.0571L0.0176552 15.9056C0.018073 15.8981 0.0200142 15.8907 0.0233645 15.8839C0.0267149 15.8771 0.0314068 15.8711 0.0371643 15.8661C0.0429218 15.8611 0.0496286 15.8573 0.0568901 15.855C0.0641517 15.8526 0.0718215 15.8517 0.0794483 15.8523H0.135724C0.0521231 15.7075 0.0108668 15.5427 0.0165517 15.3762C0.0308966 15.0199 0.261517 14.8696 0.660966 14.8859L1.64745 14.9241C1.65601 14.924 1.66448 14.9257 1.67231 14.9292C1.68014 14.9326 1.68715 14.9376 1.69288 14.9439C1.69862 14.9501 1.70294 14.9575 1.70557 14.9656C1.7082 14.9736 1.70907 14.9821 1.70814 14.9905ZM1.90345 13.5372L1.88248 13.6734C1.88141 13.6812 1.87877 13.6886 1.87473 13.6954C1.87069 13.7021 1.86532 13.708 1.85895 13.7127C1.85258 13.7173 1.84533 13.7207 1.83762 13.7225C1.82991 13.7244 1.82191 13.7247 1.81407 13.7235L1.74786 13.7137C1.81677 13.8614 1.84385 14.0248 1.82621 14.1865C1.78869 14.436 1.64414 14.6484 1.27448 14.595L1.23807 14.5896C0.916966 14.5428 0.784552 14.3347 0.861793 13.8117L0.894897 13.5939L0.772414 13.5764C0.521931 13.5405 0.423724 13.6124 0.389517 13.8412C0.366831 13.9913 0.352464 14.1426 0.346483 14.2944V14.3085C0.346483 14.3347 0.328828 14.3608 0.29131 14.3554L0.186483 14.3401C0.153379 14.3401 0.139034 14.3118 0.139034 14.2704C0.13406 14.1158 0.144036 13.9612 0.168828 13.8085C0.229517 13.401 0.462345 13.2638 0.813241 13.3182L1.85048 13.4697C1.85848 13.4706 1.86621 13.4731 1.87321 13.477C1.88022 13.4809 1.88637 13.4862 1.8913 13.4925C1.89623 13.4988 1.89984 13.506 1.90193 13.5136C1.90401 13.5213 1.90453 13.5293 1.90345 13.5372ZM1.08248 13.6178L1.04938 13.8357C0.996414 14.1909 1.06262 14.2965 1.27007 14.327H1.30538C1.51945 14.3586 1.59117 14.2682 1.61655 14.0972C1.63334 13.9564 1.61281 13.8138 1.55697 13.6832L1.08248 13.6178ZM2.16828 12.4412C2.16228 12.5058 2.15196 12.5698 2.13738 12.633C2.07228 12.8988 1.97186 13.0088 1.64965 12.9337L0.627862 12.694L0.528552 12.9642C0.527257 12.9714 0.524479 12.9782 0.520391 12.9843C0.516302 12.9904 0.51099 12.9956 0.504783 12.9996C0.498576 13.0036 0.491606 13.0063 0.484307 13.0075C0.477007 13.0087 0.469532 13.0084 0.462345 13.0067L0.384 12.9881C0.376765 12.9865 0.369946 12.9834 0.363969 12.9791C0.357992 12.9747 0.352984 12.9692 0.349258 12.9629C0.345532 12.9566 0.343166 12.9495 0.342309 12.9423C0.341452 12.935 0.342121 12.9276 0.344276 12.9206L0.41269 12.6373L0.125793 12.5698C0.111403 12.566 0.0988986 12.5571 0.0905848 12.5449C0.082271 12.5327 0.0787078 12.5179 0.0805517 12.5033L0.0926896 12.3475C0.0933159 12.3443 0.0933159 12.341 0.0926896 12.3377C0.0948909 12.3319 0.0982453 12.3266 0.102557 12.322C0.106869 12.3175 0.112052 12.3139 0.117804 12.3113C0.123556 12.3088 0.129761 12.3074 0.136059 12.3073C0.142356 12.3071 0.148619 12.3082 0.154483 12.3105L0.473379 12.3846L0.551724 12.0752C0.555887 12.0601 0.565766 12.0471 0.579321 12.039C0.592875 12.0309 0.609068 12.0283 0.624552 12.0316L0.723862 12.0556C0.73907 12.0594 0.752165 12.069 0.760396 12.0822C0.768627 12.0954 0.771353 12.1112 0.768 12.1264L0.692966 12.438L1.71366 12.6787C1.87476 12.7158 1.90897 12.6787 1.93434 12.5698L1.97407 12.4086C1.984 12.3682 1.99945 12.3508 2.02924 12.3573L2.13186 12.3813C2.15724 12.3835 2.17159 12.402 2.16828 12.4412ZM0.48331 11.3965L0.441379 11.5414C0.436549 11.5563 0.42599 11.5688 0.411964 11.5761C0.397939 11.5834 0.381562 11.585 0.366345 11.5806L0.135724 11.5109C0.120484 11.5068 0.107464 11.497 0.0994279 11.4835C0.0913924 11.4701 0.0889751 11.4541 0.0926896 11.439L0.136828 11.2941C0.141657 11.2791 0.152217 11.2667 0.166242 11.2593C0.180268 11.252 0.196644 11.2504 0.211862 11.2548L0.442483 11.3246C0.457314 11.3291 0.469815 11.3391 0.47741 11.3525C0.485005 11.3659 0.487116 11.3816 0.48331 11.3965ZM2.31724 11.9575L2.2709 12.0926C2.26607 12.1075 2.25551 12.12 2.24148 12.1273C2.22746 12.1347 2.21108 12.1363 2.19586 12.1318L0.730483 11.6895C0.715365 11.6848 0.702742 11.6743 0.695316 11.6605C0.687891 11.6466 0.686255 11.6305 0.690759 11.6154L0.73269 11.4782C0.73752 11.4632 0.748079 11.4508 0.762104 11.4435C0.77613 11.4361 0.792507 11.4345 0.807724 11.439L2.272 11.8834C2.28006 11.8851 2.2877 11.8883 2.29442 11.893C2.30114 11.8977 2.30681 11.9037 2.31106 11.9107C2.31531 11.9177 2.31806 11.9254 2.31912 11.9335C2.32018 11.9415 2.31954 11.9497 2.31724 11.9575ZM2.68248 10.9923C2.51917 11.3976 2.16607 11.4967 1.75559 11.3355L1.54483 11.2527C1.13324 11.0914 0.946759 10.7788 1.11007 10.3735C1.27338 9.96822 1.62759 9.86581 2.03807 10.027L2.25103 10.1109C2.66041 10.2722 2.84579 10.587 2.68248 10.9923ZM1.93986 10.27C1.65517 10.1567 1.43448 10.1992 1.32414 10.4585C1.21379 10.7177 1.35393 10.8942 1.64083 11.0119L1.85269 11.0947C2.13738 11.2036 2.36359 11.1677 2.46841 10.9095C2.57324 10.6513 2.43972 10.465 2.15172 10.3495L1.93986 10.27ZM3.60276 9.06943L3.53103 9.19472C3.52355 9.20842 3.51087 9.21864 3.49577 9.22313C3.48068 9.22763 3.46439 9.22603 3.45048 9.21868L2.57766 8.75676C2.30952 8.61405 2.17931 8.66089 2.07117 8.85917C2.01241 8.98741 1.98338 9.12698 1.98621 9.26771L3.1051 9.86036C3.11874 9.86854 3.12878 9.88146 3.13327 9.89657C3.13777 9.91169 3.13638 9.92791 3.12938 9.94207L3.05876 10.0695C3.05092 10.0826 3.03827 10.0921 3.02347 10.0962C3.00866 10.1002 2.99284 10.0985 2.97931 10.0913L1.62648 9.36903C1.61948 9.3658 1.61323 9.36119 1.60811 9.35547C1.603 9.34975 1.59913 9.34306 1.59675 9.3358C1.59437 9.32855 1.59353 9.32088 1.59428 9.31329C1.59502 9.3057 1.59735 9.29834 1.6011 9.29168L1.67172 9.16094C1.67549 9.15436 1.68056 9.14859 1.68662 9.14398C1.69269 9.13936 1.69962 9.13599 1.70703 9.13406C1.71443 9.13213 1.72215 9.13168 1.72973 9.13274C1.73732 9.13381 1.7446 9.13636 1.75117 9.14025L1.80193 9.16639C1.79113 8.9994 1.82741 8.83272 1.90676 8.68486C2.07669 8.3711 2.34814 8.33515 2.70566 8.52145L3.57848 8.98337C3.58602 8.98722 3.59268 8.99257 3.59803 8.99907C3.60339 9.00558 3.60733 9.0131 3.6096 9.02118C3.61188 9.02925 3.61245 9.03771 3.61127 9.04601C3.61009 9.05431 3.6072 9.06229 3.60276 9.06943ZM4.41379 7.86125L4.33545 7.97019C4.33102 7.9767 4.32532 7.98228 4.31867 7.98658C4.31203 7.99089 4.30458 7.99384 4.29677 7.99526C4.28896 7.99668 4.28093 7.99654 4.27317 7.99486C4.26541 7.99317 4.25807 7.98997 4.25159 7.98544L4.1931 7.95276C4.18919 8.11499 4.14076 8.27313 4.05297 8.41032C3.90841 8.61949 3.68441 8.74805 3.37434 8.53779L3.34455 8.51818C3.07641 8.33733 3.04993 8.09221 3.35338 7.65643L3.47917 7.47559L3.37986 7.40804C3.17241 7.26751 3.04883 7.28929 2.91862 7.48103C2.83171 7.60592 2.75178 7.73539 2.67917 7.86887L2.67035 7.88086C2.66747 7.88717 2.66319 7.89275 2.65781 7.89719C2.65244 7.90163 2.64611 7.90481 2.63932 7.90648C2.63252 7.90816 2.62542 7.9083 2.61857 7.90688C2.61171 7.90546 2.60527 7.90252 2.59972 7.89829L2.51697 7.84382C2.49048 7.8253 2.48607 7.79697 2.50483 7.75993C2.57009 7.61988 2.64763 7.48574 2.73655 7.35902C2.97269 7.01585 3.24083 6.99624 3.53103 7.19016L4.39614 7.77409C4.40342 7.77838 4.40972 7.78413 4.41461 7.79097C4.41951 7.79781 4.42289 7.80559 4.42456 7.8138C4.42622 7.82201 4.42612 7.83048 4.42427 7.83865C4.42242 7.84682 4.41885 7.85452 4.41379 7.86125ZM3.64138 7.58126L3.51559 7.76211C3.31034 8.0617 3.32028 8.18263 3.49683 8.30138L3.52662 8.32099C3.70538 8.44192 3.8091 8.39071 3.90841 8.248C3.98656 8.1295 4.03149 7.99267 4.03862 7.85144L3.64138 7.58126ZM4.81434 7.36446L4.71614 7.48539C4.70559 7.49577 4.69131 7.5016 4.67641 7.5016C4.66152 7.5016 4.64724 7.49577 4.63669 7.48539L2.96055 6.16608C2.95467 6.16187 2.94969 6.15656 2.94589 6.15044C2.9421 6.14433 2.93957 6.13753 2.93844 6.13044C2.93731 6.12336 2.93761 6.11612 2.93932 6.10915C2.94103 6.10218 2.94412 6.09561 2.94841 6.08982L3.04662 5.9689C3.0512 5.96338 3.05685 5.95882 3.06324 5.95549C3.06964 5.95216 3.07664 5.95013 3.08384 5.94952C3.09104 5.94891 3.0983 5.94974 3.10517 5.95194C3.11204 5.95415 3.1184 5.95769 3.12386 5.96236L4.8 7.28602C4.81214 7.29477 4.82041 7.3078 4.82308 7.32241C4.82575 7.33701 4.82262 7.35208 4.81434 7.36446ZM6.12634 6.00594C5.78207 6.32405 5.3429 6.35565 4.88717 5.87629L4.62124 5.59631C4.16441 5.12023 4.22621 4.68445 4.57048 4.36634C4.91476 4.04822 5.35283 4.01772 5.80855 4.49816L6.06897 4.77705C6.5291 5.2575 6.47062 5.68673 6.12634 6.00594ZM5.60552 4.68445C5.26014 4.32058 4.97986 4.32058 4.73821 4.54283C4.49655 4.76507 4.47779 5.04506 4.82317 5.41437L5.088 5.69327C5.43338 6.05605 5.71586 6.05496 5.95862 5.83163C6.20138 5.60829 6.21683 5.33158 5.87145 4.9688L5.60552 4.68445ZM6.62069 3.71921C6.5046 3.80888 6.41692 3.92947 6.368 4.06674L7.13269 5.05377C7.14193 5.06654 7.14592 5.08229 7.14388 5.09786C7.14183 5.11342 7.13389 5.12764 7.12166 5.13766L7.00359 5.22917C6.99091 5.23785 6.97532 5.24134 6.96009 5.2389C6.94486 5.23646 6.93118 5.22829 6.92193 5.2161L5.99172 4.01772C5.98662 4.01193 5.98275 4.00518 5.98037 3.99788C5.97798 3.99058 5.97712 3.98287 5.97785 3.97523C5.97857 3.96759 5.98086 3.96017 5.98457 3.95343C5.98828 3.94669 5.99334 3.94076 5.99945 3.93601L6.10979 3.85103C6.116 3.84628 6.12313 3.84283 6.13074 3.8409C6.13835 3.83898 6.14629 3.83862 6.15405 3.83984C6.1618 3.84107 6.16923 3.84386 6.17585 3.84803C6.18247 3.8522 6.18816 3.85768 6.19255 3.86411L6.23117 3.91313C6.27256 3.76795 6.35995 3.63966 6.48055 3.54708C6.51365 3.52202 6.54124 3.52311 6.56331 3.54708L6.63834 3.64295C6.65821 3.66692 6.65269 3.69307 6.62069 3.71921ZM7.98345 2.82478L7.904 2.89887C7.95761 2.91476 8.00753 2.94094 8.05088 2.9759C8.09424 3.01085 8.1302 3.05391 8.15669 3.10259L8.16993 3.1222C8.34759 3.39674 8.27365 3.6582 7.88303 3.90442C7.78341 3.97148 7.67063 4.01714 7.552 4.03842C7.53761 4.05585 7.52904 4.07725 7.52746 4.09968C7.52588 4.12211 7.53137 4.14447 7.54317 4.1637C7.57186 4.20619 7.60497 4.21599 7.67338 4.19421L8.11476 4.05258C8.40276 3.95889 8.68634 3.87827 8.83862 4.11359L8.85186 4.1332C9.00745 4.37287 8.94014 4.62235 8.52083 4.88382C8.10152 5.14528 7.84 5.10171 7.68221 4.85331L7.66676 4.83044C7.62777 4.76877 7.60353 4.69914 7.59588 4.62684C7.58823 4.55454 7.59738 4.48147 7.62262 4.41318H7.59945C7.55149 4.41848 7.50301 4.40974 7.46004 4.38805C7.41707 4.36635 7.38152 4.33266 7.35779 4.29117C7.33364 4.25498 7.31969 4.2131 7.31736 4.16983C7.31503 4.12656 7.32442 4.08346 7.34455 4.04495C7.28067 4.03302 7.22024 4.00731 7.16759 3.96964C7.11494 3.93197 7.07138 3.88329 7.04 3.82707L7.03117 3.8129C6.88772 3.59502 6.87228 3.29106 7.30814 3.01653L7.85986 2.66791C7.87493 2.65856 7.89305 2.65526 7.9105 2.65871C7.92795 2.66215 7.94339 2.67207 7.95366 2.68643L7.99448 2.75179C8.01876 2.78121 8.00772 2.80191 7.98345 2.82478ZM7.9349 3.24095C7.8389 3.0917 7.69434 3.01762 7.42069 3.18866C7.14703 3.3597 7.16138 3.53183 7.25186 3.67237L7.2651 3.69198C7.33572 3.80092 7.48028 3.90986 7.77159 3.7312C8.04524 3.56015 8.04634 3.4109 7.94924 3.26165L7.9349 3.24095ZM8.61683 4.25413C8.55393 4.15499 8.4469 4.16697 8.18207 4.25413L7.85103 4.36307C7.82916 4.41759 7.82144 4.47665 7.82857 4.53487C7.8357 4.59309 7.85746 4.64863 7.89186 4.69644L7.90621 4.71931C7.99669 4.85876 8.13683 4.89362 8.41821 4.71931C8.69959 4.545 8.72166 4.41536 8.63228 4.28354L8.61683 4.25413ZM9.98841 3.42615L9.86372 3.48607C9.85663 3.48938 9.84894 3.49127 9.8411 3.49164C9.83326 3.49201 9.82542 3.49084 9.81804 3.48821C9.81065 3.48558 9.80387 3.48153 9.79808 3.4763C9.79228 3.47108 9.78759 3.46477 9.78428 3.45775L9.75448 3.40001C9.66953 3.53989 9.54843 3.65494 9.40359 3.73337C9.17407 3.84232 8.91476 3.84777 8.74924 3.51549L8.73269 3.48607C8.58924 3.19846 8.68745 2.97077 9.16745 2.73763L9.36717 2.64067L9.31421 2.53173C9.20386 2.3073 9.08469 2.26808 8.87283 2.37158C8.73514 2.43715 8.60106 2.50988 8.47117 2.58947L8.45683 2.596C8.43255 2.60799 8.40386 2.61234 8.38731 2.57748L8.33986 2.48379C8.32441 2.45438 8.33986 2.42932 8.37186 2.40644C8.4976 2.31483 8.6317 2.23496 8.77241 2.16786C9.14648 1.98592 9.39145 2.09813 9.54483 2.41298L10.0083 3.34336C10.0125 3.35007 10.0154 3.35755 10.0167 3.36535C10.0179 3.37316 10.0177 3.38114 10.0158 3.38884C10.014 3.39654 10.0106 3.4038 10.0059 3.4102C10.0012 3.41661 9.99525 3.42203 9.98841 3.42615ZM9.45103 2.80735L9.25131 2.90322C8.92027 3.06228 8.87503 3.17667 8.96883 3.36623L8.98538 3.39783C9.08028 3.59066 9.19834 3.59611 9.35393 3.51985C9.48096 3.45343 9.58823 3.35542 9.6651 3.2355L9.45103 2.80735ZM11.4759 2.86074L11.339 2.90976C11.3316 2.91235 11.3238 2.91347 11.316 2.91306C11.3082 2.91266 11.3005 2.91073 11.2934 2.90739C11.2863 2.90405 11.28 2.89936 11.2748 2.8936C11.2695 2.88784 11.2655 2.88111 11.2629 2.87381L10.9297 1.96086C10.8259 1.6787 10.6979 1.62641 10.4883 1.70376C10.3573 1.75993 10.2405 1.84401 10.1462 1.94997L10.5799 3.12765C10.5849 3.14226 10.5841 3.15823 10.5775 3.17223C10.5709 3.18624 10.5591 3.19719 10.5446 3.20282L10.4055 3.25293C10.3909 3.2575 10.375 3.25631 10.3612 3.24961C10.3475 3.24291 10.3368 3.23122 10.3316 3.21698L9.80303 1.78764C9.8002 1.78064 9.7988 1.77315 9.79894 1.76561C9.79907 1.75807 9.80072 1.75063 9.80381 1.74373C9.80689 1.73683 9.81134 1.73061 9.81689 1.72543C9.82244 1.72025 9.82899 1.71621 9.83614 1.71356L9.97848 1.66236C9.98572 1.6598 9.9934 1.65871 10.0011 1.65914C10.0088 1.65957 10.0163 1.66152 10.0232 1.66488C10.0301 1.66823 10.0362 1.67292 10.0412 1.67866C10.0462 1.6844 10.0501 1.69109 10.0524 1.69831L10.0723 1.75169C10.1761 1.61998 10.3153 1.5196 10.4739 1.4619C10.8138 1.33988 11.0422 1.49567 11.1801 1.86608L11.5189 2.78339C11.5214 2.79125 11.5223 2.79954 11.5215 2.80775C11.5207 2.81596 11.5182 2.82392 11.5141 2.83115C11.5101 2.83838 11.5046 2.84473 11.4981 2.84982C11.4915 2.8549 11.4839 2.85862 11.4759 2.86074ZM11.6039 0.871426L11.456 0.910646C11.4406 0.914677 11.4243 0.912599 11.4105 0.904858C11.3966 0.897117 11.3864 0.884331 11.3821 0.869247L11.3181 0.639377C11.314 0.624353 11.3162 0.608358 11.324 0.594884C11.3319 0.581411 11.3448 0.571557 11.36 0.567474L11.5079 0.527165C11.5232 0.523134 11.5396 0.525212 11.5534 0.532953C11.5672 0.540694 11.5774 0.55348 11.5818 0.568563L11.6447 0.798434C11.6485 0.813444 11.6465 0.829337 11.6389 0.842891C11.6313 0.856445 11.6188 0.866646 11.6039 0.871426ZM12.1015 2.6995L11.9614 2.73654C11.946 2.74057 11.9297 2.73849 11.9158 2.73075C11.902 2.72301 11.8918 2.71023 11.8874 2.69514L11.4858 1.2353C11.4836 1.22779 11.483 1.21992 11.4839 1.21217C11.4849 1.20441 11.4874 1.19692 11.4913 1.19012C11.4952 1.18333 11.5004 1.17737 11.5067 1.17259C11.5129 1.16782 11.5201 1.16432 11.5277 1.16231L11.6668 1.12527C11.6821 1.12152 11.6983 1.12372 11.7121 1.13142C11.7258 1.13912 11.7361 1.15174 11.7407 1.16666L12.1379 2.62215C12.1426 2.63647 12.1416 2.65201 12.135 2.66559C12.1284 2.67916 12.1168 2.68974 12.1026 2.69514L12.1015 2.6995ZM13.5382 2.38574L12.6455 2.55896C12.6231 2.56618 12.5994 2.56856 12.576 2.56594C12.5526 2.56332 12.53 2.55576 12.5098 2.54378C12.4896 2.53179 12.4723 2.51566 12.4589 2.49648C12.4456 2.47729 12.4366 2.4555 12.4326 2.43259L12.4215 2.37703C12.4044 2.30845 12.4155 2.23598 12.4524 2.17548L13.0295 1.08605C13.0339 1.07723 13.0362 1.06754 13.0361 1.05772C13.0361 1.04465 13.0251 1.03811 13.0019 1.04247L12.2847 1.18083C12.2769 1.18242 12.2688 1.18246 12.261 1.18097C12.2531 1.17947 12.2456 1.17646 12.239 1.17211C12.2323 1.16776 12.2266 1.16215 12.2221 1.15561C12.2177 1.14906 12.2145 1.14171 12.213 1.13398L12.1942 1.03375C12.1913 1.01831 12.1946 1.00235 12.2035 0.989307C12.2124 0.976266 12.2261 0.967188 12.2417 0.964028L13.1112 0.797345C13.2326 0.773377 13.2877 0.820223 13.3054 0.906288L13.3197 0.977102C13.331 1.03732 13.3179 1.0995 13.2833 1.15032L12.6952 2.2659C12.6914 2.27104 12.6888 2.27689 12.6875 2.28308C12.6862 2.28927 12.6861 2.29566 12.6874 2.30186C12.6874 2.31602 12.6941 2.32364 12.7161 2.32038L13.4963 2.17003C13.504 2.16845 13.512 2.16842 13.5198 2.16992C13.5276 2.17143 13.535 2.17446 13.5415 2.17882C13.5481 2.18318 13.5538 2.18879 13.5581 2.19533C13.5625 2.20186 13.5654 2.20919 13.5669 2.21688L13.5868 2.31602C13.5897 2.33162 13.5862 2.34772 13.5771 2.36079C13.568 2.37386 13.554 2.38283 13.5382 2.38574ZM14.9462 2.23867L14.8072 2.25174C14.7912 2.25295 14.7755 2.24791 14.7633 2.23771C14.7511 2.22751 14.7435 2.21298 14.7421 2.19727L14.7366 2.1319C14.6071 2.23299 14.4522 2.29739 14.2886 2.3182C14.0337 2.34108 13.7909 2.25283 13.7567 1.88242V1.84647C13.7269 1.52727 13.9001 1.35187 14.4331 1.30175L14.6538 1.28214L14.6428 1.1634C14.6196 0.915004 14.5258 0.836564 14.2919 0.858353C14.1389 0.872444 13.9868 0.894262 13.8361 0.923719H13.8207C13.7942 0.923719 13.7666 0.923719 13.7633 0.881231L13.7534 0.777735C13.7534 0.745052 13.7688 0.725442 13.8108 0.716726C13.9609 0.675478 14.1145 0.648124 14.2698 0.635019C14.6858 0.597978 14.8723 0.789719 14.9054 1.13725L15.0014 2.16786C15.003 2.17614 15.0027 2.18467 15.0008 2.19287C14.9988 2.20107 14.995 2.20876 14.9898 2.21545C14.9846 2.22213 14.978 2.22765 14.9705 2.23165C14.963 2.23566 14.9547 2.23805 14.9462 2.23867ZM14.6692 1.47606L14.4486 1.49676C14.0855 1.52945 13.9972 1.61769 14.0171 1.82359V1.85954C14.037 2.07198 14.144 2.11774 14.3161 2.10358C14.4589 2.08633 14.5947 2.03264 14.7101 1.94779L14.6692 1.47606ZM16.0982 2.22668C16.0332 2.23697 15.9676 2.24279 15.9018 2.24412C15.6248 2.24412 15.4924 2.17875 15.4858 1.85192L15.4703 0.814776L15.1779 0.78645C15.1631 0.786757 15.1487 0.781365 15.1378 0.771409C15.1269 0.761453 15.1203 0.747709 15.1194 0.733068V0.653539C15.1193 0.646251 15.1206 0.639008 15.1234 0.632256C15.1262 0.625505 15.1304 0.61939 15.1357 0.614286C15.1409 0.609182 15.1472 0.605199 15.1541 0.602582C15.161 0.599964 15.1683 0.598768 15.1757 0.599067H15.4681V0.308188C15.4685 0.29366 15.474 0.279707 15.4836 0.268759C15.4933 0.257811 15.5066 0.25056 15.5211 0.248269L15.669 0.217765H15.6789C15.6853 0.217886 15.6916 0.219308 15.6974 0.221941C15.7032 0.224575 15.7084 0.228363 15.7126 0.233068C15.7168 0.237773 15.7201 0.243294 15.7221 0.249284C15.724 0.255274 15.7247 0.261605 15.7241 0.267879V0.59471H16.0497C16.0575 0.594565 16.0653 0.595944 16.0725 0.598768C16.0798 0.601592 16.0865 0.605805 16.0921 0.611167C16.0978 0.616529 16.1023 0.622935 16.1054 0.630018C16.1085 0.637101 16.1102 0.644724 16.1103 0.65245V0.753767C16.1103 0.769472 16.1041 0.78455 16.093 0.795756C16.0818 0.806962 16.0667 0.813401 16.0508 0.813686L15.7252 0.819133L15.7418 1.85628C15.7418 2.01969 15.7859 2.04257 15.9073 2.04039H16.075C16.117 2.04039 16.1379 2.05129 16.1401 2.0807V2.18964C16.1512 2.20163 16.1368 2.21906 16.0982 2.22668ZM16.6212 2.25392L16.4767 2.24412C16.461 2.243 16.4463 2.23589 16.4358 2.22431C16.4253 2.21272 16.4198 2.19755 16.4204 2.18202L16.5098 0.67097C16.5109 0.655462 16.5181 0.640996 16.5299 0.630628C16.5416 0.620261 16.557 0.614803 16.5727 0.615409L16.7172 0.623035C16.7332 0.624425 16.7481 0.631913 16.7586 0.643912C16.7691 0.655911 16.7744 0.671477 16.7735 0.687312L16.6841 2.19727C16.683 2.21287 16.6759 2.22745 16.6641 2.238C16.6524 2.24854 16.6371 2.25424 16.6212 2.25392ZM16.7393 0.363749L16.5859 0.353944C16.5781 0.353527 16.5704 0.351588 16.5634 0.348239C16.5563 0.34489 16.55 0.340196 16.5447 0.334428C16.5395 0.328659 16.5355 0.321928 16.5329 0.314621C16.5303 0.307314 16.5292 0.299575 16.5297 0.291847L16.544 0.0554389C16.5451 0.0399307 16.5523 0.0254648 16.5641 0.0150971C16.5758 0.0047294 16.5912 -0.000728037 16.6069 -0.000122318L16.7614 0.00859317C16.7771 0.00971217 16.7917 0.0168157 16.8022 0.0284031C16.8127 0.0399905 16.8183 0.0551543 16.8177 0.070691L16.8033 0.308188C16.8029 0.316016 16.8009 0.323682 16.7974 0.330736C16.794 0.33779 16.7891 0.344091 16.7832 0.349267C16.7772 0.354443 16.7702 0.35839 16.7627 0.360877C16.7552 0.363364 16.7472 0.364341 16.7393 0.363749ZM17.6552 2.37485C17.2138 2.31602 17.0317 2.00008 17.0913 1.56758L17.1211 1.34424C17.1796 0.908467 17.4433 0.655718 17.8814 0.714548C18.3194 0.773377 18.5103 1.08931 18.4519 1.52509L18.421 1.74298C18.3614 2.17875 18.0965 2.43368 17.6552 2.37485ZM18.1859 1.48696C18.2268 1.18627 18.1319 0.97928 17.8549 0.94224C17.5779 0.905199 17.4301 1.07842 17.387 1.37801L17.3561 1.60135C17.3153 1.90203 17.408 2.10903 17.6872 2.14607C17.9663 2.18311 18.1153 2.00989 18.1572 1.71029L18.1859 1.48696ZM19.7672 2.79319L19.627 2.75833C19.6193 2.75643 19.612 2.75302 19.6056 2.7483C19.5992 2.74357 19.5939 2.73763 19.5899 2.73082C19.5859 2.72402 19.5833 2.71648 19.5823 2.70867C19.5813 2.70085 19.5818 2.69292 19.584 2.68534L19.8279 1.73753C19.9029 1.44665 19.8279 1.33335 19.6072 1.27561C19.467 1.24937 19.3226 1.2542 19.1846 1.28977L18.869 2.50558C18.8646 2.52048 18.8546 2.53316 18.8411 2.54106C18.8275 2.54895 18.8115 2.55146 18.7961 2.54807L18.6527 2.51212C18.6379 2.5078 18.6255 2.49802 18.6178 2.48482C18.6102 2.47162 18.6081 2.45603 18.6119 2.4413L18.9903 0.972744C18.9919 0.965204 18.995 0.958055 18.9994 0.951732C19.0039 0.945409 19.0096 0.940045 19.0162 0.935968C19.0228 0.93189 19.0302 0.929184 19.0379 0.928015C19.0456 0.926846 19.0534 0.927237 19.061 0.929166L19.2066 0.966207C19.2142 0.967953 19.2213 0.971217 19.2275 0.975796C19.2337 0.980374 19.2389 0.986169 19.2427 0.992817C19.2465 0.999465 19.2489 1.00682 19.2497 1.01443C19.2506 1.02203 19.2498 1.02973 19.2474 1.03702L19.2331 1.09149C19.3943 1.04039 19.5667 1.0351 19.7308 1.07624C20.0806 1.16448 20.1832 1.41941 20.0839 1.80289L19.8389 2.7507C19.8347 2.76552 19.825 2.77819 19.8116 2.78609C19.7983 2.794 19.7824 2.79654 19.7672 2.79319ZM22.3161 1.54688L22.1793 1.4924C22.0491 1.43902 21.9939 1.46081 21.931 1.61224L21.8483 1.81052L22.1407 1.92927C22.1477 1.9318 22.1541 1.93569 22.1595 1.94071C22.1649 1.94573 22.1692 1.95178 22.1722 1.95849C22.1752 1.96521 22.1768 1.97245 22.1769 1.97978C22.1769 1.98712 22.1755 1.99439 22.1727 2.00117L22.1274 2.11012C22.1246 2.11659 22.1205 2.12242 22.1152 2.12724C22.11 2.13205 22.1039 2.13575 22.0971 2.13811C22.0904 2.14046 22.0832 2.14141 22.0761 2.14091C22.069 2.1404 22.062 2.13845 22.0557 2.13517L21.7633 2.01533L21.2436 3.26819C21.2371 3.28183 21.2258 3.29268 21.2118 3.29869C21.1977 3.30471 21.182 3.30548 21.1674 3.30087L21.0306 3.24531C21.0164 3.23906 21.0051 3.22773 20.9989 3.21359C20.9928 3.19945 20.9923 3.18354 20.9975 3.16905L21.5172 1.91293L21.2601 1.77239C21.2465 1.76702 21.2354 1.75668 21.2293 1.7435C21.2231 1.73033 21.2223 1.71532 21.227 1.70158L21.259 1.62749C21.2619 1.6209 21.2661 1.61493 21.2713 1.60993C21.2765 1.60493 21.2827 1.60101 21.2895 1.59837C21.2962 1.59574 21.3035 1.59446 21.3108 1.59459C21.318 1.59473 21.3252 1.59628 21.3319 1.59917L21.6022 1.70811L21.685 1.51093C21.8086 1.21678 21.9895 1.18409 22.2367 1.28759C22.2894 1.30813 22.3394 1.33483 22.3857 1.36712C22.4132 1.38782 22.4309 1.40743 22.421 1.43358L22.3823 1.524C22.3713 1.55668 22.3459 1.55886 22.3161 1.54688ZM22.2422 3.82162C21.8505 3.61898 21.7865 3.26056 21.9917 2.87381L22.1021 2.67444C22.3073 2.28878 22.6417 2.13626 23.0334 2.3389C23.4251 2.54153 23.4913 2.89996 23.2861 3.28671L23.1724 3.48607C22.9705 3.87391 22.6328 4.02425 22.2422 3.82162ZM23.0477 3.16796C23.1901 2.89996 23.1713 2.67335 22.9208 2.54262C22.6703 2.41189 22.4795 2.52628 22.3316 2.79646L22.2212 2.99692C22.0789 3.26492 22.0954 3.49043 22.3459 3.62007C22.5964 3.74972 22.7939 3.6375 22.9385 3.36732L23.0477 3.16796ZM24.4359 3.42942C24.3113 3.3523 24.1669 3.31221 24.0199 3.31394L23.339 4.35762C23.3303 4.37059 23.3167 4.37967 23.3012 4.38293C23.2858 4.38618 23.2697 4.38336 23.2563 4.37505L23.1316 4.2977C23.119 4.28853 23.1105 4.27501 23.1076 4.25985C23.1047 4.24469 23.1078 4.22902 23.1161 4.216L23.9448 2.94135C23.9488 2.93468 23.9541 2.92886 23.9604 2.92424C23.9667 2.91962 23.9738 2.9163 23.9814 2.91447C23.9891 2.91264 23.997 2.91234 24.0047 2.91359C24.0124 2.91484 24.0199 2.91761 24.0265 2.92174L24.1446 2.99692C24.1509 3.00108 24.1564 3.00646 24.1606 3.01274C24.1649 3.01902 24.1678 3.02607 24.1692 3.03347C24.1707 3.04088 24.1706 3.0485 24.169 3.05588C24.1674 3.06326 24.1644 3.07025 24.16 3.07644L24.1258 3.12874C24.2784 3.11846 24.4304 3.15664 24.5594 3.23768C24.5948 3.25947 24.6025 3.28671 24.5837 3.31612L24.5164 3.41853C24.4965 3.44903 24.4712 3.4523 24.4359 3.42942ZM24.8441 5.556C24.719 5.44841 24.6028 5.3311 24.4966 5.2052C24.4634 5.16598 24.4679 5.15291 24.4888 5.12785L24.5672 5.03852C24.5716 5.03362 24.5771 5.02971 24.5831 5.02703C24.5892 5.02435 24.5958 5.02296 24.6025 5.02296C24.6091 5.02296 24.6157 5.02435 24.6218 5.02703C24.6279 5.02971 24.6333 5.03362 24.6378 5.03852L24.6444 5.04397C24.7404 5.1431 24.9026 5.28909 25.0074 5.37842C25.2811 5.61156 25.4488 5.56472 25.5857 5.40784C25.6839 5.29889 25.6728 5.17688 25.5757 4.87401L25.4654 4.55372C25.3672 4.24868 25.3617 4.04604 25.5194 3.86629C25.7567 3.59393 26.0646 3.63642 26.411 3.93165C26.5424 4.04534 26.6666 4.16685 26.7829 4.29552C26.7922 4.30524 26.7974 4.3181 26.7974 4.33148C26.7974 4.34485 26.7922 4.35771 26.7829 4.36743L26.6979 4.4633C26.6936 4.46817 26.6882 4.47206 26.6822 4.47474C26.6762 4.47741 26.6697 4.47879 26.6632 4.47879C26.6566 4.47879 26.6501 4.47741 26.6441 4.47474C26.6381 4.47206 26.6328 4.46817 26.6284 4.4633C26.5335 4.37178 26.3801 4.22907 26.2488 4.11686C26.0138 3.91749 25.8703 3.88154 25.7269 4.04495C25.6342 4.1539 25.6541 4.27809 25.7379 4.52866L25.8394 4.83153C25.9674 5.21065 25.9498 5.41328 25.7964 5.59413C25.611 5.8033 25.2932 5.94057 24.8441 5.556ZM26.1109 6.73259C26.0591 6.69339 26.0101 6.6508 25.9641 6.60513C25.7699 6.41012 25.7302 6.2674 25.9641 6.03971L26.7134 5.31524L26.5324 5.08645C26.5271 5.08147 26.5229 5.07547 26.52 5.06882C26.5171 5.06217 26.5156 5.05501 26.5156 5.04778C26.5156 5.04054 26.5171 5.03339 26.52 5.02674C26.5229 5.02009 26.5271 5.01409 26.5324 5.0091L26.5909 4.95354C26.5958 4.94818 26.6017 4.9439 26.6084 4.94096C26.615 4.93803 26.6222 4.93651 26.6295 4.93651C26.6368 4.93651 26.644 4.93803 26.6507 4.94096C26.6573 4.9439 26.6633 4.94818 26.6681 4.95354L26.8723 5.15836L27.083 4.95572C27.0941 4.946 27.1085 4.94063 27.1233 4.94063C27.1382 4.94063 27.1525 4.946 27.1636 4.95572L27.2905 5.04941L27.296 5.05486C27.305 5.06384 27.3101 5.07598 27.3101 5.08863C27.3101 5.10129 27.305 5.11343 27.296 5.12241L27.061 5.34792L27.2883 5.5767C27.2995 5.58808 27.3057 5.60332 27.3057 5.61919C27.3057 5.63505 27.2995 5.65029 27.2883 5.66168L27.2154 5.73249C27.2039 5.74354 27.1885 5.74972 27.1724 5.74972C27.1563 5.74972 27.1409 5.74354 27.1294 5.73249L26.9021 5.50262L26.1517 6.226C26.0348 6.33495 26.0414 6.38615 26.1308 6.47113L26.2477 6.58988C26.2764 6.62038 26.283 6.64326 26.2621 6.66396L26.187 6.73695C26.1661 6.75438 26.1418 6.75438 26.1109 6.73259ZM26.9837 7.75557L26.8966 7.64663C26.8914 7.64066 26.8875 7.63373 26.8851 7.62626C26.8827 7.61878 26.8818 7.6109 26.8825 7.60308C26.8832 7.59526 26.8855 7.58766 26.8893 7.58074C26.893 7.57381 26.8981 7.56769 26.9043 7.56274L26.9561 7.52243C26.7992 7.47236 26.6588 7.38125 26.5501 7.25879C26.3879 7.06378 26.3294 6.8143 26.6174 6.58007L26.6461 6.55719C26.8988 6.35565 27.1437 6.39814 27.4814 6.80885L27.6226 6.9788L27.7164 6.90363C27.9117 6.74567 27.9239 6.62583 27.776 6.44607C27.6788 6.32812 27.5753 6.21538 27.4659 6.10835C27.4631 6.104 27.4597 6.09999 27.456 6.09636C27.4394 6.07566 27.4284 6.04952 27.456 6.02555L27.5377 5.95909C27.563 5.93839 27.5906 5.94275 27.6226 5.97217C27.7405 6.07156 27.8495 6.18092 27.9481 6.299C28.2108 6.61929 28.1545 6.87966 27.8797 7.09973L27.0654 7.75339C27.0545 7.76372 27.0401 7.76967 27.025 7.77008C27.0099 7.77048 26.9952 7.76531 26.9837 7.75557ZM27.4748 7.10191L27.3335 6.93305C27.1051 6.65415 26.9804 6.63127 26.816 6.76419L26.7873 6.78706C26.6196 6.92106 26.6394 7.03546 26.7498 7.16946C26.8435 7.27677 26.9641 7.35791 27.0996 7.40477L27.4748 7.10191ZM27.8621 9.04982L27.7848 8.92998C27.7803 8.92345 27.7772 8.91608 27.7757 8.90834C27.7742 8.90059 27.7742 8.89261 27.7759 8.88489C27.7775 8.87716 27.7807 8.86984 27.7853 8.86337C27.7899 8.85689 27.7957 8.85139 27.8025 8.84719L28.6323 8.31772C28.8872 8.15431 28.9092 8.0203 28.7845 7.83074C28.7013 7.71755 28.5935 7.62413 28.469 7.5573L27.4041 8.23819C27.3905 8.24629 27.3743 8.24899 27.3587 8.24576C27.3432 8.24253 27.3294 8.23359 27.3203 8.22076L27.2408 8.09874C27.233 8.08554 27.2307 8.06985 27.2344 8.05501C27.2381 8.04016 27.2476 8.02732 27.2607 8.01922L28.5473 7.19669C28.5537 7.19219 28.561 7.18901 28.5686 7.18734C28.5763 7.18567 28.5842 7.18554 28.592 7.18696C28.5997 7.18839 28.607 7.19133 28.6136 7.19562C28.6201 7.19992 28.6257 7.20547 28.6301 7.21194L28.7106 7.33614C28.7148 7.34253 28.7177 7.3497 28.719 7.35721C28.7204 7.36472 28.7201 7.37242 28.7184 7.37985C28.7166 7.38727 28.7134 7.39427 28.7088 7.40043C28.7043 7.40658 28.6985 7.41177 28.6919 7.41567L28.6433 7.44617C28.7974 7.51801 28.9278 7.63129 29.0196 7.773C29.216 8.0726 29.1145 8.32753 28.779 8.54214L27.9481 9.0727C27.9411 9.0771 27.9331 9.08001 27.9248 9.08124C27.9166 9.08247 27.9081 9.082 27.9 9.07985C27.892 9.0777 27.8844 9.07392 27.8779 9.06876C27.8713 9.06359 27.866 9.05714 27.8621 9.04982ZM28.5992 10.3898C28.4868 10.244 28.3889 10.0879 28.3068 9.92355C28.107 9.52808 28.2759 9.2176 28.6786 9.01823L28.8728 8.92345C29.2943 8.71537 29.6287 8.79163 29.8229 9.17838C29.8756 9.28346 29.9192 9.3928 29.9531 9.50521L30.4552 9.26008C30.4687 9.2536 30.4842 9.2526 30.4984 9.25728C30.5126 9.26197 30.5245 9.27197 30.5313 9.28514L30.5997 9.42132C30.6029 9.42774 30.6047 9.43472 30.605 9.44184C30.6054 9.44896 30.6043 9.45609 30.6019 9.46279C30.5994 9.46949 30.5956 9.47564 30.5907 9.48086C30.5858 9.48609 30.5798 9.49029 30.5732 9.49322L28.6897 10.416C28.6543 10.4323 28.6323 10.4345 28.5992 10.3898ZM29.7545 9.59999C29.7168 9.48975 29.6703 9.38264 29.6155 9.27969C29.4841 9.01823 29.2767 9.01496 28.9898 9.15659L28.7967 9.25137C28.5032 9.39517 28.3807 9.55859 28.5142 9.82114C28.5583 9.91157 28.6323 10.039 28.6863 10.124L29.7545 9.59999ZM29.1134 11.7745L29.0648 11.647C29.0594 11.6323 29.0601 11.616 29.0667 11.6018C29.0733 11.5875 29.0853 11.5764 29.1001 11.5708L29.1619 11.5479C29.0297 11.4511 28.9264 11.3209 28.8629 11.171C28.7746 10.9345 28.7967 10.6796 29.1498 10.5489L29.184 10.5369C29.4886 10.428 29.7048 10.5434 29.8924 11.0391L29.9697 11.2461L30.08 11.2047C30.3161 11.1176 30.368 11.0075 30.2852 10.7907C30.2317 10.6487 30.1709 10.5095 30.1032 10.3735L30.0977 10.3593C30.0942 10.3534 30.0921 10.3467 30.0916 10.3399C30.0911 10.3331 30.0922 10.3262 30.0947 10.3198C30.0973 10.3134 30.1012 10.3077 30.1063 10.303C30.1114 10.2984 30.1175 10.2949 30.1241 10.2929L30.2223 10.2569C30.2532 10.2449 30.2775 10.2569 30.2974 10.295C30.3764 10.4279 30.4428 10.5675 30.496 10.7123C30.6417 11.0991 30.5026 11.3267 30.1705 11.4488L29.1873 11.8094C29.1728 11.8137 29.1572 11.8126 29.1435 11.8061C29.1298 11.7997 29.1191 11.7884 29.1134 11.7745ZM29.792 11.3104L29.7148 11.1045C29.5879 10.7679 29.4786 10.7079 29.2734 10.7777L29.2403 10.7897C29.0372 10.8648 29.0196 10.9781 29.0792 11.1394C29.1327 11.2708 29.2202 11.3862 29.333 11.4738L29.792 11.3104ZM30.7972 12.4075C30.7559 12.2676 30.6751 12.1422 30.5644 12.0458L29.3506 12.3726C29.3353 12.3763 29.319 12.3741 29.3053 12.3664C29.2915 12.3587 29.2813 12.3461 29.2767 12.3312L29.237 12.1907C29.2336 12.1758 29.2362 12.1602 29.2442 12.1472C29.2523 12.1342 29.2651 12.1248 29.28 12.1209L30.7586 11.7189C30.7659 11.7166 30.7736 11.7157 30.7813 11.7164C30.789 11.717 30.7964 11.7192 30.8032 11.7228C30.81 11.7263 30.816 11.7312 30.8209 11.7371C30.8257 11.743 30.8293 11.7498 30.8314 11.7571L30.869 11.8922C30.871 11.8995 30.8715 11.9072 30.8704 11.9148C30.8694 11.9223 30.8668 11.9296 30.863 11.9362C30.8591 11.9428 30.8539 11.9485 30.8477 11.9531C30.8415 11.9577 30.8345 11.9611 30.827 11.963L30.7663 11.9793C30.8875 12.0714 30.9756 12.1993 31.0179 12.3443C31.0301 12.3846 31.0179 12.4096 30.9826 12.4194L30.8646 12.451C30.8314 12.463 30.8072 12.4478 30.7972 12.4075ZM29.696 14.0928C29.6288 13.9222 29.5782 13.7456 29.5448 13.5655C29.4632 13.1298 29.7114 12.877 30.155 12.7953L30.3691 12.7561C30.8326 12.6711 31.1327 12.8334 31.2121 13.2594C31.2334 13.3737 31.2452 13.4896 31.2474 13.6058L31.7992 13.5045C31.8066 13.5031 31.8142 13.5032 31.8216 13.5047C31.8289 13.5063 31.8359 13.5093 31.8421 13.5136C31.8483 13.5178 31.8535 13.5233 31.8575 13.5296C31.8615 13.5359 31.8642 13.5429 31.8654 13.5503L31.8941 13.6984C31.8953 13.7055 31.8951 13.7128 31.8934 13.7198C31.8918 13.7269 31.8887 13.7335 31.8843 13.7393C31.88 13.7451 31.8745 13.7499 31.8682 13.7536C31.8619 13.7573 31.855 13.7596 31.8477 13.7605L29.7799 14.1408C29.7368 14.1484 29.7148 14.144 29.696 14.0928ZM31.0279 13.6462C31.0216 13.5301 31.0069 13.4147 30.9837 13.3008C30.9297 13.0143 30.7321 12.9544 30.4165 13.0132L30.2036 13.0513C29.8803 13.1101 29.7192 13.2343 29.7721 13.523C29.7909 13.6222 29.8262 13.7638 29.8549 13.8619L31.0279 13.6462ZM29.7313 14.7182L29.717 14.5754C29.716 14.5677 29.7167 14.5599 29.7189 14.5524C29.721 14.5449 29.7247 14.5379 29.7296 14.5318C29.7345 14.5258 29.7406 14.5207 29.7476 14.517C29.7545 14.5132 29.7621 14.5109 29.7699 14.5101L31.296 14.3532C31.3038 14.3523 31.3118 14.3529 31.3194 14.3551C31.3269 14.3572 31.334 14.3608 31.3402 14.3657C31.3463 14.3706 31.3514 14.3766 31.3552 14.3834C31.359 14.3902 31.3614 14.3977 31.3622 14.4055L31.3777 14.5482C31.3792 14.5639 31.3744 14.5796 31.3643 14.5919C31.3541 14.6041 31.3395 14.6119 31.3236 14.6136L29.7931 14.7704C29.7781 14.7708 29.7634 14.7657 29.752 14.756C29.7406 14.7464 29.7332 14.7329 29.7313 14.7182ZM31.6414 14.5264L31.6248 14.3804C31.6233 14.3647 31.6281 14.349 31.6382 14.3368C31.6484 14.3245 31.663 14.3167 31.6789 14.3151L31.9183 14.2911C31.9262 14.2902 31.9341 14.2908 31.9417 14.293C31.9493 14.2951 31.9564 14.2987 31.9625 14.3036C31.9687 14.3085 31.9738 14.3145 31.9776 14.3213C31.9814 14.3281 31.9837 14.3356 31.9845 14.3434L32 14.4894C32.0019 14.5051 31.9973 14.5209 31.9874 14.5334C31.9775 14.5459 31.963 14.5539 31.947 14.5558L31.7076 14.5798C31.6918 14.5813 31.6761 14.5767 31.6637 14.567C31.6513 14.5572 31.6433 14.543 31.6414 14.5275V14.5264ZM29.8097 16.1736L29.7821 15.277C29.7782 15.2541 29.7795 15.2306 29.7858 15.2082C29.792 15.1858 29.8032 15.165 29.8184 15.1473C29.8336 15.1296 29.8526 15.1153 29.8739 15.1056C29.8953 15.0958 29.9185 15.0907 29.9421 15.0907H29.9994C30.0708 15.0849 30.1417 15.1068 30.197 15.1518L31.1901 15.8893C31.1976 15.8956 31.2068 15.8998 31.2166 15.9013C31.2287 15.9013 31.2375 15.8947 31.2364 15.8708L31.2143 15.1485C31.214 15.1328 31.22 15.1176 31.2309 15.1062C31.2419 15.0948 31.2569 15.088 31.2728 15.0875H31.3754C31.3912 15.0872 31.4064 15.0929 31.4179 15.1035C31.4295 15.114 31.4364 15.1286 31.4372 15.1441L31.4648 16.0157C31.4648 16.1377 31.413 16.1834 31.3225 16.1856H31.2497C31.219 16.1866 31.1885 16.1814 31.1599 16.1706C31.1313 16.1597 31.1052 16.1434 31.083 16.1224L30.0679 15.3707C30.0588 15.3617 30.0465 15.3566 30.0337 15.3566C30.0193 15.3566 30.0105 15.3566 30.0105 15.3805L30.0359 16.166C30.0362 16.1739 30.0349 16.1817 30.0321 16.1891C30.0293 16.1965 30.0251 16.2033 30.0197 16.209C30.0142 16.2148 30.0077 16.2195 30.0004 16.2227C29.9932 16.226 29.9854 16.2278 29.9774 16.2281H29.8748C29.8588 16.2293 29.8431 16.2243 29.8309 16.2141C29.8187 16.2039 29.8111 16.1894 29.8097 16.1736ZM29.7302 17.5899L29.7401 17.4526C29.7407 17.4449 29.7428 17.4374 29.7463 17.4304C29.7498 17.4235 29.7547 17.4173 29.7607 17.4123C29.7666 17.4072 29.7735 17.4034 29.781 17.4009C29.7884 17.3985 29.7963 17.3976 29.8041 17.3982H29.8692C29.7913 17.2551 29.7532 17.0942 29.7589 16.9319C29.7766 16.6791 29.9046 16.4569 30.2797 16.482H30.3161C30.6405 16.5048 30.7884 16.6998 30.7509 17.2304L30.7354 17.4483L30.8546 17.4559C31.1073 17.4733 31.2 17.3949 31.2166 17.1628C31.2277 17.0117 31.2306 16.86 31.2254 16.7086C31.2259 16.7035 31.2259 16.6984 31.2254 16.6933C31.2254 16.6661 31.2386 16.641 31.2772 16.6432L31.3876 16.6497C31.4207 16.6497 31.4372 16.6737 31.4395 16.7173C31.4558 16.8704 31.4581 17.0246 31.4461 17.1781C31.4163 17.5899 31.1945 17.7403 30.8403 17.7163L29.7942 17.6444C29.7785 17.645 29.7632 17.6397 29.7513 17.6296C29.7394 17.6195 29.7319 17.6053 29.7302 17.5899ZM30.5434 17.4439L30.5589 17.226C30.5843 16.8676 30.5103 16.7674 30.2985 16.7521H30.2621C30.0414 16.7369 29.9807 16.8349 29.9697 17.006C29.9638 17.1477 29.9954 17.2885 30.0612 17.4145L30.5434 17.4439ZM29.5559 18.7088C29.5573 18.6457 29.5629 18.5827 29.5724 18.5203C29.6143 18.2501 29.7081 18.1314 30.0337 18.1826L31.0709 18.3438L31.1492 18.0649C31.1501 18.0577 31.1523 18.0508 31.1559 18.0445C31.1594 18.0382 31.1642 18.0326 31.17 18.0282C31.1757 18.0237 31.1823 18.0204 31.1894 18.0185C31.1964 18.0166 31.2038 18.0161 31.211 18.017L31.2905 18.03C31.298 18.0307 31.3053 18.033 31.3118 18.0368C31.3183 18.0406 31.3239 18.0457 31.3282 18.0518C31.3325 18.0579 31.3354 18.0649 31.3367 18.0722C31.338 18.0796 31.3377 18.0871 31.3357 18.0943L31.2905 18.3798L31.5818 18.4255C31.5963 18.4279 31.6095 18.4354 31.6188 18.4466C31.6281 18.4578 31.633 18.472 31.6326 18.4865V18.6434C31.632 18.6466 31.632 18.65 31.6326 18.6532C31.6297 18.6654 31.622 18.676 31.6113 18.6827C31.6006 18.6895 31.5876 18.6918 31.5752 18.6891L31.2508 18.639L31.2 18.955C31.1973 18.9706 31.1885 18.9846 31.1755 18.9939C31.1626 19.0033 31.1464 19.0073 31.1305 19.0051L31.0301 18.9887C31.0222 18.9876 31.0146 18.9848 31.0077 18.9807C31.0009 18.9766 30.995 18.9712 30.9902 18.9648C30.9855 18.9585 30.9821 18.9512 30.9802 18.9436C30.9784 18.9359 30.9781 18.9279 30.9793 18.9201L31.0301 18.6031L29.9928 18.4418C29.8295 18.4168 29.7986 18.4538 29.7799 18.5715L29.7545 18.7349C29.7479 18.7763 29.7324 18.7948 29.7026 18.7905L29.5978 18.7741C29.5724 18.7643 29.5559 18.7469 29.5559 18.7088ZM29.451 19.211L29.4808 19.0715C29.4845 19.0563 29.4941 19.0431 29.5075 19.0348C29.5209 19.0264 29.5371 19.0236 29.5526 19.0269L31.0499 19.3537C31.0577 19.3553 31.0651 19.3583 31.0717 19.3628C31.0783 19.3672 31.0839 19.3729 31.0882 19.3795C31.0926 19.3861 31.0955 19.3934 31.0969 19.4012C31.0983 19.4089 31.0981 19.4169 31.0963 19.4245L31.0654 19.564C31.0617 19.5792 31.0522 19.5925 31.0388 19.601C31.0254 19.6096 31.0093 19.6127 30.9937 19.6097L29.4963 19.2829C29.4885 19.2812 29.4811 19.278 29.4745 19.2735C29.468 19.2689 29.4624 19.2631 29.4582 19.2564C29.454 19.2497 29.4512 19.2422 29.4499 19.2344C29.4487 19.2266 29.4491 19.2186 29.451 19.211ZM31.3269 19.6272L31.36 19.479C31.3634 19.4636 31.3729 19.4501 31.3863 19.4416C31.3998 19.433 31.4161 19.43 31.4317 19.4332L31.6668 19.4855C31.6822 19.4892 31.6955 19.4986 31.704 19.5118C31.7124 19.5251 31.7153 19.541 31.712 19.5563L31.6789 19.7034C31.6755 19.7188 31.666 19.7323 31.6526 19.7409C31.6391 19.7494 31.6228 19.7524 31.6072 19.7492L31.3721 19.698C31.3641 19.6967 31.3564 19.6938 31.3495 19.6895C31.3427 19.6852 31.3367 19.6796 31.3321 19.673C31.3275 19.6663 31.3242 19.6589 31.3226 19.651C31.3209 19.6432 31.3209 19.635 31.3225 19.6272H31.3269ZM29.1641 20.1937C29.2932 19.7764 29.6375 19.6489 30.0601 19.7764L30.2808 19.8429C30.7023 19.9703 30.9153 20.2667 30.7862 20.685C30.6571 21.1033 30.3106 21.2297 29.8891 21.1044L29.6684 21.0391C29.2414 20.9094 29.0339 20.6098 29.1641 20.1937ZM29.9641 20.8549C30.2565 20.9432 30.4795 20.8844 30.5633 20.6175C30.6472 20.3505 30.4971 20.1817 30.2014 20.0923L29.9807 20.0259C29.6872 19.9366 29.4654 19.9943 29.3826 20.2601C29.2999 20.5259 29.4466 20.6959 29.7434 20.7896L29.9641 20.8549ZM28.4083 22.1688L28.4657 22.0392C28.4688 22.032 28.4733 22.0254 28.479 22.02C28.4847 22.0145 28.4915 22.0102 28.4989 22.0074C28.5063 22.0046 28.5142 22.0032 28.5221 22.0034C28.5301 22.0036 28.5379 22.0054 28.5451 22.0087L29.451 22.3987C29.7291 22.5196 29.8549 22.464 29.9465 22.2571C29.9956 22.1248 30.0144 21.9834 30.0017 21.8431L28.8386 21.3419C28.8245 21.3353 28.8135 21.3236 28.8078 21.3093C28.802 21.2949 28.802 21.2789 28.8077 21.2646L28.8662 21.1317C28.8733 21.1181 28.8853 21.1077 28.8998 21.1025C28.9143 21.0972 28.9303 21.0975 28.9446 21.1033L30.3448 21.7091C30.3521 21.7117 30.3588 21.7158 30.3644 21.721C30.37 21.7263 30.3745 21.7327 30.3775 21.7397C30.3805 21.7468 30.382 21.7544 30.3819 21.7621C30.3817 21.7697 30.38 21.7773 30.3768 21.7842L30.3172 21.9204C30.3143 21.9275 30.3099 21.9338 30.3043 21.9391C30.2987 21.9444 30.2921 21.9485 30.2849 21.9512C30.2776 21.9538 30.2699 21.955 30.2622 21.9546C30.2545 21.9542 30.2469 21.9522 30.24 21.9487L30.187 21.927C30.2127 22.092 30.1905 22.2608 30.123 22.4139C29.9796 22.7408 29.707 22.7985 29.3418 22.6394L28.4359 22.2494C28.4215 22.2422 28.4106 22.2297 28.4055 22.2147C28.4003 22.1996 28.4013 22.1831 28.4083 22.1688ZM11.8775 31.9519H9.39255V31.4356L10.2841 30.5455C10.5482 30.2782 10.7207 30.093 10.8017 29.9899C10.8732 29.9028 10.9322 29.8063 10.9771 29.7033C11.0124 29.6164 11.0303 29.5236 11.0301 29.4299C11.0348 29.3721 11.0266 29.314 11.0062 29.2596C10.9858 29.2052 10.9537 29.1559 10.912 29.1151C10.824 29.0429 10.7118 29.006 10.5975 29.0116C10.4585 29.012 10.3214 29.0441 10.197 29.1052C10.0514 29.1781 9.91512 29.2677 9.7909 29.3722L9.37931 28.8939C9.51531 28.7755 9.6632 28.6711 9.82069 28.5823C9.93961 28.52 10.066 28.4728 10.197 28.4418C10.3467 28.4075 10.5001 28.3911 10.6538 28.3928C10.8565 28.3887 11.0575 28.4296 11.2419 28.5126C11.4034 28.5852 11.5408 28.7016 11.6381 28.8481C11.7333 28.9958 11.7824 29.1678 11.7793 29.3427C11.7804 29.4982 11.7512 29.6525 11.6932 29.797C11.6263 29.9544 11.5363 30.1012 11.4262 30.2328C11.2288 30.4592 11.0157 30.6718 10.7884 30.869L10.3316 31.2939V31.3277H11.8764L11.8775 31.9519ZM12.587 31.9519L13.9211 29.0715H12.1688V28.4472H14.7189V28.9124L13.3749 31.9509L12.587 31.9519ZM17.5448 30.1969C17.5448 30.8099 17.4433 31.2634 17.2403 31.5576C17.0372 31.8517 16.7242 31.9988 16.3012 31.9988C16.1199 32.0087 15.9391 31.9718 15.7766 31.8918C15.614 31.8117 15.4754 31.6913 15.3743 31.5423C15.1662 31.238 15.0621 30.7892 15.0621 30.1958C15.0621 29.5763 15.1632 29.1198 15.3655 28.8264C15.5678 28.5329 15.8797 28.3877 16.3012 28.3906C16.4835 28.3809 16.6652 28.4183 16.8283 28.4991C16.9914 28.5799 17.1304 28.7014 17.2314 28.8514C17.4404 29.1543 17.5448 29.6028 17.5448 30.1969ZM15.8069 30.1969C15.8069 30.6276 15.8437 30.9359 15.9172 31.1218C15.9409 31.2032 15.991 31.2746 16.0597 31.3252C16.1285 31.3758 16.2122 31.4027 16.2979 31.4018C16.3838 31.4017 16.4673 31.374 16.5358 31.3229C16.6043 31.2718 16.654 31.2001 16.6775 31.1185C16.7555 30.9297 16.7945 30.6225 16.7945 30.1969C16.7945 29.7713 16.7551 29.4622 16.6764 29.2698C16.6527 29.1887 16.603 29.1175 16.5347 29.0668C16.4665 29.0161 16.3834 28.9887 16.2979 28.9887C16.2125 28.9887 16.1294 29.0161 16.0611 29.0668C15.9929 29.1175 15.9431 29.1887 15.9194 29.2698C15.8422 29.4579 15.8036 29.7669 15.8036 30.1969H15.8069ZM20.3829 30.1969C20.3829 30.8099 20.2814 31.2634 20.0783 31.5576C19.8753 31.8517 19.5623 31.9988 19.1393 31.9988C18.958 32.0087 18.7771 31.9718 18.6146 31.8918C18.4521 31.8117 18.3135 31.6913 18.2124 31.5423C18.0042 31.238 17.9001 30.7892 17.9001 30.1958C17.9001 29.5763 18.0013 29.1198 18.2036 28.8264C18.4059 28.5329 18.7178 28.3877 19.1393 28.3906C19.3216 28.3809 19.5032 28.4183 19.6664 28.4991C19.8295 28.5799 19.9684 28.7014 20.0695 28.8514C20.2784 29.1543 20.3829 29.6028 20.3829 30.1969ZM18.645 30.1969C18.645 30.6276 18.6817 30.9359 18.7553 31.1218C18.779 31.2032 18.829 31.2746 18.8978 31.3252C18.9666 31.3758 19.0503 31.4027 19.136 31.4018C19.2219 31.4017 19.3053 31.374 19.3738 31.3229C19.4423 31.2718 19.4921 31.2001 19.5156 31.1185C19.5936 30.9297 19.6326 30.6225 19.6326 30.1969C19.6326 29.7713 19.5932 29.4622 19.5145 29.2698C19.4908 29.1887 19.4411 29.1175 19.3728 29.0668C19.3045 29.0161 19.2214 28.9887 19.136 28.9887C19.0506 28.9887 18.9675 29.0161 18.8992 29.0668C18.8309 29.1175 18.7812 29.1887 18.7575 29.2698C18.6847 29.4579 18.6483 29.7669 18.6483 30.1969H18.645ZM22.6207 31.9519H21.8692V29.9212L21.877 29.5879L21.8891 29.2229C21.764 29.3464 21.6772 29.427 21.6287 29.4648L21.2204 29.7916L20.8585 29.3449L22.0039 28.4451H22.6207V31.9519Z" fill="#444444"/>
</g>
<defs>
<clipPath id="clip0_5693_184163">
<rect width="32" height="32" fill="white"/>
</clipPath>
</defs>
</svg>
