<svg width="40" height="40" viewBox="0 0 40 40" fill="none" xmlns="http://www.w3.org/2000/svg">
<rect width="40" height="40" rx="12" fill="#F4BB40"/>
<path fill-rule="evenodd" clip-rule="evenodd" d="M20.5613 6.5C21.7021 6.50176 22.5897 6.79729 23.2621 7.31896C23.9304 7.83741 24.3413 8.54452 24.5946 9.29304C25.0525 10.6463 25.0264 12.2466 25.0079 13.3755C25.0063 13.4727 25.0048 13.5665 25.0037 13.6563C24.9896 14.9696 25.7145 15.8607 26.6146 16.9671L26.6239 16.9784C27.4229 17.9047 28.5027 19.285 29.1264 20.8908C29.5919 22.0776 29.8106 23.4192 29.4593 24.793L29.5932 24.9024C30.0886 25.3069 30.2211 25.8942 30.3124 26.3133C30.3618 26.5272 30.4032 26.6984 30.4516 26.8408C30.4953 26.9691 30.5347 27.0422 30.5658 27.0831L30.7039 27.3401C31.2091 27.9069 31.5327 28.4489 31.4975 29.0539C31.4605 29.7344 30.9503 30.1459 30.5245 30.3839C30.3118 30.5084 30.078 30.6223 29.8501 30.7307C29.8061 30.7516 29.7623 30.7724 29.7187 30.793C29.5289 30.8829 29.3424 30.9712 29.1562 31.0675C28.6979 31.3045 28.2992 31.5619 28.0118 31.9012L28.0044 31.9099C27.2052 32.8109 26.1796 33.4138 25.1568 33.4913C24.1402 33.5694 23.1618 33.1196 22.6187 32.1371L22.5927 32.1119L22.5532 32.0101C22.5494 32.0002 22.5449 31.9894 22.54 31.9775C22.0713 31.9745 21.6374 31.9145 21.258 31.8584C21.23 31.8543 21.2024 31.8502 21.1751 31.8461C20.7115 31.7774 20.3649 31.726 20.0644 31.7503L20.0548 31.7511C19.5178 31.784 19.0803 31.8677 18.6807 31.9482C18.6537 31.9536 18.6267 31.9591 18.5996 31.9645C18.3366 32.0178 18.069 32.0719 17.8038 32.0979C17.4521 32.6188 16.9068 32.9878 16.2808 33.124C15.2826 33.3802 14.1105 33.1055 13.0344 32.5771L13.0232 32.5716C12.6222 32.3622 12.1477 32.2628 11.6219 32.1922C11.4828 32.1735 11.3351 32.1566 11.1839 32.1392C10.8017 32.0953 10.3969 32.0488 10.0504 31.9656L10.0328 31.9614L10.0042 31.9523C9.59069 31.8208 8.98282 31.6274 8.68148 31.0643L8.68003 31.0616C8.38263 30.4975 8.48342 29.8165 8.7661 29.0572C8.77739 29.018 8.78636 28.9416 8.77526 28.7968C8.76537 28.6678 8.74381 28.5251 8.71683 28.3464C8.71249 28.3177 8.70801 28.288 8.70342 28.2573C8.66773 28.0845 8.63499 27.84 8.63457 27.5932C8.62935 27.2867 8.69948 26.9878 8.83273 26.7167L8.8366 26.7088C9.14071 26.1167 9.65666 25.9021 9.98499 25.7655C10.0069 25.7564 10.0279 25.7476 10.048 25.7391L10.0512 25.7377C10.1469 25.6981 10.2394 25.6637 10.3198 25.6338L10.3224 25.6328C10.4066 25.6015 10.4756 25.5758 10.5394 25.5489C10.6591 25.4986 10.7269 25.4575 10.7722 25.4161C10.8538 25.3257 10.9336 25.2184 11.0348 25.0824C11.0486 25.0638 11.0628 25.0448 11.0775 25.0251C11.1854 24.8805 11.3134 24.712 11.4649 24.5529C11.3702 23.6497 11.5362 22.7265 11.8359 21.853C12.5196 19.8522 13.9418 17.9618 14.9383 16.8073C15.6984 15.7503 15.9209 14.9153 16.0012 13.8163C16.0109 13.5804 15.9906 13.2803 15.9653 12.9067C15.9505 12.6879 15.9339 12.4439 15.9207 12.1727C15.8867 11.4738 15.882 10.6571 16.0362 9.86764C16.191 9.07547 16.512 8.27905 17.1537 7.65526C17.8003 7.02671 18.7232 6.62136 19.989 6.52423M16.5004 13.8451C16.4147 15.0291 16.1666 15.9618 15.331 17.1176C14.3463 18.2561 12.9643 20.0966 12.309 22.015C11.9997 22.9163 11.8528 23.8392 11.9897 24.7112C11.9385 24.7511 11.8964 24.8009 11.8661 24.8575C11.7041 25.0201 11.5669 25.2047 11.4359 25.381C11.3329 25.5195 11.2338 25.6529 11.1296 25.7663C10.9637 25.9278 10.7434 26.0097 10.4974 26.1012C10.4151 26.1318 10.3298 26.1635 10.2428 26.1996C10.2264 26.2065 10.2099 26.2135 10.1933 26.2204C9.85866 26.3612 9.49984 26.512 9.28144 26.9373C9.1813 27.141 9.13012 27.363 9.13457 27.5884C9.13457 27.8039 9.16461 28.0227 9.19577 28.169C9.20074 28.2023 9.20571 28.2351 9.21061 28.2675C9.26935 28.6557 9.31824 28.9788 9.23916 29.2197C8.96322 29.9564 8.92873 30.4612 9.12233 30.8284C9.31593 31.1902 9.7176 31.3364 10.1671 31.4794C10.4825 31.5551 10.8369 31.5958 11.2058 31.6381C11.8923 31.7169 12.6286 31.8013 13.2547 32.1283C14.2851 32.6342 15.331 32.8551 16.1655 32.6374C16.7507 32.5128 17.2447 32.1359 17.5096 31.6137C17.8179 31.6122 18.14 31.5472 18.5148 31.4715C18.934 31.3869 19.4191 31.2891 20.0242 31.2519C20.3843 31.2228 20.7865 31.2827 21.2255 31.3481C21.7344 31.4239 22.2928 31.5071 22.8926 31.4675C22.9127 31.5731 22.9403 31.6387 22.9755 31.7221C22.989 31.7541 23.0037 31.7887 23.0194 31.8293L23.0228 31.8326C23.4578 32.6753 24.2612 33.0588 25.119 32.9927C25.9769 32.9277 26.8904 32.4121 27.6303 31.578C28.1246 30.9945 28.8511 30.6505 29.5078 30.3397C29.7837 30.209 30.0473 30.0842 30.2762 29.9499C30.6634 29.7343 30.9761 29.4418 30.9983 29.0258C31.0239 28.5925 30.7769 28.0411 30.2039 27.4291L30.2005 27.4259C30.0114 27.2092 29.9224 26.8463 29.8245 26.4228C29.7299 25.9884 29.6219 25.5713 29.277 25.2897H29.2737C29.2444 25.2636 29.214 25.2463 29.1828 25.2287C29.1462 25.2079 29.1085 25.1865 29.0705 25.1494C29.0685 25.1475 29.0665 25.1455 29.0645 25.1434C29.0023 25.1012 28.9289 25.0771 28.8531 25.0741C28.9093 24.9118 28.9564 24.7496 28.9949 24.5876C29.285 23.3685 29.0898 22.1665 28.6606 21.0726C28.0676 19.5452 27.0306 18.2149 26.2406 17.2996C26.2211 17.2757 26.2016 17.2517 26.1822 17.2279C25.3171 16.1653 24.4874 15.1461 24.5037 13.6501C24.5048 13.5617 24.5063 13.4705 24.5077 13.3767C24.5451 10.9981 24.6079 7.00625 20.5605 7C20.388 7 20.21 7.00867 20.0275 7.02275C16.0917 7.32462 16.323 10.7679 16.4615 12.83C16.4885 13.232 16.512 13.5816 16.5004 13.8451ZM20.5613 6.5C20.3725 6.5 20.1802 6.50949 19.989 6.52423L20.5613 6.5Z" fill="white"/>
<path d="M21.1491 10.6885C20.2114 10.6881 19.734 11.7302 19.8628 12.5517C20.0509 12.6242 20.3235 12.6979 20.5382 12.7705C20.4834 12.3774 20.5423 11.9522 20.8442 11.6656C21.1559 11.3058 21.541 11.6968 21.6542 12.0274C21.8017 12.4618 21.7036 12.8007 21.4217 13.1312C21.6452 13.1765 21.8798 13.2822 22.0804 13.3923C22.537 12.9392 22.5301 12.0286 22.3018 11.4803C22.0624 11.0506 21.6658 10.6885 21.1491 10.6885Z" fill="white"/>
<path d="M17.0734 11.5486C16.8524 12.2167 17.0159 12.906 17.4628 13.4302C17.5847 13.4019 17.7057 13.2875 17.8044 13.2092C17.5485 12.923 17.4775 12.3995 17.5185 12.1574C17.5436 11.9924 17.6697 11.7375 17.8589 11.7219C18.3103 11.7219 18.4073 12.3958 18.3585 12.7467C18.5136 12.6642 18.6604 12.5559 18.8881 12.504C18.8881 11.8991 18.8317 11.3239 18.3374 10.8986C17.7691 10.5256 17.2407 10.9678 17.0734 11.5486Z" fill="white"/>
<path fill-rule="evenodd" clip-rule="evenodd" d="M20.7307 13.0326C19.8101 12.4128 18.6586 12.4702 17.9268 13.3219V13.3251H17.9246C17.8747 13.3679 17.8029 13.4083 17.5727 13.5755C17.4722 13.6486 17.3465 13.74 17.1913 13.831C16.971 13.9729 16.8998 14.1907 16.9766 14.481C17.0545 14.6965 17.2948 14.9847 17.7399 15.2512H17.7454V15.2566C17.9148 15.3446 18.0504 15.4585 18.1798 15.5672C18.2622 15.6363 18.3421 15.7034 18.4264 15.7603C18.5418 15.8379 18.6614 15.9095 18.7847 15.9748C18.9442 16.0312 19.1137 16.0559 19.2831 16.0474C19.7466 16.0739 20.0897 15.9104 20.3928 15.7659L20.4091 15.7581C20.5675 15.6838 20.7135 15.5903 20.8591 15.497C20.9939 15.4107 21.1282 15.3247 21.2715 15.2544V15.2522C21.8812 15.0367 22.3185 14.6759 22.4553 14.3391C22.6307 13.9247 22.2637 13.7255 21.9057 13.5396H21.9023C21.3126 13.324 21.0567 13.2493 20.7307 13.0326ZM17.2405 14.3961C17.2026 14.2918 17.2298 14.1997 17.2805 14.1997C17.3591 14.2109 17.3962 14.2691 17.4337 14.3281C17.5441 14.5016 17.7494 14.6404 17.9036 14.7782C18.2274 14.9948 18.6602 15.2841 19.201 15.2841C19.7406 15.2841 20.3726 14.9948 20.7565 14.7793C21.0442 14.5853 21.4297 14.39 21.6242 14.101C21.6536 14.0572 21.8075 13.9013 21.8515 14.017C21.8719 14.0707 21.7748 14.1827 21.6244 14.3438C21.3776 14.5255 21.1213 14.6947 20.8566 14.8508C20.3729 15.0685 19.8058 15.4292 19.2021 15.4292C18.604 15.4292 18.0111 15.143 17.5759 14.7436C17.4632 14.6402 17.2949 14.5461 17.2405 14.3961ZM19.6861 13.0558C19.7891 12.9975 20.1697 13.0229 20.1421 13.206C20.1354 13.259 20.0475 13.2775 19.9919 13.2775C19.9121 13.2775 19.8694 13.2053 19.7731 13.1915C19.7194 13.1839 19.5769 13.109 19.6861 13.0558ZM19.0406 13.1327C19.0453 13.1677 18.7384 13.2789 18.7014 13.2789C18.6447 13.2789 18.5557 13.2583 18.549 13.2053C18.5242 13.0281 19.0374 12.929 19.0374 13.1323L19.0406 13.1327Z" fill="white"/>
<path d="M24.4247 19.7673C23.825 18.6862 22.8926 16.4568 22.4931 14.9218C22.2606 15.2447 21.85 15.5339 21.3304 15.6801H21.3249C21.1904 15.7196 21.0518 15.8033 20.9004 15.8948C20.7775 15.969 20.6461 16.0484 20.5015 16.1134C20.2044 16.2586 19.8506 16.4037 19.3933 16.4037C19.3551 16.4037 19.317 16.4008 19.276 16.3977L19.2698 16.3972C18.8258 16.3972 18.5299 16.2521 18.2951 16.0344C18.1814 15.9648 18.0804 15.8777 17.9786 15.7901C17.8713 15.6977 17.7632 15.6046 17.6386 15.5306C17.5851 15.4821 17.4832 15.418 17.4056 15.3692C17.3672 15.3451 17.3348 15.3247 17.3171 15.3118C17.2309 16.9034 16.3065 18.8421 15.6374 20.2455C15.5031 20.527 15.3791 20.787 15.2742 21.0184C14.8411 22.0055 14.5971 23.0613 14.5543 24.1339C13.4206 22.6639 14.2495 20.7725 14.6901 19.959C15.1852 19.0501 15.2631 18.8335 15.144 18.9039C14.6979 19.6113 13.9992 20.7378 13.7266 21.8969C13.5841 22.5036 13.5597 23.1004 13.7433 23.6789C13.9257 24.2487 14.3218 24.7589 15.0228 25.1911C15.9763 25.7609 16.6283 26.3329 17.0122 26.8387C17.3961 27.3435 17.5162 27.8093 17.3961 28.0986C17.3319 28.2585 17.2067 28.3881 17.0467 28.4604C16.9054 28.5015 16.7318 28.533 16.5293 28.533C16.6493 28.638 16.7524 28.7599 16.8353 28.8948C17.0088 29.0681 17.1591 29.2621 17.2826 29.4721C19.2509 30.7764 21.5652 30.2716 23.2342 29.1103C23.2432 29.0801 23.2522 29.0499 23.2611 29.0198C23.4167 28.4958 23.5671 27.989 23.5891 27.6469V27.6436C23.6281 26.8712 23.6726 26.1964 23.8172 25.619C23.963 25.0579 24.2211 24.6235 24.6995 24.3332C24.7588 24.3241 24.8188 24.3031 24.8774 24.2826C24.8958 24.2762 24.9141 24.2698 24.9321 24.2638C24.9369 24.1999 24.9417 24.1724 24.9478 24.1366C24.9488 24.1306 24.9499 24.1243 24.951 24.1176C25.0901 23.2499 25.9034 23.1806 26.9215 23.6139C27.904 24.0461 28.2745 24.4339 28.1065 24.9398H28.1232C28.146 24.9398 28.1684 24.9394 28.1908 24.939C28.2353 24.9383 28.2795 24.9376 28.3246 24.9398V24.9864C28.5282 24.3375 28.1043 23.8999 26.956 23.3214C26.889 23.3158 26.8237 23.2886 26.7592 23.2617C26.7488 23.2574 26.7383 23.253 26.7279 23.2488C26.8815 22.6357 26.8481 22.0193 26.7046 21.4398C26.3919 20.1561 25.5285 19.0317 24.8731 18.4533C24.7518 18.4533 24.7641 18.5984 25.01 18.8162C25.6142 19.3567 26.9404 21.3022 26.2217 23.1123C26.0169 23.0625 25.8244 23.0376 25.6509 23.043C25.376 21.5644 24.7429 20.3457 24.4247 19.7673Z" fill="white"/>
<path d="M25.9068 26.1173C25.3071 25.9743 24.9666 25.2767 24.9254 24.6257V24.6278L24.8753 24.6517C24.5048 24.8542 24.2957 25.2139 24.1621 25.7176C24.0297 26.2365 23.9863 26.9092 23.9452 27.6826C23.9175 28.1084 23.7678 28.6021 23.6133 29.1119C23.5504 29.3193 23.4867 29.5293 23.43 29.7386C23.2342 30.459 23.134 31.1349 23.3677 31.5693L23.3733 31.5726C23.7482 32.3287 24.3858 32.6027 25.1246 32.5453C25.8645 32.489 26.7023 32.0535 27.39 31.2552C27.9409 30.6079 28.7103 30.248 29.3634 29.9425C29.6483 29.8093 29.911 29.6864 30.1238 29.5545C30.472 29.3389 30.6612 29.1937 30.6779 28.9099L30.6812 28.9229V28.9034L30.6779 28.9099C30.6879 28.6564 30.511 28.2459 29.9702 27.675C29.7014 27.3814 29.6184 26.9974 29.5299 26.5883C29.525 26.5657 29.5201 26.543 29.5151 26.5203C29.4194 26.1465 29.3115 25.7869 29.0801 25.5713L29.0767 25.5681C28.7763 25.2897 28.4848 25.2702 28.1343 25.2789L27.8996 25.2886C27.5023 25.7566 26.561 26.2625 25.9068 26.1173Z" fill="white"/>
<path d="M12.9032 24.6787H12.8921C12.5772 24.6787 12.3658 24.825 12.1544 25.0427C12.0362 25.165 11.9265 25.3109 11.8133 25.4616C11.689 25.6272 11.5603 25.7985 11.4111 25.9505V25.9537H11.4089C11.1879 26.1626 10.9258 26.2584 10.6736 26.3507C10.5765 26.3862 10.4809 26.4211 10.3897 26.4618C10.3483 26.4802 10.3079 26.4974 10.2686 26.5142C9.99835 26.6295 9.77849 26.7232 9.62309 27.0391C9.48289 27.2894 9.51405 27.623 9.57524 28.0574C9.58166 28.0975 9.58842 28.1382 9.59525 28.1794C9.65594 28.5448 9.72229 28.9444 9.60529 29.2696L9.60306 29.2728V29.2761C9.34047 29.9574 9.3427 30.3929 9.4662 30.6085C9.59082 30.8251 9.86008 30.9714 10.2707 31.0429C10.4984 31.0828 10.7611 31.106 11.045 31.1312C11.7861 31.1968 12.6707 31.2752 13.4495 31.695C14.423 32.1998 15.3966 32.3438 16.1143 32.1976C16.8331 32.0395 17.3026 31.6018 17.366 30.7959V30.7894C17.4116 30.3138 17.0378 29.7365 16.5549 29.0887C16.4138 28.9073 16.2654 28.7299 16.1193 28.5552C15.7646 28.1311 15.4235 27.7233 15.2319 27.3143L15.2286 27.311L14.2161 25.5085C13.8634 25.0546 13.4962 24.7535 13.0779 24.6939C13.02 24.6841 12.9622 24.6787 12.9032 24.6787Z" fill="white"/>
</svg>
