<svg width="1440" height="57" viewBox="0 0 1440 57" fill="none" xmlns="http://www.w3.org/2000/svg">
<g clip-path="url(#clip0_57_2234)">
<g clip-path="url(#clip1_57_2234)">
<path d="M0 0.566406H1440V56.5664H0V0.566406Z" fill="#171248"/>
</g>
<path d="M761.586 -260.673C918.208 -104.051 918.208 149.884 761.586 306.507C604.964 463.129 351.029 463.129 194.406 306.507C37.7839 149.884 37.7839 -104.051 194.406 -260.673C351.029 -417.295 604.964 -417.295 761.586 -260.673Z" fill="url(#paint0_radial_57_2234)"/>
<path d="M176.322 112.374L175.522 112.174C191.322 53.5736 217.122 15.8736 254.622 -3.02638C328.822 -40.5264 438.222 2.07363 554.122 47.1736C639.422 80.3736 727.622 114.774 809.722 120.974C854.122 124.374 892.222 119.174 926.322 105.374C964.322 89.8736 997.522 62.8736 1025.02 24.8736C1107.92 -89.7264 1193.22 -149.226 1278.52 -151.826C1329.52 -153.426 1370.52 -133.526 1395.92 -116.626C1423.42 -98.3264 1439.12 -79.4264 1439.32 -79.2264L1438.62 -78.6264C1438.42 -78.8264 1422.82 -97.6264 1395.42 -115.926C1370.12 -132.726 1329.32 -152.426 1278.52 -150.926C1193.52 -148.326 1108.52 -89.0264 1025.72 25.3736C998.222 63.4736 964.822 90.5736 926.622 106.174C892.322 120.074 854.122 125.274 809.622 121.874C727.422 115.674 639.122 81.2736 553.822 47.9736C438.222 2.97362 328.922 -39.6264 255.022 -2.22639C217.822 16.5736 192.022 54.0736 176.422 112.474L176.322 112.374Z" fill="#5250B8"/>
<path d="M170.122 116.274L169.322 115.974C185.722 61.3738 211.622 25.7738 248.522 7.17377C323.822 -30.7262 434.122 9.07377 550.922 51.1738C635.522 81.6738 723.122 113.274 804.622 118.574C848.622 121.374 886.622 116.374 920.722 103.174C958.622 88.4738 991.922 62.8737 1019.52 27.2737C1103.42 -81.1263 1189.72 -137.626 1276.02 -140.826C1327.22 -142.726 1368.42 -124.726 1393.92 -109.226C1421.62 -92.5263 1437.32 -75.1262 1437.52 -74.9262L1436.82 -74.3262C1436.62 -74.5262 1420.92 -91.8262 1393.42 -108.426C1368.02 -123.826 1327.02 -141.726 1276.02 -139.826C1190.02 -136.726 1103.92 -80.2262 1020.22 27.9738C992.522 63.7738 959.222 89.3738 921.122 104.174C886.922 117.474 848.922 122.474 804.722 119.674C723.122 114.374 635.522 82.7737 550.822 52.2737C434.222 10.1737 324.122 -29.5262 249.122 8.17377C212.422 26.6738 186.722 62.0737 170.422 116.374L170.122 116.274Z" fill="#5250B8"/>
<path d="M163.922 120.173L163.122 119.873C177.122 78.1732 196.922 48.4732 223.722 28.8732C247.822 11.2732 277.122 2.37323 313.322 1.57323C380.922 -0.0267731 461.922 26.8732 547.822 55.3732C631.722 83.2732 718.622 112.073 799.522 116.373C843.222 118.673 881.022 113.773 914.922 101.173C952.722 87.1732 985.922 63.1732 1013.72 29.7732C1098.52 -72.3268 1185.82 -125.927 1273.12 -129.727C1324.52 -131.927 1365.92 -115.727 1391.62 -101.727C1419.42 -86.6268 1435.32 -70.7268 1435.42 -70.5268L1434.82 -69.9268C1434.62 -70.1268 1418.92 -85.9268 1391.22 -101.027C1365.62 -114.927 1324.42 -131.027 1273.22 -128.827C1186.12 -125.027 1099.12 -71.5268 1014.42 30.3732C961.722 93.7732 891.422 122.173 799.422 117.273C718.322 112.973 631.522 84.1732 547.522 56.2732C461.722 27.7732 380.722 0.873221 313.322 2.47322C277.322 3.27322 248.122 12.1732 224.222 29.6732C197.622 49.0732 177.922 78.7732 164.022 120.273L163.922 120.173Z" fill="#5250B8"/>
<path d="M157.722 124.074L156.922 123.774C171.622 84.4741 192.022 56.2741 219.322 37.5741C243.822 20.8741 273.422 12.1741 309.922 11.0741C377.922 8.9741 458.922 33.4741 544.722 59.4741C627.922 84.6741 714.022 110.774 794.422 114.074C885.422 117.874 955.322 91.0741 1008.02 32.1741C1093.72 -63.5259 1182.02 -114.326 1270.32 -118.726C1322.02 -121.326 1363.62 -106.926 1389.42 -94.4259C1417.42 -80.8259 1433.32 -66.4259 1433.52 -66.3259L1432.92 -65.7259C1432.72 -65.8259 1416.92 -80.2259 1389.02 -93.7259C1363.32 -106.226 1321.92 -120.526 1270.32 -117.926C1182.22 -113.426 1094.22 -62.8259 1008.62 32.6741C955.622 91.7741 885.522 118.674 794.322 114.874C713.822 111.474 627.722 85.4741 544.422 60.1741C458.722 34.1741 377.722 9.67408 309.922 11.7741C273.622 12.8741 244.122 21.5741 219.822 38.1741C192.722 56.6741 172.422 84.7741 157.722 123.974V124.074Z" fill="#5250B8"/>
<path d="M151.422 127.973L150.622 127.673C166.122 90.6732 187.122 64.0732 214.922 46.3732C239.822 30.4732 269.822 22.0732 306.522 20.5732C375.022 17.8732 456.022 40.0732 541.722 63.4732C624.222 85.9732 709.522 109.373 789.322 111.773C879.622 114.573 949.222 89.3732 1002.32 34.6732C1057.42 -22.1268 1114.32 -62.5268 1171.32 -85.5268C1216.92 -103.927 1262.82 -111.127 1307.52 -107.127C1383.72 -100.227 1431.02 -62.4268 1431.52 -62.0268L1430.92 -61.3268C1430.42 -61.7268 1383.32 -99.4268 1307.42 -106.227C1262.82 -110.227 1217.12 -103.027 1171.62 -84.7268C1114.72 -61.8268 1058.02 -21.5268 1002.92 35.1732C949.722 89.9732 879.822 115.273 789.322 112.573C709.422 110.073 624.122 86.7732 541.522 64.2732C455.822 40.8732 374.922 18.7732 306.622 21.3732C270.022 22.7732 240.222 31.1732 215.422 46.9732C187.822 64.5732 166.822 91.0732 151.422 127.873V127.973Z" fill="#5250B8"/>
<path d="M145.222 131.873L144.422 131.473C160.622 96.8733 182.322 71.7733 210.622 54.9733C236.022 39.8733 266.322 31.6733 303.322 29.9733C372.222 26.7733 453.222 46.4733 539.022 67.3733C620.822 87.2733 705.322 107.873 784.422 109.373C873.922 111.073 943.322 87.4733 996.622 37.0733C1052.22 -15.5267 1109.52 -53.2267 1167.02 -74.9267C1213.02 -92.3267 1259.22 -99.7267 1304.42 -96.7267C1365.92 -92.6267 1413.12 -69.4267 1429.52 -57.6267L1429.02 -56.9267C1412.72 -68.6267 1365.62 -91.8267 1304.32 -95.8267C1259.32 -98.8267 1213.22 -91.4267 1167.32 -74.1267C1109.92 -52.4267 1052.72 -14.7267 997.222 37.6733C943.722 88.2733 874.122 111.973 784.422 110.173C705.222 108.673 620.622 88.0733 538.822 68.0733C453.122 47.1733 372.222 27.4733 303.422 30.6733C266.622 32.3733 236.422 40.4733 211.122 55.5733C182.922 72.2733 161.422 97.1733 145.222 131.673V131.873Z" fill="#5250B8"/>
<path d="M139.022 135.773L138.222 135.373C155.222 103.073 177.522 79.6732 206.422 63.6732C232.322 49.3732 263.022 41.4732 300.222 39.4732C369.722 35.6732 450.722 52.9731 536.522 71.2731C617.522 88.5731 701.222 106.473 779.722 107.073C868.422 107.773 937.522 85.7732 991.022 39.5732C1047.02 -8.72683 1104.82 -43.7268 1162.82 -64.3268C1209.22 -80.8268 1255.82 -88.2268 1301.42 -86.3268C1363.52 -83.7268 1411.12 -63.5268 1427.62 -53.2268L1427.12 -52.5268C1410.62 -62.8268 1363.12 -82.9268 1301.22 -85.4268C1255.82 -87.3268 1209.32 -79.9268 1163.02 -63.4268C1105.12 -42.8268 1047.42 -7.92685 991.522 40.2732C937.822 86.5732 868.522 108.673 779.622 107.973C701.022 107.373 617.322 89.4732 536.322 72.1732C450.622 53.8732 369.622 36.5732 300.322 40.3732C263.222 42.3732 232.622 50.2732 206.822 64.4732C178.122 80.2732 155.922 103.673 138.922 135.773H139.022Z" fill="#5250B8"/>
<path d="M132.822 139.673L132.022 139.273C149.822 109.373 172.822 87.4732 202.222 72.4732C228.622 58.9732 259.622 51.3732 297.222 48.9732C367.222 44.5732 448.422 59.4732 534.222 75.1732C614.322 89.8732 697.222 105.073 774.922 104.773C862.822 104.473 931.622 83.9732 985.322 42.0732C1041.82 -2.02681 1100.02 -34.2268 1158.52 -53.7268C1205.32 -69.3268 1252.32 -76.7268 1298.32 -75.9268C1360.92 -74.8268 1409.02 -57.7268 1425.72 -48.9268L1425.32 -48.1268C1408.72 -56.9268 1360.72 -73.9268 1298.32 -75.0268C1252.52 -75.8268 1205.52 -68.3268 1158.92 -52.8268C1100.52 -33.4268 1042.32 -1.22683 986.022 42.7732C932.222 84.7732 863.222 105.373 775.122 105.673C697.322 105.873 614.422 90.6732 534.222 76.0732C448.422 60.3732 367.322 45.4732 297.422 49.8732C259.922 52.1732 229.022 59.8732 202.722 73.2732C173.422 88.2732 150.622 109.973 132.822 139.773V139.673Z" fill="#5250B8"/>
<path d="M126.522 143.574L125.822 143.074C203.222 28.5739 363.122 52.9739 532.422 78.8739C611.622 90.9739 693.622 103.474 770.522 102.374C857.422 101.174 925.922 82.274 979.722 44.574C1036.62 4.67395 1095.42 -24.7261 1154.32 -43.0261C1201.52 -57.6261 1248.92 -65.2261 1295.22 -65.4261C1374.12 -65.8261 1423.22 -44.6261 1423.72 -44.4261L1423.32 -43.6261C1422.82 -43.8261 1373.92 -65.0261 1295.12 -64.5261C1248.92 -64.2261 1201.52 -56.7261 1154.42 -42.1261C1095.52 -23.8261 1036.92 5.57394 980.122 45.3739C926.122 83.1739 857.622 102.174 770.422 103.374C693.422 104.474 611.422 91.9739 532.122 79.8739C363.122 54.0739 203.422 29.674 126.322 143.674L126.522 143.574Z" fill="#5250B8"/>
<path d="M120.322 147.474L119.622 146.974C200.522 42.2739 361.122 61.8739 531.122 82.5739C689.722 101.874 853.722 121.874 974.122 47.0739C1031.42 11.4739 1090.72 -15.3261 1150.12 -32.4261C1197.72 -46.1261 1245.52 -53.7261 1292.22 -55.1261C1371.82 -57.4261 1421.32 -40.3261 1421.82 -40.1261L1421.52 -39.3261C1421.02 -39.5261 1371.62 -56.5261 1292.12 -54.2261C1245.42 -52.9261 1197.72 -45.3261 1150.22 -31.6261C1090.82 -14.5261 1031.72 12.1739 974.422 47.7739C853.822 122.674 689.622 102.674 530.922 83.3739C361.122 62.6739 200.822 43.1739 120.222 147.474H120.322Z" fill="#5250B8"/>
<path d="M114.022 151.374L113.322 150.774C197.922 55.7736 359.522 70.4736 530.522 85.9736C686.622 100.174 848.122 114.774 968.322 49.4736C1026.12 18.0736 1085.82 -5.92636 1145.72 -21.9264C1193.62 -34.7264 1241.92 -42.4264 1289.02 -44.8264C1369.32 -48.9264 1419.22 -36.0264 1419.72 -35.9264L1419.52 -35.1264C1419.02 -35.2264 1369.12 -48.1264 1289.02 -44.0264C1241.92 -41.6264 1193.82 -33.9264 1145.92 -21.1264C1086.02 -5.12637 1026.42 18.7736 968.722 50.1736C848.222 115.574 686.622 100.974 530.422 86.7736C359.622 71.2736 198.322 56.6736 113.922 151.274L114.022 151.374Z" fill="#5250B8"/>
<path d="M107.822 155.374L107.222 154.774C195.822 69.5739 358.722 79.1739 531.222 89.4739C684.422 98.5739 842.922 107.974 962.722 52.0739C1094.62 -9.42614 1211.32 -28.8262 1286.02 -34.2262C1366.92 -40.1262 1417.32 -31.4261 1417.92 -31.3261L1417.72 -30.4261C1417.22 -30.4261 1366.82 -39.2261 1286.02 -33.3261C1211.42 -27.8261 1094.82 -8.42615 963.022 52.9739C843.022 108.974 684.422 99.5739 531.022 90.4739C358.722 80.2739 195.922 70.5738 107.622 155.574L107.822 155.374Z" fill="#5250B8"/>
<path d="M101.622 159.273L101.022 158.573C194.022 82.9734 359.122 87.5734 533.922 92.3734C683.622 96.5734 838.322 100.873 957.222 54.4734C1090.12 2.5734 1207.72 -16.8266 1283.12 -23.9266C1364.72 -31.6266 1415.62 -27.1266 1416.12 -27.0266V-26.1266C1415.52 -26.1266 1364.72 -30.7266 1283.22 -23.0266C1207.92 -15.9266 1090.42 3.4734 957.622 55.3734C838.622 101.873 683.822 97.5734 534.022 93.3734C359.422 88.4734 194.422 83.9734 101.722 159.373L101.622 159.273Z" fill="#5250B8"/>
<path d="M95.3218 163.174L94.8218 162.474C192.922 96.3736 361.622 95.6736 540.122 94.9736C684.922 94.3736 834.722 93.8736 951.522 56.9736C1085.42 14.6736 1204.02 -4.7264 1279.92 -13.5264C1362.22 -23.1264 1413.52 -22.6264 1414.02 -22.6264V-21.7264C1413.52 -21.7264 1362.22 -22.1264 1280.02 -12.6264C1204.12 -3.82641 1085.52 15.5736 951.722 57.8736C834.822 94.7736 684.922 95.3736 540.122 95.9736C361.722 96.6736 193.222 97.2736 95.3218 163.274V163.174Z" fill="#5250B8"/>
<path d="M89.1217 167.073L88.7217 166.273C136.522 140.273 201.222 123.173 292.422 112.473C372.822 102.973 465.022 99.7732 554.122 96.5732C691.322 91.7732 833.322 86.6732 945.922 59.3732C1204.02 -3.22677 1410.12 -18.2268 1412.12 -18.4268V-17.5268C1410.12 -17.4268 1204.12 -2.32677 946.122 60.2732C833.422 87.5732 691.422 92.5732 554.122 97.4732C465.022 100.573 372.922 103.873 292.522 113.373C202.622 123.973 136.122 141.573 89.1217 167.073Z" fill="#5250B8"/>
<path d="M82.822 170.974L82.522 170.174C198.722 121.274 397.522 108.174 589.822 95.5736C711.822 87.5736 837.922 79.2736 940.322 61.8736C1200.32 17.6736 1408.22 -13.7264 1410.22 -14.0264V-13.1264C1408.32 -12.8264 1200.42 18.4736 940.422 62.7736C838.022 80.1736 711.822 88.4736 589.822 96.4736C397.622 109.074 198.922 122.074 82.822 170.974Z" fill="#5250B8"/>
<path d="M76.5217 174.874L76.2217 174.074C231.322 126.574 509.122 102.274 754.222 80.774C818.522 75.174 879.222 69.874 934.622 64.374C1196.52 38.474 1406.12 -9.12598 1408.22 -9.62598L1408.42 -8.72598C1406.32 -8.22598 1196.62 39.374 934.722 65.274C879.322 70.774 818.622 76.074 754.322 81.674C509.322 103.174 231.622 127.474 76.5217 174.874Z" fill="#5250B8"/>
<path d="M70.3221 178.773L70.1221 177.873C127.422 166.573 281.622 137.273 475.122 110.273C654.322 85.1734 811.222 70.1734 928.922 66.8734C1192.72 59.2734 1404.12 -4.62656 1406.22 -5.22656L1406.52 -4.42654C1404.42 -3.82654 1192.82 60.1735 928.922 67.6735C800.222 71.3735 474.522 98.8734 70.2221 178.773H70.3221Z" fill="#5250B8"/>
<path d="M64.022 182.673V181.773C137.822 174.773 235.622 156.773 339.222 137.773C531.822 102.373 750.122 62.2732 923.322 69.2732C1062.12 74.8732 1185.52 55.4732 1264.62 38.2732C1350.32 19.5732 1403.82 -0.726758 1404.32 -0.926758L1404.62 -0.12677C1404.12 0.07323 1350.52 20.3732 1264.82 39.0732C1185.72 56.3732 1062.22 75.7732 923.322 70.0732C750.222 63.0732 531.922 103.173 339.422 138.473C235.822 157.473 138.022 175.473 64.122 182.473L64.022 182.673Z" fill="#5250B8"/>
<path d="M57.8218 186.574V185.674C147.622 185.874 266.922 160.274 393.322 133.274C565.522 96.4736 760.822 54.6736 917.722 71.7736C1057.52 86.9736 1181.92 67.5736 1261.62 48.6736C1348.02 28.1736 1401.92 3.67363 1402.52 3.47363L1402.92 4.27362C1402.42 4.47362 1348.32 28.9736 1261.92 49.5736C1182.12 68.5736 1057.72 87.9736 917.722 72.6736C760.922 55.5736 565.722 97.3736 393.522 134.174C267.122 161.174 147.722 186.774 57.8218 186.574Z" fill="#5250B8"/>
<path d="M51.522 190.474V189.574C149.322 198.674 276.922 167.174 412.022 133.874C496.222 113.074 583.322 91.574 668.422 78.574C764.022 63.974 843.222 62.474 910.522 74.074C911.022 74.074 911.522 74.274 912.022 74.374C912.822 74.474 913.722 74.674 914.522 74.774C975.922 85.374 1039.42 88.574 1103.32 84.174C1155.12 80.674 1207.32 72.174 1258.42 59.074C1345.42 36.774 1399.92 8.17402 1400.42 7.87402L1400.82 8.67404C1400.32 8.97404 1345.82 37.574 1258.62 59.974C1207.42 73.074 1155.22 81.574 1103.32 85.074C1038.52 89.474 974.022 86.174 911.822 75.174C911.322 75.174 910.822 74.974 910.322 74.874C843.122 63.274 764.022 64.774 668.522 79.374C583.522 92.374 496.422 113.874 412.222 134.674C277.022 168.074 149.422 199.574 51.522 190.474Z" fill="#5250B8"/>
<path d="M47.3217 194.674C46.6217 194.574 45.9217 194.474 45.2217 194.274L45.4217 193.374C46.1217 193.474 46.8217 193.574 47.4217 193.774C150.522 211.574 281.522 174.674 420.122 135.674C586.122 88.9738 757.722 40.6738 906.322 76.6738C968.922 91.8738 1033.72 97.8738 1099.02 94.6738C1151.22 92.0738 1203.82 83.5738 1255.32 69.3738C1343.02 45.1738 1397.92 12.4738 1398.42 12.1738L1398.82 12.8738C1398.32 13.1738 1343.32 45.9738 1255.52 70.1738C1203.92 84.3738 1151.32 92.8738 1099.02 95.4738C1033.72 98.6738 968.722 92.6738 906.022 77.4738C757.722 41.5738 586.122 89.7738 420.222 136.474C281.522 175.474 150.422 212.374 47.1217 194.574L47.3217 194.674Z" fill="#5250B8"/>
<path d="M61.122 202.974C53.622 201.674 46.322 200.074 39.022 198.174L39.222 197.374C147.322 225.774 281.622 183.274 423.722 138.274C585.822 86.9738 753.522 33.9738 900.722 79.2738C963.822 98.6738 1029.12 107.474 1094.82 105.374C1147.42 103.674 1200.42 95.0738 1252.32 79.8738C1340.72 53.8738 1396.02 16.9738 1396.62 16.6738L1397.12 17.3738C1396.62 17.7738 1341.12 54.6738 1252.62 80.6738C1200.62 95.9738 1147.62 104.574 1094.92 106.274C1029.12 108.374 963.722 99.5738 900.522 80.1738C753.522 34.9738 586.022 87.9738 424.022 139.174C291.222 181.174 165.322 220.974 61.022 202.974H61.122Z" fill="#5250B8"/>
<path d="M71.0217 211.774C58.0217 209.474 45.2217 206.374 32.7217 202.074L33.0217 201.274C145.222 239.574 281.122 191.774 424.922 141.174C584.022 85.1738 748.522 27.2738 895.122 81.8738C958.622 105.474 1024.32 116.974 1090.62 116.074C1143.62 115.374 1197.02 106.674 1249.32 90.3738C1338.42 62.5738 1394.22 21.5738 1394.72 21.1738L1395.22 21.8738C1394.62 22.2738 1338.82 63.3738 1249.52 91.2738C1197.12 107.674 1143.62 116.274 1090.62 117.074C1024.32 117.974 958.422 106.474 894.822 82.7738C748.522 28.3738 584.122 86.1738 425.222 142.174C297.222 187.174 175.522 230.074 71.0217 211.974V211.774Z" fill="#5250B8"/>
<path d="M78.322 220.974C60.222 217.874 43.022 212.874 26.522 205.974L26.822 205.174C142.922 253.474 279.722 200.374 424.622 144.074C581.222 83.274 743.122 20.474 889.422 84.274C953.322 112.174 1019.62 126.374 1086.32 126.574C1139.72 126.774 1193.52 117.974 1246.22 100.574C1336.02 70.874 1392.22 25.774 1392.72 25.374L1393.32 26.074C1392.72 26.574 1336.42 71.774 1246.52 101.474C1193.72 118.874 1139.82 127.674 1086.42 127.474C1019.62 127.274 953.222 112.974 889.222 85.074C743.222 21.474 581.422 84.1741 425.022 144.874C351.822 173.274 282.722 200.074 215.622 214.474C163.322 225.674 118.422 227.874 78.322 220.974Z" fill="#5250B8"/>
<path d="M83.0218 230.074C60.9218 226.274 40.2218 219.574 20.3218 209.874L20.7218 209.074C49.5218 223.074 80.0218 230.774 113.922 232.574C144.222 234.174 176.622 230.974 213.022 222.874C280.822 207.774 350.122 178.274 423.522 147.174C577.922 81.5738 737.522 13.7738 883.922 86.7738C948.322 118.874 1015.02 135.774 1082.22 137.174C1136.02 138.274 1190.12 129.474 1243.32 110.974C1333.72 79.4738 1390.42 30.1738 1391.02 29.6738L1391.62 30.3738C1391.02 30.8738 1334.22 80.2738 1243.62 111.774C1190.42 130.274 1136.12 139.074 1082.22 137.974C1014.92 136.574 948.022 119.574 883.622 87.4738C737.622 14.6738 578.222 82.3738 424.022 147.874C350.622 179.074 281.222 208.474 213.322 223.674C176.822 231.774 144.322 234.974 113.922 233.374C103.322 232.774 93.1218 231.674 83.1218 229.974L83.0218 230.074Z" fill="#5250B8"/>
<path d="M86.622 239.374C60.922 234.974 37.022 226.474 14.022 213.674L14.422 212.874C44.022 229.374 75.222 238.674 109.822 241.274C140.622 243.674 173.522 240.674 210.222 232.074C278.622 216.174 348.122 184.074 421.622 150.174C574.022 79.7736 731.622 7.07365 878.122 89.1736C942.922 125.474 1010.12 145.174 1077.82 147.674C1131.92 149.674 1186.52 140.774 1240.02 121.274C1331.12 87.9736 1388.32 34.5736 1388.82 33.9736L1389.42 34.5736C1388.82 35.0736 1331.62 88.6736 1240.32 121.974C1186.72 141.574 1132.02 150.474 1077.72 148.474C1009.92 145.974 942.622 126.174 877.622 89.7736C731.422 7.87362 574.122 80.5737 421.922 150.874C348.322 184.874 278.822 216.974 210.322 232.874C173.522 241.474 140.522 244.474 109.622 242.074C101.722 241.474 94.022 240.474 86.522 239.174L86.622 239.374Z" fill="#5250B8"/>
<path d="M89.1218 248.874C60.3218 243.874 33.5218 233.574 7.82178 217.674L8.32178 216.974C38.8218 235.874 70.6218 246.774 105.722 250.274C137.022 253.474 170.322 250.574 207.322 241.674C276.322 224.974 349.022 188.674 419.422 153.574C570.022 78.3738 725.622 0.673813 872.522 91.8738C937.822 132.374 1005.42 154.874 1073.62 158.574C1128.12 161.574 1183.12 152.574 1237.02 131.974C1328.82 96.8738 1386.42 39.2738 1387.02 38.6738L1387.62 39.2738C1387.02 39.8738 1329.32 97.5738 1237.32 132.774C1183.32 153.474 1128.22 162.474 1073.52 159.474C1005.22 155.774 937.422 133.274 872.022 92.6738C725.522 1.67383 570.122 79.2738 419.722 154.374C349.322 189.574 276.522 225.874 207.422 242.574C170.222 251.574 136.922 254.374 105.522 251.174C99.9218 250.574 94.4218 249.874 89.0218 248.974L89.1218 248.874Z" fill="#5250B8"/>
<path d="M90.8221 258.374C59.1221 252.874 29.9221 240.774 1.62207 221.474L2.12207 220.774C33.4221 242.074 65.9221 254.674 101.622 259.074C133.422 262.974 167.022 260.374 204.422 250.974C273.922 233.474 346.622 194.374 417.022 156.574C491.022 116.774 567.522 75.6736 642.922 57.6736C683.522 47.9736 720.422 45.5736 755.622 50.3736C795.222 55.7736 831.622 70.1736 867.022 94.2736C932.722 139.074 1000.82 164.174 1069.52 169.074C1124.42 172.974 1179.82 163.874 1234.12 142.274C1326.62 105.374 1384.72 43.5736 1385.22 42.9736L1385.82 43.5736C1385.22 44.1736 1327.12 106.074 1234.42 143.074C1180.02 164.774 1124.52 173.874 1069.42 169.974C1000.62 165.074 932.322 139.874 866.522 95.0736C831.222 71.0736 794.922 56.7736 755.522 51.2736C720.422 46.4736 683.622 48.7736 643.122 58.5736C567.922 76.5736 491.422 117.674 417.422 157.474C347.022 195.274 274.222 234.374 204.622 251.874C167.222 261.274 133.422 263.974 101.522 259.974C97.9221 259.574 94.4221 258.974 90.9221 258.374H90.8221Z" fill="#5250B8"/>
<path d="M91.7218 267.874C57.5218 261.974 25.9218 248.074 -4.67822 225.374L-4.17822 224.674C27.9218 248.474 61.1218 262.574 97.2218 267.874C129.522 272.574 163.422 270.174 201.022 260.274C270.922 241.974 343.622 200.174 414.022 159.674C487.322 117.474 563.022 73.8739 637.822 55.1739C678.122 45.0739 714.822 42.8739 749.822 48.3739C789.322 54.5739 825.722 70.4739 861.122 96.6739C927.222 145.674 995.822 173.574 1065.02 179.574C1120.32 184.374 1176.12 175.274 1230.82 152.474C1324.02 113.674 1382.52 47.8739 1383.02 47.1739L1383.72 47.7739C1383.12 48.4739 1324.52 114.474 1231.12 153.274C1176.32 176.074 1120.32 185.274 1064.92 180.374C995.622 174.374 926.922 146.374 860.622 97.3739C825.222 71.1739 788.922 55.3739 749.622 49.1739C714.622 43.6739 678.122 45.8739 637.922 55.9739C563.322 74.6739 487.622 118.274 414.322 160.474C343.922 200.974 271.222 242.874 201.122 261.174C163.422 270.974 129.322 273.474 96.9218 268.774C95.1218 268.474 93.2218 268.174 91.4218 267.874H91.7218Z" fill="#5250B8"/>
<path d="M92.0221 277.474C55.5221 271.174 21.8221 255.374 -10.8779 229.274L-10.3779 228.574C22.5221 254.874 56.3221 270.574 93.0221 276.774C125.722 282.274 160.022 279.974 197.822 269.774C268.222 250.674 340.822 206.074 411.022 162.974C483.622 118.374 558.622 72.274 632.822 52.874C672.822 42.374 709.322 40.374 744.222 46.574C783.522 53.574 819.922 70.874 855.522 99.374C922.122 152.574 991.122 183.174 1060.82 190.374C1116.52 196.074 1172.72 186.874 1227.82 163.074C1321.72 122.474 1380.62 52.474 1381.22 51.774L1381.92 52.374C1381.32 53.074 1322.22 123.274 1228.22 163.874C1172.92 187.774 1116.62 196.974 1060.82 191.274C991.022 184.074 921.822 153.474 855.122 100.074C819.622 71.674 783.322 54.474 744.222 47.474C743.722 47.474 743.322 47.274 742.822 47.274C708.422 41.374 672.522 43.474 633.122 53.774C559.022 73.174 484.122 119.274 411.522 163.774C341.222 206.974 268.622 251.574 198.122 270.674C160.222 280.974 125.722 283.274 92.9221 277.774C92.6221 277.774 92.3221 277.774 92.0221 277.674V277.474Z" fill="#5250B8"/>
<path d="M91.9219 287.074C90.8219 286.874 89.7219 286.674 88.6219 286.474C51.3219 279.374 16.7219 261.974 -17.0781 233.074L-16.4781 232.374C17.2219 261.074 51.6219 278.474 88.8219 285.574C121.922 291.874 156.622 289.774 194.622 279.074C265.422 259.174 337.822 211.774 407.922 165.974C479.822 118.974 554.122 70.3735 627.822 50.2735C667.522 39.4735 703.722 37.5736 738.622 44.5736C777.822 52.3736 814.222 71.0735 849.922 101.774C937.522 176.874 1028.72 210.474 1120.82 201.574C1200.92 193.874 1267.02 154.674 1308.22 123.174C1352.92 89.0736 1379.02 56.3735 1379.32 55.9735L1380.02 56.4735C1379.72 56.7735 1353.62 89.5735 1308.82 123.774C1267.42 155.374 1201.32 194.574 1120.92 202.374C1094.02 204.974 1067.22 203.974 1040.52 199.374C975.622 188.174 911.622 155.774 849.422 102.374C813.822 71.8735 777.522 53.1735 738.522 45.3735C703.822 38.4735 667.622 40.2736 628.122 51.0736C554.622 71.0736 480.322 119.674 408.522 166.674C338.422 212.574 265.822 259.974 194.922 279.874C158.022 290.274 124.322 292.574 92.0219 286.974L91.9219 287.074Z" fill="#5250B8"/>
<path d="M98.622 285.974C97.822 285.874 97.022 285.674 96.122 285.574C59.022 278.674 24.622 261.574 -8.97803 233.274L-8.37804 232.574C25.122 260.774 59.322 277.774 96.322 284.674C129.322 290.774 163.722 288.574 201.622 277.974C272.022 258.274 344.222 211.374 414.122 166.074C486.022 119.474 560.322 71.274 633.922 51.374C673.622 40.674 709.822 38.774 744.722 45.774C783.922 53.574 820.322 72.174 856.022 102.674C946.522 179.974 1040.72 212.874 1135.82 200.474C1284.12 181.174 1383.12 57.374 1383.92 56.074L1384.62 56.574C1384.52 56.774 1360.22 87.274 1318.42 120.174C1280.22 150.174 1218.92 188.374 1144.02 200.174C1045.82 215.674 948.722 183.074 855.422 103.274C819.822 72.874 783.522 54.374 744.522 46.574C709.722 39.674 673.622 41.474 634.122 52.174C560.622 72.074 486.322 120.174 414.522 166.774C344.622 212.074 272.422 258.974 201.822 278.774C164.822 289.174 131.022 291.474 98.622 285.874V285.974Z" fill="#5250B8"/>
<path d="M105.322 284.974C104.722 284.974 104.222 284.774 103.622 284.674C66.7221 277.974 32.5221 261.174 -0.87793 233.474L-0.277924 232.774C33.0221 260.474 67.0221 277.174 103.822 283.774C136.622 289.774 170.922 287.474 208.522 276.974C278.622 257.374 350.522 211.074 420.122 166.274C491.922 119.974 566.222 72.1741 639.922 52.4741C679.622 41.8741 715.822 40.0741 750.722 46.9741C789.922 54.7741 826.322 73.2741 862.022 103.474C954.222 181.974 1050.22 214.274 1147.12 199.574C1222.02 188.174 1283.42 150.174 1321.72 120.274C1364.92 86.5741 1388.52 56.2741 1388.62 56.0741L1389.32 56.5741C1388.62 57.7741 1294.22 177.174 1149.12 200.174C1051.22 215.674 954.422 183.374 861.422 104.174C825.822 73.9741 789.522 55.5741 750.522 47.7741C715.722 40.8741 679.622 42.6741 640.122 53.2741C566.622 72.9741 492.422 120.774 420.622 166.974C351.022 211.774 279.022 258.074 208.822 277.774C171.622 288.174 137.822 290.474 105.322 284.874V284.974Z" fill="#5250B8"/>
<path d="M112.022 283.873C111.722 283.873 111.422 283.873 111.222 283.773C74.5218 277.273 40.5218 260.873 7.32178 233.573L7.92177 232.873C40.9218 260.073 74.8218 276.373 111.422 282.873C111.722 282.873 112.022 282.873 112.222 282.973C144.622 288.573 178.422 286.273 215.622 275.873C285.422 256.473 357.022 210.673 426.322 166.473C498.122 120.573 572.422 73.1733 646.022 53.6733C685.722 43.1733 721.922 41.3732 756.822 48.2732C796.022 55.9732 832.422 74.3733 868.122 104.473C960.722 182.973 1056.92 214.873 1154.22 199.373C1298.52 176.373 1392.62 57.3733 1393.32 56.1733L1394.02 56.6733C1393.32 57.8733 1299.02 177.273 1154.32 200.273C1121.22 205.573 1088.22 205.373 1055.42 199.673C991.722 188.673 928.822 157.073 867.522 105.173C831.922 75.1733 795.622 56.8733 756.622 49.1733C721.922 42.2733 685.722 44.0733 646.122 54.5733C572.622 74.0733 498.422 121.473 426.622 167.273C357.322 211.573 285.622 257.373 215.722 276.773C178.422 287.173 144.522 289.473 112.022 283.873Z" fill="#5250B8"/>
<path d="M118.622 282.774C82.1219 276.474 48.4219 260.474 15.4219 233.674L15.9219 232.974C48.7219 259.574 82.3219 275.574 118.722 281.874C151.122 287.474 185.122 285.174 222.422 274.774C291.822 255.474 363.222 210.174 432.222 166.474C504.022 120.974 578.322 73.8735 652.022 54.4735C691.722 44.0735 727.922 42.3735 762.822 49.2735C802.022 57.0735 838.322 75.3735 874.022 105.374C966.622 183.274 1062.82 214.774 1159.92 199.074C1303.52 175.874 1397.12 57.3735 1397.82 56.2735L1398.52 56.7735C1397.82 57.9735 1303.92 176.774 1160.02 199.974C1126.62 205.374 1093.32 205.174 1060.32 199.474C997.022 188.574 934.422 157.274 873.522 106.074C837.922 76.1735 801.722 57.8736 762.722 50.1736C728.022 43.2736 691.922 44.9735 652.322 55.3735C578.822 74.6735 504.522 121.774 432.822 167.274C363.722 211.074 292.322 256.374 222.722 275.674C185.222 286.074 151.222 288.474 118.622 282.874V282.774Z" fill="#5250B8"/>
<path d="M125.222 281.674C89.222 275.474 56.022 259.774 23.522 233.874L24.022 233.174C56.322 259.074 89.522 274.674 125.322 280.874C125.622 280.874 125.922 280.974 126.222 281.074C158.522 286.474 192.222 284.074 229.322 273.774C298.422 254.574 369.522 209.874 438.222 166.674C510.022 121.474 584.322 74.7739 658.022 55.6739C697.722 45.3739 734.022 43.6739 768.822 50.5739C808.022 58.3739 844.322 76.5739 880.022 106.474C972.422 183.774 1068.32 214.974 1165.12 199.274C1238.52 187.374 1298.42 150.074 1335.82 120.874C1376.52 89.0739 1400.92 58.9739 1402.42 56.5739L1403.12 57.0739C1401.62 59.4739 1377.12 89.6739 1336.32 121.574C1298.82 150.874 1238.82 188.174 1165.22 200.174C1131.72 205.574 1098.32 205.474 1065.12 199.774C1002.12 188.874 940.022 157.974 879.322 107.274C843.822 77.5739 807.522 59.2739 768.522 51.5739C733.822 44.6739 697.722 46.3739 658.122 56.6739C584.622 75.7739 510.322 122.474 438.622 167.574C369.822 210.874 298.722 255.574 229.422 274.774C192.122 285.174 158.322 287.474 125.922 282.074C125.622 282.074 125.322 281.974 124.922 281.874L125.222 281.674Z" fill="#5250B8"/>
<path d="M131.822 280.574C96.4217 274.474 63.6217 259.174 31.7217 233.974L32.2217 233.274C64.0217 258.474 96.7217 273.674 131.922 279.774C132.522 279.874 133.122 279.974 133.722 280.074C165.822 285.274 199.322 282.874 236.322 272.674C305.122 253.574 375.922 209.474 444.322 166.774C516.122 121.974 590.422 75.574 664.122 56.674C703.822 46.474 740.122 44.874 774.922 51.674C814.122 59.374 850.422 77.574 886.122 107.274C978.322 183.974 1073.92 214.874 1170.52 199.074C1243.52 187.074 1303.22 149.974 1340.42 120.974C1381.42 88.974 1405.42 59.274 1407.22 56.474L1407.92 56.974C1406.12 59.874 1382.12 89.674 1340.92 121.774C1303.62 150.874 1243.92 188.074 1170.62 200.074C1137.02 205.574 1103.52 205.474 1070.22 199.674C1007.62 188.874 945.822 158.274 885.522 108.074C850.022 78.474 813.722 60.374 774.722 52.674C740.022 45.774 703.922 47.474 664.322 57.574C590.822 76.474 516.522 122.774 444.722 167.574C376.222 210.274 305.322 254.474 236.422 273.574C199.322 283.874 165.622 286.274 133.422 281.074C132.822 280.974 132.222 280.874 131.622 280.774L131.822 280.574Z" fill="#5250B8"/>
<path d="M138.422 279.574C103.522 273.574 71.3218 258.674 39.8218 234.174L40.3218 233.474C72.5218 258.574 105.522 273.474 141.322 279.174C173.222 284.274 206.622 281.774 243.422 271.574C311.822 252.674 382.322 208.974 450.522 166.874C522.322 122.374 596.622 76.4737 670.322 57.6737C710.022 47.5737 746.322 45.9737 781.122 52.8737C820.322 60.5737 856.622 78.6737 892.222 108.174C984.222 184.374 1079.62 214.974 1175.92 199.074C1248.62 187.074 1308.02 150.174 1344.92 121.374C1385.92 89.3737 1410.02 59.4737 1411.82 56.5737L1412.52 57.0737C1410.72 59.9737 1386.52 90.0737 1345.42 122.074C1308.32 150.974 1248.82 187.974 1176.02 199.974C1142.32 205.574 1108.62 205.374 1075.22 199.674C1013.02 188.974 951.522 158.574 891.622 108.974C856.122 79.5737 819.922 61.4737 780.922 53.7737C746.222 46.8737 710.122 48.4737 670.522 58.5737C597.022 77.2737 522.722 123.274 450.922 167.674C382.722 209.874 312.122 253.574 243.522 272.474C206.622 282.674 173.122 285.174 141.122 280.074C140.222 279.974 139.322 279.774 138.422 279.574Z" fill="#5250B8"/>
<path d="M145.022 278.474C110.722 272.574 78.9219 258.074 47.9219 234.274L48.4219 233.574C80.4219 258.174 113.222 272.774 148.722 278.174C180.422 283.074 213.622 280.574 250.222 270.374C318.322 251.574 388.522 208.474 456.422 166.774C528.222 122.674 602.522 77.074 676.222 58.474C715.922 48.474 752.222 46.974 787.022 53.774C826.222 61.474 862.522 79.474 898.122 108.874C989.822 184.474 1085.02 214.774 1181.12 198.774C1253.52 186.774 1312.52 150.074 1349.32 121.374C1390.92 88.974 1414.52 59.374 1416.32 56.374L1417.02 56.874C1415.12 59.974 1391.52 89.6741 1349.72 122.174C1312.82 150.874 1253.62 187.674 1181.12 199.774C1147.32 205.374 1113.52 205.274 1080.02 199.474C1018.22 188.774 957.122 158.774 897.522 109.574C862.022 80.2741 825.822 62.3741 786.822 54.6741C752.122 47.8741 716.022 49.374 676.422 59.374C602.822 77.974 528.622 123.474 456.822 167.574C388.822 209.274 318.622 252.374 250.422 271.274C213.722 281.374 180.422 283.974 148.522 279.074C147.322 278.874 146.122 278.674 144.822 278.474H145.022Z" fill="#5250B8"/>
<path d="M151.622 277.473C117.922 271.673 86.6221 257.573 56.1221 234.473L56.6221 233.773C88.3221 257.773 121.022 272.073 156.322 277.373C187.822 282.073 220.822 279.473 257.322 269.473C325.022 250.773 395.022 208.273 462.622 167.073C534.522 123.373 608.822 78.1734 682.522 59.7734C722.222 49.8734 758.522 48.3734 793.322 55.1734C832.522 62.8734 868.822 80.7734 904.422 109.973C995.922 185.073 1090.92 214.973 1186.62 198.973C1258.72 186.873 1317.42 150.373 1354.02 121.873C1395.62 89.5734 1419.32 59.6734 1421.22 56.5734L1421.92 57.0734C1420.02 60.1734 1396.22 90.1734 1354.52 122.573C1317.82 151.073 1258.92 187.673 1186.72 199.773C1090.72 215.873 995.522 185.873 903.822 110.573C868.322 81.4734 832.122 63.5734 793.122 55.8734C758.422 49.0734 722.222 50.5734 682.622 60.4734C609.022 78.8734 534.822 123.973 463.022 167.673C395.322 208.873 325.422 251.473 257.522 270.173C221.022 280.273 187.822 282.873 156.222 278.073C154.722 277.873 153.122 277.573 151.622 277.373V277.473Z" fill="#5250B8"/>
<path d="M158.122 276.374C124.922 270.674 94.2217 256.973 64.2217 234.573L64.7217 233.874C96.2217 257.374 128.622 271.274 163.722 276.374C195.022 280.874 227.922 278.273 264.122 268.273C331.522 249.773 401.122 207.773 468.422 167.073C540.322 123.673 614.622 78.8735 688.322 60.6735C728.022 50.8735 764.322 49.3735 799.222 56.2735C838.422 63.9735 874.722 81.7735 910.322 110.873C1001.62 185.373 1096.32 214.974 1191.82 198.874C1263.52 186.774 1322.02 150.473 1358.42 122.173C1397.32 91.9735 1422.52 61.9735 1425.72 56.6735L1426.42 57.1735C1423.12 62.5735 1397.82 92.6735 1358.92 122.873C1322.42 151.273 1263.82 187.573 1191.92 199.773C1096.22 215.973 1001.22 186.273 909.722 111.573C874.222 82.5735 838.022 64.8735 799.022 57.1735C764.322 50.3735 728.122 51.7735 688.522 61.5735C614.922 79.7735 540.722 124.573 468.922 167.873C401.522 208.573 331.922 250.573 264.322 269.173C228.022 279.173 195.022 281.773 163.522 277.273C161.722 276.973 159.822 276.674 158.022 276.374H158.122Z" fill="#5250B8"/>
<path d="M164.722 275.374C132.122 269.774 101.922 256.474 72.4219 234.774L72.9219 234.074C104.222 257.074 136.422 270.674 171.322 275.574C202.422 279.974 235.122 277.274 271.122 267.374C338.122 248.974 407.522 207.474 474.522 167.374C546.422 124.374 620.722 79.8737 694.422 61.8737C734.222 52.1737 770.522 50.7737 805.322 57.5737C844.522 65.2737 880.822 82.9737 916.422 111.874C1007.52 185.874 1102.02 215.174 1197.22 198.974C1268.62 186.874 1326.82 150.774 1363.02 122.574C1405.12 89.8737 1428.42 60.1737 1430.52 56.7737L1431.22 57.2737C1429.12 60.6737 1405.72 90.4737 1363.52 123.274C1327.22 151.474 1268.92 187.674 1197.32 199.774C1163.12 205.574 1129.02 205.574 1095.12 199.774C1034.42 189.274 974.422 160.174 915.822 112.574C880.322 83.7737 844.122 66.0737 805.122 58.4737C770.422 51.6737 734.222 53.0737 694.622 62.7737C621.022 80.7737 546.722 125.174 474.922 168.174C407.822 208.274 338.522 249.774 271.322 268.274C235.222 278.174 202.422 280.874 171.122 276.474C168.922 276.174 166.822 275.874 164.622 275.474L164.722 275.374Z" fill="#5250B8"/>
<path d="M171.222 274.274C139.222 268.774 109.522 255.774 80.522 234.874L81.022 234.174C112.122 256.674 144.022 269.874 178.722 274.574C209.722 278.774 242.122 276.074 278.022 266.174C344.722 247.874 413.722 206.974 480.422 167.374C552.322 124.774 626.622 80.674 700.422 62.774C740.222 53.174 776.522 51.774 811.322 58.574C850.522 66.174 886.822 83.874 922.422 112.674C1013.32 186.074 1107.52 215.074 1202.52 198.774C1273.62 186.574 1331.42 150.674 1367.52 122.774C1406.82 92.274 1431.62 62.474 1435.12 56.774L1435.82 57.274C1432.32 62.974 1407.42 92.874 1368.02 123.474C1331.92 151.474 1273.92 187.474 1202.62 199.674C1107.42 215.974 1013.02 186.974 921.822 113.374C886.322 84.774 850.122 67.074 811.122 59.474C776.422 52.674 740.222 54.074 700.622 63.674C627.022 81.474 552.722 125.574 480.922 168.174C414.122 207.774 345.122 248.774 278.322 267.074C242.322 276.874 209.822 279.674 178.722 275.474C176.222 275.174 173.722 274.774 171.222 274.374V274.274Z" fill="#5250B8"/>
<path d="M177.722 273.274C146.322 267.874 117.122 255.274 88.7217 235.074L89.2217 234.374C120.122 256.374 151.822 269.174 186.322 273.674C217.122 277.674 249.422 274.874 285.022 265.174C351.322 247.074 420.022 206.674 486.522 167.574C558.422 125.274 632.722 81.5739 706.522 63.8739C746.322 54.3739 782.622 53.0739 817.522 59.7739C856.722 67.3739 893.022 84.974 928.622 113.574C1019.32 186.474 1113.32 215.074 1208.02 198.774C1278.82 186.574 1336.32 150.874 1372.12 123.074C1414.22 90.3739 1437.42 60.8739 1439.92 56.8739L1440.62 57.3739C1438.12 61.4739 1414.92 91.074 1372.62 123.874C1336.72 151.674 1279.02 187.474 1208.12 199.774C1173.72 205.774 1139.32 205.774 1105.22 199.774C1045.32 189.474 986.022 160.874 928.122 114.374C892.622 85.8739 856.422 68.3739 817.422 60.7739C782.722 53.9739 746.522 55.3739 706.822 64.8739C633.122 82.4739 558.822 126.174 487.022 168.474C420.522 207.574 351.822 247.974 285.322 266.174C249.522 275.974 217.122 278.774 186.322 274.674C183.522 274.274 180.722 273.874 177.922 273.374L177.722 273.274Z" fill="#5250B8"/>
<path d="M184.222 272.174C153.422 266.874 124.722 254.674 96.8218 235.174L97.3218 234.474C127.922 255.974 159.522 268.474 193.722 272.774C224.322 276.574 256.422 273.774 291.822 264.074C357.822 246.074 426.222 206.174 492.322 167.674C564.222 125.774 638.622 82.3739 712.422 64.8739C752.222 55.4739 788.522 54.1739 823.422 60.9739C862.622 68.5739 899.022 86.0739 934.522 114.574C1025.02 186.874 1118.82 215.174 1213.22 198.774C1344.42 175.974 1435.22 71.8739 1444.42 56.9739L1445.12 57.4739C1435.92 72.4739 1344.82 176.774 1213.32 199.674C1178.72 205.674 1144.22 205.774 1110.02 199.774C1050.42 189.474 991.622 161.274 934.022 115.274C898.522 86.9739 862.322 69.4739 823.222 61.8739C788.422 55.0739 752.322 56.3739 712.622 65.7739C638.922 83.1739 564.622 126.574 492.722 168.474C426.522 207.074 358.122 246.974 292.022 264.974C256.422 274.674 224.222 277.474 193.522 273.674C190.322 273.274 187.222 272.774 184.022 272.274L184.222 272.174Z" fill="#5250B8"/>
<path d="M190.622 271.173C160.422 265.973 132.322 254.173 104.922 235.273L105.422 234.573C135.822 255.473 167.122 267.673 201.222 271.773C231.622 275.473 263.522 272.573 298.722 262.973C364.322 245.073 432.422 205.773 498.222 167.773C570.122 126.173 644.522 83.1732 718.422 65.9732C758.222 56.6732 794.622 55.3732 829.422 62.1732C868.622 69.7732 905.022 87.1732 940.622 115.473C1030.92 187.273 1124.42 215.273 1218.62 198.773C1288.72 186.473 1345.62 151.173 1381.12 123.773C1420.02 93.6732 1444.92 63.9732 1449.12 57.0732L1449.82 57.5732C1445.62 64.4732 1420.52 94.3732 1381.52 124.473C1346.02 151.973 1288.92 187.273 1218.62 199.673C1124.22 216.273 1030.52 188.173 940.022 116.273C904.522 88.0732 868.322 70.6732 829.222 63.1732C794.422 56.3732 758.222 57.6732 718.522 66.9732C644.822 84.2732 570.422 127.173 498.622 168.773C432.722 206.873 364.622 246.173 298.922 264.073C263.522 273.673 231.522 276.573 201.022 272.873C197.522 272.473 194.022 271.973 190.522 271.373L190.622 271.173Z" fill="#5250B8"/>
<path d="M203.522 269.073C174.622 264.073 147.522 253.073 121.222 235.573L121.722 234.873C151.722 254.773 182.522 266.273 216.122 270.073C246.122 273.373 277.622 270.473 312.522 260.973C377.422 243.373 444.822 205.073 510.022 168.073C654.822 85.8732 804.622 0.873222 952.722 117.273C1042.62 187.973 1135.72 215.273 1229.32 198.573C1298.72 186.173 1355.12 151.373 1390.12 124.273C1429.32 93.9732 1453.92 64.4732 1458.42 57.0732L1459.12 57.5732C1454.62 64.9732 1429.92 94.5732 1390.62 124.973C1355.52 152.073 1299.02 187.073 1229.42 199.473C1135.52 216.173 1042.32 188.773 952.122 117.973C916.622 90.0732 880.422 72.8732 841.322 65.3732C806.522 58.6732 770.322 59.8732 730.522 68.9732C656.722 85.8732 582.322 128.073 510.422 168.873C445.222 205.873 377.722 244.173 312.722 261.873C277.722 271.373 246.122 274.373 216.022 270.973C211.822 270.473 207.622 269.873 203.422 269.173L203.522 269.073Z" fill="#5250B8"/>
<path d="M209.822 268.073C181.522 263.173 155.022 252.573 129.322 235.673L129.822 234.973C159.522 254.373 190.222 265.573 223.622 269.073C253.422 272.273 284.722 269.173 319.422 259.773C383.922 242.273 451.022 204.573 515.822 168.073C660.722 86.5732 810.622 2.27324 958.722 118.073C1048.42 188.173 1141.22 215.273 1234.62 198.473C1303.72 186.073 1359.82 151.373 1394.62 124.473C1433.82 94.1732 1458.52 64.4732 1463.12 57.0732L1463.82 57.5732C1460.42 63.0732 1437.52 92.5732 1395.12 125.173C1360.22 152.173 1304.02 186.873 1234.72 199.273C1141.12 216.073 1048.12 188.973 958.122 118.673C922.622 90.9732 886.422 73.7732 847.222 66.2732C812.422 59.5732 776.122 60.6732 736.322 69.6732C662.422 86.3732 588.022 128.273 516.122 168.673C451.222 205.173 384.122 242.973 319.522 260.473C284.722 269.873 253.322 272.973 223.422 269.773C218.822 269.273 214.322 268.673 209.822 267.873V268.073Z" fill="#5250B8"/>
<path d="M216.222 267.073C188.522 262.273 162.622 252.073 137.422 235.873L137.922 235.173C167.422 254.073 197.922 264.873 231.022 268.273C260.622 271.273 291.722 268.273 326.222 258.873C390.322 241.573 457.122 204.373 521.622 168.373C666.622 87.5735 816.622 3.97346 964.822 119.173C1054.32 188.773 1146.92 215.473 1240.02 198.573C1369.22 175.173 1457.02 74.7734 1467.72 57.2734L1468.42 57.7734C1457.62 75.2734 1369.62 175.973 1240.12 199.473C1204.92 205.873 1169.72 205.973 1134.72 199.973C1077.12 190.073 1020.02 163.273 964.222 119.873C928.722 92.2734 892.422 75.2734 853.322 67.7734C818.522 61.0734 782.222 62.1735 742.422 71.0735C668.522 87.5735 594.022 129.073 522.122 169.173C457.522 205.173 390.722 242.373 326.522 259.773C291.922 269.073 260.722 272.173 231.022 269.173C226.022 268.673 221.122 267.973 216.322 267.173L216.222 267.073Z" fill="#5250B8"/>
<path d="M222.622 266.073C195.622 261.373 170.322 251.473 145.622 236.073L146.122 235.373C175.422 253.773 205.622 264.273 238.522 267.373C267.922 270.173 298.822 267.073 333.122 257.773C396.822 240.573 463.222 203.873 527.422 168.473C672.522 88.3735 822.622 5.47345 970.822 119.973C1060.12 188.973 1152.52 215.373 1245.32 198.473C1374.12 174.973 1461.62 74.7734 1472.32 57.2734L1473.02 57.7734C1462.22 75.2734 1374.52 175.773 1245.42 199.373C1210.02 205.873 1174.72 205.973 1139.62 199.973C1082.42 190.073 1025.72 163.673 970.222 120.773C822.422 6.57344 672.622 89.2734 527.722 169.273C463.422 204.773 397.022 241.473 333.222 258.673C298.922 267.973 267.822 271.073 238.322 268.273C233.022 267.773 227.722 267.073 222.522 266.173L222.622 266.073Z" fill="#5250B8"/>
<path d="M228.922 265.074C202.522 260.474 177.822 250.974 153.822 236.174L154.322 235.474C183.322 253.374 213.322 263.474 246.022 266.474C275.222 269.074 305.922 265.974 340.022 256.774C403.322 239.674 469.422 203.574 533.322 168.574C678.522 89.174 828.722 6.97402 977.022 120.874C1066.12 189.374 1158.22 215.374 1250.82 198.374C1379.12 174.774 1466.42 74.774 1477.12 57.374L1477.82 57.874C1467.02 75.374 1379.52 175.674 1250.92 199.274C1215.42 205.774 1179.92 205.974 1144.72 199.974C1087.92 190.174 1031.62 163.974 976.422 121.674C828.522 8.07404 678.622 90.074 533.622 169.474C469.722 204.474 403.622 240.574 340.122 257.674C306.022 266.874 275.122 270.074 245.822 267.374C240.122 266.874 234.422 266.074 228.822 265.174L228.922 265.074Z" fill="#5250B8"/>
<path d="M235.222 264.074C209.522 259.674 185.422 250.474 161.922 236.274L162.422 235.574C191.222 252.974 221.022 262.774 253.422 265.574C282.422 268.074 312.922 264.874 346.722 255.774C409.622 238.874 472.422 204.774 538.922 168.774C684.322 89.9736 834.622 8.57362 982.922 121.874C1071.82 189.774 1163.72 215.574 1256.02 198.374C1323.82 185.774 1378.62 151.974 1412.62 125.774C1451.22 96.0736 1475.72 66.8736 1481.62 57.4736L1482.32 57.9736C1476.42 67.4736 1451.82 96.7736 1413.12 126.574C1379.02 152.774 1324.12 186.774 1256.12 199.374C1220.42 205.974 1184.82 206.174 1149.42 200.074C1092.92 190.374 1037.12 164.474 982.322 122.674C834.422 9.67365 684.322 91.0736 539.222 169.674C472.722 205.674 409.922 239.774 346.822 256.774C312.922 265.874 282.322 269.174 253.222 266.674C247.122 266.174 241.022 265.374 235.122 264.374L235.222 264.074Z" fill="#5250B8"/>
<path d="M241.422 263.074C216.422 258.774 192.922 249.974 170.022 236.474L170.422 235.674C199.022 252.574 228.522 261.974 260.722 264.574C289.522 266.874 319.822 263.574 353.422 254.574C415.922 237.774 478.422 204.274 544.522 168.774C690.022 90.6736 840.422 9.97365 988.922 122.674C1077.62 190.074 1169.32 215.474 1261.42 198.274C1328.92 185.674 1383.42 151.974 1417.22 125.974C1455.82 96.3736 1480.42 66.9736 1486.32 57.4736L1487.02 57.9736C1481.12 67.5736 1456.42 97.0736 1417.72 126.774C1383.82 152.874 1329.22 186.574 1261.52 199.174C1225.72 205.874 1189.92 206.174 1154.42 199.974C1098.32 190.274 1042.82 164.774 988.422 123.374C840.422 11.0737 690.222 91.6736 545.022 169.574C478.922 205.074 416.422 238.574 353.722 255.474C320.022 264.574 289.622 267.774 260.722 265.474C254.222 264.974 247.722 264.174 241.422 263.074Z" fill="#5250B8"/>
<path d="M247.722 262.074C223.422 257.874 200.522 249.474 178.222 236.574L178.622 235.774C206.922 252.174 236.322 261.274 268.222 263.674C296.822 265.774 326.922 262.474 360.322 253.574C422.422 236.874 484.522 203.874 550.322 168.974C695.922 91.5736 846.522 11.5736 995.022 123.574C1083.62 190.374 1175.02 215.474 1266.82 198.174C1333.92 185.474 1388.12 152.074 1421.82 126.274C1460.32 96.6736 1485.12 67.1736 1491.02 57.4736L1491.72 57.9736C1486.92 65.6736 1464.02 94.9736 1422.32 126.974C1388.62 152.874 1334.32 186.374 1267.02 199.074C1175.02 216.474 1083.32 191.274 994.522 124.274C846.422 12.5736 696.122 92.4736 550.722 169.774C484.922 204.774 422.822 237.774 360.522 254.474C327.022 263.474 296.822 266.774 268.122 264.674C261.122 264.174 254.322 263.274 247.622 262.174L247.722 262.074Z" fill="#5250B8"/>
<path d="M253.922 261.174C230.322 257.074 208.022 249.074 186.322 236.774L186.722 235.974C214.822 251.874 243.922 260.674 275.622 262.874C304.022 264.874 333.922 261.474 367.022 252.574C428.722 236.074 490.522 203.574 555.822 169.174C701.622 92.4738 852.322 13.0738 1000.92 124.574C1089.32 190.874 1180.52 215.674 1272.02 198.274C1338.82 185.574 1392.72 152.374 1426.12 126.674C1463.22 98.1738 1488.32 69.2738 1495.42 57.6738L1496.12 58.1738C1488.92 69.7738 1463.72 98.8738 1426.62 127.374C1393.12 153.074 1339.12 186.374 1272.12 199.174C1236.02 206.074 1199.92 206.374 1164.02 200.174C1108.72 190.674 1054.02 165.674 1000.32 125.374C852.122 14.2738 701.622 93.4738 556.122 170.074C490.722 204.474 428.922 237.074 367.122 253.574C333.822 262.474 303.822 265.874 275.422 263.874C268.022 263.374 260.822 262.474 253.722 261.274L253.922 261.174Z" fill="#5250B8"/>
<path d="M260.022 260.173C237.122 256.173 215.422 248.573 194.422 236.873L194.822 236.073C222.722 251.473 251.522 259.873 283.022 261.973C311.222 263.773 340.922 260.373 373.822 251.573C435.122 235.173 496.522 203.173 561.522 169.273C707.422 93.1732 858.322 14.5733 1007.02 125.373C1095.22 191.073 1186.22 215.573 1277.52 198.073C1405.12 173.673 1489.02 75.8732 1500.22 57.5732L1500.92 58.0732C1489.62 76.3732 1405.52 174.473 1277.62 198.973C1186.12 216.473 1094.82 191.973 1006.52 126.173C858.222 15.6732 707.622 94.1732 561.922 170.073C496.922 203.973 435.422 235.973 374.022 252.373C341.022 261.173 311.222 264.673 282.922 262.773C275.122 262.273 267.422 261.373 259.922 260.073L260.022 260.173Z" fill="#5250B8"/>
<path d="M266.222 259.273C244.022 255.473 223.022 248.073 202.622 237.073L203.022 236.273C230.622 251.173 259.222 259.273 290.522 261.073C318.422 262.673 347.922 259.273 380.622 250.573C441.522 234.273 502.522 202.773 567.122 169.473C713.222 94.0734 864.322 16.1735 1013.12 126.373C1101.12 191.573 1191.92 215.673 1282.92 198.073C1349.02 185.273 1402.32 152.473 1435.32 127.173C1472.32 98.8735 1497.62 69.5734 1504.92 57.7734L1505.62 58.2734C1498.32 70.1734 1472.92 99.5735 1435.82 127.973C1402.72 153.373 1349.32 186.273 1283.02 199.073C1246.62 206.073 1210.22 206.473 1174.02 200.273C1119.52 190.873 1065.52 166.473 1012.52 127.273C864.122 17.3734 713.322 95.1734 567.422 170.473C502.822 203.873 441.722 235.373 380.722 251.673C347.922 260.473 318.322 263.873 290.322 262.273C282.022 261.773 274.022 260.873 266.022 259.473L266.222 259.273Z" fill="#5250B8"/>
<path d="M272.322 258.274C250.822 254.574 230.522 247.574 210.722 237.174L211.122 236.374C238.522 250.774 266.922 258.574 297.922 260.174C325.622 261.674 354.922 258.174 387.422 249.474C447.922 233.374 508.522 202.374 572.722 169.574C719.022 94.8738 870.222 17.5738 1019.22 127.174C1107.02 191.774 1197.62 215.574 1288.42 197.974C1354.22 185.174 1407.12 152.474 1440.02 127.374C1477.22 98.8738 1502.02 70.0738 1509.72 57.6738L1510.42 58.1738C1502.72 70.6738 1477.82 99.4738 1440.52 128.074C1407.62 153.274 1354.52 185.974 1288.62 198.874C1252.02 205.974 1215.42 206.374 1179.12 200.174C1125.02 190.874 1071.42 166.774 1018.82 127.974C870.322 18.6738 719.322 95.7738 573.222 170.374C508.922 203.174 448.322 234.174 387.722 250.374C355.122 259.074 325.822 262.574 298.022 261.074C289.322 260.574 280.822 259.674 272.422 258.274H272.322Z" fill="#5250B8"/>
<path d="M278.322 257.373C257.622 253.773 237.922 247.173 218.822 237.373L219.222 236.573C246.322 250.473 274.522 257.973 305.322 259.373C332.822 260.673 361.822 257.173 394.122 248.573C454.122 232.573 514.422 202.073 578.222 169.773C724.722 95.6734 876.122 19.1735 1025.22 128.173C1112.82 192.273 1203.22 215.773 1293.72 197.973C1359.22 185.073 1411.82 152.673 1444.42 127.673C1481.52 99.2735 1506.52 70.2734 1514.22 57.7734L1514.92 58.2734C1507.22 70.8734 1482.12 99.8735 1444.92 128.373C1412.22 153.373 1359.52 185.873 1293.82 198.773C1257.02 205.973 1220.32 206.373 1183.82 200.073C1130.12 190.773 1076.92 166.973 1024.62 128.773C875.922 20.0734 724.722 96.4734 578.522 170.473C514.622 202.773 454.322 233.273 394.222 249.273C361.922 257.873 332.722 261.473 305.122 260.173C295.922 259.773 287.022 258.773 278.222 257.273L278.322 257.373Z" fill="#5250B8"/>
<path d="M284.422 256.373C264.422 252.973 245.522 246.673 227.022 237.473L227.422 236.673C278.322 262.073 333.422 265.473 400.822 247.473C460.422 231.573 520.322 201.673 583.722 169.873C730.422 96.4735 882.022 20.5734 1031.32 128.973C1118.82 192.473 1208.92 215.673 1299.22 197.773C1364.32 184.873 1416.62 152.673 1449.02 127.873C1486.12 99.4735 1511.12 70.3734 1518.92 57.7734L1519.62 58.2734C1511.82 70.9734 1486.72 100.173 1449.52 128.573C1417.02 153.373 1364.62 185.773 1299.32 198.673C1208.82 216.573 1118.42 193.373 1030.82 129.673C882.022 21.5735 730.622 97.3734 584.122 170.573C520.722 202.373 460.722 232.273 401.022 248.173C368.922 256.673 340.022 260.273 312.622 259.173C302.922 258.773 293.522 257.773 284.322 256.173L284.422 256.373Z" fill="#5250B8"/>
<path d="M290.422 255.474C271.222 252.174 252.922 246.274 235.122 237.574L235.522 236.774C285.922 261.174 340.622 264.274 407.522 246.474C466.722 230.774 526.222 201.274 589.222 170.074C736.122 97.2736 887.922 22.0736 1037.42 129.974C1124.72 192.974 1214.62 215.774 1304.62 197.874C1369.42 184.974 1421.42 152.874 1453.62 128.274C1493.52 97.7736 1516.82 68.9736 1523.62 57.9736L1524.32 58.4736C1517.52 69.4736 1494.12 98.4736 1454.12 128.974C1421.82 153.674 1369.72 185.774 1304.82 198.674C1214.52 216.674 1124.42 193.774 1036.92 130.674C887.922 23.1736 736.322 98.2737 589.622 170.874C526.622 202.074 467.022 231.574 407.822 247.374C375.922 255.874 347.322 259.474 320.122 258.474C309.922 258.074 300.122 257.074 290.522 255.474H290.422Z" fill="#5250B8"/>
<path d="M296.722 254.774C278.222 251.574 260.422 245.974 243.222 237.874L243.622 237.074C293.522 260.574 347.722 263.274 414.122 245.674C472.822 230.074 531.922 201.074 594.522 170.474C741.622 98.3738 893.722 23.7738 1043.32 131.074C1130.42 193.474 1220.12 215.974 1309.92 197.974C1433.92 172.974 1514.72 79.8738 1528.12 58.1738L1528.82 58.6738C1515.42 80.4738 1434.32 173.874 1310.02 198.874C1220.02 216.974 1130.02 194.474 1042.72 131.874C893.522 24.8738 741.622 99.3738 594.822 171.374C532.222 202.074 473.122 231.074 414.322 246.674C370.622 258.274 332.122 261.074 296.622 254.974L296.722 254.774Z" fill="#5250B8"/>
<path d="M302.622 253.874C284.822 250.774 267.922 245.474 251.322 237.974L251.722 237.174C301.222 259.774 354.922 262.074 420.822 244.674C479.122 229.174 537.722 200.774 599.922 170.574C747.222 99.0738 899.622 25.1738 1049.42 131.874C1136.32 193.774 1225.82 215.974 1315.42 197.774C1379.52 184.774 1430.92 153.074 1462.62 128.874C1502.42 98.4738 1525.92 69.3738 1532.82 58.1738L1533.52 58.6738C1526.62 69.8738 1503.02 99.1738 1463.12 129.674C1431.22 153.974 1379.82 185.674 1315.52 198.774C1225.72 216.974 1136.02 194.774 1048.82 132.674C899.422 26.2738 747.322 100.074 600.222 171.474C538.022 201.674 479.322 230.074 421.022 245.574C376.922 257.274 338.222 260.074 302.622 253.974V253.874Z" fill="#5250B8"/>
<path d="M308.522 252.974C291.622 250.074 275.322 245.074 259.522 238.074L259.922 237.274C308.922 258.974 362.122 260.974 427.522 243.574C485.322 228.274 543.622 200.274 605.322 170.674C752.922 99.8736 905.522 26.5736 1055.52 132.674C1142.32 194.074 1231.52 215.874 1320.82 197.574C1384.62 184.574 1435.62 153.074 1467.22 128.974C1501.72 102.674 1527.82 73.7736 1537.52 57.9736L1538.22 58.4736C1528.52 74.2736 1502.32 103.274 1467.72 129.674C1436.12 153.774 1384.92 185.374 1321.02 198.374C1231.52 216.674 1142.02 194.774 1055.02 133.274C905.422 27.4736 753.022 100.574 605.722 171.274C544.022 200.874 485.722 228.874 427.822 244.274C383.322 256.074 344.422 258.974 308.622 252.774L308.522 252.974Z" fill="#5250B8"/>
<path d="M314.322 252.074C298.222 249.274 282.722 244.674 267.622 238.274L267.922 237.474C374.422 282.974 489.022 228.574 610.422 170.974C758.222 100.774 911.122 28.174 1061.42 133.774C1148.02 194.574 1237.12 216.074 1326.12 197.774C1437.62 174.774 1521.02 92.374 1542.02 58.374L1542.72 58.874C1535.12 71.174 1511.82 100.074 1472.12 130.274C1440.72 154.274 1389.82 185.574 1326.22 198.674C1236.92 217.074 1147.62 195.574 1060.82 134.574C910.922 29.374 758.322 101.774 610.722 171.874C549.422 200.974 491.522 228.474 434.122 243.674C389.222 255.574 350.122 258.474 314.122 252.274L314.322 252.074Z" fill="#5250B8"/>
<path d="M320.122 251.174C305.222 248.574 290.422 244.374 275.822 238.374L276.122 237.574C381.522 281.074 495.222 227.674 615.722 171.174C763.822 101.574 917.022 29.674 1067.52 134.674C1153.92 194.974 1242.82 216.174 1331.62 197.674C1394.72 184.574 1445.12 153.474 1476.22 129.774C1515.72 99.674 1539.12 70.774 1546.72 58.374L1547.42 58.874C1539.82 71.274 1516.32 100.274 1476.72 130.474C1445.52 154.274 1395.02 185.374 1331.72 198.574C1242.62 217.074 1153.62 195.874 1066.92 135.474C916.822 30.774 763.822 102.674 615.922 172.074C511.922 220.874 412.922 267.374 319.922 251.274L320.122 251.174Z" fill="#5250B8"/>
<path d="M325.722 250.273C311.622 247.873 297.722 243.973 283.922 238.473L284.222 237.673C388.522 279.173 501.322 226.773 620.822 171.273C769.222 102.373 922.722 31.0734 1073.52 135.473C1159.82 195.173 1248.42 216.073 1337.02 197.473C1399.82 184.273 1449.82 153.473 1480.82 129.873C1515.32 103.573 1541.12 74.9734 1551.42 58.2734L1552.12 58.7734C1541.82 75.5734 1515.92 104.273 1481.32 130.573C1450.32 154.173 1400.12 185.073 1337.22 198.273C1248.42 216.873 1159.52 195.973 1073.02 136.073C922.622 31.9734 769.422 103.173 621.222 171.973C517.322 220.273 418.422 266.173 325.722 250.173V250.273Z" fill="#5250B8"/>
<path d="M331.422 249.473C318.222 247.173 305.122 243.673 292.122 238.673L292.422 237.873C395.622 277.473 507.522 225.973 626.022 171.573C699.522 137.773 775.522 102.873 851.522 89.5735C892.622 82.3735 930.022 82.0734 965.822 88.4734C1006.22 95.7734 1043.42 111.373 1079.72 136.373C1165.82 195.573 1254.32 216.073 1342.62 197.373C1405.02 184.173 1454.72 153.473 1485.52 130.073C1519.92 103.873 1545.82 75.1734 1556.22 58.2734L1556.92 58.7734C1546.52 75.6734 1520.52 104.473 1486.02 130.773C1455.22 154.173 1405.32 184.973 1342.82 198.173C1254.22 216.873 1165.52 196.373 1079.22 136.973C928.522 33.3735 774.922 103.973 626.422 172.173C522.622 219.873 423.822 265.273 331.422 249.273V249.473Z" fill="#5250B8"/>
</g>
<defs>
<radialGradient id="paint0_radial_57_2234" cx="0" cy="0" r="1" gradientUnits="userSpaceOnUse" gradientTransform="translate(477.997 22.917) rotate(45) scale(401.057)">
<stop stop-color="#312BA5"/>
<stop offset="1" stop-color="#171248"/>
</radialGradient>
<clipPath id="clip0_57_2234">
<rect width="1440" height="56" fill="white" transform="translate(0 0.566406)"/>
</clipPath>
<clipPath id="clip1_57_2234">
<rect width="1440" height="56" fill="white" transform="translate(0 0.566406)"/>
</clipPath>
</defs>
</svg>
