<svg width="184" height="105" viewBox="0 0 184 105" fill="none" xmlns="http://www.w3.org/2000/svg">
<g clip-path="url(#clip0_5052_68519)">
<path d="M87.0078 -0.759766C87.0078 22.4373 68.2029 41.2422 45.0059 41.2422C21.8088 41.2422 3.00391 22.4373 3.00391 -0.759766C3.00391 -23.9568 21.8088 -42.7617 45.0059 -42.7617C68.2029 -42.7617 87.0078 -23.9568 87.0078 -0.759766Z" fill="url(#paint0_linear_5052_68519)"/>
<path fill-rule="evenodd" clip-rule="evenodd" d="M89.0078 -0.759766C89.0078 23.5418 69.3075 43.2422 45.0059 43.2422C20.7043 43.2422 1.00391 23.5418 1.00391 -0.759766C1.00391 -25.0614 20.7043 -44.7617 45.0059 -44.7617C69.3075 -44.7617 89.0078 -25.0614 89.0078 -0.759766ZM45.0059 41.2422C68.2029 41.2422 87.0078 22.4373 87.0078 -0.759766C87.0078 -23.9568 68.2029 -42.7617 45.0059 -42.7617C21.8088 -42.7617 3.00391 -23.9568 3.00391 -0.759766C3.00391 22.4373 21.8088 41.2422 45.0059 41.2422Z" fill="#AC061F"/>
<path d="M76.1279 -0.759766C76.1279 16.4285 62.1941 30.3623 45.0059 30.3623C27.8176 30.3623 13.8838 16.4285 13.8838 -0.759766C13.8838 -17.948 27.8176 -31.8818 45.0059 -31.8818C62.1941 -31.8818 76.1279 -17.948 76.1279 -0.759766Z" fill="url(#paint1_linear_5052_68519)"/>
<path fill-rule="evenodd" clip-rule="evenodd" d="M78.1279 -0.759766C78.1279 17.5331 63.2987 32.3623 45.0059 32.3623C26.713 32.3623 11.8838 17.5331 11.8838 -0.759766C11.8838 -19.0526 26.713 -33.8818 45.0059 -33.8818C63.2987 -33.8818 78.1279 -19.0526 78.1279 -0.759766ZM45.0059 30.3623C62.1941 30.3623 76.1279 16.4285 76.1279 -0.759766C76.1279 -17.948 62.1941 -31.8818 45.0059 -31.8818C27.8176 -31.8818 13.8838 -17.948 13.8838 -0.759766C13.8838 16.4285 27.8176 30.3623 45.0059 30.3623Z" fill="#AC061F"/>
<path d="M63.9141 -0.759766C63.9141 9.68295 55.4486 18.1484 45.0059 18.1484C34.5631 18.1484 26.0977 9.68295 26.0977 -0.759766C26.0977 -11.2025 34.5631 -19.668 45.0059 -19.668C55.4486 -19.668 63.9141 -11.2025 63.9141 -0.759766Z" fill="url(#paint2_linear_5052_68519)"/>
<path fill-rule="evenodd" clip-rule="evenodd" d="M65.9141 -0.759766C65.9141 10.7875 56.5531 20.1484 45.0059 20.1484C33.4586 20.1484 24.0977 10.7875 24.0977 -0.759766C24.0977 -12.307 33.4586 -21.668 45.0059 -21.668C56.5531 -21.668 65.9141 -12.307 65.9141 -0.759766ZM45.0059 18.1484C55.4486 18.1484 63.9141 9.68295 63.9141 -0.759766C63.9141 -11.2025 55.4486 -19.668 45.0059 -19.668C34.5631 -19.668 26.0977 -11.2025 26.0977 -0.759766C26.0977 9.68295 34.5631 18.1484 45.0059 18.1484Z" fill="#AC061F"/>
<path d="M53.0059 -0.759766C53.0059 3.65851 49.4241 7.24023 45.0059 7.24023C40.5876 7.24023 37.0059 3.65851 37.0059 -0.759766C37.0059 -5.17804 40.5876 -8.75977 45.0059 -8.75977C49.4241 -8.75977 53.0059 -5.17804 53.0059 -0.759766Z" fill="url(#paint3_linear_5052_68519)"/>
<path fill-rule="evenodd" clip-rule="evenodd" d="M55.0059 -0.759766C55.0059 4.76308 50.5287 9.24023 45.0059 9.24023C39.483 9.24023 35.0059 4.76308 35.0059 -0.759766C35.0059 -6.28261 39.483 -10.7598 45.0059 -10.7598C50.5287 -10.7598 55.0059 -6.28261 55.0059 -0.759766ZM45.0059 7.24023C49.4241 7.24023 53.0059 3.65851 53.0059 -0.759766C53.0059 -5.17804 49.4241 -8.75977 45.0059 -8.75977C40.5876 -8.75977 37.0059 -5.17804 37.0059 -0.759766C37.0059 3.65851 40.5876 7.24023 45.0059 7.24023Z" fill="#AC061F"/>
<path d="M179.012 -0.759766C179.012 22.4373 160.207 41.2422 137.01 41.2422C113.813 41.2422 95.0078 22.4373 95.0078 -0.759766C95.0078 -23.9568 113.813 -42.7617 137.01 -42.7617C160.207 -42.7617 179.012 -23.9568 179.012 -0.759766Z" fill="url(#paint4_linear_5052_68519)"/>
<path fill-rule="evenodd" clip-rule="evenodd" d="M181.012 -0.759766C181.012 23.5418 161.311 43.2422 137.01 43.2422C112.708 43.2422 93.0078 23.5418 93.0078 -0.759766C93.0078 -25.0614 112.708 -44.7617 137.01 -44.7617C161.311 -44.7617 181.012 -25.0614 181.012 -0.759766ZM137.01 41.2422C160.207 41.2422 179.012 22.4373 179.012 -0.759766C179.012 -23.9568 160.207 -42.7617 137.01 -42.7617C113.813 -42.7617 95.0078 -23.9568 95.0078 -0.759766C95.0078 22.4373 113.813 41.2422 137.01 41.2422Z" fill="#AC061F"/>
<path d="M168.132 -0.759766C168.132 16.4285 154.198 30.3623 137.01 30.3623C119.822 30.3623 105.888 16.4285 105.888 -0.759766C105.888 -17.948 119.822 -31.8818 137.01 -31.8818C154.198 -31.8818 168.132 -17.948 168.132 -0.759766Z" fill="url(#paint5_linear_5052_68519)"/>
<path fill-rule="evenodd" clip-rule="evenodd" d="M170.132 -0.759766C170.132 17.5331 155.303 32.3623 137.01 32.3623C118.717 32.3623 103.888 17.5331 103.888 -0.759766C103.888 -19.0526 118.717 -33.8818 137.01 -33.8818C155.303 -33.8818 170.132 -19.0526 170.132 -0.759766ZM137.01 30.3623C154.198 30.3623 168.132 16.4285 168.132 -0.759766C168.132 -17.948 154.198 -31.8818 137.01 -31.8818C119.822 -31.8818 105.888 -17.948 105.888 -0.759766C105.888 16.4285 119.822 30.3623 137.01 30.3623Z" fill="#AC061F"/>
<path d="M155.918 -0.759766C155.918 9.68295 147.452 18.1484 137.01 18.1484C126.567 18.1484 118.102 9.68295 118.102 -0.759766C118.102 -11.2025 126.567 -19.668 137.01 -19.668C147.452 -19.668 155.918 -11.2025 155.918 -0.759766Z" fill="url(#paint6_linear_5052_68519)"/>
<path fill-rule="evenodd" clip-rule="evenodd" d="M157.918 -0.759766C157.918 10.7875 148.557 20.1484 137.01 20.1484C125.462 20.1484 116.102 10.7875 116.102 -0.759766C116.102 -12.307 125.462 -21.668 137.01 -21.668C148.557 -21.668 157.918 -12.307 157.918 -0.759766ZM137.01 18.1484C147.452 18.1484 155.918 9.68295 155.918 -0.759766C155.918 -11.2025 147.452 -19.668 137.01 -19.668C126.567 -19.668 118.102 -11.2025 118.102 -0.759766C118.102 9.68295 126.567 18.1484 137.01 18.1484Z" fill="#AC061F"/>
<path d="M145.01 -0.759766C145.01 3.65851 141.428 7.24023 137.01 7.24023C132.591 7.24023 129.01 3.65851 129.01 -0.759766C129.01 -5.17804 132.591 -8.75977 137.01 -8.75977C141.428 -8.75977 145.01 -5.17804 145.01 -0.759766Z" fill="url(#paint7_linear_5052_68519)"/>
<path fill-rule="evenodd" clip-rule="evenodd" d="M147.01 -0.759766C147.01 4.76308 142.533 9.24023 137.01 9.24023C131.487 9.24023 127.01 4.76308 127.01 -0.759766C127.01 -6.28261 131.487 -10.7598 137.01 -10.7598C142.533 -10.7598 147.01 -6.28261 147.01 -0.759766ZM137.01 7.24023C141.428 7.24023 145.01 3.65851 145.01 -0.759766C145.01 -5.17804 141.428 -8.75977 137.01 -8.75977C132.591 -8.75977 129.01 -5.17804 129.01 -0.759766C129.01 3.65851 132.591 7.24023 137.01 7.24023Z" fill="#AC061F"/>
<path d="M40.9805 25.2441C40.9805 48.4412 22.1756 67.2461 -1.02148 67.2461C-24.2185 67.2461 -43.0234 48.4412 -43.0234 25.2441C-43.0234 2.0471 -24.2185 -16.7578 -1.02148 -16.7578C22.1756 -16.7578 40.9805 2.0471 40.9805 25.2441Z" fill="url(#paint8_linear_5052_68519)"/>
<path fill-rule="evenodd" clip-rule="evenodd" d="M42.9805 25.2441C42.9805 49.5457 23.2801 69.2461 -1.02148 69.2461C-25.3231 69.2461 -45.0234 49.5457 -45.0234 25.2441C-45.0234 0.942533 -25.3231 -18.7578 -1.02148 -18.7578C23.2801 -18.7578 42.9805 0.942533 42.9805 25.2441ZM-1.02148 67.2461C22.1756 67.2461 40.9805 48.4412 40.9805 25.2441C40.9805 2.0471 22.1756 -16.7578 -1.02148 -16.7578C-24.2185 -16.7578 -43.0234 2.0471 -43.0234 25.2441C-43.0234 48.4412 -24.2185 67.2461 -1.02148 67.2461Z" fill="#AC061F"/>
<path d="M30.1006 25.2441C30.1006 42.4324 16.1668 56.3662 -1.02148 56.3662C-18.2097 56.3662 -32.1436 42.4324 -32.1436 25.2441C-32.1436 8.0559 -18.2097 -5.87793 -1.02148 -5.87793C16.1668 -5.87793 30.1006 8.0559 30.1006 25.2441Z" fill="url(#paint9_linear_5052_68519)"/>
<path fill-rule="evenodd" clip-rule="evenodd" d="M32.1006 25.2441C32.1006 43.537 17.2713 58.3662 -1.02148 58.3662C-19.3143 58.3662 -34.1436 43.537 -34.1436 25.2441C-34.1436 6.95133 -19.3143 -7.87793 -1.02148 -7.87793C17.2713 -7.87793 32.1006 6.95133 32.1006 25.2441ZM-1.02148 56.3662C16.1668 56.3662 30.1006 42.4324 30.1006 25.2441C30.1006 8.0559 16.1668 -5.87793 -1.02148 -5.87793C-18.2097 -5.87793 -32.1436 8.0559 -32.1436 25.2441C-32.1436 42.4324 -18.2097 56.3662 -1.02148 56.3662Z" fill="#AC061F"/>
<path d="M17.8867 25.2441C17.8867 35.6869 9.42123 44.1523 -1.02148 44.1523C-11.4642 44.1523 -19.9297 35.6869 -19.9297 25.2441C-19.9297 14.8014 -11.4642 6.33594 -1.02148 6.33594C9.42123 6.33594 17.8867 14.8014 17.8867 25.2441Z" fill="url(#paint10_linear_5052_68519)"/>
<path fill-rule="evenodd" clip-rule="evenodd" d="M19.8867 25.2441C19.8867 36.7914 10.5258 46.1523 -1.02148 46.1523C-12.5688 46.1523 -21.9297 36.7914 -21.9297 25.2441C-21.9297 13.6969 -12.5688 4.33594 -1.02148 4.33594C10.5258 4.33594 19.8867 13.6969 19.8867 25.2441ZM-1.02148 44.1523C9.42123 44.1523 17.8867 35.6869 17.8867 25.2441C17.8867 14.8014 9.42123 6.33594 -1.02148 6.33594C-11.4642 6.33594 -19.9297 14.8014 -19.9297 25.2441C-19.9297 35.6869 -11.4642 44.1523 -1.02148 44.1523Z" fill="#AC061F"/>
<path d="M6.97852 25.2441C6.97852 29.6624 3.39679 33.2441 -1.02148 33.2441C-5.43976 33.2441 -9.02148 29.6624 -9.02148 25.2441C-9.02148 20.8259 -5.43976 17.2441 -1.02148 17.2441C3.39679 17.2441 6.97852 20.8259 6.97852 25.2441Z" fill="url(#paint11_linear_5052_68519)"/>
<path fill-rule="evenodd" clip-rule="evenodd" d="M8.97852 25.2441C8.97852 30.767 4.50136 35.2441 -1.02148 35.2441C-6.54433 35.2441 -11.0215 30.767 -11.0215 25.2441C-11.0215 19.7213 -6.54433 15.2441 -1.02148 15.2441C4.50136 15.2441 8.97852 19.7213 8.97852 25.2441ZM-1.02148 33.2441C3.39679 33.2441 6.97852 29.6624 6.97852 25.2441C6.97852 20.8259 3.39679 17.2441 -1.02148 17.2441C-5.43976 17.2441 -9.02148 20.8259 -9.02148 25.2441C-9.02148 29.6624 -5.43976 33.2441 -1.02148 33.2441Z" fill="#AC061F"/>
<path d="M132.984 25.2441C132.984 48.4412 114.179 67.2461 90.9824 67.2461C67.7854 67.2461 48.9805 48.4412 48.9805 25.2441C48.9805 2.0471 67.7854 -16.7578 90.9824 -16.7578C114.179 -16.7578 132.984 2.0471 132.984 25.2441Z" fill="url(#paint12_linear_5052_68519)"/>
<path fill-rule="evenodd" clip-rule="evenodd" d="M134.984 25.2441C134.984 49.5457 115.284 69.2461 90.9824 69.2461C66.6808 69.2461 46.9805 49.5457 46.9805 25.2441C46.9805 0.942533 66.6808 -18.7578 90.9824 -18.7578C115.284 -18.7578 134.984 0.942533 134.984 25.2441ZM90.9824 67.2461C114.179 67.2461 132.984 48.4412 132.984 25.2441C132.984 2.0471 114.179 -16.7578 90.9824 -16.7578C67.7854 -16.7578 48.9805 2.0471 48.9805 25.2441C48.9805 48.4412 67.7854 67.2461 90.9824 67.2461Z" fill="#AC061F"/>
<path d="M122.104 25.2441C122.104 42.4324 108.171 56.3662 90.9824 56.3662C73.7942 56.3662 59.8604 42.4324 59.8604 25.2441C59.8604 8.0559 73.7942 -5.87793 90.9824 -5.87793C108.171 -5.87793 122.104 8.0559 122.104 25.2441Z" fill="url(#paint13_linear_5052_68519)"/>
<path fill-rule="evenodd" clip-rule="evenodd" d="M124.104 25.2441C124.104 43.537 109.275 58.3662 90.9824 58.3662C72.6896 58.3662 57.8604 43.537 57.8604 25.2441C57.8604 6.95133 72.6896 -7.87793 90.9824 -7.87793C109.275 -7.87793 124.104 6.95133 124.104 25.2441ZM90.9824 56.3662C108.171 56.3662 122.104 42.4324 122.104 25.2441C122.104 8.0559 108.171 -5.87793 90.9824 -5.87793C73.7942 -5.87793 59.8604 8.0559 59.8604 25.2441C59.8604 42.4324 73.7942 56.3662 90.9824 56.3662Z" fill="#AC061F"/>
<path d="M109.891 25.2441C109.891 35.6869 101.425 44.1523 90.9824 44.1523C80.5397 44.1523 72.0742 35.6869 72.0742 25.2441C72.0742 14.8014 80.5397 6.33594 90.9824 6.33594C101.425 6.33594 109.891 14.8014 109.891 25.2441Z" fill="url(#paint14_linear_5052_68519)"/>
<path fill-rule="evenodd" clip-rule="evenodd" d="M111.891 25.2441C111.891 36.7914 102.53 46.1523 90.9824 46.1523C79.4351 46.1523 70.0742 36.7914 70.0742 25.2441C70.0742 13.6969 79.4351 4.33594 90.9824 4.33594C102.53 4.33594 111.891 13.6969 111.891 25.2441ZM90.9824 44.1523C101.425 44.1523 109.891 35.6869 109.891 25.2441C109.891 14.8014 101.425 6.33594 90.9824 6.33594C80.5397 6.33594 72.0742 14.8014 72.0742 25.2441C72.0742 35.6869 80.5397 44.1523 90.9824 44.1523Z" fill="#AC061F"/>
<path d="M98.9824 25.2441C98.9824 29.6624 95.4007 33.2441 90.9824 33.2441C86.5641 33.2441 82.9824 29.6624 82.9824 25.2441C82.9824 20.8259 86.5641 17.2441 90.9824 17.2441C95.4007 17.2441 98.9824 20.8259 98.9824 25.2441Z" fill="url(#paint15_linear_5052_68519)"/>
<path fill-rule="evenodd" clip-rule="evenodd" d="M100.982 25.2441C100.982 30.767 96.5053 35.2441 90.9824 35.2441C85.4596 35.2441 80.9824 30.767 80.9824 25.2441C80.9824 19.7213 85.4596 15.2441 90.9824 15.2441C96.5053 15.2441 100.982 19.7213 100.982 25.2441ZM90.9824 33.2441C95.4007 33.2441 98.9824 29.6624 98.9824 25.2441C98.9824 20.8259 95.4007 17.2441 90.9824 17.2441C86.5641 17.2441 82.9824 20.8259 82.9824 25.2441C82.9824 29.6624 86.5641 33.2441 90.9824 33.2441Z" fill="#AC061F"/>
<path d="M224.988 25.2441C224.988 48.4412 206.183 67.2461 182.986 67.2461C159.789 67.2461 140.984 48.4412 140.984 25.2441C140.984 2.0471 159.789 -16.7578 182.986 -16.7578C206.183 -16.7578 224.988 2.0471 224.988 25.2441Z" fill="url(#paint16_linear_5052_68519)"/>
<path fill-rule="evenodd" clip-rule="evenodd" d="M226.988 25.2441C226.988 49.5457 207.288 69.2461 182.986 69.2461C158.685 69.2461 138.984 49.5457 138.984 25.2441C138.984 0.942533 158.685 -18.7578 182.986 -18.7578C207.288 -18.7578 226.988 0.942533 226.988 25.2441ZM182.986 67.2461C206.183 67.2461 224.988 48.4412 224.988 25.2441C224.988 2.0471 206.183 -16.7578 182.986 -16.7578C159.789 -16.7578 140.984 2.0471 140.984 25.2441C140.984 48.4412 159.789 67.2461 182.986 67.2461Z" fill="#AC061F"/>
<path d="M214.108 25.2441C214.108 42.4324 200.175 56.3662 182.986 56.3662C165.798 56.3662 151.864 42.4324 151.864 25.2441C151.864 8.0559 165.798 -5.87793 182.986 -5.87793C200.175 -5.87793 214.108 8.0559 214.108 25.2441Z" fill="url(#paint17_linear_5052_68519)"/>
<path fill-rule="evenodd" clip-rule="evenodd" d="M216.108 25.2441C216.108 43.537 201.279 58.3662 182.986 58.3662C164.694 58.3662 149.864 43.537 149.864 25.2441C149.864 6.95133 164.694 -7.87793 182.986 -7.87793C201.279 -7.87793 216.108 6.95133 216.108 25.2441ZM182.986 56.3662C200.175 56.3662 214.108 42.4324 214.108 25.2441C214.108 8.0559 200.175 -5.87793 182.986 -5.87793C165.798 -5.87793 151.864 8.0559 151.864 25.2441C151.864 42.4324 165.798 56.3662 182.986 56.3662Z" fill="#AC061F"/>
<path d="M201.895 25.2441C201.895 35.6869 193.429 44.1523 182.986 44.1523C172.544 44.1523 164.078 35.6869 164.078 25.2441C164.078 14.8014 172.544 6.33594 182.986 6.33594C193.429 6.33594 201.895 14.8014 201.895 25.2441Z" fill="url(#paint18_linear_5052_68519)"/>
<path fill-rule="evenodd" clip-rule="evenodd" d="M203.895 25.2441C203.895 36.7914 194.534 46.1523 182.986 46.1523C171.439 46.1523 162.078 36.7914 162.078 25.2441C162.078 13.6969 171.439 4.33594 182.986 4.33594C194.534 4.33594 203.895 13.6969 203.895 25.2441ZM182.986 44.1523C193.429 44.1523 201.895 35.6869 201.895 25.2441C201.895 14.8014 193.429 6.33594 182.986 6.33594C172.544 6.33594 164.078 14.8014 164.078 25.2441C164.078 35.6869 172.544 44.1523 182.986 44.1523Z" fill="#AC061F"/>
<path d="M190.986 25.2441C190.986 29.6624 187.405 33.2441 182.986 33.2441C178.568 33.2441 174.986 29.6624 174.986 25.2441C174.986 20.8259 178.568 17.2441 182.986 17.2441C187.405 17.2441 190.986 20.8259 190.986 25.2441Z" fill="url(#paint19_linear_5052_68519)"/>
<path fill-rule="evenodd" clip-rule="evenodd" d="M192.986 25.2441C192.986 30.767 188.509 35.2441 182.986 35.2441C177.463 35.2441 172.986 30.767 172.986 25.2441C172.986 19.7213 177.463 15.2441 182.986 15.2441C188.509 15.2441 192.986 19.7213 192.986 25.2441ZM182.986 33.2441C187.405 33.2441 190.986 29.6624 190.986 25.2441C190.986 20.8259 187.405 17.2441 182.986 17.2441C178.568 17.2441 174.986 20.8259 174.986 25.2441C174.986 29.6624 178.568 33.2441 182.986 33.2441Z" fill="#AC061F"/>
<path d="M87.0078 51.248C87.0078 74.4451 68.2029 93.25 45.0059 93.25C21.8088 93.25 3.00391 74.4451 3.00391 51.248C3.00391 28.051 21.8088 9.24609 45.0059 9.24609C68.2029 9.24609 87.0078 28.051 87.0078 51.248Z" fill="url(#paint20_linear_5052_68519)"/>
<path fill-rule="evenodd" clip-rule="evenodd" d="M89.0078 51.248C89.0078 75.5497 69.3075 95.25 45.0059 95.25C20.7043 95.25 1.00391 75.5497 1.00391 51.248C1.00391 26.9464 20.7043 7.24609 45.0059 7.24609C69.3075 7.24609 89.0078 26.9464 89.0078 51.248ZM45.0059 93.25C68.2029 93.25 87.0078 74.4451 87.0078 51.248C87.0078 28.051 68.2029 9.24609 45.0059 9.24609C21.8088 9.24609 3.00391 28.051 3.00391 51.248C3.00391 74.4451 21.8088 93.25 45.0059 93.25Z" fill="#AC061F"/>
<path d="M76.1279 51.248C76.1279 68.4363 62.1941 82.3701 45.0059 82.3701C27.8176 82.3701 13.8838 68.4363 13.8838 51.248C13.8838 34.0598 27.8176 20.126 45.0059 20.126C62.1941 20.126 76.1279 34.0598 76.1279 51.248Z" fill="url(#paint21_linear_5052_68519)"/>
<path fill-rule="evenodd" clip-rule="evenodd" d="M78.1279 51.248C78.1279 69.5409 63.2987 84.3701 45.0059 84.3701C26.713 84.3701 11.8838 69.5409 11.8838 51.248C11.8838 32.9552 26.713 18.126 45.0059 18.126C63.2987 18.126 78.1279 32.9552 78.1279 51.248ZM45.0059 82.3701C62.1941 82.3701 76.1279 68.4363 76.1279 51.248C76.1279 34.0598 62.1941 20.126 45.0059 20.126C27.8176 20.126 13.8838 34.0598 13.8838 51.248C13.8838 68.4363 27.8176 82.3701 45.0059 82.3701Z" fill="#AC061F"/>
<path d="M63.9141 51.248C63.9141 61.6908 55.4486 70.1562 45.0059 70.1562C34.5631 70.1562 26.0977 61.6908 26.0977 51.248C26.0977 40.8053 34.5631 32.3398 45.0059 32.3398C55.4486 32.3398 63.9141 40.8053 63.9141 51.248Z" fill="url(#paint22_linear_5052_68519)"/>
<path fill-rule="evenodd" clip-rule="evenodd" d="M65.9141 51.248C65.9141 62.7953 56.5531 72.1562 45.0059 72.1562C33.4586 72.1562 24.0977 62.7953 24.0977 51.248C24.0977 39.7008 33.4586 30.3398 45.0059 30.3398C56.5531 30.3398 65.9141 39.7008 65.9141 51.248ZM45.0059 70.1562C55.4486 70.1562 63.9141 61.6908 63.9141 51.248C63.9141 40.8053 55.4486 32.3398 45.0059 32.3398C34.5631 32.3398 26.0977 40.8053 26.0977 51.248C26.0977 61.6908 34.5631 70.1562 45.0059 70.1562Z" fill="#AC061F"/>
<path d="M53.0059 51.248C53.0059 55.6663 49.4241 59.248 45.0059 59.248C40.5876 59.248 37.0059 55.6663 37.0059 51.248C37.0059 46.8298 40.5876 43.248 45.0059 43.248C49.4241 43.248 53.0059 46.8298 53.0059 51.248Z" fill="url(#paint23_linear_5052_68519)"/>
<path fill-rule="evenodd" clip-rule="evenodd" d="M55.0059 51.248C55.0059 56.7709 50.5287 61.248 45.0059 61.248C39.483 61.248 35.0059 56.7709 35.0059 51.248C35.0059 45.7252 39.483 41.248 45.0059 41.248C50.5287 41.248 55.0059 45.7252 55.0059 51.248ZM45.0059 59.248C49.4241 59.248 53.0059 55.6663 53.0059 51.248C53.0059 46.8298 49.4241 43.248 45.0059 43.248C40.5876 43.248 37.0059 46.8298 37.0059 51.248C37.0059 55.6663 40.5876 59.248 45.0059 59.248Z" fill="#AC061F"/>
<path d="M179.012 51.248C179.012 74.4451 160.207 93.25 137.01 93.25C113.813 93.25 95.0078 74.4451 95.0078 51.248C95.0078 28.051 113.813 9.24609 137.01 9.24609C160.207 9.24609 179.012 28.051 179.012 51.248Z" fill="url(#paint24_linear_5052_68519)"/>
<path fill-rule="evenodd" clip-rule="evenodd" d="M181.012 51.248C181.012 75.5497 161.311 95.25 137.01 95.25C112.708 95.25 93.0078 75.5497 93.0078 51.248C93.0078 26.9464 112.708 7.24609 137.01 7.24609C161.311 7.24609 181.012 26.9464 181.012 51.248ZM137.01 93.25C160.207 93.25 179.012 74.4451 179.012 51.248C179.012 28.051 160.207 9.24609 137.01 9.24609C113.813 9.24609 95.0078 28.051 95.0078 51.248C95.0078 74.4451 113.813 93.25 137.01 93.25Z" fill="#AC061F"/>
<path d="M168.132 51.248C168.132 68.4363 154.198 82.3701 137.01 82.3701C119.822 82.3701 105.888 68.4363 105.888 51.248C105.888 34.0598 119.822 20.126 137.01 20.126C154.198 20.126 168.132 34.0598 168.132 51.248Z" fill="url(#paint25_linear_5052_68519)"/>
<path fill-rule="evenodd" clip-rule="evenodd" d="M170.132 51.248C170.132 69.5409 155.303 84.3701 137.01 84.3701C118.717 84.3701 103.888 69.5409 103.888 51.248C103.888 32.9552 118.717 18.126 137.01 18.126C155.303 18.126 170.132 32.9552 170.132 51.248ZM137.01 82.3701C154.198 82.3701 168.132 68.4363 168.132 51.248C168.132 34.0598 154.198 20.126 137.01 20.126C119.822 20.126 105.888 34.0598 105.888 51.248C105.888 68.4363 119.822 82.3701 137.01 82.3701Z" fill="#AC061F"/>
<path d="M155.918 51.248C155.918 61.6908 147.452 70.1562 137.01 70.1562C126.567 70.1562 118.102 61.6908 118.102 51.248C118.102 40.8053 126.567 32.3398 137.01 32.3398C147.452 32.3398 155.918 40.8053 155.918 51.248Z" fill="url(#paint26_linear_5052_68519)"/>
<path fill-rule="evenodd" clip-rule="evenodd" d="M157.918 51.248C157.918 62.7953 148.557 72.1562 137.01 72.1562C125.462 72.1562 116.102 62.7953 116.102 51.248C116.102 39.7008 125.462 30.3398 137.01 30.3398C148.557 30.3398 157.918 39.7008 157.918 51.248ZM137.01 70.1562C147.452 70.1562 155.918 61.6908 155.918 51.248C155.918 40.8053 147.452 32.3398 137.01 32.3398C126.567 32.3398 118.102 40.8053 118.102 51.248C118.102 61.6908 126.567 70.1562 137.01 70.1562Z" fill="#AC061F"/>
<path d="M145.01 51.248C145.01 55.6663 141.428 59.248 137.01 59.248C132.591 59.248 129.01 55.6663 129.01 51.248C129.01 46.8298 132.591 43.248 137.01 43.248C141.428 43.248 145.01 46.8298 145.01 51.248Z" fill="url(#paint27_linear_5052_68519)"/>
<path fill-rule="evenodd" clip-rule="evenodd" d="M147.01 51.248C147.01 56.7709 142.533 61.248 137.01 61.248C131.487 61.248 127.01 56.7709 127.01 51.248C127.01 45.7252 131.487 41.248 137.01 41.248C142.533 41.248 147.01 45.7252 147.01 51.248ZM137.01 59.248C141.428 59.248 145.01 55.6663 145.01 51.248C145.01 46.8298 141.428 43.248 137.01 43.248C132.591 43.248 129.01 46.8298 129.01 51.248C129.01 55.6663 132.591 59.248 137.01 59.248Z" fill="#AC061F"/>
<path d="M40.9805 77.252C40.9805 100.449 22.1756 119.254 -1.02148 119.254C-24.2185 119.254 -43.0234 100.449 -43.0234 77.252C-43.0234 54.0549 -24.2185 35.25 -1.02148 35.25C22.1756 35.25 40.9805 54.0549 40.9805 77.252Z" fill="url(#paint28_linear_5052_68519)"/>
<path fill-rule="evenodd" clip-rule="evenodd" d="M42.9805 77.252C42.9805 101.554 23.2801 121.254 -1.02148 121.254C-25.3231 121.254 -45.0234 101.554 -45.0234 77.252C-45.0234 52.9503 -25.3231 33.25 -1.02148 33.25C23.2801 33.25 42.9805 52.9503 42.9805 77.252ZM-1.02148 119.254C22.1756 119.254 40.9805 100.449 40.9805 77.252C40.9805 54.0549 22.1756 35.25 -1.02148 35.25C-24.2185 35.25 -43.0234 54.0549 -43.0234 77.252C-43.0234 100.449 -24.2185 119.254 -1.02148 119.254Z" fill="#AC061F"/>
<path d="M30.1006 77.252C30.1006 94.4402 16.1668 108.374 -1.02148 108.374C-18.2097 108.374 -32.1436 94.4402 -32.1436 77.252C-32.1436 60.0637 -18.2097 46.1299 -1.02148 46.1299C16.1668 46.1299 30.1006 60.0637 30.1006 77.252Z" fill="url(#paint29_linear_5052_68519)"/>
<path fill-rule="evenodd" clip-rule="evenodd" d="M32.1006 77.252C32.1006 95.5448 17.2713 110.374 -1.02148 110.374C-19.3143 110.374 -34.1436 95.5448 -34.1436 77.252C-34.1436 58.9591 -19.3143 44.1299 -1.02148 44.1299C17.2713 44.1299 32.1006 58.9591 32.1006 77.252ZM-1.02148 108.374C16.1668 108.374 30.1006 94.4402 30.1006 77.252C30.1006 60.0637 16.1668 46.1299 -1.02148 46.1299C-18.2097 46.1299 -32.1436 60.0637 -32.1436 77.252C-32.1436 94.4402 -18.2097 108.374 -1.02148 108.374Z" fill="#AC061F"/>
<path d="M17.8867 77.252C17.8867 87.6947 9.42123 96.1602 -1.02148 96.1602C-11.4642 96.1602 -19.9297 87.6947 -19.9297 77.252C-19.9297 66.8092 -11.4642 58.3438 -1.02148 58.3438C9.42123 58.3438 17.8867 66.8092 17.8867 77.252Z" fill="url(#paint30_linear_5052_68519)"/>
<path fill-rule="evenodd" clip-rule="evenodd" d="M19.8867 77.252C19.8867 88.7992 10.5258 98.1602 -1.02148 98.1602C-12.5688 98.1602 -21.9297 88.7992 -21.9297 77.252C-21.9297 65.7047 -12.5688 56.3438 -1.02148 56.3438C10.5258 56.3438 19.8867 65.7047 19.8867 77.252ZM-1.02148 96.1602C9.42123 96.1602 17.8867 87.6947 17.8867 77.252C17.8867 66.8092 9.42123 58.3438 -1.02148 58.3438C-11.4642 58.3438 -19.9297 66.8092 -19.9297 77.252C-19.9297 87.6947 -11.4642 96.1602 -1.02148 96.1602Z" fill="#AC061F"/>
<path d="M6.97852 77.252C6.97852 81.6702 3.39679 85.252 -1.02148 85.252C-5.43976 85.252 -9.02148 81.6702 -9.02148 77.252C-9.02148 72.8337 -5.43976 69.252 -1.02148 69.252C3.39679 69.252 6.97852 72.8337 6.97852 77.252Z" fill="url(#paint31_linear_5052_68519)"/>
<path fill-rule="evenodd" clip-rule="evenodd" d="M8.97852 77.252C8.97852 82.7748 4.50136 87.252 -1.02148 87.252C-6.54433 87.252 -11.0215 82.7748 -11.0215 77.252C-11.0215 71.7291 -6.54433 67.252 -1.02148 67.252C4.50136 67.252 8.97852 71.7291 8.97852 77.252ZM-1.02148 85.252C3.39679 85.252 6.97852 81.6702 6.97852 77.252C6.97852 72.8337 3.39679 69.252 -1.02148 69.252C-5.43976 69.252 -9.02148 72.8337 -9.02148 77.252C-9.02148 81.6702 -5.43976 85.252 -1.02148 85.252Z" fill="#AC061F"/>
<path d="M132.984 77.252C132.984 100.449 114.179 119.254 90.9824 119.254C67.7854 119.254 48.9805 100.449 48.9805 77.252C48.9805 54.0549 67.7854 35.25 90.9824 35.25C114.179 35.25 132.984 54.0549 132.984 77.252Z" fill="url(#paint32_linear_5052_68519)"/>
<path fill-rule="evenodd" clip-rule="evenodd" d="M134.984 77.252C134.984 101.554 115.284 121.254 90.9824 121.254C66.6808 121.254 46.9805 101.554 46.9805 77.252C46.9805 52.9503 66.6808 33.25 90.9824 33.25C115.284 33.25 134.984 52.9503 134.984 77.252ZM90.9824 119.254C114.179 119.254 132.984 100.449 132.984 77.252C132.984 54.0549 114.179 35.25 90.9824 35.25C67.7854 35.25 48.9805 54.0549 48.9805 77.252C48.9805 100.449 67.7854 119.254 90.9824 119.254Z" fill="#AC061F"/>
<path d="M122.104 77.252C122.104 94.4402 108.171 108.374 90.9824 108.374C73.7942 108.374 59.8604 94.4402 59.8604 77.252C59.8604 60.0637 73.7942 46.1299 90.9824 46.1299C108.171 46.1299 122.104 60.0637 122.104 77.252Z" fill="url(#paint33_linear_5052_68519)"/>
<path fill-rule="evenodd" clip-rule="evenodd" d="M124.104 77.252C124.104 95.5448 109.275 110.374 90.9824 110.374C72.6896 110.374 57.8604 95.5448 57.8604 77.252C57.8604 58.9591 72.6896 44.1299 90.9824 44.1299C109.275 44.1299 124.104 58.9591 124.104 77.252ZM90.9824 108.374C108.171 108.374 122.104 94.4402 122.104 77.252C122.104 60.0637 108.171 46.1299 90.9824 46.1299C73.7942 46.1299 59.8604 60.0637 59.8604 77.252C59.8604 94.4402 73.7942 108.374 90.9824 108.374Z" fill="#AC061F"/>
<path d="M109.891 77.252C109.891 87.6947 101.425 96.1602 90.9824 96.1602C80.5397 96.1602 72.0742 87.6947 72.0742 77.252C72.0742 66.8092 80.5397 58.3438 90.9824 58.3438C101.425 58.3438 109.891 66.8092 109.891 77.252Z" fill="url(#paint34_linear_5052_68519)"/>
<path fill-rule="evenodd" clip-rule="evenodd" d="M111.891 77.252C111.891 88.7992 102.53 98.1602 90.9824 98.1602C79.4351 98.1602 70.0742 88.7992 70.0742 77.252C70.0742 65.7047 79.4351 56.3438 90.9824 56.3438C102.53 56.3438 111.891 65.7047 111.891 77.252ZM90.9824 96.1602C101.425 96.1602 109.891 87.6947 109.891 77.252C109.891 66.8092 101.425 58.3438 90.9824 58.3438C80.5397 58.3438 72.0742 66.8092 72.0742 77.252C72.0742 87.6947 80.5397 96.1602 90.9824 96.1602Z" fill="#AC061F"/>
<path d="M98.9824 77.252C98.9824 81.6702 95.4007 85.252 90.9824 85.252C86.5641 85.252 82.9824 81.6702 82.9824 77.252C82.9824 72.8337 86.5641 69.252 90.9824 69.252C95.4007 69.252 98.9824 72.8337 98.9824 77.252Z" fill="url(#paint35_linear_5052_68519)"/>
<path fill-rule="evenodd" clip-rule="evenodd" d="M100.982 77.252C100.982 82.7748 96.5053 87.252 90.9824 87.252C85.4596 87.252 80.9824 82.7748 80.9824 77.252C80.9824 71.7291 85.4596 67.252 90.9824 67.252C96.5053 67.252 100.982 71.7291 100.982 77.252ZM90.9824 85.252C95.4007 85.252 98.9824 81.6702 98.9824 77.252C98.9824 72.8337 95.4007 69.252 90.9824 69.252C86.5641 69.252 82.9824 72.8337 82.9824 77.252C82.9824 81.6702 86.5641 85.252 90.9824 85.252Z" fill="#AC061F"/>
<path d="M224.988 77.252C224.988 100.449 206.183 119.254 182.986 119.254C159.789 119.254 140.984 100.449 140.984 77.252C140.984 54.0549 159.789 35.25 182.986 35.25C206.183 35.25 224.988 54.0549 224.988 77.252Z" fill="url(#paint36_linear_5052_68519)"/>
<path fill-rule="evenodd" clip-rule="evenodd" d="M226.988 77.252C226.988 101.554 207.288 121.254 182.986 121.254C158.685 121.254 138.984 101.554 138.984 77.252C138.984 52.9503 158.685 33.25 182.986 33.25C207.288 33.25 226.988 52.9503 226.988 77.252ZM182.986 119.254C206.183 119.254 224.988 100.449 224.988 77.252C224.988 54.0549 206.183 35.25 182.986 35.25C159.789 35.25 140.984 54.0549 140.984 77.252C140.984 100.449 159.789 119.254 182.986 119.254Z" fill="#AC061F"/>
<path d="M214.108 77.252C214.108 94.4402 200.175 108.374 182.986 108.374C165.798 108.374 151.864 94.4402 151.864 77.252C151.864 60.0637 165.798 46.1299 182.986 46.1299C200.175 46.1299 214.108 60.0637 214.108 77.252Z" fill="url(#paint37_linear_5052_68519)"/>
<path fill-rule="evenodd" clip-rule="evenodd" d="M216.108 77.252C216.108 95.5448 201.279 110.374 182.986 110.374C164.694 110.374 149.864 95.5448 149.864 77.252C149.864 58.9591 164.694 44.1299 182.986 44.1299C201.279 44.1299 216.108 58.9591 216.108 77.252ZM182.986 108.374C200.175 108.374 214.108 94.4402 214.108 77.252C214.108 60.0637 200.175 46.1299 182.986 46.1299C165.798 46.1299 151.864 60.0637 151.864 77.252C151.864 94.4402 165.798 108.374 182.986 108.374Z" fill="#AC061F"/>
<path d="M201.895 77.252C201.895 87.6947 193.429 96.1602 182.986 96.1602C172.544 96.1602 164.078 87.6947 164.078 77.252C164.078 66.8092 172.544 58.3438 182.986 58.3438C193.429 58.3438 201.895 66.8092 201.895 77.252Z" fill="url(#paint38_linear_5052_68519)"/>
<path fill-rule="evenodd" clip-rule="evenodd" d="M203.895 77.252C203.895 88.7992 194.534 98.1602 182.986 98.1602C171.439 98.1602 162.078 88.7992 162.078 77.252C162.078 65.7047 171.439 56.3438 182.986 56.3438C194.534 56.3438 203.895 65.7047 203.895 77.252ZM182.986 96.1602C193.429 96.1602 201.895 87.6947 201.895 77.252C201.895 66.8092 193.429 58.3438 182.986 58.3438C172.544 58.3438 164.078 66.8092 164.078 77.252C164.078 87.6947 172.544 96.1602 182.986 96.1602Z" fill="#AC061F"/>
<path d="M190.986 77.252C190.986 81.6702 187.405 85.252 182.986 85.252C178.568 85.252 174.986 81.6702 174.986 77.252C174.986 72.8337 178.568 69.252 182.986 69.252C187.405 69.252 190.986 72.8337 190.986 77.252Z" fill="url(#paint39_linear_5052_68519)"/>
<path fill-rule="evenodd" clip-rule="evenodd" d="M192.986 77.252C192.986 82.7748 188.509 87.252 182.986 87.252C177.463 87.252 172.986 82.7748 172.986 77.252C172.986 71.7291 177.463 67.252 182.986 67.252C188.509 67.252 192.986 71.7291 192.986 77.252ZM182.986 85.252C187.405 85.252 190.986 81.6702 190.986 77.252C190.986 72.8337 187.405 69.252 182.986 69.252C178.568 69.252 174.986 72.8337 174.986 77.252C174.986 81.6702 178.568 85.252 182.986 85.252Z" fill="#AC061F"/>
<path d="M87.0078 103.256C87.0078 126.453 68.2029 145.258 45.0059 145.258C21.8088 145.258 3.00391 126.453 3.00391 103.256C3.00391 80.0588 21.8088 61.2539 45.0059 61.2539C68.2029 61.2539 87.0078 80.0588 87.0078 103.256Z" fill="url(#paint40_linear_5052_68519)"/>
<path fill-rule="evenodd" clip-rule="evenodd" d="M89.0078 103.256C89.0078 127.557 69.3075 147.258 45.0059 147.258C20.7043 147.258 1.00391 127.557 1.00391 103.256C1.00391 78.9543 20.7043 59.2539 45.0059 59.2539C69.3075 59.2539 89.0078 78.9543 89.0078 103.256ZM45.0059 145.258C68.2029 145.258 87.0078 126.453 87.0078 103.256C87.0078 80.0588 68.2029 61.2539 45.0059 61.2539C21.8088 61.2539 3.00391 80.0588 3.00391 103.256C3.00391 126.453 21.8088 145.258 45.0059 145.258Z" fill="#AC061F"/>
<path d="M76.1279 103.256C76.1279 120.444 62.1941 134.378 45.0059 134.378C27.8176 134.378 13.8838 120.444 13.8838 103.256C13.8838 86.0676 27.8176 72.1338 45.0059 72.1338C62.1941 72.1338 76.1279 86.0676 76.1279 103.256Z" fill="url(#paint41_linear_5052_68519)"/>
<path fill-rule="evenodd" clip-rule="evenodd" d="M78.1279 103.256C78.1279 121.549 63.2987 136.378 45.0059 136.378C26.713 136.378 11.8838 121.549 11.8838 103.256C11.8838 84.963 26.713 70.1338 45.0059 70.1338C63.2987 70.1338 78.1279 84.963 78.1279 103.256ZM45.0059 134.378C62.1941 134.378 76.1279 120.444 76.1279 103.256C76.1279 86.0676 62.1941 72.1338 45.0059 72.1338C27.8176 72.1338 13.8838 86.0676 13.8838 103.256C13.8838 120.444 27.8176 134.378 45.0059 134.378Z" fill="#AC061F"/>
<path d="M63.9141 103.256C63.9141 113.699 55.4486 122.164 45.0059 122.164C34.5631 122.164 26.0977 113.699 26.0977 103.256C26.0977 92.8131 34.5631 84.3477 45.0059 84.3477C55.4486 84.3477 63.9141 92.8131 63.9141 103.256Z" fill="url(#paint42_linear_5052_68519)"/>
<path fill-rule="evenodd" clip-rule="evenodd" d="M65.9141 103.256C65.9141 114.803 56.5531 124.164 45.0059 124.164C33.4586 124.164 24.0977 114.803 24.0977 103.256C24.0977 91.7086 33.4586 82.3477 45.0059 82.3477C56.5531 82.3477 65.9141 91.7086 65.9141 103.256ZM45.0059 122.164C55.4486 122.164 63.9141 113.699 63.9141 103.256C63.9141 92.8131 55.4486 84.3477 45.0059 84.3477C34.5631 84.3477 26.0977 92.8131 26.0977 103.256C26.0977 113.699 34.5631 122.164 45.0059 122.164Z" fill="#AC061F"/>
<path d="M53.0059 103.256C53.0059 107.674 49.4241 111.256 45.0059 111.256C40.5876 111.256 37.0059 107.674 37.0059 103.256C37.0059 98.8376 40.5876 95.2559 45.0059 95.2559C49.4241 95.2559 53.0059 98.8376 53.0059 103.256Z" fill="url(#paint43_linear_5052_68519)"/>
<path fill-rule="evenodd" clip-rule="evenodd" d="M55.0059 103.256C55.0059 108.779 50.5287 113.256 45.0059 113.256C39.483 113.256 35.0059 108.779 35.0059 103.256C35.0059 97.733 39.483 93.2559 45.0059 93.2559C50.5287 93.2559 55.0059 97.733 55.0059 103.256ZM45.0059 111.256C49.4241 111.256 53.0059 107.674 53.0059 103.256C53.0059 98.8376 49.4241 95.2559 45.0059 95.2559C40.5876 95.2559 37.0059 98.8376 37.0059 103.256C37.0059 107.674 40.5876 111.256 45.0059 111.256Z" fill="#AC061F"/>
<path d="M179.012 103.256C179.012 126.453 160.207 145.258 137.01 145.258C113.813 145.258 95.0078 126.453 95.0078 103.256C95.0078 80.0588 113.813 61.2539 137.01 61.2539C160.207 61.2539 179.012 80.0588 179.012 103.256Z" fill="url(#paint44_linear_5052_68519)"/>
<path fill-rule="evenodd" clip-rule="evenodd" d="M181.012 103.256C181.012 127.557 161.311 147.258 137.01 147.258C112.708 147.258 93.0078 127.557 93.0078 103.256C93.0078 78.9543 112.708 59.2539 137.01 59.2539C161.311 59.2539 181.012 78.9543 181.012 103.256ZM137.01 145.258C160.207 145.258 179.012 126.453 179.012 103.256C179.012 80.0588 160.207 61.2539 137.01 61.2539C113.813 61.2539 95.0078 80.0588 95.0078 103.256C95.0078 126.453 113.813 145.258 137.01 145.258Z" fill="#AC061F"/>
<path d="M168.132 103.256C168.132 120.444 154.198 134.378 137.01 134.378C119.822 134.378 105.888 120.444 105.888 103.256C105.888 86.0676 119.822 72.1338 137.01 72.1338C154.198 72.1338 168.132 86.0676 168.132 103.256Z" fill="url(#paint45_linear_5052_68519)"/>
<path fill-rule="evenodd" clip-rule="evenodd" d="M170.132 103.256C170.132 121.549 155.303 136.378 137.01 136.378C118.717 136.378 103.888 121.549 103.888 103.256C103.888 84.963 118.717 70.1338 137.01 70.1338C155.303 70.1338 170.132 84.963 170.132 103.256ZM137.01 134.378C154.198 134.378 168.132 120.444 168.132 103.256C168.132 86.0676 154.198 72.1338 137.01 72.1338C119.822 72.1338 105.888 86.0676 105.888 103.256C105.888 120.444 119.822 134.378 137.01 134.378Z" fill="#AC061F"/>
<path d="M155.918 103.256C155.918 113.699 147.452 122.164 137.01 122.164C126.567 122.164 118.102 113.699 118.102 103.256C118.102 92.8131 126.567 84.3477 137.01 84.3477C147.452 84.3477 155.918 92.8131 155.918 103.256Z" fill="url(#paint46_linear_5052_68519)"/>
<path fill-rule="evenodd" clip-rule="evenodd" d="M157.918 103.256C157.918 114.803 148.557 124.164 137.01 124.164C125.462 124.164 116.102 114.803 116.102 103.256C116.102 91.7086 125.462 82.3477 137.01 82.3477C148.557 82.3477 157.918 91.7086 157.918 103.256ZM137.01 122.164C147.452 122.164 155.918 113.699 155.918 103.256C155.918 92.8131 147.452 84.3477 137.01 84.3477C126.567 84.3477 118.102 92.8131 118.102 103.256C118.102 113.699 126.567 122.164 137.01 122.164Z" fill="#AC061F"/>
<path d="M145.01 103.256C145.01 107.674 141.428 111.256 137.01 111.256C132.591 111.256 129.01 107.674 129.01 103.256C129.01 98.8376 132.591 95.2559 137.01 95.2559C141.428 95.2559 145.01 98.8376 145.01 103.256Z" fill="url(#paint47_linear_5052_68519)"/>
<path fill-rule="evenodd" clip-rule="evenodd" d="M147.01 103.256C147.01 108.779 142.533 113.256 137.01 113.256C131.487 113.256 127.01 108.779 127.01 103.256C127.01 97.733 131.487 93.2559 137.01 93.2559C142.533 93.2559 147.01 97.733 147.01 103.256ZM137.01 111.256C141.428 111.256 145.01 107.674 145.01 103.256C145.01 98.8376 141.428 95.2559 137.01 95.2559C132.591 95.2559 129.01 98.8376 129.01 103.256C129.01 107.674 132.591 111.256 137.01 111.256Z" fill="#AC061F"/>
<path d="M40.9805 129.26C40.9805 152.457 22.1756 171.262 -1.02148 171.262C-24.2185 171.262 -43.0234 152.457 -43.0234 129.26C-43.0234 106.063 -24.2185 87.2578 -1.02148 87.2578C22.1756 87.2578 40.9805 106.063 40.9805 129.26Z" fill="url(#paint48_linear_5052_68519)"/>
<path fill-rule="evenodd" clip-rule="evenodd" d="M42.9805 129.26C42.9805 153.561 23.2801 173.262 -1.02148 173.262C-25.3231 173.262 -45.0234 153.561 -45.0234 129.26C-45.0234 104.958 -25.3231 85.2578 -1.02148 85.2578C23.2801 85.2578 42.9805 104.958 42.9805 129.26ZM-1.02148 171.262C22.1756 171.262 40.9805 152.457 40.9805 129.26C40.9805 106.063 22.1756 87.2578 -1.02148 87.2578C-24.2185 87.2578 -43.0234 106.063 -43.0234 129.26C-43.0234 152.457 -24.2185 171.262 -1.02148 171.262Z" fill="#AC061F"/>
<path d="M30.1006 129.26C30.1006 146.448 16.1668 160.382 -1.02148 160.382C-18.2097 160.382 -32.1436 146.448 -32.1436 129.26C-32.1436 112.072 -18.2097 98.1377 -1.02148 98.1377C16.1668 98.1377 30.1006 112.072 30.1006 129.26Z" fill="url(#paint49_linear_5052_68519)"/>
<path fill-rule="evenodd" clip-rule="evenodd" d="M32.1006 129.26C32.1006 147.553 17.2713 162.382 -1.02148 162.382C-19.3143 162.382 -34.1436 147.553 -34.1436 129.26C-34.1436 110.967 -19.3143 96.1377 -1.02148 96.1377C17.2713 96.1377 32.1006 110.967 32.1006 129.26ZM-1.02148 160.382C16.1668 160.382 30.1006 146.448 30.1006 129.26C30.1006 112.072 16.1668 98.1377 -1.02148 98.1377C-18.2097 98.1377 -32.1436 112.072 -32.1436 129.26C-32.1436 146.448 -18.2097 160.382 -1.02148 160.382Z" fill="#AC061F"/>
<path d="M132.984 129.26C132.984 152.457 114.179 171.262 90.9824 171.262C67.7854 171.262 48.9805 152.457 48.9805 129.26C48.9805 106.063 67.7854 87.2578 90.9824 87.2578C114.179 87.2578 132.984 106.063 132.984 129.26Z" fill="url(#paint50_linear_5052_68519)"/>
<path fill-rule="evenodd" clip-rule="evenodd" d="M134.984 129.26C134.984 153.561 115.284 173.262 90.9824 173.262C66.6808 173.262 46.9805 153.561 46.9805 129.26C46.9805 104.958 66.6808 85.2578 90.9824 85.2578C115.284 85.2578 134.984 104.958 134.984 129.26ZM90.9824 171.262C114.179 171.262 132.984 152.457 132.984 129.26C132.984 106.063 114.179 87.2578 90.9824 87.2578C67.7854 87.2578 48.9805 106.063 48.9805 129.26C48.9805 152.457 67.7854 171.262 90.9824 171.262Z" fill="#AC061F"/>
<path d="M122.104 129.26C122.104 146.448 108.171 160.382 90.9824 160.382C73.7942 160.382 59.8604 146.448 59.8604 129.26C59.8604 112.072 73.7942 98.1377 90.9824 98.1377C108.171 98.1377 122.104 112.072 122.104 129.26Z" fill="url(#paint51_linear_5052_68519)"/>
<path fill-rule="evenodd" clip-rule="evenodd" d="M124.104 129.26C124.104 147.553 109.275 162.382 90.9824 162.382C72.6896 162.382 57.8604 147.553 57.8604 129.26C57.8604 110.967 72.6896 96.1377 90.9824 96.1377C109.275 96.1377 124.104 110.967 124.104 129.26ZM90.9824 160.382C108.171 160.382 122.104 146.448 122.104 129.26C122.104 112.072 108.171 98.1377 90.9824 98.1377C73.7942 98.1377 59.8604 112.072 59.8604 129.26C59.8604 146.448 73.7942 160.382 90.9824 160.382Z" fill="#AC061F"/>
<path d="M224.988 129.26C224.988 152.457 206.183 171.262 182.986 171.262C159.789 171.262 140.984 152.457 140.984 129.26C140.984 106.063 159.789 87.2578 182.986 87.2578C206.183 87.2578 224.988 106.063 224.988 129.26Z" fill="url(#paint52_linear_5052_68519)"/>
<path fill-rule="evenodd" clip-rule="evenodd" d="M226.988 129.26C226.988 153.561 207.288 173.262 182.986 173.262C158.685 173.262 138.984 153.561 138.984 129.26C138.984 104.958 158.685 85.2578 182.986 85.2578C207.288 85.2578 226.988 104.958 226.988 129.26ZM182.986 171.262C206.183 171.262 224.988 152.457 224.988 129.26C224.988 106.063 206.183 87.2578 182.986 87.2578C159.789 87.2578 140.984 106.063 140.984 129.26C140.984 152.457 159.789 171.262 182.986 171.262Z" fill="#AC061F"/>
<path d="M214.108 129.26C214.108 146.448 200.175 160.382 182.986 160.382C165.798 160.382 151.864 146.448 151.864 129.26C151.864 112.072 165.798 98.1377 182.986 98.1377C200.175 98.1377 214.108 112.072 214.108 129.26Z" fill="url(#paint53_linear_5052_68519)"/>
<path fill-rule="evenodd" clip-rule="evenodd" d="M216.108 129.26C216.108 147.553 201.279 162.382 182.986 162.382C164.694 162.382 149.864 147.553 149.864 129.26C149.864 110.967 164.694 96.1377 182.986 96.1377C201.279 96.1377 216.108 110.967 216.108 129.26ZM182.986 160.382C200.175 160.382 214.108 146.448 214.108 129.26C214.108 112.072 200.175 98.1377 182.986 98.1377C165.798 98.1377 151.864 112.072 151.864 129.26C151.864 146.448 165.798 160.382 182.986 160.382Z" fill="#AC061F"/>
</g>
<defs>
<linearGradient id="paint0_linear_5052_68519" x1="45.0059" y1="-42.7617" x2="45.0059" y2="41.2422" gradientUnits="userSpaceOnUse">
<stop stop-color="#D20000"/>
<stop offset="0.25" stop-color="#BD0000"/>
</linearGradient>
<linearGradient id="paint1_linear_5052_68519" x1="45.0059" y1="-31.8818" x2="45.0059" y2="30.3623" gradientUnits="userSpaceOnUse">
<stop stop-color="#D20000"/>
<stop offset="0.25" stop-color="#BD0000"/>
</linearGradient>
<linearGradient id="paint2_linear_5052_68519" x1="45.0059" y1="-19.668" x2="45.0059" y2="18.1484" gradientUnits="userSpaceOnUse">
<stop stop-color="#D20000"/>
<stop offset="0.25" stop-color="#BD0000"/>
</linearGradient>
<linearGradient id="paint3_linear_5052_68519" x1="45.0059" y1="-8.75977" x2="45.0059" y2="7.24023" gradientUnits="userSpaceOnUse">
<stop stop-color="#D20000"/>
<stop offset="0.25" stop-color="#BD0000"/>
</linearGradient>
<linearGradient id="paint4_linear_5052_68519" x1="137.01" y1="-42.7617" x2="137.01" y2="41.2422" gradientUnits="userSpaceOnUse">
<stop stop-color="#D20000"/>
<stop offset="0.25" stop-color="#BD0000"/>
</linearGradient>
<linearGradient id="paint5_linear_5052_68519" x1="137.01" y1="-31.8818" x2="137.01" y2="30.3623" gradientUnits="userSpaceOnUse">
<stop stop-color="#D20000"/>
<stop offset="0.25" stop-color="#BD0000"/>
</linearGradient>
<linearGradient id="paint6_linear_5052_68519" x1="137.01" y1="-19.668" x2="137.01" y2="18.1484" gradientUnits="userSpaceOnUse">
<stop stop-color="#D20000"/>
<stop offset="0.25" stop-color="#BD0000"/>
</linearGradient>
<linearGradient id="paint7_linear_5052_68519" x1="137.01" y1="-8.75977" x2="137.01" y2="7.24023" gradientUnits="userSpaceOnUse">
<stop stop-color="#D20000"/>
<stop offset="0.25" stop-color="#BD0000"/>
</linearGradient>
<linearGradient id="paint8_linear_5052_68519" x1="-1.02148" y1="-16.7578" x2="-1.02148" y2="67.2461" gradientUnits="userSpaceOnUse">
<stop stop-color="#D20000"/>
<stop offset="0.25" stop-color="#BD0000"/>
</linearGradient>
<linearGradient id="paint9_linear_5052_68519" x1="-1.02148" y1="-5.87793" x2="-1.02148" y2="56.3662" gradientUnits="userSpaceOnUse">
<stop stop-color="#D20000"/>
<stop offset="0.25" stop-color="#BD0000"/>
</linearGradient>
<linearGradient id="paint10_linear_5052_68519" x1="-1.02148" y1="6.33594" x2="-1.02148" y2="44.1523" gradientUnits="userSpaceOnUse">
<stop stop-color="#D20000"/>
<stop offset="0.25" stop-color="#BD0000"/>
</linearGradient>
<linearGradient id="paint11_linear_5052_68519" x1="-1.02148" y1="17.2441" x2="-1.02148" y2="33.2441" gradientUnits="userSpaceOnUse">
<stop stop-color="#D20000"/>
<stop offset="0.25" stop-color="#BD0000"/>
</linearGradient>
<linearGradient id="paint12_linear_5052_68519" x1="90.9824" y1="-16.7578" x2="90.9824" y2="67.2461" gradientUnits="userSpaceOnUse">
<stop stop-color="#D20000"/>
<stop offset="0.25" stop-color="#BD0000"/>
</linearGradient>
<linearGradient id="paint13_linear_5052_68519" x1="90.9824" y1="-5.87793" x2="90.9824" y2="56.3662" gradientUnits="userSpaceOnUse">
<stop stop-color="#D20000"/>
<stop offset="0.25" stop-color="#BD0000"/>
</linearGradient>
<linearGradient id="paint14_linear_5052_68519" x1="90.9824" y1="6.33594" x2="90.9824" y2="44.1523" gradientUnits="userSpaceOnUse">
<stop stop-color="#D20000"/>
<stop offset="0.25" stop-color="#BD0000"/>
</linearGradient>
<linearGradient id="paint15_linear_5052_68519" x1="90.9824" y1="17.2441" x2="90.9824" y2="33.2441" gradientUnits="userSpaceOnUse">
<stop stop-color="#D20000"/>
<stop offset="0.25" stop-color="#BD0000"/>
</linearGradient>
<linearGradient id="paint16_linear_5052_68519" x1="182.986" y1="-16.7578" x2="182.986" y2="67.2461" gradientUnits="userSpaceOnUse">
<stop stop-color="#D20000"/>
<stop offset="0.25" stop-color="#BD0000"/>
</linearGradient>
<linearGradient id="paint17_linear_5052_68519" x1="182.986" y1="-5.87793" x2="182.986" y2="56.3662" gradientUnits="userSpaceOnUse">
<stop stop-color="#D20000"/>
<stop offset="0.25" stop-color="#BD0000"/>
</linearGradient>
<linearGradient id="paint18_linear_5052_68519" x1="182.986" y1="6.33594" x2="182.986" y2="44.1523" gradientUnits="userSpaceOnUse">
<stop stop-color="#D20000"/>
<stop offset="0.25" stop-color="#BD0000"/>
</linearGradient>
<linearGradient id="paint19_linear_5052_68519" x1="182.986" y1="17.2441" x2="182.986" y2="33.2441" gradientUnits="userSpaceOnUse">
<stop stop-color="#D20000"/>
<stop offset="0.25" stop-color="#BD0000"/>
</linearGradient>
<linearGradient id="paint20_linear_5052_68519" x1="45.0059" y1="9.24609" x2="45.0059" y2="93.25" gradientUnits="userSpaceOnUse">
<stop stop-color="#D20000"/>
<stop offset="0.25" stop-color="#BD0000"/>
</linearGradient>
<linearGradient id="paint21_linear_5052_68519" x1="45.0059" y1="20.126" x2="45.0059" y2="82.3701" gradientUnits="userSpaceOnUse">
<stop stop-color="#D20000"/>
<stop offset="0.25" stop-color="#BD0000"/>
</linearGradient>
<linearGradient id="paint22_linear_5052_68519" x1="45.0059" y1="32.3398" x2="45.0059" y2="70.1562" gradientUnits="userSpaceOnUse">
<stop stop-color="#D20000"/>
<stop offset="0.25" stop-color="#BD0000"/>
</linearGradient>
<linearGradient id="paint23_linear_5052_68519" x1="45.0059" y1="43.248" x2="45.0059" y2="59.248" gradientUnits="userSpaceOnUse">
<stop stop-color="#D20000"/>
<stop offset="0.25" stop-color="#BD0000"/>
</linearGradient>
<linearGradient id="paint24_linear_5052_68519" x1="137.01" y1="9.24609" x2="137.01" y2="93.25" gradientUnits="userSpaceOnUse">
<stop stop-color="#D20000"/>
<stop offset="0.25" stop-color="#BD0000"/>
</linearGradient>
<linearGradient id="paint25_linear_5052_68519" x1="137.01" y1="20.126" x2="137.01" y2="82.3701" gradientUnits="userSpaceOnUse">
<stop stop-color="#D20000"/>
<stop offset="0.25" stop-color="#BD0000"/>
</linearGradient>
<linearGradient id="paint26_linear_5052_68519" x1="137.01" y1="32.3398" x2="137.01" y2="70.1562" gradientUnits="userSpaceOnUse">
<stop stop-color="#D20000"/>
<stop offset="0.25" stop-color="#BD0000"/>
</linearGradient>
<linearGradient id="paint27_linear_5052_68519" x1="137.01" y1="43.248" x2="137.01" y2="59.248" gradientUnits="userSpaceOnUse">
<stop stop-color="#D20000"/>
<stop offset="0.25" stop-color="#BD0000"/>
</linearGradient>
<linearGradient id="paint28_linear_5052_68519" x1="-1.02148" y1="35.25" x2="-1.02148" y2="119.254" gradientUnits="userSpaceOnUse">
<stop stop-color="#D20000"/>
<stop offset="0.25" stop-color="#BD0000"/>
</linearGradient>
<linearGradient id="paint29_linear_5052_68519" x1="-1.02148" y1="46.1299" x2="-1.02148" y2="108.374" gradientUnits="userSpaceOnUse">
<stop stop-color="#D20000"/>
<stop offset="0.25" stop-color="#BD0000"/>
</linearGradient>
<linearGradient id="paint30_linear_5052_68519" x1="-1.02148" y1="58.3438" x2="-1.02148" y2="96.1602" gradientUnits="userSpaceOnUse">
<stop stop-color="#D20000"/>
<stop offset="0.25" stop-color="#BD0000"/>
</linearGradient>
<linearGradient id="paint31_linear_5052_68519" x1="-1.02148" y1="69.252" x2="-1.02148" y2="85.252" gradientUnits="userSpaceOnUse">
<stop stop-color="#D20000"/>
<stop offset="0.25" stop-color="#BD0000"/>
</linearGradient>
<linearGradient id="paint32_linear_5052_68519" x1="90.9824" y1="35.25" x2="90.9824" y2="119.254" gradientUnits="userSpaceOnUse">
<stop stop-color="#D20000"/>
<stop offset="0.25" stop-color="#BD0000"/>
</linearGradient>
<linearGradient id="paint33_linear_5052_68519" x1="90.9824" y1="46.1299" x2="90.9824" y2="108.374" gradientUnits="userSpaceOnUse">
<stop stop-color="#D20000"/>
<stop offset="0.25" stop-color="#BD0000"/>
</linearGradient>
<linearGradient id="paint34_linear_5052_68519" x1="90.9824" y1="58.3438" x2="90.9824" y2="96.1602" gradientUnits="userSpaceOnUse">
<stop stop-color="#D20000"/>
<stop offset="0.25" stop-color="#BD0000"/>
</linearGradient>
<linearGradient id="paint35_linear_5052_68519" x1="90.9824" y1="69.252" x2="90.9824" y2="85.252" gradientUnits="userSpaceOnUse">
<stop stop-color="#D20000"/>
<stop offset="0.25" stop-color="#BD0000"/>
</linearGradient>
<linearGradient id="paint36_linear_5052_68519" x1="182.986" y1="35.25" x2="182.986" y2="119.254" gradientUnits="userSpaceOnUse">
<stop stop-color="#D20000"/>
<stop offset="0.25" stop-color="#BD0000"/>
</linearGradient>
<linearGradient id="paint37_linear_5052_68519" x1="182.986" y1="46.1299" x2="182.986" y2="108.374" gradientUnits="userSpaceOnUse">
<stop stop-color="#D20000"/>
<stop offset="0.25" stop-color="#BD0000"/>
</linearGradient>
<linearGradient id="paint38_linear_5052_68519" x1="182.986" y1="58.3438" x2="182.986" y2="96.1602" gradientUnits="userSpaceOnUse">
<stop stop-color="#D20000"/>
<stop offset="0.25" stop-color="#BD0000"/>
</linearGradient>
<linearGradient id="paint39_linear_5052_68519" x1="182.986" y1="69.252" x2="182.986" y2="85.252" gradientUnits="userSpaceOnUse">
<stop stop-color="#D20000"/>
<stop offset="0.25" stop-color="#BD0000"/>
</linearGradient>
<linearGradient id="paint40_linear_5052_68519" x1="45.0059" y1="61.2539" x2="45.0059" y2="145.258" gradientUnits="userSpaceOnUse">
<stop stop-color="#D20000"/>
<stop offset="0.25" stop-color="#BD0000"/>
</linearGradient>
<linearGradient id="paint41_linear_5052_68519" x1="45.0059" y1="72.1338" x2="45.0059" y2="134.378" gradientUnits="userSpaceOnUse">
<stop stop-color="#D20000"/>
<stop offset="0.25" stop-color="#BD0000"/>
</linearGradient>
<linearGradient id="paint42_linear_5052_68519" x1="45.0059" y1="84.3477" x2="45.0059" y2="122.164" gradientUnits="userSpaceOnUse">
<stop stop-color="#D20000"/>
<stop offset="0.25" stop-color="#BD0000"/>
</linearGradient>
<linearGradient id="paint43_linear_5052_68519" x1="45.0059" y1="95.2559" x2="45.0059" y2="111.256" gradientUnits="userSpaceOnUse">
<stop stop-color="#D20000"/>
<stop offset="0.25" stop-color="#BD0000"/>
</linearGradient>
<linearGradient id="paint44_linear_5052_68519" x1="137.01" y1="61.2539" x2="137.01" y2="145.258" gradientUnits="userSpaceOnUse">
<stop stop-color="#D20000"/>
<stop offset="0.25" stop-color="#BD0000"/>
</linearGradient>
<linearGradient id="paint45_linear_5052_68519" x1="137.01" y1="72.1338" x2="137.01" y2="134.378" gradientUnits="userSpaceOnUse">
<stop stop-color="#D20000"/>
<stop offset="0.25" stop-color="#BD0000"/>
</linearGradient>
<linearGradient id="paint46_linear_5052_68519" x1="137.01" y1="84.3477" x2="137.01" y2="122.164" gradientUnits="userSpaceOnUse">
<stop stop-color="#D20000"/>
<stop offset="0.25" stop-color="#BD0000"/>
</linearGradient>
<linearGradient id="paint47_linear_5052_68519" x1="137.01" y1="95.2559" x2="137.01" y2="111.256" gradientUnits="userSpaceOnUse">
<stop stop-color="#D20000"/>
<stop offset="0.25" stop-color="#BD0000"/>
</linearGradient>
<linearGradient id="paint48_linear_5052_68519" x1="-1.02148" y1="87.2578" x2="-1.02148" y2="171.262" gradientUnits="userSpaceOnUse">
<stop stop-color="#D20000"/>
<stop offset="0.25" stop-color="#BD0000"/>
</linearGradient>
<linearGradient id="paint49_linear_5052_68519" x1="-1.02148" y1="98.1377" x2="-1.02148" y2="160.382" gradientUnits="userSpaceOnUse">
<stop stop-color="#D20000"/>
<stop offset="0.25" stop-color="#BD0000"/>
</linearGradient>
<linearGradient id="paint50_linear_5052_68519" x1="90.9824" y1="87.2578" x2="90.9824" y2="171.262" gradientUnits="userSpaceOnUse">
<stop stop-color="#D20000"/>
<stop offset="0.25" stop-color="#BD0000"/>
</linearGradient>
<linearGradient id="paint51_linear_5052_68519" x1="90.9824" y1="98.1377" x2="90.9824" y2="160.382" gradientUnits="userSpaceOnUse">
<stop stop-color="#D20000"/>
<stop offset="0.25" stop-color="#BD0000"/>
</linearGradient>
<linearGradient id="paint52_linear_5052_68519" x1="182.986" y1="87.2578" x2="182.986" y2="171.262" gradientUnits="userSpaceOnUse">
<stop stop-color="#D20000"/>
<stop offset="0.25" stop-color="#BD0000"/>
</linearGradient>
<linearGradient id="paint53_linear_5052_68519" x1="182.986" y1="98.1377" x2="182.986" y2="160.382" gradientUnits="userSpaceOnUse">
<stop stop-color="#D20000"/>
<stop offset="0.25" stop-color="#BD0000"/>
</linearGradient>
<clipPath id="clip0_5052_68519">
<rect width="184" height="104" fill="white" transform="translate(0 0.238281)"/>
</clipPath>
</defs>
</svg>
