<svg width="72" height="56" viewBox="0 0 72 56" fill="none" xmlns="http://www.w3.org/2000/svg">
<path d="M5.88867 9.0282V17.4085H18.2166L17.2247 19.3803L27.1437 9.0282H5.88867Z" fill="white"/>
<path d="M22.1845 33.9577C22.3262 34.5211 22.3971 35.1549 22.4679 35.8592C22.3971 38.5352 20.7675 40.6479 18.0044 40.6479C17.2959 40.6479 16.6582 40.507 16.0914 40.3662L9.64404 47.0563C11.9112 48.6761 14.887 49.5211 18.1461 49.5211C27.4274 49.5211 32.3161 42.5493 32.3161 35.7887C32.3161 32.4084 31.4659 29.0986 29.1987 26.7042L22.1845 33.9577Z" fill="white"/>
<path fill-rule="evenodd" clip-rule="evenodd" d="M25.5138 22.5493L32.8114 9.09856V7.61969H28.5603L18.6413 17.9718L13.6818 27.7605V29.0986C17.7203 28.676 22.3964 28.4648 23.6008 32.6197L30.5441 25.3662C29.3397 24.0986 27.7101 23.1126 25.5138 22.5493ZM14.8863 35.2957H5.74658C5.88828 39.8732 7.87209 43.4648 10.9895 45.6479L17.4369 38.9577C15.8782 38.4648 14.8863 37.1972 14.8863 35.2957Z" fill="url(#paint0_linear_4461_30502)"/>
<path d="M1 36.2817C3.33806 33.6761 5.74696 31.1408 8.15587 28.6056L9.00607 27.6197L9.92712 26.7042L11.6984 24.8028L15.3117 21L18.996 17.1972L20.8381 15.2958L21.7591 14.3803L22.6093 13.4648C25.0891 10.9296 27.5688 8.46479 30.0486 6C27.7105 8.60563 25.3016 11.1408 22.8927 13.6761L22.0425 14.662L21.1215 15.5775L19.2794 17.5493L15.666 21.2817L12.0526 25.0845L10.2105 26.9859L9.28947 27.9014L8.36842 28.8873C5.95951 31.3521 3.47976 33.8169 1 36.2817Z" fill="#85E9FF"/>
<path d="M1 56C3.83401 52.9718 6.66802 49.8732 9.57287 46.8451L10.6356 45.7183L11.6984 44.5916L13.8239 42.338L18.1457 37.831L22.5385 33.3239L24.664 31.0704L25.7976 29.9437L26.8603 28.8873C29.7652 25.8592 32.67 22.9014 35.6457 19.9437C32.8117 23.0423 29.9777 26.0704 27.1437 29.0986L26.0101 30.2254L24.9474 31.3521L22.8219 33.6056L18.5 38.1127L14.1781 42.6197L11.9818 44.8732L10.8482 46L9.78542 47.1268C6.88057 50.0845 3.97571 53.0423 1 56Z" fill="#85E9FF"/>
<path fill-rule="evenodd" clip-rule="evenodd" d="M59.2386 19.8732V29.8028L68.8742 19.8028V19.662C68.8742 14.0282 65.9694 9.94366 61.6475 7.76056L54.6333 15.0845C57.2548 15.2958 59.2386 16.9155 59.2386 19.8732ZM48.8236 33.3239V21.1408L39.188 31.2113V33.5352C39.188 38.5352 41.4552 42.338 44.9977 44.5915L51.6576 37.6197C49.9572 36.9859 48.8236 35.5775 48.8236 33.3239Z" fill="url(#paint1_linear_4461_30502)"/>
<path d="M47.4775 21.2817C47.4775 18.0423 49.6738 16.4225 52.7204 16.4225C52.8621 16.4225 53.0746 16.4225 53.2872 16.4225L60.3014 9.16902C58.0342 8.04226 55.4835 7.47888 52.7204 7.47888C44.5018 7.47888 37.771 12.4789 37.771 21V32.6197L47.4775 22.4789V21.2817Z" fill="white"/>
<path d="M57.8224 31.1409V34.7324C57.8224 37.831 55.5552 39.4507 52.7212 39.4507C51.8001 39.4507 51.0208 39.3099 50.3123 39.0282L43.6523 45.9296C46.1321 47.5493 49.2495 48.4648 52.7212 48.4648C60.8689 48.4648 67.458 43.4648 67.458 34.8733V21.1409L57.8224 31.1409Z" fill="white"/>
<path d="M34.5117 36C36.8498 33.3944 39.2587 30.8592 41.5967 28.3944L42.5178 27.4085L43.368 26.493L45.1392 24.5916L48.7526 20.8592L52.366 17.1268L54.1372 15.2254L55.0583 14.3099L55.9793 13.3944C58.3882 10.9296 60.7971 8.46479 63.2769 6C60.9388 8.53521 58.6008 11.0704 56.2627 13.6056L55.3417 14.5915L54.4206 15.507L52.6494 17.4085L49.1069 21.1408L45.4935 24.8732L43.6514 26.7746L42.8012 27.6901L41.8801 28.6056C39.4712 31.0704 36.9915 33.5352 34.5117 36Z" fill="#85E9FF"/>
<path d="M37.6294 52.1972C40.3217 49.2394 43.0849 46.2817 45.848 43.3944L46.9108 42.2676L47.9027 41.2113L49.9573 39.0282L54.1375 34.662L58.3177 30.3662L60.4432 28.1831L61.5059 27.1268L62.5687 26.0704C65.3318 23.1831 68.1658 20.2958 70.9998 17.4789C68.3075 20.4366 65.5444 23.324 62.7812 26.2817L61.7185 27.338L60.7266 28.4648L58.6011 30.6479L54.4917 34.9437L50.3116 39.3099L48.1861 41.4225L47.1233 42.5493L46.0606 43.6056C43.2974 46.493 40.4634 49.3099 37.6294 52.1972Z" fill="#85E9FF"/>
<path fill-rule="evenodd" clip-rule="evenodd" d="M34.9369 44.662C35.2911 44.662 35.6454 44.7324 35.8579 44.8733L33.3073 47.5493C33.0948 47.2676 33.0239 46.9155 33.0239 46.5634C33.0239 45.5071 33.8741 44.662 34.9369 44.662ZM36.6373 45.5775C36.8498 45.8592 36.9207 46.2113 36.9207 46.5634C36.9207 47.6902 36.0705 48.5352 34.9369 48.5352C34.6535 48.5352 34.2992 48.4648 34.0158 48.324L36.6373 45.5775Z" fill="white"/>
<path d="M31.9614 48.9578C32.174 48.6761 32.3865 48.4648 32.5991 48.2535C33.0242 47.831 33.4493 47.338 33.8744 46.9155L34.5829 46.2113L35.2205 45.507C35.6456 45.0845 36.0707 44.662 36.4958 44.169C36.7792 43.9578 36.9918 43.7465 37.2043 43.5352C37.2752 43.5352 37.2752 43.5352 37.2043 43.5352C36.9918 43.8169 36.7792 44.0282 36.5667 44.2394C36.1416 44.7324 35.7165 45.1549 35.2914 45.6479L34.6537 46.2817L34.0161 46.9859L33.3076 47.6901C33.095 47.9014 32.8825 48.1127 32.6699 48.324C32.4574 48.5352 32.2448 48.7465 32.0323 49.0282H31.9614C31.9614 48.9578 31.9614 48.9578 31.9614 48.9578ZM32.6699 49.5916C32.9533 49.3803 33.1659 49.0986 33.3076 48.8873C33.8035 48.4648 34.2286 47.9718 34.6537 47.5493L35.2914 46.8451L35.929 46.2113C36.3541 45.7183 36.8501 45.2958 37.2752 44.8028C37.4877 44.5916 37.7003 44.3803 37.9128 44.169H37.9837C37.9837 44.169 37.9837 44.169 37.9837 44.2394C37.7711 44.4507 37.5586 44.662 37.346 44.8732C36.9209 45.3662 36.4958 45.7887 35.9999 46.2817L35.3622 46.9859L34.7246 47.6197L34.0869 48.324C33.8744 48.5352 33.6618 48.7465 33.3784 48.9578C33.1659 49.169 32.9533 49.4507 32.7408 49.662C32.7408 49.662 32.7408 49.662 32.6699 49.662V49.5916Z" fill="#85E9FF"/>
<path d="M31.9614 48.9578C32.174 48.6761 32.3865 48.4648 32.5991 48.2535C33.0242 47.831 33.4493 47.338 33.8744 46.9155L34.5829 46.2113L35.2205 45.507C35.6456 45.0845 36.0707 44.662 36.4958 44.169C36.7792 43.9578 36.9918 43.7465 37.2043 43.5352C37.2752 43.5352 37.2752 43.5352 37.2043 43.5352C36.9918 43.8169 36.7792 44.0282 36.5667 44.2394C36.1416 44.7324 35.7165 45.1549 35.2914 45.6479L34.6537 46.2817L34.0161 46.9859L33.3076 47.6901C33.095 47.9014 32.8825 48.1127 32.6699 48.324C32.4574 48.5352 32.2448 48.7465 32.0323 49.0282H31.9614C31.9614 48.9578 31.9614 48.9578 31.9614 48.9578ZM32.6699 49.5916C32.9533 49.3803 33.1659 49.0986 33.3076 48.8873C33.8035 48.4648 34.2286 47.9718 34.6537 47.5493L35.2914 46.8451L35.929 46.2113C36.3541 45.7183 36.8501 45.2958 37.2752 44.8028C37.4877 44.5916 37.7003 44.3803 37.9128 44.169H37.9837C37.9837 44.169 37.9837 44.169 37.9837 44.2394C37.7711 44.4507 37.5586 44.662 37.346 44.8732C36.9209 45.3662 36.4958 45.7887 35.9999 46.2817L35.3622 46.9859L34.7246 47.6197L34.0869 48.324C33.8744 48.5352 33.6618 48.7465 33.3784 48.9578C33.1659 49.169 32.9533 49.4507 32.7408 49.662C32.7408 49.662 32.7408 49.662 32.6699 49.662V49.5916Z" fill="#85E9FF"/>
<defs>
<linearGradient id="paint0_linear_4461_30502" x1="20.4834" y1="15.6479" x2="30.4832" y2="25.7084" gradientUnits="userSpaceOnUse">
<stop stop-color="#011850"/>
<stop offset="0.0784314" stop-color="#044075"/>
<stop offset="0.109804" stop-color="#08699A"/>
<stop offset="0.180392" stop-color="#0C99C6"/>
<stop offset="0.380392" stop-color="#11C9F2"/>
<stop offset="0.517647" stop-color="#0EA0CD"/>
<stop offset="0.690196" stop-color="#0A77A7"/>
<stop offset="1" stop-color="#011850"/>
</linearGradient>
<linearGradient id="paint1_linear_4461_30502" x1="55.7669" y1="13.6056" x2="65.5551" y2="23.524" gradientUnits="userSpaceOnUse">
<stop stop-color="#011850"/>
<stop offset="0.133333" stop-color="#0971A1"/>
<stop offset="0.509804" stop-color="#12CAF3"/>
<stop offset="0.87451" stop-color="#0A72A2"/>
<stop offset="1" stop-color="#021951"/>
</linearGradient>
</defs>
</svg>
