<svg width="61" height="30" viewBox="0 0 61 30" fill="none" xmlns="http://www.w3.org/2000/svg">
<path d="M30.623 21.2998C31.8557 21.2998 32.9898 21.5945 33.9561 22.2256H33.957C35.1757 23.0107 35.6005 24.2764 35.6006 25.6152C35.6006 26.9297 35.1612 28.1456 33.9941 28.9424L33.9961 28.9434C33.0267 29.6137 31.8776 29.9316 30.623 29.9316C29.3509 29.9316 28.1851 29.619 27.2002 28.9512L27.1895 28.9434C26.0333 28.1438 25.6045 26.9255 25.6045 25.6152C25.6045 24.2845 26.0171 23.0207 27.2168 22.2324L27.2275 22.2256L27.6045 22.0049C28.5021 21.5241 29.524 21.2998 30.623 21.2998ZM12.0908 0.176758C13.7913 0.176769 15.4017 0.438615 16.9082 0.972656H16.9072C18.4352 1.50208 19.7719 2.31627 20.9082 3.40039H20.9062C22.0759 4.50311 22.956 5.86928 23.5693 7.46484C24.1917 9.08433 24.4854 10.9462 24.4854 13.0254C24.4853 14.6094 24.3502 16.1815 24.0791 17.7412C23.8162 19.3327 23.3482 20.8434 22.6719 22.2695L22.6689 22.2734C21.9705 23.7327 20.9901 25.0343 19.7314 26.1709L19.7246 26.1768C18.4244 27.3368 16.7979 28.2239 14.8848 28.8564C12.9314 29.5022 10.6311 29.8047 8.02246 29.8047C7.39856 29.8047 6.6814 29.7782 5.875 29.7295V29.7305C5.87148 29.7303 5.86777 29.7297 5.86426 29.7295C5.8602 29.7292 5.85563 29.7297 5.85156 29.7295V29.7285C5.03301 29.6906 4.31633 29.6272 3.71973 29.5303L2.57227 29.3447V22.2373L4.31445 22.623C4.79928 22.7299 5.32197 22.8153 5.88184 22.8818C6.44413 22.9367 7.01361 22.9658 7.59082 22.9658C9.98226 22.9658 11.6267 22.6258 12.6758 22.084L12.6807 22.082L13.0801 21.8604C13.9692 21.3224 14.5796 20.6351 14.9531 19.7871L14.959 19.7773L15.1348 19.3594C15.1439 19.3357 15.1501 19.311 15.1592 19.2871C14.7964 19.4674 14.4105 19.6262 14.0029 19.7617L13.9932 19.7656L13.9834 19.7676C12.9433 20.0982 11.7063 20.2402 10.3232 20.2402C8.40467 20.2402 6.66078 19.8728 5.14062 19.0947L5.12598 19.0869C3.71213 18.3417 2.60505 17.2935 1.80566 15.9785L1.64941 15.7109L1.64258 15.6992C0.845126 14.2368 0.476587 12.5277 0.476562 10.6162C0.476562 8.54211 0.921606 6.69087 1.87402 5.10938L1.875 5.10547L2.05957 4.81152C3.01082 3.36606 4.32863 2.23293 5.99512 1.43262C7.77119 0.579761 9.81929 0.176758 12.0908 0.176758ZM48.6006 0.0683594C51.2458 0.0683594 53.5472 0.671898 55.3926 1.96777H55.3906C57.2123 3.2249 58.5048 5.00775 59.3232 7.22363L59.4717 7.63965C60.1834 9.73738 60.5234 12.1866 60.5234 14.9639C60.5234 17.1638 60.3266 19.1559 59.9209 20.9316C59.5261 22.7192 58.8709 24.2897 57.9287 25.6133L57.9307 25.6143C56.9806 26.9684 55.7123 28.0181 54.1387 28.7402C52.55 29.4691 50.6849 29.8047 48.6006 29.8047C45.9476 29.8046 43.6414 29.2089 41.7949 27.9268L41.7891 27.9229C39.9813 26.6534 38.7018 24.8691 37.8965 22.6602V22.6592C37.1011 20.4644 36.7197 17.8907 36.7197 14.9639C36.7197 12.023 37.0633 9.45342 37.7822 7.28027L37.7842 7.27539L37.9307 6.86426C38.6898 4.82674 39.8899 3.16916 41.5801 1.97168C43.4297 0.661482 45.8173 0.0684144 48.6006 0.0683594ZM30.623 22.5361C29.6232 22.5362 28.7669 22.7657 28.0547 23.2246C27.3564 23.6835 27.0069 24.4804 27.0068 25.6152C27.0068 26.7021 27.3562 27.4876 28.0547 27.9707C28.7669 28.4537 29.6232 28.6953 30.623 28.6953C31.5955 28.6953 32.4313 28.4537 33.1299 27.9707C33.8422 27.4876 34.1982 26.7021 34.1982 25.6152C34.1982 24.4802 33.842 23.6835 33.1299 23.2246C32.4313 22.7657 31.5956 22.5361 30.623 22.5361ZM12.0908 1.41406C10.0088 1.41406 8.20014 1.78188 6.66602 2.51855C5.13219 3.25516 3.94778 4.31202 3.1123 5.68848C2.29045 7.05313 1.87891 8.69603 1.87891 10.6162C1.87893 12.3914 2.2214 13.9072 2.90625 15.1631C3.60482 16.4069 4.58457 17.3612 5.84473 18.0254C7.11843 18.6774 8.61135 19.0029 10.3232 19.0029C11.6108 19.0029 12.6732 18.8702 13.5088 18.6045C14.3442 18.3267 15.0294 17.9588 15.5635 17.5C16.1113 17.0291 16.5833 16.5034 16.9805 15.9238H17.2275C17.1453 17.5541 16.8233 18.9915 16.2617 20.2354C15.7138 21.4791 14.7544 22.451 13.3848 23.1514C12.0287 23.8517 10.0973 24.2021 7.59082 24.2021C6.96092 24.2021 6.33789 24.1717 5.72168 24.1113C5.10529 24.0389 4.52251 23.943 3.97461 23.8223V28.3145C4.49509 28.399 5.15286 28.4589 5.94727 28.4951C6.74169 28.5434 7.43348 28.5684 8.02246 28.5684C10.5153 28.5684 12.6384 28.2779 14.3916 27.6982C16.1449 27.1186 17.5906 26.3221 18.7275 25.3076C19.8644 24.2811 20.7478 23.1093 21.3779 21.793C22.008 20.4646 22.4458 19.0512 22.6924 17.5537C22.9526 16.0563 23.083 14.5469 23.083 13.0254C23.083 11.0448 22.8018 9.32357 22.2402 7.8623C21.6786 6.40119 20.8915 5.19324 19.8779 4.23926C18.878 3.28524 17.7134 2.57902 16.3848 2.12012C15.0562 1.64917 13.6249 1.41407 12.0908 1.41406ZM48.6006 1.30469C46.0394 1.30474 43.992 1.84878 42.458 2.93555C40.9239 4.02243 39.8138 5.58604 39.1289 7.62695C38.4577 9.65582 38.1221 12.1017 38.1221 14.9639C38.1221 17.8018 38.4918 20.2413 39.2314 22.2822C39.9711 24.3111 41.1153 25.8692 42.6631 26.9561C44.2108 28.0307 46.1901 28.5683 48.6006 28.5684C50.5182 28.5684 52.1489 28.2604 53.4912 27.6445C54.8336 27.0286 55.9155 26.1343 56.7373 24.9629C57.5728 23.7915 58.1751 22.3661 58.5449 20.6875C58.9284 19.009 59.1211 17.1012 59.1211 14.9639C59.1211 12.0897 58.7435 9.63821 57.9902 7.60938C57.2369 5.56854 56.0799 4.01036 54.5186 2.93555C52.9707 1.84865 50.9977 1.30469 48.6006 1.30469ZM48.6006 5.83398C49.6552 5.83398 50.4842 6.17793 51.0869 6.86621C51.7033 7.54244 52.1421 8.55677 52.4023 9.90918C52.6626 11.2618 52.792 12.9471 52.792 14.9639C52.792 16.9926 52.6626 18.6836 52.4023 20.0361C52.1421 21.3764 51.7032 22.3843 51.0869 23.0605C50.4842 23.7248 49.6553 24.0576 48.6006 24.0576C47.5325 24.0575 46.6973 23.719 46.0947 23.043C45.492 22.3667 45.0601 21.3581 44.7998 20.0176C44.5533 18.6651 44.4297 16.9805 44.4297 14.9639C44.4297 12.9471 44.5532 11.2618 44.7998 9.90918C45.0601 8.55679 45.4921 7.54244 46.0947 6.86621C46.6973 6.17809 47.5325 5.83407 48.6006 5.83398ZM48.6006 7.07031C47.9254 7.07039 47.5176 7.26514 47.2051 7.62207L47.1973 7.63086C46.8008 8.07599 46.4256 8.85882 46.1836 10.1162C45.9542 11.3798 45.833 12.9905 45.833 14.9639C45.833 16.9357 45.9526 18.5454 46.1816 19.8086L46.2793 20.2549C46.5182 21.2427 46.849 21.8874 47.1973 22.2783C47.5062 22.625 47.9159 22.8202 48.6006 22.8203C49.2746 22.8203 49.6818 22.629 49.9912 22.2881L49.9941 22.2871L50.1445 22.1035C50.4917 21.6406 50.808 20.9124 51.0186 19.8291L51.1045 19.3398C51.2915 18.1591 51.3896 16.7043 51.3896 14.9639C51.3896 12.9874 51.2611 11.3768 51.0186 10.1162C50.7773 8.86272 50.3978 8.08359 49.9941 7.64062L49.9854 7.63184L49.9766 7.62207C49.6601 7.2606 49.2555 7.07031 48.6006 7.07031ZM12.2139 5.90625C12.9672 5.90625 13.6249 6.05746 14.1865 6.35938C14.7617 6.66128 15.2415 7.05961 15.625 7.55469C16.0084 8.04977 16.2956 8.59939 16.4873 9.20312C16.679 9.80681 16.7753 10.4165 16.7754 11.0322C16.7754 11.6239 16.5768 12.204 16.1797 12.7715C15.7962 13.327 15.2552 13.7926 14.5566 14.167C13.8581 14.5293 13.0359 14.7099 12.0908 14.71C10.7211 14.71 9.70048 14.3357 9.0293 13.5869C8.35818 12.8382 8.02253 11.8239 8.02246 10.5439C8.02246 8.94995 8.41272 7.77805 9.19336 7.0293C9.97409 6.28057 10.9811 5.90627 12.2139 5.90625ZM12.2139 7.14258C11.3435 7.1426 10.7219 7.39129 10.2266 7.86621C9.78752 8.28725 9.4248 9.09122 9.4248 10.5439C9.42487 11.6401 9.71121 12.3542 10.1289 12.8203C10.4654 13.1956 11.0255 13.4736 12.0908 13.4736C12.8246 13.4736 13.3903 13.3338 13.8389 13.1025C14.3602 12.8212 14.7278 12.4947 14.9805 12.1289L14.9863 12.1221L15.082 11.9746C15.2892 11.6352 15.373 11.3246 15.373 11.0322C15.373 10.5312 15.2946 10.0333 15.1367 9.53613C14.9843 9.05623 14.7592 8.62971 14.4658 8.25098C14.1956 7.90245 13.8655 7.6301 13.4688 7.42188L13.4561 7.41406C13.145 7.24693 12.7475 7.14258 12.2139 7.14258Z" fill="url(#paint0_linear_6348_16744)"/>
<defs>
<linearGradient id="paint0_linear_6348_16744" x1="22.6303" y1="-7.72163" x2="57.2214" y2="30.9444" gradientUnits="userSpaceOnUse">
<stop stop-color="#5BEFF6"/>
<stop offset="0.56951" stop-color="#488BFA"/>
<stop offset="1" stop-color="#001BB5"/>
</linearGradient>
</defs>
</svg>
