<svg width="68" height="60" viewBox="0 0 68 60" fill="none" xmlns="http://www.w3.org/2000/svg">
<g clip-path="url(#clip0_4471_7487)">
<path d="M4.24902 11.907V19.9521H16.2247L15.2612 21.8451L24.8968 11.907H4.24902Z" fill="white"/>
<path d="M20.0792 35.8394C20.2168 36.3803 20.2856 36.9887 20.3545 37.6648C20.2856 40.2338 18.7026 42.262 16.0184 42.262C15.3302 42.262 14.7107 42.1267 14.1601 41.9915L7.89697 48.4141C10.0994 49.969 12.9901 50.7803 16.1561 50.7803C25.1723 50.7803 29.9213 44.0873 29.9213 37.5972C29.9213 34.3521 29.0954 31.1746 26.8929 28.876L20.0792 35.8394Z" fill="white"/>
<path fill-rule="evenodd" clip-rule="evenodd" d="M23.3133 24.8873L30.4023 11.9746V10.5549H26.2728L16.6372 20.493L11.8193 29.8901V31.1747C15.7424 30.769 20.2849 30.5662 21.455 34.5549L28.1999 27.5916C27.0299 26.3747 25.4469 25.4282 23.3133 24.8873ZM12.9894 37.1239H4.11084C4.24849 41.5183 6.17562 44.9662 9.20396 47.062L15.4671 40.6394C13.9529 40.1662 12.9894 38.9493 12.9894 37.1239Z" fill="url(#paint0_linear_4471_7487)"/>
<path d="M-0.5 38.0704C1.77126 35.569 4.11134 33.1352 6.45142 30.7014L7.27733 29.7549L8.17206 28.8761L9.89271 27.0507L13.4028 23.4L16.9818 19.7493L18.7713 17.9239L19.666 17.0451L20.4919 16.1662C22.9008 13.7324 25.3097 11.3662 27.7186 9C25.4474 11.5014 23.1073 13.9352 20.7672 16.369L19.9413 17.3155L19.0466 18.1944L17.2571 20.0873L13.747 23.6704L10.2368 27.3211L8.44737 29.1465L7.55263 30.0254L6.65789 30.9718C4.31781 33.338 1.90891 35.7042 -0.5 38.0704Z" fill="#85E9FF"/>
<path d="M-0.5 57C2.25304 54.093 5.00607 51.1183 7.82794 48.2113L8.86032 47.1296L9.89271 46.0479L11.9575 43.8845L16.1559 39.5578L20.4231 35.231L22.4879 33.0676L23.5891 31.9859L24.6215 30.9718C27.4433 28.0648 30.2652 25.2254 33.1559 22.3859C30.4028 25.3606 27.6498 28.2676 24.8968 31.1747L23.7955 32.2563L22.7632 33.338L20.6984 35.5014L16.5 39.8282L12.3016 44.1549L10.168 46.3183L9.0668 47.4L8.03441 48.4817C5.21255 51.3211 2.39069 54.1606 -0.5 57Z" fill="#85E9FF"/>
<path fill-rule="evenodd" clip-rule="evenodd" d="M56.0749 22.3183V31.8507L65.4352 22.2507V22.1155C65.4352 16.707 62.6134 12.7859 58.415 10.6901L51.6012 17.7211C54.1478 17.9239 56.0749 19.4789 56.0749 22.3183ZM45.9575 35.231V23.5352L36.5972 33.2028V35.4338C36.5972 40.2338 38.7996 43.8845 42.2409 46.0479L48.7105 39.3549C47.0587 38.7465 45.9575 37.3944 45.9575 35.231Z" fill="url(#paint1_linear_4471_7487)"/>
<path d="M44.6499 23.6704C44.6499 20.5606 46.7835 19.0057 49.743 19.0057C49.8806 19.0057 50.0871 19.0057 50.2936 19.0057L57.1073 12.0423C54.9049 10.9606 52.4272 10.4197 49.743 10.4197C41.7592 10.4197 35.2207 15.2197 35.2207 23.4V34.555L44.6499 24.8197V23.6704Z" fill="white"/>
<path d="M54.6988 33.1352V36.5831C54.6988 39.5578 52.4963 41.1127 49.7433 41.1127C48.8486 41.1127 48.0915 40.9775 47.4032 40.707L40.9336 47.3324C43.3425 48.8873 46.3708 49.7662 49.7433 49.7662C57.6583 49.7662 64.0591 44.9662 64.0591 36.7183V23.5352L54.6988 33.1352Z" fill="white"/>
<path d="M32.0542 37.8C34.3255 35.2986 36.6655 32.8648 38.9368 30.4986L39.8315 29.5521L40.6574 28.6732L42.3781 26.8479L45.8882 23.2648L49.3983 19.6817L51.119 17.8563L52.0137 16.9775L52.9085 16.0986C55.2485 13.7324 57.5886 11.3662 59.9975 9C57.7263 11.4338 55.455 13.8676 53.1838 16.3014L52.289 17.2479L51.3943 18.1268L49.6736 19.9521L46.2323 23.5352L42.7222 27.1183L40.9327 28.9437L40.1068 29.8225L39.2121 30.7014C36.872 33.0676 34.4631 35.4338 32.0542 37.8Z" fill="#85E9FF"/>
<path d="M35.0825 53.3493C37.6979 50.5099 40.3821 47.6704 43.0663 44.8986L44.0987 43.8169L45.0623 42.8028L47.0582 40.707L51.119 36.5155L55.1797 32.3915L57.2445 30.2958L58.2768 29.2817L59.3092 28.2676C61.9934 25.4958 64.7465 22.7239 67.4995 20.0197C64.8841 22.8592 62.1999 25.631 59.5157 28.4704L58.4833 29.4845L57.5198 30.5662L55.455 32.662L51.4631 36.7859L47.4024 40.9775L45.3376 43.0056L44.3052 44.0873L43.2728 45.1014C40.5886 47.8732 37.8356 50.5775 35.0825 53.3493Z" fill="#85E9FF"/>
<path fill-rule="evenodd" clip-rule="evenodd" d="M33.4369 47.662C33.7911 47.662 34.1454 47.7324 34.3579 47.8733L31.8073 50.5493C31.5948 50.2676 31.5239 49.9155 31.5239 49.5634C31.5239 48.5071 32.3741 47.662 33.4369 47.662ZM35.1373 48.5775C35.3498 48.8592 35.4207 49.2113 35.4207 49.5634C35.4207 50.6902 34.5705 51.5352 33.4369 51.5352C33.1535 51.5352 32.7992 51.4648 32.5158 51.324L35.1373 48.5775Z" fill="white"/>
<path d="M30.4614 51.9578C30.674 51.6761 30.8865 51.4648 31.0991 51.2535C31.5242 50.831 31.9493 50.338 32.3744 49.9155L33.0829 49.2113L33.7205 48.507C34.1456 48.0845 34.5707 47.662 34.9958 47.169C35.2792 46.9578 35.4918 46.7465 35.7043 46.5352C35.7752 46.5352 35.7752 46.5352 35.7043 46.5352C35.4918 46.8169 35.2792 47.0282 35.0667 47.2394C34.6416 47.7324 34.2165 48.1549 33.7914 48.6479L33.1537 49.2817L32.5161 49.9859L31.8076 50.6901C31.595 50.9014 31.3825 51.1127 31.1699 51.324C30.9574 51.5352 30.7448 51.7465 30.5323 52.0282H30.4614C30.4614 51.9578 30.4614 51.9578 30.4614 51.9578ZM31.1699 52.5916C31.4533 52.3803 31.6659 52.0986 31.8076 51.8873C32.3035 51.4648 32.7286 50.9718 33.1537 50.5493L33.7914 49.8451L34.429 49.2113C34.8541 48.7183 35.3501 48.2958 35.7752 47.8028C35.9877 47.5916 36.2003 47.3803 36.4128 47.169H36.4837C36.4837 47.169 36.4837 47.169 36.4837 47.2394C36.2711 47.4507 36.0586 47.662 35.846 47.8732C35.4209 48.3662 34.9958 48.7887 34.4999 49.2817L33.8622 49.9859L33.2246 50.6197L32.5869 51.324C32.3744 51.5352 32.1618 51.7465 31.8784 51.9578C31.6659 52.169 31.4533 52.4507 31.2408 52.662C31.2408 52.662 31.2408 52.662 31.1699 52.662V52.5916Z" fill="#85E9FF"/>
<path d="M30.4614 51.9578C30.674 51.6761 30.8865 51.4648 31.0991 51.2535C31.5242 50.831 31.9493 50.338 32.3744 49.9155L33.0829 49.2113L33.7205 48.507C34.1456 48.0845 34.5707 47.662 34.9958 47.169C35.2792 46.9578 35.4918 46.7465 35.7043 46.5352C35.7752 46.5352 35.7752 46.5352 35.7043 46.5352C35.4918 46.8169 35.2792 47.0282 35.0667 47.2394C34.6416 47.7324 34.2165 48.1549 33.7914 48.6479L33.1537 49.2817L32.5161 49.9859L31.8076 50.6901C31.595 50.9014 31.3825 51.1127 31.1699 51.324C30.9574 51.5352 30.7448 51.7465 30.5323 52.0282H30.4614C30.4614 51.9578 30.4614 51.9578 30.4614 51.9578ZM31.1699 52.5916C31.4533 52.3803 31.6659 52.0986 31.8076 51.8873C32.3035 51.4648 32.7286 50.9718 33.1537 50.5493L33.7914 49.8451L34.429 49.2113C34.8541 48.7183 35.3501 48.2958 35.7752 47.8028C35.9877 47.5916 36.2003 47.3803 36.4128 47.169H36.4837C36.4837 47.169 36.4837 47.169 36.4837 47.2394C36.2711 47.4507 36.0586 47.662 35.846 47.8732C35.4209 48.3662 34.9958 48.7887 34.4999 49.2817L33.8622 49.9859L33.2246 50.6197L32.5869 51.324C32.3744 51.5352 32.1618 51.7465 31.8784 51.9578C31.6659 52.169 31.4533 52.4507 31.2408 52.662C31.2408 52.662 31.2408 52.662 31.1699 52.662V52.5916Z" fill="#85E9FF"/>
</g>
<defs>
<linearGradient id="paint0_linear_4471_7487" x1="18.4266" y1="18.262" x2="28.0251" y2="28.0337" gradientUnits="userSpaceOnUse">
<stop stop-color="#011850"/>
<stop offset="0.0784314" stop-color="#044075"/>
<stop offset="0.109804" stop-color="#08699A"/>
<stop offset="0.180392" stop-color="#0C99C6"/>
<stop offset="0.380392" stop-color="#11C9F2"/>
<stop offset="0.517647" stop-color="#0EA0CD"/>
<stop offset="0.690196" stop-color="#0A77A7"/>
<stop offset="1" stop-color="#011850"/>
</linearGradient>
<linearGradient id="paint1_linear_4471_7487" x1="52.7024" y1="16.3014" x2="62.0969" y2="25.9342" gradientUnits="userSpaceOnUse">
<stop stop-color="#011850"/>
<stop offset="0.133333" stop-color="#0971A1"/>
<stop offset="0.509804" stop-color="#12CAF3"/>
<stop offset="0.87451" stop-color="#0A72A2"/>
<stop offset="1" stop-color="#021951"/>
</linearGradient>
<clipPath id="clip0_4471_7487">
<rect width="68" height="60" fill="white"/>
</clipPath>
</defs>
</svg>
