<svg width="62" height="37" viewBox="0 0 62 37" fill="none" xmlns="http://www.w3.org/2000/svg">
<path d="M13.5558 36.0349C10.9008 36.0349 8.58948 35.6233 6.65295 34.8318C4.56024 33.9769 2.93604 32.7104 1.78037 31.0639C0.593459 29.3858 0 27.3911 0 25.1431C0 22.895 0.593461 20.9953 1.8116 19.3488C2.40506 18.5256 3.15469 17.7974 3.99802 17.1641C3.49827 16.7208 3.09222 16.2142 2.7174 15.7076C2.65493 15.6443 2.68617 15.5493 2.74864 15.486C2.81111 15.4227 2.90481 15.4544 2.96727 15.5177C3.37332 16.0876 3.84184 16.5942 4.34159 17.0691C4.37282 17.1008 4.40406 17.1641 4.40406 17.1958C4.40406 17.2591 4.40406 17.2908 4.34159 17.3224C3.43579 17.9557 2.68617 18.6839 2.06148 19.5388C0.905801 21.1219 0.312345 23.0217 0.312345 25.1747C0.312345 27.3278 0.9058 29.2908 2.03024 30.9056C3.15468 32.5204 4.74764 33.7236 6.77788 34.5785C8.68319 35.3384 10.9633 35.75 13.5558 35.75C16.1482 35.75 18.4283 35.37 20.3649 34.5785C22.4263 33.7552 24.0505 32.5204 25.175 30.9056C25.2375 30.8423 25.3312 30.8106 25.3936 30.874C25.4561 30.9373 25.4873 31.0323 25.4249 31.0956C24.2692 32.742 22.6138 34.0085 20.4898 34.8634C18.522 35.655 16.2107 36.0349 13.587 36.0349H13.5558ZM13.5558 30.4623C10.8384 30.4623 8.74565 29.9241 7.37134 28.8792C6.12196 27.961 5.59097 26.8212 5.59097 25.2064C5.59097 23.5916 6.15319 22.5467 7.37134 21.6285C7.4338 21.5652 7.52751 21.5969 7.58998 21.6602C7.65245 21.7235 7.62121 21.8185 7.55874 21.8818C6.40307 22.7367 5.90331 23.7816 5.90331 25.2064C5.90331 26.6312 6.40307 27.771 7.55874 28.6259C8.90183 29.6391 10.9008 30.1457 13.5558 30.1457C16.2107 30.1457 18.3034 29.6391 19.6465 28.6259C19.7089 28.5626 19.8027 28.5943 19.8651 28.6576C19.9276 28.7209 19.8964 28.8159 19.8339 28.8792C18.4283 29.9241 16.3356 30.4623 13.5558 30.4623ZM13.5558 14.7578C13.4621 14.7578 13.3996 14.6945 13.3996 14.5995C13.3996 14.5045 13.4621 14.4412 13.5558 14.4412C15.8983 14.4412 17.6787 13.9979 18.8344 13.1113C19.8027 12.3831 20.2399 11.4965 20.2399 10.2617C20.2399 9.02687 19.8027 8.077 18.7719 7.3171C17.5538 6.43056 15.8046 5.95562 13.5558 5.95562C11.3069 5.95562 13.3996 5.89229 13.3996 5.79731C13.3996 5.70232 13.4621 5.639 13.5558 5.639C15.8983 5.639 17.7099 6.11393 18.9593 7.03214C20.0525 7.85537 20.5523 8.8369 20.5523 10.23C20.5523 11.6232 20.0838 12.5097 19.0218 13.333C17.8036 14.2512 15.9608 14.7261 13.5558 14.7261V14.7578ZM24.2379 4.94242C24.1755 4.94242 24.1442 4.94242 24.113 4.8791C23.051 3.39096 21.5518 2.25111 19.6777 1.49122C17.9286 0.76298 15.8671 0.414693 13.5558 0.414693C11.2444 0.414693 9.21417 0.76298 7.46504 1.49122C7.37133 1.52288 7.30887 1.49122 7.2464 1.39623C7.18393 1.30124 7.2464 1.23792 7.3401 1.17459C9.12046 0.446356 11.2132 0.0664062 13.5245 0.0664062C15.8359 0.0664062 17.9911 0.446356 19.7714 1.17459C21.708 1.96615 23.2384 3.13766 24.3316 4.65746C24.3941 4.72078 24.3629 4.81577 24.3004 4.8791C24.3004 4.8791 24.238 4.8791 24.2067 4.8791L24.2379 4.94242Z" fill="#7C82FF"/>
<path d="M13.556 33.5013C11.2134 33.5013 9.24567 33.153 7.59025 32.4881C5.96606 31.8231 4.68544 30.8416 3.81087 29.6068C2.93631 28.3403 2.49902 26.8521 2.49902 25.1424C2.49902 23.4326 2.93631 22.0394 3.81087 20.8363C4.68544 19.6331 5.93482 18.7149 7.59025 18.05C9.21444 17.4167 11.2134 17.1001 13.556 17.1001C15.8986 17.1001 17.8664 17.4167 19.5218 18.05C21.1772 18.6832 22.4578 19.6014 23.3324 20.8363C24.2382 22.0394 24.6755 23.4959 24.6755 25.1424C24.6755 26.7888 24.2382 28.3403 23.3637 29.6068C22.4891 30.8733 21.2085 31.8231 19.553 32.4881C17.8976 33.153 15.8986 33.5013 13.556 33.5013ZM13.556 32.678C16.8044 32.678 19.3344 32.0131 21.1148 30.6516C22.9264 29.3218 23.8009 27.4854 23.8009 25.174C23.8009 22.8627 22.8951 21.1529 21.1148 19.7914C19.3032 18.4616 16.8044 17.765 13.556 17.765C10.3076 17.765 7.84012 18.4299 6.05975 19.7914C4.27939 21.1212 3.37359 22.926 3.37359 25.174C3.37359 27.4221 4.27939 29.2901 6.05975 30.6516C7.84012 31.9815 10.3389 32.678 13.556 32.678ZM13.556 17.67C11.4321 17.67 9.62048 17.3851 8.15246 16.7835C6.68444 16.1819 5.52877 15.327 4.77915 14.2188C3.99828 13.1106 3.62347 11.8125 3.62347 10.2927C3.62347 8.77288 4.02951 7.34807 4.84161 6.20823C5.6537 5.06838 6.80938 4.18183 8.30864 3.54858C9.80789 2.947 11.557 2.63037 13.556 2.63037C15.555 2.63037 17.3666 2.947 18.8659 3.54858C20.3651 4.15017 21.5208 5.03672 22.3641 6.20823C23.2075 7.34807 23.6135 8.70956 23.6135 10.2927C23.6135 11.8758 23.2075 13.1106 22.4266 14.2188C21.6458 15.327 20.4901 16.1819 18.9908 16.7835C17.4916 17.3851 15.68 17.67 13.556 17.67ZM13.556 16.9735C16.4608 16.9735 18.7097 16.3719 20.3339 15.1687C21.9581 13.9655 22.739 12.3191 22.739 10.2927C22.739 8.26629 21.9269 6.52485 20.2714 5.32168C18.616 4.08684 16.3671 3.48526 13.556 3.48526C10.7449 3.48526 8.55851 4.08684 6.90309 5.32168C5.27889 6.55651 4.43556 8.20296 4.43556 10.261C4.43556 12.3191 5.24765 13.9339 6.84061 15.1687C8.43357 16.4035 10.6825 17.0051 13.556 17.0051V16.9735Z" fill="#74E0DA"/>
<path d="M32.7028 36.035C31.7658 36.035 30.86 35.655 30.1416 34.9268C30.0791 34.8634 30.0791 34.7685 30.1416 34.7051C30.204 34.6418 30.2977 34.6418 30.3602 34.7051C30.9849 35.3384 31.8282 35.7183 32.6716 35.7183C33.5149 35.7183 34.4519 35.3384 35.0766 34.6735C35.1391 34.6101 35.2328 34.6101 35.2953 34.6735C35.3577 34.7368 35.3577 34.8318 35.2953 34.8951C34.6081 35.6233 33.6711 36.035 32.6716 36.035H32.7028Z" fill="#7C82FF"/>
<path d="M32.7006 33.5019C32.4195 33.5019 32.1696 33.3752 31.9197 33.1536C31.7011 32.9319 31.5762 32.647 31.5762 32.362C31.5762 32.0771 31.7011 31.7604 31.9197 31.5388C32.1384 31.3172 32.4195 31.2222 32.7006 31.2222C32.9817 31.2222 33.2941 31.3172 33.5127 31.5388C33.7314 31.7604 33.8251 32.0137 33.8251 32.362C33.8251 32.7103 33.7314 32.9003 33.5127 33.1536C33.2941 33.3752 33.0442 33.5019 32.7006 33.5019Z" fill="#74E0DA"/>
<path d="M48.975 19.8238H47.4133C46.039 19.8238 44.9145 18.684 44.9145 17.2908V16.6259C44.9145 16.0877 45.1019 15.5177 45.4143 15.0745L52.1297 6.11399H40.1044C40.0107 6.11399 39.9482 6.05066 39.9482 5.95568C39.9482 5.86069 40.0107 5.79736 40.1044 5.79736H52.442C52.5045 5.79736 52.567 5.82903 52.567 5.89235C52.567 5.95568 52.567 6.019 52.567 6.05066L45.6641 15.2644C45.383 15.6444 45.2269 16.1193 45.2269 16.5943V17.2592C45.2269 18.494 46.1951 19.4755 47.4133 19.4755H48.975C49.0687 19.4755 49.1312 19.5389 49.1312 19.6339C49.1312 19.7288 49.0687 19.7922 48.975 19.7922V19.8238Z" fill="#7C82FF"/>
<path d="M49.5379 30.4624C47.6326 30.4624 45.9459 30.1458 44.5091 29.4809C43.1348 28.8477 42.1041 28.1194 41.5106 27.2962C41.4481 27.2329 41.4794 27.1379 41.5419 27.0746C41.6043 27.0112 41.698 27.0429 41.7605 27.1062C42.3227 27.8978 43.291 28.5944 44.6341 29.1959C46.0396 29.8292 47.695 30.1458 49.5379 30.1458C51.3807 30.1458 49.694 30.2091 49.694 30.3041C49.694 30.3991 49.6316 30.4624 49.5379 30.4624Z" fill="#7C82FF"/>
<path d="M49.537 36.0348C49.4433 36.0348 49.3809 35.9715 49.3809 35.8765C49.3809 35.7815 49.4433 35.7182 49.537 35.7182C52.0046 35.7182 54.1597 35.2749 55.9401 34.42C57.8142 33.5018 59.2509 32.2353 60.2504 30.5572C61.2187 28.9424 61.7185 27.0427 61.7185 24.953C61.7185 21.7551 60.594 19.1271 58.3764 17.1323C57.0021 15.8975 55.2217 15.0426 53.0353 14.5993C52.9416 14.5993 52.9104 14.5044 52.9104 14.4094C52.9104 14.3144 53.0041 14.2827 53.0978 14.2827C55.3154 14.7577 57.1582 15.6125 58.5638 16.9107C60.8439 18.9688 61.9996 21.6917 61.9996 24.9846C61.9996 28.2775 61.4998 29.0691 60.5003 30.7472C59.4696 32.457 58.0016 33.7868 56.065 34.7367C54.2534 35.6232 52.067 36.0665 49.537 36.0665V36.0348Z" fill="#7C82FF"/>
<path d="M60.7192 3.58083C60.6255 3.58083 60.563 3.5175 60.563 3.42252V2.7576C60.563 1.52277 59.5947 0.541234 58.3766 0.541234H40.1357C40.042 0.541234 39.9795 0.477909 39.9795 0.382922C39.9795 0.287934 40.042 0.224609 40.1357 0.224609H58.3766C59.7509 0.224609 60.8753 1.36446 60.8753 2.7576V3.42252C60.8753 3.5175 60.8129 3.58083 60.7192 3.58083Z" fill="#7C82FF"/>
<path d="M49.5378 33.502C47.2577 33.502 45.1962 33.0904 43.3534 32.2672C41.5106 31.444 40.105 30.4308 39.1992 29.1643L39.7614 28.5944C40.6048 29.7342 41.8854 30.6841 43.6345 31.4756C45.3836 32.2672 47.3514 32.6472 49.569 32.6472C51.7867 32.6472 54.8164 31.9506 56.3469 30.5574C57.8774 29.1643 58.6583 27.2962 58.6583 24.9532C58.6583 22.6102 57.8774 20.7421 56.3157 19.3489C54.754 17.9558 52.3177 17.2592 49.0068 17.2592H47.4451V16.5943L57.4401 3.26441L57.5338 3.58104H40.1675V2.75781H58.4084V3.42272L48.4134 16.7526L48.3197 16.436H48.9756C52.5363 16.436 55.1913 17.2275 56.9404 18.8107C58.6895 20.3938 59.5641 22.4518 59.5641 24.9848C59.5641 27.5178 59.1893 28.1511 58.4084 29.4492C57.6588 30.7474 56.5343 31.7289 55.0351 32.4572C53.5671 33.1854 51.7242 33.5337 49.569 33.5337L49.5378 33.502Z" fill="#74E0DA"/>
</svg>
