<svg width="24" height="24" viewBox="0 0 24 24" fill="none" xmlns="http://www.w3.org/2000/svg">
<path fill-rule="evenodd" clip-rule="evenodd" d="M13 6C13 5.44772 12.5523 5 12 5C11.4477 5 11 5.44771 11 6L11 13.5435L7.74265 10.2936C7.35168 9.90355 6.71616 9.90192 6.32319 10.29L6.29579 10.317C5.90282 10.7051 5.9012 11.3359 6.29217 11.726L11.2835 16.7058C11.4528 16.8748 11.668 16.9708 11.8895 16.994C11.9258 16.998 11.9626 17 12 17H6C5.44772 17 5 17.4477 5 18C5 18.5523 5.44772 19 6 19H18C18.5523 19 19 18.5523 19 18C19 17.4477 18.5523 17 18 17H12C12.0585 17 12.1158 16.995 12.1715 16.9853C12.3735 16.9531 12.5675 16.8594 12.7228 16.7044L17.7077 11.731C18.0987 11.3409 18.0971 10.7101 17.7041 10.3221L17.6767 10.295C17.2837 9.90696 16.6482 9.90859 16.2572 10.2987L13 13.5484L13 6Z" fill="#333333"/>
</svg>
