<svg width="24" height="24" viewBox="0 0 24 24" fill="none" xmlns="http://www.w3.org/2000/svg">
<rect x="1" y="1" width="22" height="22" rx="4" fill="#017737"/>
<path d="M10.201 10.2677C10.201 11.7141 10.9348 13.2744 12.5495 13.2744C13.7469 13.2744 14.9577 12.3395 14.9577 10.2465C14.9577 8.41139 14.0059 7.17945 12.5893 7.17945C11.435 7.17945 10.201 7.99032 10.201 10.2677ZM13.1582 4.5C16.0533 4.5 18 6.793 18 10.2063C18 13.5659 15.9493 15.9114 13.0176 15.9114C11.6198 15.9114 10.7245 15.3127 10.2564 14.8794C10.2597 14.9821 10.2619 15.0972 10.2619 15.22V19.7759H7.26275V7.63738C7.26275 7.4609 7.20631 7.40507 7.03145 7.40507H6V4.74684H8.51665C9.67537 4.74684 9.97196 5.33656 10.0284 5.79114C10.4988 5.26396 11.4738 4.5 13.1582 4.5Z" fill="white"/>
</svg>
