<svg width="189" height="28" viewBox="0 0 189 28" fill="none" xmlns="http://www.w3.org/2000/svg">
<rect x="0.125" width="28" height="28" rx="5" fill="#4C83CD"/>
<path d="M6.125 8.26534L12.6631 7.37763L12.6667 13.6651L6.13122 13.7023L6.125 8.26534ZM12.6604 14.3898L12.6658 20.6826L6.13033 19.7869V14.3473L12.6604 14.3898ZM13.4531 7.26157L22.1223 6V13.5854L13.4531 13.6536V7.26157ZM22.125 14.4492L22.1223 22L13.4531 20.7792L13.4407 14.435L22.125 14.4492Z" fill="white"/>
<rect x="40.125" width="28" height="28" rx="5" fill="#F4BB40"/>
<path d="M54.5562 4C54.4235 4 54.2866 4.00667 54.1462 4.0175C50.5283 4.29498 51.4878 8.02305 51.433 9.26546C51.3671 10.1762 51.1763 10.8937 50.5335 11.7828C49.776 12.6585 48.713 14.0743 48.2089 15.55C47.9709 16.2433 47.858 16.9532 47.9632 17.624C47.9239 17.6547 47.8915 17.693 47.8682 17.7365C47.6457 17.9599 47.4839 18.2373 47.3016 18.4356C47.1313 18.6015 46.8865 18.6582 46.6195 18.7689C46.3516 18.8822 46.0563 18.9931 45.88 19.3364C45.803 19.4931 45.7636 19.6639 45.767 19.8372C45.767 20.003 45.7901 20.1713 45.8141 20.2839C45.8637 20.6163 45.9134 20.8913 45.8475 21.0921C45.6352 21.6588 45.6087 22.0471 45.7576 22.3295C45.9065 22.6079 46.2155 22.7203 46.5613 22.8303C47.2554 22.997 48.196 22.9429 48.9364 23.3295C49.729 23.7186 50.5335 23.8885 51.1754 23.7211C51.6256 23.6252 52.0056 23.3353 52.2093 22.9336C52.7117 22.9312 53.262 22.7095 54.1437 22.6553C54.7419 22.607 55.4908 22.8779 56.3501 22.8212C56.3715 22.9336 56.404 22.987 56.4477 23.0995L56.4503 23.102C56.7849 23.7502 57.4029 24.0452 58.0627 23.9944C58.7227 23.9444 59.4254 23.5478 59.9945 22.9062C60.5346 22.2687 61.435 22.0029 62.0298 21.6538C62.3277 21.4879 62.5682 21.2629 62.5853 20.9429C62.605 20.6096 62.415 20.2663 61.9742 19.7955V19.7147L61.9716 19.7122C61.8261 19.5455 61.7577 19.2664 61.6824 18.9406C61.6096 18.6065 61.5265 18.2856 61.2612 18.069H61.2587C61.2081 18.024 61.1534 18.0132 61.0977 17.9565C61.0499 17.924 60.9934 17.9055 60.9351 17.9032C61.304 16.8382 61.161 15.7783 60.787 14.8251C60.3309 13.6502 59.5332 12.6269 58.9255 11.9228C58.2442 11.0853 57.5766 10.2921 57.5894 9.11547C57.6126 7.32226 57.7923 4.005 54.5562 4ZM55.009 6.8373H55.02C55.2023 6.8373 55.359 6.88896 55.5199 7.00229C55.6833 7.11478 55.8023 7.27893 55.8957 7.44642C55.9855 7.66224 56.0309 7.82889 56.0377 8.04971C56.0377 8.03305 56.0428 8.01638 56.0428 8.00055V8.08721C56.041 8.08154 56.0398 8.07566 56.0394 8.06971L56.036 8.04971C56.0343 8.25222 55.9906 8.45231 55.9076 8.638C55.8677 8.74248 55.8055 8.83759 55.7253 8.91715C55.701 8.90382 55.6759 8.89213 55.65 8.88216C55.5601 8.84466 55.4797 8.82883 55.406 8.77133C55.3453 8.74772 55.2827 8.72932 55.2187 8.71633C55.2606 8.66716 55.3427 8.6055 55.3744 8.55134C55.4197 8.44469 55.4446 8.33136 55.4497 8.21636V8.20053C55.4517 8.08736 55.434 7.97469 55.3975 7.86722C55.359 7.75473 55.311 7.69974 55.2409 7.58891C55.169 7.53392 55.098 7.47892 55.0123 7.47892H54.9987C54.919 7.47892 54.848 7.50392 54.7744 7.58891C54.6931 7.66609 54.6328 7.76172 54.599 7.86722C54.5535 7.9731 54.5274 8.08591 54.522 8.20053V8.21636C54.5237 8.29053 54.5288 8.36553 54.539 8.43885C54.3739 8.38303 54.1642 8.32636 54.0195 8.27053C54.0109 8.21561 54.0058 8.16023 54.0041 8.10471V8.08804C53.9973 7.86779 54.0411 7.64885 54.1325 7.44726C54.2027 7.26477 54.331 7.10895 54.5005 7.00312C54.647 6.89546 54.8254 6.83723 55.009 6.8373ZM52.4738 6.88646H52.5046C52.6261 6.88646 52.7357 6.92646 52.8461 6.99896C52.971 7.10645 53.072 7.23893 53.1405 7.38643C53.2176 7.55225 53.2612 7.72057 53.2715 7.94222V7.94556C53.2775 8.05721 53.2766 8.11304 53.2697 8.1672V8.23386C53.2441 8.23969 53.2218 8.24886 53.1987 8.25386C53.0687 8.29969 52.9642 8.36636 52.8623 8.42052C52.8727 8.34636 52.8735 8.27136 52.865 8.19803V8.18553C52.8547 8.07471 52.8316 8.01972 52.7947 7.90806C52.768 7.82313 52.7191 7.74645 52.6527 7.68557C52.6316 7.66689 52.6068 7.65255 52.58 7.64339C52.553 7.63423 52.5245 7.63043 52.496 7.63224H52.478C52.4173 7.63724 52.3668 7.6664 52.3189 7.74223C52.2643 7.80675 52.2287 7.88453 52.2162 7.96722C52.1929 8.0573 52.1863 8.15068 52.1965 8.24303V8.25469C52.2067 8.36719 52.2281 8.42219 52.2658 8.53301C52.3043 8.64467 52.3488 8.69966 52.407 8.75633C52.4164 8.76383 52.425 8.77133 52.4361 8.77633C52.3762 8.82383 52.336 8.83466 52.2855 8.88965C52.2534 8.91719 52.215 8.93665 52.1733 8.94632C52.0844 8.84201 52.0056 8.72986 51.938 8.61134C51.857 8.43623 51.812 8.24745 51.8053 8.05555C51.7912 7.86744 51.8144 7.67844 51.8738 7.49892C51.921 7.33519 52.0035 7.18319 52.116 7.05312C52.2256 6.94229 52.3386 6.88646 52.4738 6.88646ZM53.6472 8.30803C53.9305 8.30803 54.2737 8.36219 54.6871 8.6405C54.9379 8.80716 55.1347 8.86466 55.5883 9.03047H55.591C55.8092 9.1438 55.9376 9.25213 56 9.36295V9.2538C56.0307 9.31438 56.0479 9.38065 56.0503 9.44816C56.0526 9.5157 56.0402 9.58293 56.0137 9.64546C55.9085 9.90454 55.5721 10.1821 55.1031 10.3478V10.3495C54.8737 10.462 54.6743 10.627 54.4397 10.737C54.2035 10.8495 53.9365 10.9803 53.5736 10.9595C53.4433 10.9661 53.3129 10.9471 53.1902 10.9037C53.0953 10.8535 53.0033 10.7984 52.9146 10.7387C52.7477 10.6262 52.6039 10.462 52.3907 10.3512V10.3471H52.3865C52.0441 10.1421 51.8593 9.92039 51.7993 9.75462C51.7403 9.53131 51.795 9.36379 51.9645 9.25463C52.1563 9.14213 52.2897 9.02881 52.3779 8.97465C52.467 8.91299 52.5003 8.88965 52.5286 8.86549H52.5303V8.86299C52.6749 8.69466 52.9034 8.47218 53.2483 8.36219C53.3673 8.33219 53.5 8.30803 53.6472 8.30803ZM56.0428 10.0937C56.3501 11.2745 57.0674 12.9894 57.5287 13.821C57.7734 14.2659 58.2604 15.2034 58.4719 16.3408C58.6054 16.3366 58.7534 16.3558 58.911 16.3941C59.4638 15.0017 58.4437 13.5052 57.9789 13.0894C57.7897 12.9219 57.7803 12.8102 57.8736 12.8102C58.3777 13.2552 59.0419 14.1201 59.2824 15.1075C59.3928 15.5533 59.4185 16.0275 59.3004 16.4991C59.3577 16.5225 59.4159 16.5499 59.4758 16.5549C60.3591 16.9999 60.6852 17.3365 60.5286 17.8357V17.7999C60.4764 17.7973 60.4259 17.7999 60.3737 17.7999H60.3608C60.49 17.4107 60.205 17.1124 59.4493 16.7799C58.6661 16.4466 58.0405 16.4999 57.9335 17.1674C57.9275 17.2032 57.9233 17.2224 57.919 17.2799C57.8607 17.2991 57.8 17.3241 57.74 17.3332C57.372 17.5565 57.1735 17.8907 57.0613 18.3223C56.9501 18.7665 56.9159 19.2855 56.8859 19.8797V19.8822C56.868 20.1605 56.7396 20.5805 56.6129 21.0079C55.329 21.9012 53.5488 22.2895 52.0347 21.2862C51.9397 21.1247 51.8241 20.9755 51.6907 20.8422C51.6269 20.7384 51.5476 20.6446 51.4553 20.5639C51.611 20.5639 51.7446 20.5396 51.8533 20.508C51.9763 20.4524 52.0727 20.3527 52.122 20.2297C52.2144 20.0072 52.122 19.6489 51.8267 19.2605C51.5314 18.8715 51.0299 18.4315 50.2964 17.9932C49.7572 17.6607 49.4525 17.2682 49.3121 16.8299C49.1709 16.3849 49.1897 15.9259 49.2993 15.4592C49.509 14.5675 50.0465 13.701 50.3897 13.1569C50.4813 13.1027 50.4213 13.2693 50.0405 13.9685C49.7016 14.5942 49.0639 16.0492 49.936 17.1799C49.969 16.3549 50.1567 15.5427 50.4898 14.7834C50.9726 13.7185 51.9817 11.8636 52.0613 10.3937C52.1023 10.4237 52.247 10.5062 52.3086 10.562C52.4952 10.6728 52.6338 10.8395 52.8136 10.9495C52.9942 11.117 53.2218 11.2286 53.5633 11.2286C53.5967 11.2312 53.6275 11.2336 53.6583 11.2336C54.0101 11.2336 54.2823 11.122 54.5108 11.0103C54.759 10.8987 54.9567 10.732 55.1442 10.677H55.1484C55.5481 10.5645 55.864 10.3421 56.0428 10.0937ZM57.9138 17.5582C57.9455 18.059 58.2074 18.5956 58.6687 18.7056C59.172 18.8173 59.896 18.4282 60.2017 18.0682L60.3822 18.0607C60.6518 18.054 60.876 18.069 61.1071 18.2832L61.1097 18.2856C61.2877 18.4515 61.3707 18.7281 61.4444 19.0156C61.5171 19.3498 61.5762 19.6655 61.7944 19.9039C62.2104 20.343 62.3465 20.6588 62.3388 20.8538L62.3414 20.8488V20.8638L62.3388 20.8538C62.326 21.0721 62.1804 21.1838 61.9126 21.3496C61.3734 21.6837 60.4182 21.9429 59.8097 22.6579C59.2807 23.2719 58.6362 23.6069 58.067 23.6502C57.4987 23.6944 57.0083 23.4836 56.7199 22.902L56.7156 22.8995C56.5358 22.5653 56.6129 22.0454 56.7635 21.4912C56.9141 20.9346 57.1298 20.3705 57.1598 19.9097C57.1914 19.3148 57.2248 18.7973 57.3267 18.3982C57.4294 18.0107 57.5903 17.734 57.8753 17.5782L57.9138 17.5599V17.5582ZM48.6574 17.599H48.6659C48.7113 17.599 48.7558 17.6032 48.8003 17.6107C49.1221 17.6565 49.4046 17.8882 49.6759 18.2373L50.4547 19.6239L50.4573 19.6264C50.6653 20.0705 51.1027 20.513 51.475 20.9913C51.8464 21.4896 52.134 21.9337 52.0989 22.2995V22.3045C52.0501 22.9245 51.689 23.2612 51.136 23.3828C50.584 23.4952 49.835 23.3845 49.0862 22.9962C48.2577 22.5495 47.2734 22.6053 46.6409 22.4945C46.3251 22.4395 46.1179 22.327 46.0221 22.1604C45.9271 21.9945 45.9254 21.6595 46.1274 21.1355V21.1329L46.1291 21.1305C46.2292 20.8522 46.1547 20.503 46.106 20.198C46.0589 19.8639 46.0349 19.6072 46.1428 19.4147C46.2797 19.1364 46.4817 19.0822 46.7325 18.9706C46.985 18.8581 47.2811 18.8023 47.5165 18.5798H47.5182V18.5773C47.7373 18.354 47.899 18.0765 48.0899 17.879C48.2525 17.7115 48.4151 17.599 48.6574 17.599ZM54.7847 10.0379C54.4123 10.2054 53.9759 10.4837 53.5111 10.4837C53.0472 10.4837 52.6809 10.2612 52.4164 10.0954C52.2838 9.98377 52.1768 9.87208 52.0963 9.81623C51.956 9.70462 51.9731 9.53793 52.033 9.53793C52.1263 9.55123 52.1434 9.65046 52.2033 9.70546C52.2855 9.76039 52.3873 9.87123 52.5123 9.98293C52.7613 10.1495 53.0943 10.3721 53.5103 10.3721C53.9253 10.3721 54.4115 10.1495 54.7068 9.98377C54.8737 9.87123 55.0877 9.70546 55.2614 9.59462C55.395 9.48046 55.389 9.37129 55.5002 9.37129C55.6107 9.38462 55.5293 9.48293 55.3744 9.64877C55.1846 9.78854 54.9874 9.9187 54.7838 10.0388V10.0379H54.7847ZM53.8586 8.718V8.69966C53.8535 8.68383 53.8697 8.66467 53.8834 8.658C53.9468 8.62217 54.0375 8.6355 54.106 8.66133C54.1599 8.66133 54.2429 8.71716 54.2343 8.77383C54.2292 8.81466 54.1616 8.82883 54.1188 8.82883C54.0717 8.82883 54.04 8.79299 53.9981 8.77216C53.9537 8.75716 53.8732 8.7655 53.8586 8.718ZM53.387 8.718C53.3699 8.76633 53.2903 8.75883 53.245 8.77299C53.2047 8.79383 53.1713 8.82966 53.126 8.82966C53.0823 8.82966 53.0139 8.81383 53.0087 8.77299C53.001 8.718 53.084 8.66217 53.1371 8.66217C53.2064 8.63633 53.2946 8.623 53.3588 8.658C53.375 8.6655 53.3896 8.683 53.3844 8.69966V8.71716H53.387V8.718Z" fill="white"/>
<rect x="80.125" width="28.875" height="28" rx="5" fill="black"/>
<path fill-rule="evenodd" clip-rule="evenodd" d="M99.4137 16.3176C99.8152 15.6936 99.9646 15.3778 100.277 14.6717C98.0089 13.796 97.6441 10.5234 99.8894 9.26791C99.2031 8.39643 98.2425 7.89136 97.3342 7.89136C96.6788 7.89136 96.23 8.06521 95.8221 8.2232C95.4824 8.35478 95.1711 8.47536 94.7925 8.47536C94.3835 8.47536 94.0213 8.34326 93.6418 8.20489C93.2245 8.05272 92.7864 7.89296 92.2425 7.89296C91.2228 7.89296 90.1367 8.52656 89.4505 9.60551C88.4805 11.1271 88.6462 13.9869 90.2157 16.4269C90.777 17.2968 91.5265 18.2766 92.5054 18.2856C92.9118 18.2898 93.1823 18.1671 93.475 18.0343C93.8101 17.8822 94.1743 17.717 94.805 17.7138C95.4407 17.7087 95.7995 17.8763 96.1309 18.031C96.4155 18.164 96.6799 18.2874 97.0822 18.284C98.0612 18.2766 98.8529 17.1891 99.4137 16.3176ZM97.0707 4.71426C97.1909 5.53774 96.8596 6.34521 96.4227 6.91749C95.9554 7.53136 95.1505 8.00443 94.3728 7.97883C94.2302 7.19162 94.596 6.37774 95.0371 5.83001C95.5242 5.2284 96.3578 4.76386 97.0707 4.71426ZM85.3467 23.2167H84.5625L84.5625 20.1699H85.3152V20.6988H85.331C85.4759 20.3452 85.8286 20.1124 86.2821 20.1124C86.7545 20.1124 87.0915 20.3337 87.2144 20.7247H87.2332C87.3939 20.3481 87.7907 20.1124 88.2726 20.1124C88.9309 20.1124 89.3624 20.5177 89.3624 21.127V23.2167H88.5782V21.3023C88.5782 20.9287 88.364 20.716 87.9797 20.716C87.6018 20.716 87.3435 20.9689 87.3435 21.334V23.2167H86.5814V21.265C86.5814 20.9258 86.3546 20.716 85.9892 20.716C85.6113 20.716 85.3467 20.9833 85.3467 21.3512V23.2167ZM90.5121 22.317C90.5121 22.5671 90.7389 22.7252 91.079 22.7252C91.5231 22.7252 91.8789 22.455 91.8789 22.0871V21.8542L91.1074 21.8974C90.7294 21.9204 90.5121 22.0756 90.5121 22.317ZM91.8821 22.731C91.69 23.0615 91.2711 23.2656 90.8428 23.2656C90.1971 23.2656 89.7279 22.8947 89.7279 22.3457C89.7279 21.8054 90.1846 21.4806 90.9971 21.4346L91.879 21.3886V21.1701C91.879 20.8511 91.6428 20.6671 91.2554 20.6671C90.8838 20.6671 90.6476 20.831 90.5971 21.0839H89.8696C89.9043 20.5148 90.4365 20.1067 91.2869 20.1067C92.1152 20.1067 92.6538 20.5062 92.6538 21.1184V23.2167H91.8979V22.731H91.8821ZM94.6161 20.1067C95.4979 20.1067 96.0428 20.6154 96.0963 21.2564L95.3561 21.2562C95.2931 20.9315 95.0444 20.6872 94.6255 20.6872C94.131 20.6872 93.8129 21.0666 93.8129 21.6932C93.8129 22.3313 94.1341 22.6992 94.6318 22.6992C95.0286 22.6992 95.2869 22.4922 95.3593 22.1473H96.0994C96.0365 22.8286 95.4601 23.277 94.6224 23.277C93.646 23.277 93.0161 22.6821 93.0161 21.6932C93.0161 20.7189 93.646 20.1067 94.6161 20.1067ZM96.361 21.1443C96.361 19.825 97.1925 19 98.5184 19C99.8413 19 100.673 19.825 100.673 21.1443C100.673 22.4637 99.8412 23.2857 98.5184 23.2857C97.1924 23.2857 96.361 22.4637 96.361 21.1443ZM99.8444 21.1443C99.8444 20.2187 99.3279 19.6324 98.5184 19.6324C97.7059 19.6324 97.1925 20.2187 97.1925 21.1443C97.1925 22.067 97.7059 22.6534 98.5184 22.6534C99.3279 22.6534 99.8444 22.067 99.8444 21.1443ZM102.77 23.2857C101.725 23.2857 101.038 22.8144 101.003 22.0497H101.791C101.841 22.4321 102.26 22.6821 102.815 22.6821C103.362 22.6821 103.744 22.435 103.744 22.09C103.744 21.7911 103.511 21.6186 102.937 21.495L102.348 21.3685C101.511 21.1932 101.114 20.8252 101.114 20.2332C101.114 19.4973 101.816 19 102.805 19C103.807 19 104.468 19.4945 104.487 20.2245H103.712C103.674 19.8365 103.318 19.6037 102.799 19.6037C102.285 19.6037 101.939 19.8337 101.939 20.1785C101.939 20.4545 102.169 20.6155 102.726 20.7362L103.249 20.8454C104.172 21.038 104.562 21.3857 104.562 22.0037C104.562 22.7913 103.87 23.2857 102.77 23.2857Z" fill="white"/>
<rect x="121" width="28" height="28" rx="5" fill="#A8D546"/>
<path d="M141.879 11.0123C141.137 11.0123 140.655 11.495 140.655 12.2604V17.1043C140.655 17.7559 141.184 18.34 141.934 18.34C142.591 18.34 143.097 17.6958 143.097 17.1043L143.096 12.2604C143.096 11.495 142.62 11.0123 141.879 11.0123ZM128.094 11.0542C127.353 11.0542 126.903 11.5132 126.903 12.2786V17.1043C126.903 17.6635 127.46 18.3275 128.094 18.3275C128.844 18.3275 129.331 17.8401 129.331 17.1043V12.2786C129.332 11.5505 128.843 11.0529 128.094 11.0542ZM137.617 6.06215L138.422 4.5575C138.446 4.51466 138.461 4.46741 138.467 4.4185C138.472 4.36959 138.469 4.31999 138.456 4.27259C138.443 4.22518 138.421 4.18091 138.391 4.14236C138.361 4.1038 138.325 4.07173 138.283 4.04799C138.241 4.02372 138.195 4.00824 138.148 4.00246C138.1 3.99669 138.052 4.00073 138.006 4.01434C137.96 4.02796 137.917 4.05089 137.88 4.08178C137.843 4.11269 137.812 4.15095 137.789 4.19433L136.962 5.73368C136.345 5.47893 135.666 5.33476 134.948 5.33476C134.231 5.33476 133.552 5.47785 132.935 5.7326L132.108 4.19542C132.085 4.15203 132.054 4.11377 132.017 4.08287C131.979 4.05197 131.937 4.02904 131.891 4.01543C131.845 4.00181 131.797 3.99777 131.749 4.00355C131.702 4.00933 131.656 4.0248 131.614 4.04907C131.573 4.07302 131.536 4.10521 131.506 4.14379C131.477 4.18237 131.455 4.22659 131.442 4.27392C131.429 4.32124 131.425 4.37075 131.431 4.41959C131.437 4.46844 131.451 4.51567 131.475 4.55857L132.28 6.06324C130.83 6.91747 130.151 8.39671 130.151 10.1431C130.151 10.155 130.151 10.1659 130.153 10.18C130.151 10.1865 130.158 9.88491 130.151 10.2006V10.2016L139.85 10.181V10.18V10.1594V10.1225C139.851 8.3761 139.067 6.91855 137.617 6.06215ZM132.63 8.71371C132.582 8.71335 132.535 8.70329 132.491 8.68408C132.447 8.66488 132.407 8.63691 132.374 8.60177C132.306 8.53082 132.268 8.435 132.269 8.33537C132.27 8.23576 132.309 8.1405 132.377 8.07056C132.446 8.00063 132.539 7.96174 132.635 7.96246C132.731 7.96318 132.824 8.00345 132.891 8.0744C132.959 8.14535 132.996 8.24117 132.996 8.3408C132.995 8.44042 132.956 8.53567 132.888 8.60561C132.819 8.67555 132.726 8.71443 132.63 8.71371ZM137.327 8.71371C137.236 8.70652 137.15 8.66388 137.088 8.59433C137.026 8.52478 136.991 8.43346 136.991 8.33863C136.991 8.2438 137.026 8.15247 137.088 8.08293C137.15 8.01338 137.236 7.97074 137.327 7.96355C137.424 7.96355 137.516 8.00306 137.584 8.0734C137.652 8.14374 137.69 8.23915 137.69 8.33863C137.69 8.43811 137.652 8.53351 137.584 8.60385C137.516 8.67419 137.424 8.71371 137.327 8.71371ZM130.151 18.7422C130.151 19.4426 130.701 20.0117 131.382 20.0117L131.76 20.0106V22.6134C131.76 22.9811 131.901 23.3338 132.153 23.5938C132.404 23.8539 132.64 23.9999 132.996 23.9999C133.352 23.9999 133.544 23.8549 133.796 23.5949C134.047 23.3349 134.189 22.9822 134.189 22.6145V20.0117H135.783V22.6145C135.783 23.3809 136.349 23.9999 137.088 23.9999C137.832 23.9999 138.219 23.3809 138.219 22.6145V20.0117H138.619C139.299 20.0117 139.85 19.4436 139.85 18.7422V11.0542H130.151V18.7422Z" fill="white"/>
<rect x="161" width="28" height="28" rx="5" fill="#333333"/>
<path d="M165.09 18.8001H166.75V11.7601H165.09V18.8001ZM165.92 10.8401C166.04 10.8428 166.159 10.8215 166.271 10.7774C166.382 10.7334 166.484 10.6675 166.569 10.5837C166.655 10.4999 166.723 10.3997 166.77 10.2892C166.816 10.1787 166.84 10.06 166.84 9.94014C166.84 9.44009 166.44 9.04008 165.92 9.04008C165.8 9.03742 165.681 9.05873 165.569 9.10276C165.458 9.1468 165.356 9.21268 165.271 9.29652C165.185 9.38035 165.117 9.48046 165.07 9.59102C165.024 9.70157 165 9.82022 165 9.94014C165 10.4401 165.4 10.8401 165.92 10.8401ZM172.25 9.06009C169.46 9.06009 167.7 10.9601 167.7 14.0001C167.7 17.0601 169.46 18.9601 172.25 18.9601C175.04 18.9601 176.8 17.0601 176.8 14.0001C176.8 10.9601 175.04 9.06009 172.25 9.06009ZM172.25 10.5001C173.96 10.5001 175.05 11.8701 175.05 14.0001C175.05 16.1501 173.96 17.5001 172.25 17.5001C170.54 17.5001 169.46 16.1501 169.46 14.0001C169.46 11.8701 170.54 10.5001 172.25 10.5001ZM177.5 16.1101C177.57 17.8701 179 18.9601 181.22 18.9601C183.54 18.9601 185 17.8201 185 16.0001C185 14.5701 184.18 13.7701 182.23 13.3201L181.13 13.0701C179.95 12.7901 179.47 12.4201 179.47 11.7801C179.47 11.0001 180.2 10.4501 181.28 10.4501C182.38 10.4501 183.13 11.0001 183.21 11.8901H184.84C184.8 10.2001 183.41 9.06009 181.29 9.06009C179.21 9.06009 177.73 10.2101 177.73 11.9101C177.73 13.2801 178.56 14.1301 180.33 14.5301L181.57 14.8201C182.78 15.1101 183.27 15.5001 183.27 16.2001C183.27 17.0001 182.47 17.5701 181.31 17.5701C180.15 17.5701 179.26 17.0001 179.16 16.1101H177.5Z" fill="white"/>
</svg>
